<svg xmlns="http://www.w3.org/2000/svg" width="428.6724548339844" height="386.4546813964844" viewBox="-579.7200927734375 -104.62718963623047 428.6724548339844 386.4546813964844"><title>Neo4j Graph Visualization</title><desc>Created using Neo4j (http://www.neo4j.com/)</desc><g class="layer relationships"><g class="relationship" transform="translate(-359.5858701888544 252.8274866275931) rotate(318.7252264509622)"><path class="b-outline" fill="#A5ABB6" stroke="none" d="M 25 0.5 L 82.29248705671354 0.5 L 82.29248705671354 -0.5 L 25 -0.5 Z M 137.93701830671353 0.5 L 195.22950536342708 0.5 L 195.22950536342708 3.5 L 202.22950536342708 0 L 195.22950536342708 -3.5 L 195.22950536342708 -0.5 L 137.93701830671353 -0.5 Z"/><text text-anchor="middle" pointer-events="none" font-size="8px" fill="#000000" x="110.11475268171354" y="3" font-family="Helvetica Neue, Helvetica, Arial, sans-serif">LOCATED_IN</text></g><g class="relationship" transform="translate(-547.1979607659265 99.87812785304997) rotate(359.6231707659458)"><path class="b-outline" fill="#A5ABB6" stroke="none" d="M 25 0.5 L 35.80396393075267 0.5 L 35.80396393075267 -0.5 L 25 -0.5 Z M 141.69458893075267 0.5 L 152.49855286150535 0.5 L 152.49855286150535 3.5 L 159.49855286150535 0 L 152.49855286150535 -3.5 L 152.49855286150535 -0.5 L 141.69458893075267 -0.5 Z"/><text text-anchor="middle" pointer-events="none" font-size="8px" fill="#000000" x="88.74927643075267" y="3" font-family="Helvetica Neue, Helvetica, Arial, sans-serif">PARTICIPATED_IN_EVENT</text></g><g class="relationship" transform="translate(-360.575610817403 -74.33377810582563) rotate(450.7046714337023)"><path class="b-outline" fill="#A5ABB6" stroke="none" d="M 25 0.5 L 56.220628246011316 0.5 L 56.220628246011316 -0.5 L 25 -0.5 Z M 109.79094074601132 0.5 L 141.01156899202263 0.5 L 141.01156899202263 3.5 L 148.01156899202263 0 L 141.01156899202263 -3.5 L 141.01156899202263 -0.5 L 109.79094074601132 -0.5 Z"/><text text-anchor="middle" pointer-events="none" font-size="8px" fill="#000000" x="83.00578449601132" y="3" transform="rotate(180 83.00578449601132 0)" font-family="Helvetica Neue, Helvetica, Arial, sans-serif">HAS_EVENT</text></g><g class="relationship" transform="translate(-359.5858701888544 252.8274866275931) rotate(358.0762910521694)"><path class="b-outline" fill="#A5ABB6" stroke="none" d="M 25 0.5 L 46.11660701424546 0.5 L 46.11660701424546 -0.5 L 25 -0.5 Z M 126.52285701424546 0.5 L 147.63946402849092 0.5 L 147.63946402849092 3.5 L 154.63946402849092 0 L 147.63946402849092 -3.5 L 147.63946402849092 -0.5 L 126.52285701424546 -0.5 Z"/><text text-anchor="middle" pointer-events="none" font-size="8px" fill="#000000" x="86.31973201424546" y="3" font-family="Helvetica Neue, Helvetica, Arial, sans-serif">IS_ALLOCATED_TO</text></g><g class="relationship" transform="translate(-547.1979607659265 99.87812785304997) rotate(451.4258345130795)"><path class="b-outline" fill="#A5ABB6" stroke="none" d="M 25 0.5 L 51.83078798797874 0.5 L 51.83078798797874 -0.5 L 25 -0.5 Z M 82.71750673797874 0.5 L 109.54829472595748 0.5 L 109.54829472595748 3.5 L 116.54829472595748 0 L 109.54829472595748 -3.5 L 109.54829472595748 -0.5 L 82.71750673797874 -0.5 Z"/><text text-anchor="middle" pointer-events="none" font-size="8px" fill="#000000" x="67.27414736297874" y="3" transform="rotate(180 67.27414736297874 0)" font-family="Helvetica Neue, Helvetica, Arial, sans-serif">OWNS</text></g><g class="relationship" transform="translate(-362.70339820226275 98.6647060665111) rotate(361.4053515960498)"><path class="b-outline" fill="#A5ABB6" stroke="none" d="M 25 0.5 L 49.8710581800252 0.5 L 49.8710581800252 -0.5 L 25 -0.5 Z M 117.0741831800252 0.5 L 141.9452413600504 0.5 L 141.9452413600504 3.5 L 148.9452413600504 0 L 141.9452413600504 -3.5 L 141.9452413600504 -0.5 L 117.0741831800252 -0.5 Z"/><text text-anchor="middle" pointer-events="none" font-size="8px" fill="#000000" x="83.4726206800252" y="3" font-family="Helvetica Neue, Helvetica, Arial, sans-serif">HAS_LOCATION</text></g><g class="relationship" transform="translate(-360.575610817403 -74.33377810582563) rotate(180.3984506195747)"><path class="b-outline" fill="#A5ABB6" stroke="none" d="M 25 0.5 L 38.47735897230493 0.5 L 38.47735897230493 -0.5 L 25 -0.5 Z M 140.51251522230493 0.5 L 153.98987419460985 0.5 L 153.98987419460985 3.5 L 160.98987419460985 0 L 153.98987419460985 -3.5 L 153.98987419460985 -0.5 L 140.51251522230493 -0.5 Z"/><text text-anchor="middle" pointer-events="none" font-size="8px" fill="#000000" x="89.49493709730493" y="3" transform="rotate(180 89.49493709730493 0)" font-family="Helvetica Neue, Helvetica, Arial, sans-serif">SESSION_USES_DEVICE</text></g><g class="relationship" transform="translate(-546.5609876142156 -75.62719245337391) rotate(450.2079464767726)"><path class="b-outline" fill="#A5ABB6" stroke="none" d="M 25 0.5 L 62.57940997858287 0.5 L 62.57940997858287 -0.5 L 25 -0.5 Z M 105.92706622858287 0.5 L 143.50647620716575 0.5 L 143.50647620716575 3.5 L 150.50647620716575 0 L 143.50647620716575 -3.5 L 143.50647620716575 -0.5 L 105.92706622858287 -0.5 Z"/><text text-anchor="middle" pointer-events="none" font-size="8px" fill="#000000" x="84.25323810358287" y="3" transform="rotate(180 84.25323810358287 0)" font-family="Helvetica Neue, Helvetica, Arial, sans-serif">USED_BY</text></g><g class="relationship" transform="translate(-362.70339820226275 98.6647060665111) rotate(448.84150471055403)"><path class="b-outline" fill="#A5ABB6" stroke="none" d="M 25 0.5 L 53.70066520142518 0.5 L 53.70066520142518 -0.5 L 25 -0.5 Z M 93.49363395142518 0.5 L 122.19429915285036 0.5 L 122.19429915285036 3.5 L 129.19429915285036 0 L 122.19429915285036 -3.5 L 122.19429915285036 -0.5 L 93.49363395142518 -0.5 Z"/><text text-anchor="middle" pointer-events="none" font-size="8px" fill="#000000" x="73.59714957642518" y="3" font-family="Helvetica Neue, Helvetica, Arial, sans-serif">USES_IP</text></g></g><g class="layer nodes"><g class="node" aria-label="graph-node-180" transform="translate(-550.7200982599961,241.38259522881657)"><circle class="b-outline" cx="0" cy="0" r="25" fill="#F79767" stroke="#f36924" stroke-width="2px"/><text class="caption" text-anchor="middle" pointer-events="none" x="0" y="5" font-size="10px" fill="#FFFFFF" font-family="Helvetica Neue, Helvetica, Arial, sans-serif"> Account</text></g><g class="node" aria-label="graph-node-184" transform="translate(-546.5609876142156,-75.62719245337391)"><circle class="b-outline" cx="0" cy="0" r="25" fill="#F16667" stroke="#eb2728" stroke-width="2px"/><text class="caption" text-anchor="middle" pointer-events="none" x="0" y="5" font-size="10px" fill="#FFFFFF" font-family="Helvetica Neue, Helvetica, Arial, sans-serif"> Device</text></g><g class="node" aria-label="graph-node-186" transform="translate(-359.5858701888544,252.8274866275931)"><circle class="b-outline" cx="0" cy="0" r="25" fill="#D9C8AE" stroke="#c0a378" stroke-width="2px"/><text class="caption" text-anchor="middle" pointer-events="none" x="0" y="5" font-size="10px" fill="#2A2C34" font-family="Helvetica Neue, Helvetica, Arial, sans-serif"> IP</text></g><g class="node" aria-label="graph-node-187" transform="translate(-180.04764902434368,246.7972148653329)"><circle class="b-outline" cx="0" cy="0" r="25" fill="#8DCC93" stroke="#5db665" stroke-width="2px"/><text class="caption" text-anchor="middle" pointer-events="none" x="0" y="5" font-size="10px" fill="#2A2C34" font-family="Helvetica Neue, Helvetica, Arial, sans-serif"> ISP</text></g><g class="node" aria-label="graph-node-188" transform="translate(-362.70339820226275,98.6647060665111)"><circle class="b-outline" cx="0" cy="0" r="25" fill="#ECB5C9" stroke="#da7298" stroke-width="2px"/><text class="caption" text-anchor="middle" pointer-events="none" x="0" y="5" font-size="10px" fill="#2A2C34" font-family="Helvetica Neue, Helvetica, Arial, sans-serif"> Event</text></g><g class="node" aria-label="graph-node-181" transform="translate(-547.1979607659265,99.87812785304997)"><circle class="b-outline" cx="0" cy="0" r="25" fill="#4C8EDA" stroke="#2870c2" stroke-width="2px"/><text class="caption" text-anchor="middle" pointer-events="none" x="0" y="5" font-size="10px" fill="#FFFFFF" font-family="Helvetica Neue, Helvetica, Arial, sans-serif"> Person</text></g><g class="node" aria-label="graph-node-183" transform="translate(-360.575610817403,-74.33377810582563)"><circle class="b-outline" cx="0" cy="0" r="25" fill="#FFC454" stroke="#d7a013" stroke-width="2px"/><text class="caption" text-anchor="middle" pointer-events="none" x="0" y="5" font-size="10px" fill="#2A2C34" font-family="Helvetica Neue, Helvetica, Arial, sans-serif"> Session</text></g><g class="node" aria-label="graph-node-185" transform="translate(-188.81047898246175,102.93080932615561)"><circle class="b-outline" cx="0" cy="0" r="25" fill="#DA7194" stroke="#cc3c6c" stroke-width="2px"/><text class="caption" text-anchor="middle" pointer-events="none" x="0" y="5" font-size="10px" fill="#FFFFFF" font-family="Helvetica Neue, Helvetica, Arial, sans-serif"> Location</text></g></g></svg>