<svg xmlns="http://www.w3.org/2000/svg" width="332.5998229980469" height="566.7435913085938" viewBox="-165.3295440673828 -291.2310485839844 332.5998229980469 566.7435913085938"><title>Neo4j Graph Visualization</title><desc>Created using Neo4j (http://www.neo4j.com/)</desc><g class="layer relationships"><g class="relationship" transform="translate(-101.20553511213069 86.38077821267348) rotate(424.11730351699015)"><path class="b-outline" fill="#A5ABB6" stroke="none" d="M 25 0.5 L 58.7075944014377 0.5 L 58.7075944014377 -0.5 L 25 -0.5 Z M 112.2779069014377 0.5 L 145.9855013028754 0.5 L 145.9855013028754 3.5 L 152.9855013028754 0 L 145.9855013028754 -3.5 L 145.9855013028754 -0.5 L 112.2779069014377 -0.5 Z"/><text text-anchor="middle" pointer-events="none" font-size="8px" fill="#000000" x="85.4927506514377" y="3" font-family="Helvetica Neue, Helvetica, Arial, sans-serif">HAS_EVENT</text></g><g class="relationship" transform="translate(23.824220328005104 78.14623446266975) rotate(281.22792467504)"><path class="b-outline" fill="#A5ABB6" stroke="none" d="M 25 0.5 L 39.851365208577334 0.5 L 39.851365208577334 -0.5 L 25 -0.5 Z M 120.25761520857733 0.5 L 135.10898041715467 0.5 L 135.10898041715467 3.5 L 142.10898041715467 0 L 135.10898041715467 -3.5 L 135.10898041715467 -0.5 L 120.25761520857733 -0.5 Z"/><text text-anchor="middle" pointer-events="none" font-size="8px" fill="#000000" x="80.05449020857733" y="3" font-family="Helvetica Neue, Helvetica, Arial, sans-serif">IS_ALLOCATED_TO</text></g><g class="relationship" transform="translate(-23.509506608657958 246.5124922134404) rotate(319.61849022000536)"><path class="b-outline" fill="#A5ABB6" stroke="none" d="M 25 0.5 L 69.08834618597123 0.5 L 69.08834618597123 -0.5 L 25 -0.5 Z M 136.29147118597123 0.5 L 180.37981737194247 0.5 L 180.37981737194247 3.5 L 187.37981737194247 0 L 180.37981737194247 -3.5 L 180.37981737194247 -0.5 L 136.29147118597123 -0.5 Z"/><text text-anchor="middle" pointer-events="none" font-size="8px" fill="#000000" x="102.68990868597123" y="3" font-family="Helvetica Neue, Helvetica, Arial, sans-serif">HAS_LOCATION</text></g><g class="relationship" transform="translate(-136.32954007507075 -262.231059633666) rotate(447.0043046691077)"><path class="b-outline" fill="#A5ABB6" stroke="none" d="M 25 0.5 L 30.615330220657583 0.5 L 30.615330220657583 -0.5 L 25 -0.5 Z M 132.6504864706576 0.5 L 138.26581669131517 0.5 L 138.26581669131517 3.5 L 145.26581669131517 0 L 138.26581669131517 -3.5 L 138.26581669131517 -0.5 L 132.6504864706576 -0.5 Z"/><text text-anchor="middle" pointer-events="none" font-size="8px" fill="#000000" x="81.63290834565758" y="3" font-family="Helvetica Neue, Helvetica, Arial, sans-serif">SESSION_USES_DEVICE</text></g><g class="relationship" transform="translate(-127.43129041827666 -92.19791731545233) rotate(441.6453627621172)"><path class="b-outline" fill="#A5ABB6" stroke="none" d="M 25 0.5 L 65.0732504120708 0.5 L 65.0732504120708 -0.5 L 25 -0.5 Z M 108.4209066620708 0.5 L 148.4941570741416 0.5 L 148.4941570741416 3.5 L 155.4941570741416 0 L 148.4941570741416 -3.5 L 148.4941570741416 -0.5 L 108.4209066620708 -0.5 Z"/><text text-anchor="middle" pointer-events="none" font-size="8px" fill="#000000" x="86.7470785370708" y="3" font-family="Helvetica Neue, Helvetica, Arial, sans-serif">USED_BY</text></g><g class="relationship" transform="translate(-23.509506608657958 246.5124922134404) rotate(285.70255656202335)"><path class="b-outline" fill="#A5ABB6" stroke="none" d="M 25 0.5 L 64.0501828781228 0.5 L 64.0501828781228 -0.5 L 25 -0.5 Z M 103.8431516281228 0.5 L 142.8933345062456 0.5 L 142.8933345062456 3.5 L 149.8933345062456 0 L 142.8933345062456 -3.5 L 142.8933345062456 -0.5 L 103.8431516281228 -0.5 Z"/><text text-anchor="middle" pointer-events="none" font-size="8px" fill="#000000" x="83.9466672531228" y="3" font-family="Helvetica Neue, Helvetica, Arial, sans-serif">USES_IP</text></g></g><g class="layer nodes"><g class="node" aria-label="graph-node-122" transform="translate(-127.43129041827666,-92.19791731545233)"><circle class="b-outline" cx="0" cy="0" r="25" fill="#57C7E3" stroke="#23b3d7" stroke-width="2px"/><text class="caption" text-anchor="middle" pointer-events="none" x="0" y="5" font-size="10px" fill="#2A2C34" font-family="Helvetica Neue, Helvetica, Arial, sans-serif"> Device</text></g><g class="node" aria-label="graph-node-124" transform="translate(23.824220328005104,78.14623446266975)"><circle class="b-outline" cx="0" cy="0" r="25" fill="#F16667" stroke="#eb2728" stroke-width="2px"/><text class="caption" text-anchor="middle" pointer-events="none" x="0" y="5" font-size="10px" fill="#FFFFFF" font-family="Helvetica Neue, Helvetica, Arial, sans-serif"> IP</text></g><g class="node" aria-label="graph-node-125" transform="translate(56.36241491452222,-85.76434246606578)"><circle class="b-outline" cx="0" cy="0" r="25" fill="#D9C8AE" stroke="#c0a378" stroke-width="2px"/><text class="caption" text-anchor="middle" pointer-events="none" x="0" y="5" font-size="10px" fill="#2A2C34" font-family="Helvetica Neue, Helvetica, Arial, sans-serif"> ISP</text></g><g class="node" aria-label="graph-node-126" transform="translate(-23.509506608657958,246.5124922134404)"><circle class="b-outline" cx="0" cy="0" r="25" fill="#8DCC93" stroke="#5db665" stroke-width="2px"/><text class="caption" text-anchor="middle" pointer-events="none" x="0" y="5" font-size="10px" fill="#2A2C34" font-family="Helvetica Neue, Helvetica, Arial, sans-serif"> Event</text></g><g class="node" aria-label="graph-node-119" transform="translate(-101.20553511213069,86.38077821267348)"><circle class="b-outline" cx="0" cy="0" r="25" fill="#ECB5C9" stroke="#da7298" stroke-width="2px"/><text class="caption" text-anchor="middle" pointer-events="none" x="0" y="5" font-size="10px" fill="#2A2C34" font-family="Helvetica Neue, Helvetica, Arial, sans-serif"> Person</text></g><g class="node" aria-label="graph-node-121" transform="translate(-136.32954007507075,-262.231059633666)"><circle class="b-outline" cx="0" cy="0" r="25" fill="#4C8EDA" stroke="#2870c2" stroke-width="2px"/><text class="caption" text-anchor="middle" pointer-events="none" x="0" y="5" font-size="10px" fill="#FFFFFF" font-family="Helvetica Neue, Helvetica, Arial, sans-serif"> Session</text></g><g class="node" aria-label="graph-node-123" transform="translate(138.27027261585292,108.91710762148489)"><circle class="b-outline" cx="0" cy="0" r="25" fill="#FFC454" stroke="#d7a013" stroke-width="2px"/><text class="caption" text-anchor="middle" pointer-events="none" x="0" y="5" font-size="10px" fill="#2A2C34" font-family="Helvetica Neue, Helvetica, Arial, sans-serif"> Location</text></g></g></svg>