<svg xmlns="http://www.w3.org/2000/svg" width="1383" height="1156" viewBox="0 0 1383 1156"><defs><style type="text/css"/></defs><g transform="translate(103.0703125 421.45680618594315) scale(1)"><g class="relationship"><g transform="translate(129 23.019546532169347) rotate(-20.482378434744437)" stroke-width="5" stroke="#000000"><path d="M 59 0 L 348.68467668056434 0"/><polygon points="-24.8621506177483,0 -27.62461179749811,9.20820393249937 0,0 -27.62461179749811,-9.20820393249937" fill="#000000" transform="translate(373.5468272983126 0) rotate(0)" stroke="none"/></g><g transform="translate(319.95539569350854 -48.30881918280865) rotate(-20.482378434744437) translate(0 -13)"><g transform="translate(0 0)"><g transform="translate(-65.453125 0)" fill="#ffffff" stroke="#000000" stroke-width="0"><rect x="0" y="0" width="130.90625" height="26" rx="5" ry="5" stroke="none"/><text xml:space="preserve" x="5" y="17.45703125" stroke="none" text-anchor="left" font-family="sans-serif" font-size="16" font-weight="normal" fill="#000000">HAS_ACCOUNT</text></g></g></g></g><g class="relationship"><g transform="translate(129 23.019546532169347) rotate(34.311626366131584)" stroke-width="5" stroke="#000000"><path d="M 59 0 L 400.4087735306074 0"/><polygon points="-24.8621506177483,0 -27.62461179749811,9.20820393249937 0,0 -27.62461179749811,-9.20820393249937" fill="#000000" transform="translate(425.2709241483557 0) rotate(0)" stroke="none"/></g><g transform="translate(318.73213159081513 152.50245482986645) rotate(34.311626366131584) translate(0 -13)"><g transform="translate(0 0)"><g transform="translate(-65.453125 0)" fill="#ffffff" stroke="#000000" stroke-width="0"><rect x="0" y="0" width="130.90625" height="26" rx="5" ry="5" stroke="none"/><text xml:space="preserve" x="5" y="17.45703125" stroke="none" text-anchor="left" font-family="sans-serif" font-size="16" font-weight="normal" fill="#000000">HAS_ACCOUNT</text></g></g></g></g><g class="relationship"><g transform="translate(133.24277689612865 437.89474756003045) rotate(-19.72478147671841)" stroke-width="5" stroke="#000000"><path d="M 59 0 L 336.5637037537594 0"/><polygon points="-24.8621506177483,0 -27.62461179749811,9.20820393249937 0,0 -27.62461179749811,-9.20820393249937" fill="#000000" transform="translate(361.4258543715077 0) rotate(0)" stroke="none"/></g><g transform="translate(319.4197107484625 371.14289190648554) rotate(-19.72478147671841) translate(0 -13)"><g transform="translate(0 0)"><g transform="translate(-65.453125 0)" fill="#ffffff" stroke="#000000" stroke-width="0"><rect x="0" y="0" width="130.90625" height="26" rx="5" ry="5" stroke="none"/><text xml:space="preserve" x="5" y="17.45703125" stroke="none" text-anchor="left" font-family="sans-serif" font-size="16" font-weight="normal" fill="#000000">HAS_ACCOUNT</text></g></g></g></g><g class="relationship"><g transform="translate(133.24277689612865 437.89474756003045) rotate(17.504027407930838)" stroke-width="5" stroke="#000000"><path d="M 59 0 L 336.56370375376065 0"/><polygon points="-24.8621506177483,0 -27.62461179749811,9.20820393249937 0,0 -27.62461179749811,-9.20820393249937" fill="#000000" transform="translate(361.42585437150893 0) rotate(0)" stroke="none"/></g><g transform="translate(321.866500586577 497.3821562529431) rotate(17.504027407930838) translate(0 -13)"><g transform="translate(0 0)"><g transform="translate(-65.453125 0)" fill="#ffffff" stroke="#000000" stroke-width="0"><rect x="0" y="0" width="130.90625" height="26" rx="5" ry="5" stroke="none"/><text xml:space="preserve" x="5" y="17.45703125" stroke="none" text-anchor="left" font-family="sans-serif" font-size="16" font-weight="normal" fill="#000000">HAS_ACCOUNT</text></g></g></g></g><g class="relationship"><g transform="translate(150.63300228806 680.1618170106465) rotate(-16.801141725108078)" stroke-width="5" stroke="#000000"><path d="M 59 0 L 316.80916091794046 0"/><polygon points="-24.8621506177483,0 -27.62461179749811,9.20820393249937 0,0 -27.62461179749811,-9.20820393249937" fill="#000000" transform="translate(341.67131153568874 0) rotate(0)" stroke="none"/></g><g transform="translate(330.51663856546844 625.8478339392619) rotate(-16.801141725108078) translate(0 -13)"><g transform="translate(0 0)"><g transform="translate(-65.453125 0)" fill="#ffffff" stroke="#000000" stroke-width="0"><rect x="0" y="0" width="130.90625" height="26" rx="5" ry="5" stroke="none"/><text xml:space="preserve" x="5" y="17.45703125" stroke="none" text-anchor="left" font-family="sans-serif" font-size="16" font-weight="normal" fill="#000000">HAS_ACCOUNT</text></g></g></g></g><g class="relationship"><g transform="translate(534.2011531816235 -128.3369309179841) rotate(-24.114490119408256)" stroke-width="5" stroke="#000000"><path d="M 58.695178092152055 -5.989663490593891 L 95.96898050729243 -9.793341079425122 A 40 40 0 0 1 100.02976931447472 -10 L 216.2734136491563 -10 L 332.5170579838379 -10 A 40 40 0 0 1 336.57784679102025 -9.79334107942512 L 349.1179482186581 -8.51366206436971 L 349.1179482186581 -8.51366206436971"/><polygon points="-24.8621506177483,0 -27.62461179749811,9.20820393249937 0,0 -27.62461179749811,-9.20820393249937" fill="#000000" transform="translate(432.5468272983126 0) rotate(5.826689442008371) translate(-59 0)" stroke="none"/></g><g transform="translate(727.5149635572977 -225.82518749023453) rotate(-24.114490119408256) translate(0 -13)"><g transform="translate(0 0)"><g transform="translate(-50.3359375 0)" fill="#ffffff" stroke="#000000" stroke-width="0"><rect x="0" y="0" width="100.671875" height="26" rx="5" ry="5" stroke="none"/><text xml:space="preserve" x="5" y="17.45703125" stroke="none" text-anchor="left" font-family="sans-serif" font-size="16" font-weight="normal" fill="#000000">PERFORMS</text></g></g></g></g><g class="relationship"><g transform="translate(929 -305.0588264394965) rotate(155.88550988059174)" stroke-width="5" stroke="#000000"><path d="M 58.695178092152055 -5.989663490593891 L 95.96898050729243 -9.793341079425122 A 40 40 0 0 1 100.02976931447472 -10 L 216.2734136491563 -10 L 332.5170579838379 -10 A 40 40 0 0 1 336.57784679102025 -9.79334107942512 L 349.1179482186581 -8.51366206436971 L 349.1179482186581 -8.51366206436971"/><polygon points="-24.8621506177483,0 -27.62461179749811,9.20820393249937 0,0 -27.62461179749811,-9.20820393249937" fill="#000000" transform="translate(432.5468272983126 0) rotate(5.826689442008371) translate(-59 0)" stroke="none"/></g><g transform="translate(735.6861896243257 -207.57056986724606) rotate(335.8855098805917) translate(0 -13)"><g transform="translate(0 0)"><g transform="translate(-59.53515625 0)" fill="#ffffff" stroke="#000000" stroke-width="0"><rect x="0" y="0" width="119.0703125" height="26" rx="5" ry="5" stroke="none"/><text xml:space="preserve" x="5" y="17.45703125" stroke="none" text-anchor="left" font-family="sans-serif" font-size="16" font-weight="normal" fill="#000000">BENEFITS_TO</text></g></g></g></g><g class="relationship"><g transform="translate(534.2011531816235 -128.3369309179841) rotate(3.9034846430728094)" stroke-width="5" stroke="#000000"><path d="M 58.695178092152055 -5.989663490593891 L 95.96898050729243 -9.793341079425122 A 40 40 0 0 1 100.02976931447472 -10 L 197.85842718036182 -10 L 295.6870850462489 -10 A 40 40 0 0 1 299.74787385343126 -9.79334107942512 L 312.2879752810691 -8.51366206436971 L 312.2879752810691 -8.51366206436971"/><polygon points="-24.8621506177483,0 -27.62461179749811,9.20820393249937 0,0 -27.62461179749811,-9.20820393249937" fill="#000000" transform="translate(395.71685436072363 0) rotate(5.826689442008371) translate(-59 0)" stroke="none"/></g><g transform="translate(732.2813362727679 -124.84432832604642) rotate(3.9034846430728094) translate(0 -13)"><g transform="translate(0 0)"><g transform="translate(-50.3359375 0)" fill="#ffffff" stroke="#000000" stroke-width="0"><rect x="0" y="0" width="100.671875" height="26" rx="5" ry="5" stroke="none"/><text xml:space="preserve" x="5" y="17.45703125" stroke="none" text-anchor="left" font-family="sans-serif" font-size="16" font-weight="normal" fill="#000000">PERFORMS</text></g></g></g></g><g class="relationship"><g transform="translate(929 -101.39812292605197) rotate(-176.09651535692717)" stroke-width="5" stroke="#000000"><path d="M 58.695178092152055 -5.989663490593891 L 95.96898050729243 -9.793341079425122 A 40 40 0 0 1 100.02976931447472 -10 L 197.85842718036182 -10 L 295.6870850462489 -10 A 40 40 0 0 1 299.74787385343126 -9.79334107942512 L 312.2879752810691 -8.51366206436971 L 312.2879752810691 -8.51366206436971"/><polygon points="-24.8621506177483,0 -27.62461179749811,9.20820393249937 0,0 -27.62461179749811,-9.20820393249937" fill="#000000" transform="translate(395.71685436072363 0) rotate(5.826689442008371) translate(-59 0)" stroke="none"/></g><g transform="translate(730.9198169088555 -104.89072551798967) rotate(3.903484643072811) translate(0 -13)"><g transform="translate(0 0)"><g transform="translate(-59.53515625 0)" fill="#ffffff" stroke="#000000" stroke-width="0"><rect x="0" y="0" width="119.0703125" height="26" rx="5" ry="5" stroke="none"/><text xml:space="preserve" x="5" y="17.45703125" stroke="none" text-anchor="left" font-family="sans-serif" font-size="16" font-weight="normal" fill="#000000">BENEFITS_TO</text></g></g></g></g><g class="relationship"><g transform="translate(534.2011531816235 -128.3369309179841) rotate(24.114490119408252)" stroke-width="5" stroke="#000000"><path d="M 58.695178092152055 -5.989663490593891 L 95.96898050729243 -9.793341079425122 A 40 40 0 0 1 100.02976931447472 -10 L 216.2734136491563 -10 L 332.5170579838379 -10 A 40 40 0 0 1 336.57784679102025 -9.79334107942512 L 349.1179482186581 -8.51366206436971 L 349.1179482186581 -8.51366206436971"/><polygon points="-24.8621506177483,0 -27.62461179749811,9.20820393249937 0,0 -27.62461179749811,-9.20820393249937" fill="#000000" transform="translate(432.5468272983126 0) rotate(5.826689442008371) translate(-59 0)" stroke="none"/></g><g transform="translate(735.6861896243257 -49.10329196872215) rotate(24.114490119408252) translate(0 -13)"><g transform="translate(0 0)"><g transform="translate(-50.3359375 0)" fill="#ffffff" stroke="#000000" stroke-width="0"><rect x="0" y="0" width="100.671875" height="26" rx="5" ry="5" stroke="none"/><text xml:space="preserve" x="5" y="17.45703125" stroke="none" text-anchor="left" font-family="sans-serif" font-size="16" font-weight="normal" fill="#000000">PERFORMS</text></g></g></g></g><g class="relationship"><g transform="translate(929 48.38496460352829) rotate(-155.88550988059174)" stroke-width="5" stroke="#000000"><path d="M 58.695178092152055 -5.989663490593891 L 95.96898050729243 -9.793341079425122 A 40 40 0 0 1 100.02976931447472 -10 L 216.2734136491563 -10 L 332.5170579838379 -10 A 40 40 0 0 1 336.57784679102025 -9.79334107942512 L 349.1179482186581 -8.51366206436971 L 349.1179482186581 -8.51366206436971"/><polygon points="-24.8621506177483,0 -27.62461179749811,9.20820393249937 0,0 -27.62461179749811,-9.20820393249937" fill="#000000" transform="translate(432.5468272983126 0) rotate(5.826689442008371) translate(-59 0)" stroke="none"/></g><g transform="translate(727.5149635572977 -30.848674345733656) rotate(24.11449011940825) translate(0 -13)"><g transform="translate(0 0)"><g transform="translate(-59.53515625 0)" fill="#ffffff" stroke="#000000" stroke-width="0"><rect x="0" y="0" width="119.0703125" height="26" rx="5" ry="5" stroke="none"/><text xml:space="preserve" x="5" y="17.45703125" stroke="none" text-anchor="left" font-family="sans-serif" font-size="16" font-weight="normal" fill="#000000">BENEFITS_TO</text></g></g></g></g><g class="relationship"><g transform="translate(529 296) rotate(0)" stroke-width="5" stroke="#000000"><path d="M 58.695178092152055 -5.989663490593891 L 95.96898050729243 -9.793341079425122 A 40 40 0 0 1 100.02976931447472 -10 L 200 -10 L 299.9702306855253 -10 A 40 40 0 0 1 304.0310194927076 -9.79334107942512 L 316.5711209203455 -8.51366206436971 L 316.5711209203455 -8.51366206436971"/><polygon points="-24.8621506177483,0 -27.62461179749811,9.20820393249937 0,0 -27.62461179749811,-9.20820393249937" fill="#000000" transform="translate(400 0) rotate(5.826689442008371) translate(-59 0)" stroke="none"/></g><g transform="translate(729 286) rotate(0) translate(0 -13)"><g transform="translate(0 0)"><g transform="translate(-50.3359375 0)" fill="#ffffff" stroke="#000000" stroke-width="0"><rect x="0" y="0" width="100.671875" height="26" rx="5" ry="5" stroke="none"/><text xml:space="preserve" x="5" y="17.45703125" stroke="none" text-anchor="left" font-family="sans-serif" font-size="16" font-weight="normal" fill="#000000">PERFORMS</text></g></g></g></g><g class="relationship"><g transform="translate(929 296) rotate(180)" stroke-width="5" stroke="#000000"><path d="M 58.695178092152055 -5.989663490593891 L 95.96898050729243 -9.793341079425122 A 40 40 0 0 1 100.02976931447472 -10 L 200 -10 L 299.9702306855253 -10 A 40 40 0 0 1 304.0310194927076 -9.79334107942512 L 316.5711209203455 -8.51366206436971 L 316.5711209203455 -8.51366206436971"/><polygon points="-24.8621506177483,0 -27.62461179749811,9.20820393249937 0,0 -27.62461179749811,-9.20820393249937" fill="#000000" transform="translate(400 0) rotate(5.826689442008371) translate(-59 0)" stroke="none"/></g><g transform="translate(729 306) rotate(360) translate(0 -13)"><g transform="translate(0 0)"><g transform="translate(-59.53515625 0)" fill="#ffffff" stroke="#000000" stroke-width="0"><rect x="0" y="0" width="119.0703125" height="26" rx="5" ry="5" stroke="none"/><text xml:space="preserve" x="5" y="17.45703125" stroke="none" text-anchor="left" font-family="sans-serif" font-size="16" font-weight="normal" fill="#000000">BENEFITS_TO</text></g></g></g></g><g class="relationship"><g transform="translate(534.2011531816235 564.3474245206737) rotate(0)" stroke-width="5" stroke="#000000"><path d="M 58.695178092152055 -5.989663490593891 L 95.96898050729243 -9.793341079425122 A 40 40 0 0 1 100.02976931447472 -10 L 200.33565576784434 -10 L 300.64154222121397 -10 A 40 40 0 0 1 304.7023310283963 -9.79334107942512 L 317.2424324560342 -8.51366206436971 L 317.2424324560342 -8.51366206436971"/><polygon points="-24.8621506177483,0 -27.62461179749811,9.20820393249937 0,0 -27.62461179749811,-9.20820393249937" fill="#000000" transform="translate(400.6713115356887 0) rotate(5.826689442008371) translate(-59 0)" stroke="none"/></g><g transform="translate(734.5368089494677 554.3474245206737) rotate(0) translate(0 -13)"><g transform="translate(0 0)"><g transform="translate(-50.3359375 0)" fill="#ffffff" stroke="#000000" stroke-width="0"><rect x="0" y="0" width="100.671875" height="26" rx="5" ry="5" stroke="none"/><text xml:space="preserve" x="5" y="17.45703125" stroke="none" text-anchor="left" font-family="sans-serif" font-size="16" font-weight="normal" fill="#000000">PERFORMS</text></g></g></g></g><g class="relationship"><g transform="translate(934.8724647173121 564.3474245206737) rotate(180)" stroke-width="5" stroke="#000000"><path d="M 58.695178092152055 -5.989663490593891 L 95.96898050729243 -9.793341079425122 A 40 40 0 0 1 100.02976931447472 -10 L 200.33565576784434 -10 L 300.64154222121397 -10 A 40 40 0 0 1 304.7023310283963 -9.79334107942512 L 317.2424324560342 -8.51366206436971 L 317.2424324560342 -8.51366206436971"/><polygon points="-24.8621506177483,0 -27.62461179749811,9.20820393249937 0,0 -27.62461179749811,-9.20820393249937" fill="#000000" transform="translate(400.6713115356887 0) rotate(5.826689442008371) translate(-59 0)" stroke="none"/></g><g transform="translate(734.5368089494677 574.3474245206737) rotate(360) translate(0 -13)"><g transform="translate(0 0)"><g transform="translate(-59.53515625 0)" fill="#ffffff" stroke="#000000" stroke-width="0"><rect x="0" y="0" width="119.0703125" height="26" rx="5" ry="5" stroke="none"/><text xml:space="preserve" x="5" y="17.45703125" stroke="none" text-anchor="left" font-family="sans-serif" font-size="16" font-weight="normal" fill="#000000">BENEFITS_TO</text></g></g></g></g><g class="node"><g fill="#ffffff" stroke="#000000" stroke-width="4"><circle cx="129" cy="23.019546532169347" r="52"/></g><g transform="translate(129 23.019546532169347)"><g transform="scale(0.385103906977165) translate(0 -27)"><g transform="translate(0 0)"><g transform="translate(-113.689453125 0)"><g fill="#ffffff" stroke="#000000" stroke-width="4"><rect x="0" y="0" width="227.37890625" height="54" rx="27" ry="27"/><text xml:space="preserve" x="27" y="38.142578125" stroke="none" font-family="sans-serif" font-size="40" font-weight="normal" fill="#000000">Customer</text></g></g></g></g><g transform="translate(-56 -9.599999999999993)"><g transform="translate(0 0)"><g transform="translate(-176.0703125 0)" fill="white"><rect x="0" y="0" width="176.0703125" height="19.2" rx="0" ry="0" stroke="none"/><g font-family="sans-serif" font-size="16" font-weight="normal" fill="#000000" text-anchor="end"><text xml:space="preserve" x="88.03125" y="14.05703125" stroke="none">customerId:</text><text xml:space="preserve" x="92.4765625" y="14.05703125" stroke="none" text-anchor="start">CUST_001</text></g></g></g></g></g></g><g class="node"><g fill="#ffffff" stroke="#000000" stroke-width="4"><circle cx="133.24277689612865" cy="437.89474756003045" r="52"/></g><g transform="translate(133.24277689612865 437.89474756003045)"><g transform="scale(0.385103906977165) translate(0 -27)"><g transform="translate(0 0)"><g transform="translate(-113.689453125 0)"><g fill="#ffffff" stroke="#000000" stroke-width="4"><rect x="0" y="0" width="227.37890625" height="54" rx="27" ry="27"/><text xml:space="preserve" x="27" y="38.142578125" stroke="none" font-family="sans-serif" font-size="40" font-weight="normal" fill="#000000">Customer</text></g></g></g></g><g transform="translate(-56 -9.599999999999993)"><g transform="translate(0 0)"><g transform="translate(-176.0703125 0)" fill="white"><rect x="0" y="0" width="176.0703125" height="19.2" rx="0" ry="0" stroke="none"/><g font-family="sans-serif" font-size="16" font-weight="normal" fill="#000000" text-anchor="end"><text xml:space="preserve" x="88.03125" y="14.05703125" stroke="none">customerId:</text><text xml:space="preserve" x="92.4765625" y="14.05703125" stroke="none" text-anchor="start">CUST_002</text></g></g></g></g></g></g><g class="node"><g fill="#ffffff" stroke="#000000" stroke-width="4"><circle cx="150.63300228806" cy="680.1618170106465" r="52"/></g><g transform="translate(150.63300228806 680.1618170106465)"><g transform="scale(0.385103906977165) translate(0 -27)"><g transform="translate(0 0)"><g transform="translate(-113.689453125 0)"><g fill="#ffffff" stroke="#000000" stroke-width="4"><rect x="0" y="0" width="227.37890625" height="54" rx="27" ry="27"/><text xml:space="preserve" x="27" y="38.142578125" stroke="none" font-family="sans-serif" font-size="40" font-weight="normal" fill="#000000">Customer</text></g></g></g></g><g transform="translate(-56 -9.599999999999993)"><g transform="translate(0 0)"><g transform="translate(-176.0703125 0)" fill="white"><rect x="0" y="0" width="176.0703125" height="19.2" rx="0" ry="0" stroke="none"/><g font-family="sans-serif" font-size="16" font-weight="normal" fill="#000000" text-anchor="end"><text xml:space="preserve" x="88.03125" y="14.05703125" stroke="none">customerId:</text><text xml:space="preserve" x="92.4765625" y="14.05703125" stroke="none" text-anchor="start">CUST_003</text></g></g></g></g></g></g><g class="node"><g fill="#ffffff" stroke="#000000" stroke-width="4"><circle cx="534.2011531816235" cy="-128.3369309179841" r="52"/></g><g transform="translate(534.2011531816235 -128.3369309179841)"><g transform="scale(0.4374364855992301) translate(0 -27)"><g transform="translate(0 0)"><g transform="translate(-99.265625 0)"><g fill="#ffffff" stroke="#000000" stroke-width="4"><rect x="0" y="0" width="198.53125" height="54" rx="27" ry="27"/><text xml:space="preserve" x="27" y="38.142578125" stroke="none" font-family="sans-serif" font-size="40" font-weight="normal" fill="#000000">Account</text></g></g></g></g><g transform="translate(3.429011037612589e-15 56)"><g transform="translate(0 0)"><g transform="translate(-100.05078125 0)" fill="white"><rect x="0" y="0" width="200.1015625" height="38.4" rx="0" ry="0" stroke="none"/><g font-family="sans-serif" font-size="16" font-weight="normal" fill="#000000" text-anchor="end"><text xml:space="preserve" x="121.8359375" y="14.05703125" stroke="none">accountId:</text><text xml:space="preserve" x="126.28125" y="14.05703125" stroke="none" text-anchor="start">ACC_001</text><text xml:space="preserve" x="121.8359375" y="33.25703125" stroke="none" text-anchor="end">accountNumber:</text><text xml:space="preserve" x="126.28125" y="33.25703125" stroke="none" text-anchor="start">1000001</text></g></g></g></g></g></g><g class="node"><g fill="#ffffff" stroke="#000000" stroke-width="4"><circle cx="529" cy="296" r="52"/></g><g transform="translate(529 296)"><g transform="scale(0.4374364855992301) translate(0 -27)"><g transform="translate(0 0)"><g transform="translate(-99.265625 0)"><g fill="#ffffff" stroke="#000000" stroke-width="4"><rect x="0" y="0" width="198.53125" height="54" rx="27" ry="27"/><text xml:space="preserve" x="27" y="38.142578125" stroke="none" font-family="sans-serif" font-size="40" font-weight="normal" fill="#000000">Account</text></g></g></g></g><g transform="translate(3.429011037612589e-15 56)"><g transform="translate(0 0)"><g transform="translate(-100.05078125 0)" fill="white"><rect x="0" y="0" width="200.1015625" height="38.4" rx="0" ry="0" stroke="none"/><g font-family="sans-serif" font-size="16" font-weight="normal" fill="#000000" text-anchor="end"><text xml:space="preserve" x="121.8359375" y="14.05703125" stroke="none">accountId:</text><text xml:space="preserve" x="126.28125" y="14.05703125" stroke="none" text-anchor="start">ACC_002</text><text xml:space="preserve" x="121.8359375" y="33.25703125" stroke="none" text-anchor="end">accountNumber:</text><text xml:space="preserve" x="126.28125" y="33.25703125" stroke="none" text-anchor="start">1000002</text></g></g></g></g></g></g><g class="node"><g fill="#ffffff" stroke="#000000" stroke-width="4"><circle cx="534.2011531816235" cy="564.3474245206737" r="52"/></g><g transform="translate(534.2011531816235 564.3474245206737)"><g transform="scale(0.4374364855992301) translate(0 -27)"><g transform="translate(0 0)"><g transform="translate(-99.265625 0)"><g fill="#ffffff" stroke="#000000" stroke-width="4"><rect x="0" y="0" width="198.53125" height="54" rx="27" ry="27"/><text xml:space="preserve" x="27" y="38.142578125" stroke="none" font-family="sans-serif" font-size="40" font-weight="normal" fill="#000000">Account</text></g></g></g></g><g transform="translate(3.429011037612589e-15 56)"><g transform="translate(0 0)"><g transform="translate(-100.05078125 0)" fill="white"><rect x="0" y="0" width="200.1015625" height="38.4" rx="0" ry="0" stroke="none"/><g font-family="sans-serif" font-size="16" font-weight="normal" fill="#000000" text-anchor="end"><text xml:space="preserve" x="121.8359375" y="14.05703125" stroke="none">accountId:</text><text xml:space="preserve" x="126.28125" y="14.05703125" stroke="none" text-anchor="start">ACC_003</text><text xml:space="preserve" x="121.8359375" y="33.25703125" stroke="none" text-anchor="end">accountNumber:</text><text xml:space="preserve" x="126.28125" y="33.25703125" stroke="none" text-anchor="start">1000003</text></g></g></g></g></g></g><g class="node"><g fill="#ffffff" stroke="#000000" stroke-width="4"><circle cx="929" cy="-305.0588264394965" r="52"/></g><g transform="translate(929 -305.0588264394965)"><g transform="scale(0.3370326420028396) translate(0 -27)"><g transform="translate(0 0)"><g transform="translate(-130.759765625 0)"><g fill="#ffffff" stroke="#000000" stroke-width="4"><rect x="0" y="0" width="261.51953125" height="54" rx="27" ry="27"/><text xml:space="preserve" x="27" y="38.142578125" stroke="none" font-family="sans-serif" font-size="40" font-weight="normal" fill="#000000">Transaction</text></g></g></g></g><g transform="translate(39.59797974644666 -116.39797974644665)"><g transform="translate(0 0)"><g transform="translate(0 0)" fill="white"><rect x="0" y="0" width="294.2265625" height="76.8" rx="0" ry="0" stroke="none"/><g font-family="sans-serif" font-size="16" font-weight="normal" fill="#000000" text-anchor="end"><text xml:space="preserve" x="100.5" y="14.05703125" stroke="none">transactionId:</text><text xml:space="preserve" x="104.9453125" y="14.05703125" stroke="none" text-anchor="start">TXN_001</text><text xml:space="preserve" x="100.5" y="33.25703125" stroke="none" text-anchor="end">amount:</text><text xml:space="preserve" x="104.9453125" y="33.25703125" stroke="none" text-anchor="start">3000.0</text><text xml:space="preserve" x="100.5" y="52.45703125" stroke="none" text-anchor="end">timestamp:</text><text xml:space="preserve" x="104.9453125" y="52.45703125" stroke="none" text-anchor="start">datetime()-duration('P2M')</text><text xml:space="preserve" x="100.5" y="71.65703125" stroke="none" text-anchor="end">type:</text><text xml:space="preserve" x="104.9453125" y="71.65703125" stroke="none" text-anchor="start">CASH_DEPOSIT</text></g></g></g></g></g></g><g class="node"><g fill="#ffffff" stroke="#000000" stroke-width="4"><circle cx="929" cy="-101.39812292605197" r="52"/></g><g transform="translate(929 -101.39812292605197)"><g transform="scale(0.3370326420028396) translate(0 -27)"><g transform="translate(0 0)"><g transform="translate(-130.759765625 0)"><g fill="#ffffff" stroke="#000000" stroke-width="4"><rect x="0" y="0" width="261.51953125" height="54" rx="27" ry="27"/><text xml:space="preserve" x="27" y="38.142578125" stroke="none" font-family="sans-serif" font-size="40" font-weight="normal" fill="#000000">Transaction</text></g></g></g></g><g transform="translate(56 -38.4)"><g transform="translate(0 0)"><g transform="translate(0 0)" fill="white"><rect x="0" y="0" width="294.2265625" height="76.8" rx="0" ry="0" stroke="none"/><g font-family="sans-serif" font-size="16" font-weight="normal" fill="#000000" text-anchor="end"><text xml:space="preserve" x="100.5" y="14.05703125" stroke="none">transactionId:</text><text xml:space="preserve" x="104.9453125" y="14.05703125" stroke="none" text-anchor="start">TXN_002</text><text xml:space="preserve" x="100.5" y="33.25703125" stroke="none" text-anchor="end">amount:</text><text xml:space="preserve" x="104.9453125" y="33.25703125" stroke="none" text-anchor="start">5000.0</text><text xml:space="preserve" x="100.5" y="52.45703125" stroke="none" text-anchor="end">timestamp:</text><text xml:space="preserve" x="104.9453125" y="52.45703125" stroke="none" text-anchor="start">datetime()-duration('P1M')</text><text xml:space="preserve" x="100.5" y="71.65703125" stroke="none" text-anchor="end">type:</text><text xml:space="preserve" x="104.9453125" y="71.65703125" stroke="none" text-anchor="start">CASH_DEPOSIT</text></g></g></g></g></g></g><g class="node"><g fill="#ffffff" stroke="#000000" stroke-width="4"><circle cx="929" cy="48.38496460352829" r="52"/></g><g transform="translate(929 48.38496460352829)"><g transform="scale(0.3370326420028396) translate(0 -27)"><g transform="translate(0 0)"><g transform="translate(-130.759765625 0)"><g fill="#ffffff" stroke="#000000" stroke-width="4"><rect x="0" y="0" width="261.51953125" height="54" rx="27" ry="27"/><text xml:space="preserve" x="27" y="38.142578125" stroke="none" font-family="sans-serif" font-size="40" font-weight="normal" fill="#000000">Transaction</text></g></g></g></g><g transform="translate(39.59797974644666 39.597979746446654)"><g transform="translate(0 0)"><g transform="translate(0 0)" fill="white"><rect x="0" y="0" width="232.9765625" height="76.8" rx="0" ry="0" stroke="none"/><g font-family="sans-serif" font-size="16" font-weight="normal" fill="#000000" text-anchor="end"><text xml:space="preserve" x="100.5" y="14.05703125" stroke="none">transactionId:</text><text xml:space="preserve" x="104.9453125" y="14.05703125" stroke="none" text-anchor="start">TXN_003</text><text xml:space="preserve" x="100.5" y="33.25703125" stroke="none" text-anchor="end">amount:</text><text xml:space="preserve" x="104.9453125" y="33.25703125" stroke="none" text-anchor="start">1000.0</text><text xml:space="preserve" x="100.5" y="52.45703125" stroke="none" text-anchor="end">timestamp:</text><text xml:space="preserve" x="104.9453125" y="52.45703125" stroke="none" text-anchor="start">datetime()</text><text xml:space="preserve" x="100.5" y="71.65703125" stroke="none" text-anchor="end">type:</text><text xml:space="preserve" x="104.9453125" y="71.65703125" stroke="none" text-anchor="start">CASH_DEPOSIT</text></g></g></g></g></g></g><g class="node"><g fill="#ffffff" stroke="#000000" stroke-width="4"><circle cx="929" cy="296" r="52"/></g><g transform="translate(929 296)"><g transform="scale(0.3370326420028396) translate(0 -27)"><g transform="translate(0 0)"><g transform="translate(-130.759765625 0)"><g fill="#ffffff" stroke="#000000" stroke-width="4"><rect x="0" y="0" width="261.51953125" height="54" rx="27" ry="27"/><text xml:space="preserve" x="27" y="38.142578125" stroke="none" font-family="sans-serif" font-size="40" font-weight="normal" fill="#000000">Transaction</text></g></g></g></g><g transform="translate(56 -38.4)"><g transform="translate(0 0)"><g transform="translate(0 0)" fill="white"><rect x="0" y="0" width="232.9765625" height="76.8" rx="0" ry="0" stroke="none"/><g font-family="sans-serif" font-size="16" font-weight="normal" fill="#000000" text-anchor="end"><text xml:space="preserve" x="100.5" y="14.05703125" stroke="none">transactionId:</text><text xml:space="preserve" x="104.9453125" y="14.05703125" stroke="none" text-anchor="start">TXN_004</text><text xml:space="preserve" x="100.5" y="33.25703125" stroke="none" text-anchor="end">amount:</text><text xml:space="preserve" x="104.9453125" y="33.25703125" stroke="none" text-anchor="start">4000.0</text><text xml:space="preserve" x="100.5" y="52.45703125" stroke="none" text-anchor="end">timestamp:</text><text xml:space="preserve" x="104.9453125" y="52.45703125" stroke="none" text-anchor="start">datetime()</text><text xml:space="preserve" x="100.5" y="71.65703125" stroke="none" text-anchor="end">type:</text><text xml:space="preserve" x="104.9453125" y="71.65703125" stroke="none" text-anchor="start">CASH_DEPOSIT</text></g></g></g></g></g></g><g class="node"><g fill="#ffffff" stroke="#000000" stroke-width="4"><circle cx="934.8724647173121" cy="564.3474245206737" r="52"/></g><g transform="translate(934.8724647173121 564.3474245206737)"><g transform="scale(0.3370326420028396) translate(0 -27)"><g transform="translate(0 0)"><g transform="translate(-130.759765625 0)"><g fill="#ffffff" stroke="#000000" stroke-width="4"><rect x="0" y="0" width="261.51953125" height="54" rx="27" ry="27"/><text xml:space="preserve" x="27" y="38.142578125" stroke="none" font-family="sans-serif" font-size="40" font-weight="normal" fill="#000000">Transaction</text></g></g></g></g><g transform="translate(56 -38.4)"><g transform="translate(0 0)"><g transform="translate(0 0)" fill="white"><rect x="0" y="0" width="232.9765625" height="76.8" rx="0" ry="0" stroke="none"/><g font-family="sans-serif" font-size="16" font-weight="normal" fill="#000000" text-anchor="end"><text xml:space="preserve" x="100.5" y="14.05703125" stroke="none">transactionId:</text><text xml:space="preserve" x="104.9453125" y="14.05703125" stroke="none" text-anchor="start">TXN_005</text><text xml:space="preserve" x="100.5" y="33.25703125" stroke="none" text-anchor="end">amount:</text><text xml:space="preserve" x="104.9453125" y="33.25703125" stroke="none" text-anchor="start">2000.0</text><text xml:space="preserve" x="100.5" y="52.45703125" stroke="none" text-anchor="end">timestamp:</text><text xml:space="preserve" x="104.9453125" y="52.45703125" stroke="none" text-anchor="start">datetime()</text><text xml:space="preserve" x="100.5" y="71.65703125" stroke="none" text-anchor="end">type:</text><text xml:space="preserve" x="104.9453125" y="71.65703125" stroke="none" text-anchor="start">CASH_DEPOSIT</text></g></g></g></g></g></g></g></svg>