<svg xmlns="http://www.w3.org/2000/svg" width="387.34173583984375" height="255.49916076660156" viewBox="-234.642822265625 -145.97393798828125 387.34173583984375 255.49916076660156"><title>Neo4j Graph Visualization</title><desc>Created using Neo4j (http://www.neo4j.com/)</desc><g class="layer relationships"><g class="relationship" transform="translate(-41.19815908352757 80.52521478661647) rotate(213.83304644895372)"><path class="b-outline" fill="#A5ABB6" stroke="none" d="M 25 0.5 L 74.92533188831425 0.5 L 74.92533188831425 -0.5 L 25 -0.5 Z M 116.04251938831425 0.5 L 165.9678512766285 0.5 L 165.9678512766285 3.5 L 172.9678512766285 0 L 165.9678512766285 -3.5 L 165.9678512766285 -0.5 L 116.04251938831425 -0.5 Z"/><text text-anchor="middle" pointer-events="none" font-size="8px" fill="#000000" x="95.48392563831425" y="3" transform="rotate(180 95.48392563831425 0)" font-family="Helvetica Neue, Helvetica, Arial, sans-serif">DEPOSIT</text></g><g class="relationship" transform="translate(-41.19815908352757 80.52521478661647) rotate(328.1062415361244)"><path class="b-outline" fill="#A5ABB6" stroke="none" d="M 25 0.5 L 73.05058376977163 0.5 L 73.05058376977163 -0.5 L 25 -0.5 Z M 114.16777126977163 0.5 L 162.21835503954327 0.5 L 162.21835503954327 3.5 L 169.21835503954327 0 L 162.21835503954327 -3.5 L 162.21835503954327 -0.5 L 114.16777126977163 -0.5 Z"/><text text-anchor="middle" pointer-events="none" font-size="8px" fill="#000000" x="93.60917751977163" y="3" font-family="Helvetica Neue, Helvetica, Arial, sans-serif">DEPOSIT</text></g><g class="relationship" transform="translate(-37.0054462791298 -18.035236591130037) rotate(358.55493382221334)"><path class="b-outline" fill="#A5ABB6" stroke="none" d="M 25 0.5 L 56.319144899609 0.5 L 56.319144899609 -0.5 L 25 -0.5 Z M 97.436332399609 0.5 L 128.755477299218 0.5 L 128.755477299218 3.5 L 135.755477299218 0 L 128.755477299218 -3.5 L 128.755477299218 -0.5 L 97.436332399609 -0.5 Z"/><text text-anchor="middle" pointer-events="none" font-size="8px" fill="#000000" x="76.877738649609" y="3" font-family="Helvetica Neue, Helvetica, Arial, sans-serif">DEPOSIT</text></g><g class="relationship" transform="translate(-37.0054462791298 -18.035236591130037) rotate(183.95631029318713)"><path class="b-outline" fill="#A5ABB6" stroke="none" d="M 25 0.5 L 60.46150997098887 0.5 L 60.46150997098887 -0.5 L 25 -0.5 Z M 101.57869747098887 0.5 L 137.04020744197774 0.5 L 137.04020744197774 3.5 L 144.04020744197774 0 L 137.04020744197774 -3.5 L 137.04020744197774 -0.5 L 101.57869747098887 -0.5 Z"/><text text-anchor="middle" pointer-events="none" font-size="8px" fill="#000000" x="81.02010372098887" y="3" transform="rotate(180 81.02010372098887 0)" font-family="Helvetica Neue, Helvetica, Arial, sans-serif">DEPOSIT</text></g><g class="relationship" transform="translate(-36.59888274922625 -116.97393001926437) rotate(512.6931625567761)"><path class="b-outline" fill="#A5ABB6" stroke="none" d="M 25 0.5 L 58.39558214994118 0.5 L 58.39558214994118 -0.5 L 25 -0.5 Z M 124.84870714994118 0.5 L 158.24428929988235 0.5 L 158.24428929988235 3.5 L 165.24428929988235 0 L 158.24428929988235 -3.5 L 158.24428929988235 -0.5 L 124.84870714994118 -0.5 Z"/><text text-anchor="middle" pointer-events="none" font-size="8px" fill="#000000" x="91.62214464994118" y="3" transform="rotate(180 91.62214464994118 0)" font-family="Helvetica Neue, Helvetica, Arial, sans-serif">HAS_ACCOUNT</text></g><g class="relationship" transform="translate(-36.59888274922625 -116.97393001926437) rotate(390.6224605254511)"><path class="b-outline" fill="#A5ABB6" stroke="none" d="M 25 0.5 L 56.4110827187868 0.5 L 56.4110827187868 -0.5 L 25 -0.5 Z M 122.8642077187868 0.5 L 154.2752904375736 0.5 L 154.2752904375736 3.5 L 161.2752904375736 0 L 154.2752904375736 -3.5 L 154.2752904375736 -0.5 L 122.8642077187868 -0.5 Z"/><text text-anchor="middle" pointer-events="none" font-size="8px" fill="#000000" x="89.6376452187868" y="3" font-family="Helvetica Neue, Helvetica, Arial, sans-serif">HAS_ACCOUNT</text></g></g><g class="layer nodes"><g class="node" aria-label="graph-node-128" transform="translate(123.6989048842162,-22.08924681156128)"><circle class="b-outline" cx="0" cy="0" r="25" fill="#F79767" stroke="#f36924" stroke-width="2px"/><text class="caption" text-anchor="middle" pointer-events="none" x="0" y="5" font-size="10px" fill="#FFFFFF" font-family="Helvetica Neue, Helvetica, Arial, sans-serif"> Account</text></g><g class="node" aria-label="graph-node-135" transform="translate(-37.0054462791298,-18.035236591130037)"><circle class="b-outline" cx="0" cy="0" r="25" fill="#57C7E3" stroke="#23b3d7" stroke-width="2px"/><text class="caption" text-anchor="middle" pointer-events="none" x="0" y="5" font-size="10px" fill="#2A2C34" font-family="Helvetica Neue, Helvetica, Arial, sans-serif"> Deposit</text></g><g class="node" aria-label="graph-node-129" transform="translate(-36.59888274922625,-116.97393001926437)"><circle class="b-outline" cx="0" cy="0" r="25" fill="#D9C8AE" stroke="#c0a378" stroke-width="2px"/><text class="caption" text-anchor="middle" pointer-events="none" x="0" y="5" font-size="10px" fill="#2A2C34" font-family="Helvetica Neue, Helvetica, Arial, sans-serif"> Customer</text></g><g class="node" aria-label="graph-node-130" transform="translate(-205.64282272318007,-29.69829785713319)"><circle class="b-outline" cx="0" cy="0" r="25" fill="#8DCC93" stroke="#5db665" stroke-width="2px"/><text class="caption" text-anchor="middle" pointer-events="none" x="0" y="5" font-size="10px" fill="#2A2C34" font-family="Helvetica Neue, Helvetica, Arial, sans-serif"> Internal</text></g><g class="node" aria-label="graph-node-136" transform="translate(-41.19815908352757,80.52521478661647)"><circle class="b-outline" cx="0" cy="0" r="25" fill="#4C8EDA" stroke="#2870c2" stroke-width="2px"/><text class="caption" text-anchor="middle" pointer-events="none" x="0" y="5" font-size="10px" fill="#FFFFFF" font-family="Helvetica Neue, Helvetica, Arial, sans-serif"> Cash</text></g></g></svg>