<svg xmlns="http://www.w3.org/2000/svg" width="1918" height="702" viewBox="0 0 1918 702"><defs><style type="text/css"/></defs><g transform="translate(755.4218749999998 327.6000000000001) scale(1)"><g class="relationship"><g transform="translate(-477.9999999999998 23) rotate(0)" stroke-width="5" stroke="#000000"><path d="M 59 0 L 217.1378493822517 0"/><polygon points="-24.8621506177483,0 -27.62461179749811,9.20820393249937 0,0 -27.62461179749811,-9.20820393249937" fill="#000000" transform="translate(242 0) rotate(0)" stroke="none"/></g><g transform="translate(-339.9310753088739 23) rotate(0) translate(0 -13)"><g transform="translate(0 0)"><g transform="translate(-46.78515625 0)" fill="#ffffff" stroke="#000000" stroke-width="0"><rect x="0" y="0" width="93.5703125" height="26" rx="5" ry="5" stroke="none"/><text xml:space="preserve" x="5" y="17.45703125" stroke="none" text-anchor="left" font-family="sans-serif" font-size="16" font-weight="normal" fill="#000000">HOLDINGS</text></g></g></g></g><g class="relationship"><g transform="translate(-176.99999999999974 23) rotate(-33.727296747194615)" stroke-width="5" stroke="#000000"><path d="M 59 0 L 342.97974048480023 0"/><polygon points="-24.8621506177483,0 -27.62461179749811,9.20820393249937 0,0 -27.62461179749811,-9.20820393249937" fill="#000000" transform="translate(367.8418911025485 0) rotate(0)" stroke="none"/></g><g transform="translate(-9.83879716738025 -88.59776076431231) rotate(-33.727296747194615) translate(0 -22.6)"><g transform="translate(0 0)"><g transform="translate(-57.45703125 0)" fill="#ffffff" stroke="#000000" stroke-width="0"><rect x="0" y="0" width="114.9140625" height="26" rx="5" ry="5" stroke="none"/><text xml:space="preserve" x="5" y="17.45703125" stroke="none" text-anchor="left" font-family="sans-serif" font-size="16" font-weight="normal" fill="#000000">INVESTED_IN</text></g></g><g transform="translate(0 26)"><g transform="translate(-30.68359375 0)" fill="white"><rect x="0" y="0" width="61.3671875" height="19.2" rx="0" ry="0" stroke="none"/><g font-family="sans-serif" font-size="16" font-weight="normal" fill="#000000" text-anchor="end"><text xml:space="preserve" x="30.234375" y="14.05703125" stroke="none">pct:</text><text xml:space="preserve" x="34.6796875" y="14.05703125" stroke="none" text-anchor="start">8.3</text></g></g></g></g></g><g class="relationship"><g transform="translate(533 23) rotate(-146.2727032528054)" stroke-width="5" stroke="#000000"><path d="M 59 0 L 342.97974048480046 0"/><polygon points="-24.8621506177483,0 -27.62461179749811,9.20820393249937 0,0 -27.62461179749811,-9.20820393249937" fill="#000000" transform="translate(367.84189110254874 0) rotate(0)" stroke="none"/></g><g transform="translate(365.83879716738033 -88.5977607643123) rotate(33.72729674719459) translate(0 -22.6)"><g transform="translate(0 0)"><g transform="translate(-57.45703125 0)" fill="#ffffff" stroke="#000000" stroke-width="0"><rect x="0" y="0" width="114.9140625" height="26" rx="5" ry="5" stroke="none"/><text xml:space="preserve" x="5" y="17.45703125" stroke="none" text-anchor="left" font-family="sans-serif" font-size="16" font-weight="normal" fill="#000000">INVESTED_IN</text></g></g><g transform="translate(0 26)"><g transform="translate(-30.68359375 0)" fill="white"><rect x="0" y="0" width="61.3671875" height="19.2" rx="0" ry="0" stroke="none"/><g font-family="sans-serif" font-size="16" font-weight="normal" fill="#000000" text-anchor="end"><text xml:space="preserve" x="30.234375" y="14.05703125" stroke="none">pct:</text><text xml:space="preserve" x="34.6796875" y="14.05703125" stroke="none" text-anchor="start">8.1</text></g></g></g></g></g><g class="relationship"><g transform="translate(829.0000000000002 22.999999999999964) rotate(180)" stroke-width="5" stroke="#000000"><path d="M 59 0 L 212.13784938225191 0"/><polygon points="-24.8621506177483,0 -27.62461179749811,9.20820393249937 0,0 -27.62461179749811,-9.20820393249937" fill="#000000" transform="translate(237.00000000000023 0) rotate(0)" stroke="none"/></g><g transform="translate(693.4310753088743 22.999999999999982) rotate(360) translate(0 -13)"><g transform="translate(0 0)"><g transform="translate(-46.78515625 0)" fill="#ffffff" stroke="#000000" stroke-width="0"><rect x="0" y="0" width="93.5703125" height="26" rx="5" ry="5" stroke="none"/><text xml:space="preserve" x="5" y="17.45703125" stroke="none" text-anchor="left" font-family="sans-serif" font-size="16" font-weight="normal" fill="#000000">HOLDINGS</text></g></g></g></g><g class="relationship"><g transform="translate(533 23) rotate(180)" stroke-width="5" stroke="#000000"><path d="M 59 0 L 271.1378493822517 0"/><polygon points="-24.8621506177483,0 -27.62461179749811,9.20820393249937 0,0 -27.62461179749811,-9.20820393249937" fill="#000000" transform="translate(296 0) rotate(0)" stroke="none"/></g><g transform="translate(367.93107530887414 23.00000000000002) rotate(360) translate(0 -22.6)"><g transform="translate(0 0)"><g transform="translate(-57.45703125 0)" fill="#ffffff" stroke="#000000" stroke-width="0"><rect x="0" y="0" width="114.9140625" height="26" rx="5" ry="5" stroke="none"/><text xml:space="preserve" x="5" y="17.45703125" stroke="none" text-anchor="left" font-family="sans-serif" font-size="16" font-weight="normal" fill="#000000">INVESTED_IN</text></g></g><g transform="translate(0 26)"><g transform="translate(-35.1328125 0)" fill="white"><rect x="0" y="0" width="70.265625" height="19.2" rx="0" ry="0" stroke="none"/><g font-family="sans-serif" font-size="16" font-weight="normal" fill="#000000" text-anchor="end"><text xml:space="preserve" x="30.234375" y="14.05703125" stroke="none">pct:</text><text xml:space="preserve" x="34.6796875" y="14.05703125" stroke="none" text-anchor="start">8.12</text></g></g></g></g></g><g class="relationship"><g transform="translate(-176.99999999999974 23) rotate(0)" stroke-width="5" stroke="#000000"><path d="M 59 0 L 271.1378493822515 0"/><polygon points="-24.8621506177483,0 -27.62461179749811,9.20820393249937 0,0 -27.62461179749811,-9.20820393249937" fill="#000000" transform="translate(295.9999999999998 0) rotate(0)" stroke="none"/></g><g transform="translate(-11.931075308874 23) rotate(0) translate(0 -22.6)"><g transform="translate(0 0)"><g transform="translate(-57.45703125 0)" fill="#ffffff" stroke="#000000" stroke-width="0"><rect x="0" y="0" width="114.9140625" height="26" rx="5" ry="5" stroke="none"/><text xml:space="preserve" x="5" y="17.45703125" stroke="none" text-anchor="left" font-family="sans-serif" font-size="16" font-weight="normal" fill="#000000">INVESTED_IN</text></g></g><g transform="translate(0 26)"><g transform="translate(-35.1328125 0)" fill="white"><rect x="0" y="0" width="70.265625" height="19.2" rx="0" ry="0" stroke="none"/><g font-family="sans-serif" font-size="16" font-weight="normal" fill="#000000" text-anchor="end"><text xml:space="preserve" x="30.234375" y="14.05703125" stroke="none">pct:</text><text xml:space="preserve" x="34.6796875" y="14.05703125" stroke="none" text-anchor="start">8.01</text></g></g></g></g></g><g class="relationship"><g transform="translate(-176.99999999999974 23) rotate(33.72729674719461)" stroke-width="5" stroke="#000000"><path d="M 59 0 L 342.97974048480035 0"/><polygon points="-24.8621506177483,0 -27.62461179749811,9.20820393249937 0,0 -27.62461179749811,-9.20820393249937" fill="#000000" transform="translate(367.84189110254863 0) rotate(0)" stroke="none"/></g><g transform="translate(-9.838797167380193 134.5977607643123) rotate(33.72729674719461) translate(0 -22.6)"><g transform="translate(0 0)"><g transform="translate(-57.45703125 0)" fill="#ffffff" stroke="#000000" stroke-width="0"><rect x="0" y="0" width="114.9140625" height="26" rx="5" ry="5" stroke="none"/><text xml:space="preserve" x="5" y="17.45703125" stroke="none" text-anchor="left" font-family="sans-serif" font-size="16" font-weight="normal" fill="#000000">INVESTED_IN</text></g></g><g transform="translate(0 26)"><g transform="translate(-35.1328125 0)" fill="white"><rect x="0" y="0" width="70.265625" height="19.2" rx="0" ry="0" stroke="none"/><g font-family="sans-serif" font-size="16" font-weight="normal" fill="#000000" text-anchor="end"><text xml:space="preserve" x="30.234375" y="14.05703125" stroke="none">pct:</text><text xml:space="preserve" x="34.6796875" y="14.05703125" stroke="none" text-anchor="start">6.56</text></g></g></g></g></g><g class="relationship"><g transform="translate(533 23) rotate(146.2727032528054)" stroke-width="5" stroke="#000000"><path d="M 59 0 L 342.97974048480035 0"/><polygon points="-24.8621506177483,0 -27.62461179749811,9.20820393249937 0,0 -27.62461179749811,-9.20820393249937" fill="#000000" transform="translate(367.84189110254863 0) rotate(0)" stroke="none"/></g><g transform="translate(365.83879716738045 134.59776076431234) rotate(326.2727032528054) translate(0 -22.6)"><g transform="translate(0 0)"><g transform="translate(-57.45703125 0)" fill="#ffffff" stroke="#000000" stroke-width="0"><rect x="0" y="0" width="114.9140625" height="26" rx="5" ry="5" stroke="none"/><text xml:space="preserve" x="5" y="17.45703125" stroke="none" text-anchor="left" font-family="sans-serif" font-size="16" font-weight="normal" fill="#000000">INVESTED_IN</text></g></g><g transform="translate(0 26)"><g transform="translate(-30.68359375 0)" fill="white"><rect x="0" y="0" width="61.3671875" height="19.2" rx="0" ry="0" stroke="none"/><g font-family="sans-serif" font-size="16" font-weight="normal" fill="#000000" text-anchor="end"><text xml:space="preserve" x="30.234375" y="14.05703125" stroke="none">pct:</text><text xml:space="preserve" x="34.6796875" y="14.05703125" stroke="none" text-anchor="start">6.6</text></g></g></g></g></g><g class="node"><g fill="#ffffff" stroke="#000000" stroke-width="4"><circle cx="-477.9999999999998" cy="23" r="52"/></g><g transform="translate(-477.9999999999998 23)"><g transform="scale(0.5810579946704019) translate(0 -27)"><g transform="translate(0 0)"><g transform="translate(-72.5859375 0)"><g fill="#ffffff" stroke="#000000" stroke-width="4"><rect x="0" y="0" width="145.171875" height="54" rx="27" ry="27"/><text xml:space="preserve" x="27" y="38.142578125" stroke="none" font-family="sans-serif" font-size="40" font-weight="normal" fill="#000000">Fund</text></g></g></g></g><g transform="translate(-56 -19.199999999999992)"><g transform="translate(0 0)"><g transform="translate(-221.421875 0)" fill="white"><rect x="0" y="0" width="221.421875" height="38.4" rx="0" ry="0" stroke="none"/><g font-family="sans-serif" font-size="16" font-weight="normal" fill="#000000" text-anchor="end"><text xml:space="preserve" x="48.9140625" y="14.05703125" stroke="none">name:</text><text xml:space="preserve" x="53.359375" y="14.05703125" stroke="none" text-anchor="start">Fundsmith Equity I Acc</text><text xml:space="preserve" x="48.9140625" y="33.25703125" stroke="none" text-anchor="end">isin:</text><text xml:space="preserve" x="53.359375" y="33.25703125" stroke="none" text-anchor="start">0P0000RU81</text></g></g></g></g></g></g><g class="node"><g fill="#ffffff" stroke="#000000" stroke-width="4"><circle cx="-176.99999999999974" cy="23" r="52"/></g><g transform="translate(-176.99999999999974 23)"><g transform="scale(0.41572842703461677) translate(0 -27)"><g transform="translate(0 0)"><g transform="translate(-104.822265625 0)"><g fill="#ffffff" stroke="#000000" stroke-width="4"><rect x="0" y="0" width="209.64453125" height="54" rx="27" ry="27"/><text xml:space="preserve" x="27" y="38.142578125" stroke="none" font-family="sans-serif" font-size="40" font-weight="normal" fill="#000000">Holdings</text></g></g></g></g></g></g><g class="node"><g fill="#ffffff" stroke="#000000" stroke-width="4"><circle cx="178.00000000000003" cy="-214.00000000000009" r="52"/></g><g transform="translate(178.00000000000003 -214.00000000000009)"><g transform="scale(0.5513692348810407) translate(0 -27)"><g transform="translate(0 0)"><g transform="translate(-77.01953125 0)"><g fill="#ffffff" stroke="#000000" stroke-width="4"><rect x="0" y="0" width="154.0390625" height="54" rx="27" ry="27"/><text xml:space="preserve" x="27" y="38.142578125" stroke="none" font-family="sans-serif" font-size="40" font-weight="normal" fill="#000000">Stock</text></g></g></g></g><g transform="translate(3.429011037612589e-15 -113.6)"><g transform="translate(0 0)"><g transform="translate(-110.703125 0)" fill="white"><rect x="0" y="0" width="221.40625" height="57.599999999999994" rx="0" ry="0" stroke="none"/><g font-family="sans-serif" font-size="16" font-weight="normal" fill="#000000" text-anchor="end"><text xml:space="preserve" x="59.5703125" y="14.05703125" stroke="none">name:</text><text xml:space="preserve" x="64.015625" y="14.05703125" stroke="none" text-anchor="start">Microsoft Corporation</text><text xml:space="preserve" x="59.5703125" y="33.25703125" stroke="none" text-anchor="end">symbol:</text><text xml:space="preserve" x="64.015625" y="33.25703125" stroke="none" text-anchor="start">MSFT</text><text xml:space="preserve" x="59.5703125" y="52.45703125" stroke="none" text-anchor="end">isin:</text><text xml:space="preserve" x="64.015625" y="52.45703125" stroke="none" text-anchor="start">US5949181045</text></g></g></g></g></g></g><g class="node"><g fill="#ffffff" stroke="#000000" stroke-width="4"><circle cx="533" cy="23" r="52"/></g><g transform="translate(533 23)"><g transform="scale(0.41572842703461677) translate(0 -27)"><g transform="translate(0 0)"><g transform="translate(-104.822265625 0)"><g fill="#ffffff" stroke="#000000" stroke-width="4"><rect x="0" y="0" width="209.64453125" height="54" rx="27" ry="27"/><text xml:space="preserve" x="27" y="38.142578125" stroke="none" font-family="sans-serif" font-size="40" font-weight="normal" fill="#000000">Holdings</text></g></g></g></g></g></g><g class="node"><g fill="#ffffff" stroke="#000000" stroke-width="4"><circle cx="829.0000000000002" cy="22.999999999999964" r="52"/></g><g transform="translate(829.0000000000002 22.999999999999964)"><g transform="scale(0.5810579946704019) translate(0 -27)"><g transform="translate(0 0)"><g transform="translate(-72.5859375 0)"><g fill="#ffffff" stroke="#000000" stroke-width="4"><rect x="0" y="0" width="145.171875" height="54" rx="27" ry="27"/><text xml:space="preserve" x="27" y="38.142578125" stroke="none" font-family="sans-serif" font-size="40" font-weight="normal" fill="#000000">Fund</text></g></g></g></g><g transform="translate(56 -19.2)"><g transform="translate(0 0)"><g transform="translate(0 0)" fill="white"><rect x="0" y="0" width="276.8828125" height="38.4" rx="0" ry="0" stroke="none"/><g font-family="sans-serif" font-size="16" font-weight="normal" fill="#000000" text-anchor="end"><text xml:space="preserve" x="48.9140625" y="14.05703125" stroke="none">name:</text><text xml:space="preserve" x="53.359375" y="14.05703125" stroke="none" text-anchor="start">Lindsell Train Global Funds plc</text><text xml:space="preserve" x="48.9140625" y="33.25703125" stroke="none" text-anchor="end">isin:</text><text xml:space="preserve" x="53.359375" y="33.25703125" stroke="none" text-anchor="start">0P0000SVHP</text></g></g></g></g></g></g><g class="node"><g fill="#ffffff" stroke="#000000" stroke-width="4"><circle cx="178.00000000000003" cy="23" r="52"/></g><g transform="translate(178.00000000000003 23)"><g transform="scale(0.5513692348810407) translate(0 -27)"><g transform="translate(0 0)"><g transform="translate(-77.01953125 0)"><g fill="#ffffff" stroke="#000000" stroke-width="4"><rect x="0" y="0" width="154.0390625" height="54" rx="27" ry="27"/><text xml:space="preserve" x="27" y="38.142578125" stroke="none" font-family="sans-serif" font-size="40" font-weight="normal" fill="#000000">Stock</text></g></g></g></g><g transform="translate(3.429011037612589e-15 -113.6)"><g transform="translate(0 0)"><g transform="translate(-97.36328125 0)" fill="white"><rect x="0" y="0" width="194.7265625" height="57.599999999999994" rx="0" ry="0" stroke="none"/><g font-family="sans-serif" font-size="16" font-weight="normal" fill="#000000" text-anchor="end"><text xml:space="preserve" x="59.5703125" y="14.05703125" stroke="none">name:</text><text xml:space="preserve" x="64.015625" y="14.05703125" stroke="none" text-anchor="start">Novo Nordisk A/S</text><text xml:space="preserve" x="59.5703125" y="33.25703125" stroke="none" text-anchor="end">symbol:</text><text xml:space="preserve" x="64.015625" y="33.25703125" stroke="none" text-anchor="start">NOVO-B.CO</text><text xml:space="preserve" x="59.5703125" y="52.45703125" stroke="none" text-anchor="end">isin:</text><text xml:space="preserve" x="64.015625" y="52.45703125" stroke="none" text-anchor="start">DK0060534915</text></g></g></g></g></g></g><g class="node"><g fill="#ffffff" stroke="#000000" stroke-width="4"><circle cx="178.00000000000014" cy="260.0000000000001" r="52"/></g><g transform="translate(178.00000000000014 260.0000000000001)"><g transform="scale(0.5513692348810407) translate(0 -27)"><g transform="translate(0 0)"><g transform="translate(-77.01953125 0)"><g fill="#ffffff" stroke="#000000" stroke-width="4"><rect x="0" y="0" width="154.0390625" height="54" rx="27" ry="27"/><text xml:space="preserve" x="27" y="38.142578125" stroke="none" font-family="sans-serif" font-size="40" font-weight="normal" fill="#000000">Stock</text></g></g></g></g><g transform="translate(3.429011037612589e-15 56)"><g transform="translate(0 0)"><g transform="translate(-89.38671875 0)" fill="white"><rect x="0" y="0" width="178.7734375" height="57.599999999999994" rx="0" ry="0" stroke="none"/><g font-family="sans-serif" font-size="16" font-weight="normal" fill="#000000" text-anchor="end"><text xml:space="preserve" x="59.5703125" y="14.05703125" stroke="none">name:</text><text xml:space="preserve" x="64.015625" y="14.05703125" stroke="none" text-anchor="start">L'Oréal S.A.</text><text xml:space="preserve" x="59.5703125" y="33.25703125" stroke="none" text-anchor="end">symbol:</text><text xml:space="preserve" x="64.015625" y="33.25703125" stroke="none" text-anchor="start">OR.PA</text><text xml:space="preserve" x="59.5703125" y="52.45703125" stroke="none" text-anchor="end">isin:</text><text xml:space="preserve" x="64.015625" y="52.45703125" stroke="none" text-anchor="start">FR0000120321</text></g></g></g></g></g></g></g></svg>