<svg xmlns="http://www.w3.org/2000/svg" width="348.711181640625" height="59.99970626831055" viewBox="-275.4707946777344 -9.574703216552734 348.711181640625 59.99970626831055"><title>Neo4j Graph Visualization</title><desc>Created using Neo4j (http://www.neo4j.com/)</desc><g class="layer relationships"><g class="relationship" transform="translate(-246.4708019926801 19.425295804317074) rotate(360.76406383220194)"><path class="b-outline" fill="#A5ABB6" stroke="none" d="M 25 0.5 L 47.586782403983534 0.5 L 47.586782403983534 -0.5 L 25 -0.5 Z M 95.37193865398353 0.5 L 117.95872105796707 0.5 L 117.95872105796707 3.5 L 124.95872105796707 0 L 117.95872105796707 -3.5 L 117.95872105796707 -0.5 L 95.37193865398353 -0.5 Z"/><text text-anchor="middle" pointer-events="none" font-size="8px" fill="#000000" x="71.47936052898353" y="3" font-family="Helvetica Neue, Helvetica, Arial, sans-serif">HOLDINGS</text></g><g class="relationship" transform="translate(-96.52541459285122 21.42500049662138) rotate(359.9446763127346)"><path class="b-outline" fill="#A5ABB6" stroke="none" d="M 25 0.5 L 37.654407184963134 0.5 L 37.654407184963134 -0.5 L 25 -0.5 Z M 96.11143843496313 0.5 L 108.76584561992627 0.5 L 108.76584561992627 3.5 L 115.76584561992627 0 L 108.76584561992627 -3.5 L 108.76584561992627 -0.5 L 96.11143843496313 -0.5 Z"/><text text-anchor="middle" pointer-events="none" font-size="8px" fill="#000000" x="66.88292280996313" y="3" font-family="Helvetica Neue, Helvetica, Arial, sans-serif">INVESTED_IN</text></g></g><g class="layer nodes"><g class="node" aria-label="graph-node-1" transform="translate(-246.4708019926801,19.425295804317074)"><circle class="b-outline" cx="0" cy="0" r="25" fill="#C990C0" stroke="#b261a5" stroke-width="2px"/><text class="caption" text-anchor="middle" pointer-events="none" x="0" y="5" font-size="10px" fill="#FFFFFF" font-family="Helvetica Neue, Helvetica, Arial, sans-serif"> Fund</text></g><g class="node" aria-label="graph-node-3" transform="translate(-96.52541459285122,21.42500049662138)"><circle class="b-outline" cx="0" cy="0" r="25" fill="#F79767" stroke="#f36924" stroke-width="2px"/><text class="caption" text-anchor="middle" pointer-events="none" x="0" y="5" font-size="10px" fill="#FFFFFF" font-family="Helvetica Neue, Helvetica, Arial, sans-serif"> Holdings</text></g><g class="node" aria-label="graph-node-2" transform="translate(44.24036540586494,21.289079762550266)"><circle class="b-outline" cx="0" cy="0" r="25" fill="#57C7E3" stroke="#23b3d7" stroke-width="2px"/><text class="caption" text-anchor="middle" pointer-events="none" x="0" y="5" font-size="10px" fill="#2A2C34" font-family="Helvetica Neue, Helvetica, Arial, sans-serif"> Stock</text></g></g></svg>