<svg xmlns="http://www.w3.org/2000/svg" width="820" height="625" viewBox="0 0 820 625"><defs><style type="text/css"/></defs><g transform="translate(275.91612443811675 267.7886827271848) scale(1)"><g class="relationship"><g transform="translate(25.943633272099873 168.32945199167963) rotate(-23.659487770532838)" stroke-width="5" stroke="#000000"><path d="M 59 0 L 282.24816134007597 0"/><polygon points="-24.8621506177483,0 -27.62461179749811,9.20820393249937 0,0 -27.62461179749811,-9.20820393249937" fill="#000000" transform="translate(307.11031195782425 0) rotate(0)" stroke="none"/></g><g transform="translate(182.22617478221144 99.85796797361645) rotate(-23.659487770532838) translate(0 -13)"><g transform="translate(0 0)"><g transform="translate(-61.8984375 0)" fill="#ffffff" stroke="#000000" stroke-width="0"><rect x="0" y="0" width="123.796875" height="26" rx="5" ry="5" stroke="none"/><text xml:space="preserve" x="5" y="17.45703125" stroke="none" text-anchor="left" font-family="sans-serif" font-size="16" font-weight="normal" fill="#000000">HAS_METRICS</text></g></g></g></g><g class="relationship"><g transform="translate(25.943633272099873 168.32945199167963) rotate(156.34051222946718)" stroke-width="5" stroke="#000000"><path d="M 58.695178092152055 -5.989663490593892 L 95.96898050729241 -9.793341079425122 A 40 40 0 0 1 100.0297693144747 -10 L 118 -10 L 226 -10 A 10 10 0 0 1 236 -1.7763568394002505e-15 L 236 0 L 236 1.7763568394002505e-15 A 10 10 0 0 1 226 10 L 118 10 L 100.0297693144747 10 A 40 40 0 0 0 95.96898050729241 9.793341079425122 L 83.42887907965451 8.513662064369711 L 83.42887907965451 8.513662064369711"/><polygon points="-24.8621506177483,0 -27.62461179749811,9.20820393249937 0,0 -27.62461179749811,-9.20820393249937" fill="#000000" transform="rotate(185.8266894420084) translate(-59 0)" stroke="none"/></g><g transform="translate(-181.0602916286804 259.0233055633088) rotate(66.34051222946718) translate(0 -70.6)"><g transform="translate(0 0)"><g transform="translate(-75.23046875 0)" fill="#ffffff" stroke="#000000" stroke-width="0"><rect x="0" y="0" width="150.4609375" height="26" rx="5" ry="5" stroke="none"/><text xml:space="preserve" x="5" y="17.45703125" stroke="none" text-anchor="left" font-family="sans-serif" font-size="16" font-weight="normal" fill="#000000">CO_MOVES_WITH</text></g></g><g transform="translate(0 26)"><g transform="translate(-46.24609375 0)" fill="white"><rect x="0" y="0" width="92.4921875" height="115.19999999999999" rx="0" ry="0" stroke="none"/><g font-family="sans-serif" font-size="16" font-weight="normal" fill="#000000" text-anchor="end"><text xml:space="preserve" x="83.6015625" y="14.05703125" stroke="none">window_id:</text><text xml:space="preserve" x="88.046875" y="14.05703125" stroke="none" text-anchor="start"></text><text xml:space="preserve" x="83.6015625" y="33.25703125" stroke="none" text-anchor="end">corr:</text><text xml:space="preserve" x="88.046875" y="33.25703125" stroke="none" text-anchor="start"></text><text xml:space="preserve" x="83.6015625" y="52.45703125" stroke="none" text-anchor="end">start:</text><text xml:space="preserve" x="88.046875" y="52.45703125" stroke="none" text-anchor="start"></text><text xml:space="preserve" x="83.6015625" y="71.65703125" stroke="none" text-anchor="end">end:</text><text xml:space="preserve" x="88.046875" y="71.65703125" stroke="none" text-anchor="start"></text><text xml:space="preserve" x="83.6015625" y="90.85703124999999" stroke="none" text-anchor="end">window:</text><text xml:space="preserve" x="88.046875" y="90.85703124999999" stroke="none" text-anchor="start"></text><text xml:space="preserve" x="83.6015625" y="110.05703125" stroke="none" text-anchor="end">sign:</text><text xml:space="preserve" x="88.046875" y="110.05703125" stroke="none" text-anchor="start"></text></g></g></g></g></g><g class="node"><g fill="#ffffff" stroke="#000000" stroke-width="4"><circle cx="361.2811178823596" cy="21.409297019261878" r="52"/></g><g transform="translate(361.2811178823596 21.409297019261878)"><g transform="scale(0.29881955756447626) translate(0 -27)"><g transform="translate(0 0)"><g transform="translate(-148.15234375 0)"><g fill="#ffffff" stroke="#000000" stroke-width="4"><rect x="0" y="0" width="296.3046875" height="54" rx="27" ry="27"/><text xml:space="preserve" x="27" y="38.142578125" stroke="none" font-family="sans-serif" font-size="40" font-weight="normal" fill="#000000">StockWindow</text></g></g></g></g><g transform="translate(39.59797974644666 -289.19797974644666)"><g transform="translate(0 0)"><g transform="translate(0 0)" fill="white"><rect x="0" y="0" width="143.15625" height="249.6" rx="0" ry="0" stroke="none"/><g font-family="sans-serif" font-size="16" font-weight="normal" fill="#000000" text-anchor="end"><text xml:space="preserve" x="134.265625" y="14.05703125" stroke="none">ticker:</text><text xml:space="preserve" x="138.7109375" y="14.05703125" stroke="none" text-anchor="start"></text><text xml:space="preserve" x="134.265625" y="33.25703125" stroke="none" text-anchor="end">window_id:</text><text xml:space="preserve" x="138.7109375" y="33.25703125" stroke="none" text-anchor="start"></text><text xml:space="preserve" x="134.265625" y="52.45703125" stroke="none" text-anchor="end">window:</text><text xml:space="preserve" x="138.7109375" y="52.45703125" stroke="none" text-anchor="start"></text><text xml:space="preserve" x="134.265625" y="71.65703125" stroke="none" text-anchor="end">start:</text><text xml:space="preserve" x="138.7109375" y="71.65703125" stroke="none" text-anchor="start"></text><text xml:space="preserve" x="134.265625" y="90.85703124999999" stroke="none" text-anchor="end">end:</text><text xml:space="preserve" x="138.7109375" y="90.85703124999999" stroke="none" text-anchor="start"></text><text xml:space="preserve" x="134.265625" y="110.05703125" stroke="none" text-anchor="end">mean_return:</text><text xml:space="preserve" x="138.7109375" y="110.05703125" stroke="none" text-anchor="start"></text><text xml:space="preserve" x="134.265625" y="129.25703125" stroke="none" text-anchor="end">volatility:</text><text xml:space="preserve" x="138.7109375" y="129.25703125" stroke="none" text-anchor="start"></text><text xml:space="preserve" x="134.265625" y="148.45703125" stroke="none" text-anchor="end">avg_volume:</text><text xml:space="preserve" x="138.7109375" y="148.45703125" stroke="none" text-anchor="start"></text><text xml:space="preserve" x="134.265625" y="167.65703125" stroke="none" text-anchor="end">volume_norm:</text><text xml:space="preserve" x="138.7109375" y="167.65703125" stroke="none" text-anchor="start"></text><text xml:space="preserve" x="134.265625" y="186.85703125" stroke="none" text-anchor="end">vol_zscore:</text><text xml:space="preserve" x="138.7109375" y="186.85703125" stroke="none" text-anchor="start"></text><text xml:space="preserve" x="134.265625" y="206.05703125" stroke="none" text-anchor="end">momentum:</text><text xml:space="preserve" x="138.7109375" y="206.05703125" stroke="none" text-anchor="start"></text><text xml:space="preserve" x="134.265625" y="225.25703124999998" stroke="none" text-anchor="end">volatility_norm:</text><text xml:space="preserve" x="138.7109375" y="225.25703124999998" stroke="none" text-anchor="start"></text><text xml:space="preserve" x="134.265625" y="244.45703125" stroke="none" text-anchor="end">momentum_norm:</text><text xml:space="preserve" x="138.7109375" y="244.45703125" stroke="none" text-anchor="start"></text></g></g></g></g></g></g><g class="node"><g fill="#ffffff" stroke="#000000" stroke-width="4"><circle cx="25.943633272099873" cy="168.32945199167963" r="52"/></g><g transform="translate(25.943633272099873 168.32945199167963)"><g transform="scale(0.5513692348810407) translate(0 -27)"><g transform="translate(0 0)"><g transform="translate(-77.01953125 0)"><g fill="#ffffff" stroke="#000000" stroke-width="4"><rect x="0" y="0" width="154.0390625" height="54" rx="27" ry="27"/><text xml:space="preserve" x="27" y="38.142578125" stroke="none" font-family="sans-serif" font-size="40" font-weight="normal" fill="#000000">Stock</text></g></g></g></g><g transform="translate(-39.597979746446654 39.59797974644666)"><g transform="translate(0 0)"><g transform="translate(-73.8046875 0)" fill="white"><rect x="0" y="0" width="73.8046875" height="76.8" rx="0" ry="0" stroke="none"/><g font-family="sans-serif" font-size="16" font-weight="normal" fill="#000000" text-anchor="end"><text xml:space="preserve" x="64.9140625" y="14.05703125" stroke="none">industry:</text><text xml:space="preserve" x="69.359375" y="14.05703125" stroke="none" text-anchor="start"></text><text xml:space="preserve" x="64.9140625" y="33.25703125" stroke="none" text-anchor="end">sector:</text><text xml:space="preserve" x="69.359375" y="33.25703125" stroke="none" text-anchor="start"></text><text xml:space="preserve" x="64.9140625" y="52.45703125" stroke="none" text-anchor="end">country:</text><text xml:space="preserve" x="69.359375" y="52.45703125" stroke="none" text-anchor="start"></text><text xml:space="preserve" x="64.9140625" y="71.65703125" stroke="none" text-anchor="end">ticker:</text><text xml:space="preserve" x="69.359375" y="71.65703125" stroke="none" text-anchor="start"></text></g></g></g></g></g></g></g></svg>