<svg xmlns="http://www.w3.org/2000/svg" width="244.88169860839844" height="191.4005584716797" viewBox="-170.18142700195312 -101.51177215576172 244.88169860839844 191.4005584716797"><title>Neo4j Graph Visualization</title><desc>Created using Neo4j (http://www.neo4j.com/)</desc><g class="layer relationships"><g class="relationship selected" transform="translate(-99.65034297991869 -5.720348711743732) rotate(390.44100407973144)"><path class="b-outline" fill="#A5ABB6" stroke="none" d="M 6.953439040707552 24.018736134675446 L 17.306200844808384 62.65576918623819 A 17.916697508022974 17.916697508022974 0 1 1 -17.306200844808384 62.65576918623819 L -8.765172356425198 30.780216918698923 L -4.901469051268926 31.815493099109005 L -6.4704761275630185 24.148145657226706 L -11.662949835292403 30.00375978339136 L -7.79924653013613 31.039035963801442 L -16.340275018519314 62.91458823134071 A 16.916697508022974 16.916697508022974 0 1 0 16.340275018519314 62.91458823134071 L 5.987513214418485 24.277555179777966 Z"/><text text-anchor="middle" pointer-events="none" font-size="8px" fill="#000000" x="0" y="94.20964923467838" font-family="Helvetica Neue, Helvetica, Arial, sans-serif">RELATED</text></g><g class="relationship" transform="translate(-99.65034297991869 -5.720348711743732) rotate(510.44100407973144)"><path class="b-outline" fill="#A5ABB6" stroke="none" d="M 6.953439040707552 24.018736134675446 L 17.306200844808384 62.65576918623819 A 17.916697508022974 17.916697508022974 0 1 1 -17.306200844808384 62.65576918623819 L -8.765172356425198 30.780216918698923 L -4.901469051268926 31.815493099109005 L -6.4704761275630185 24.148145657226706 L -11.662949835292403 30.00375978339136 L -7.79924653013613 31.039035963801442 L -16.340275018519314 62.91458823134071 A 16.916697508022974 16.916697508022974 0 1 0 16.340275018519314 62.91458823134071 L 5.987513214418485 24.277555179777966 Z"/><text text-anchor="middle" pointer-events="none" font-size="8px" fill="#000000" x="0" y="94.20964923467838" transform="rotate(180 0 91.20964923467838)" font-family="Helvetica Neue, Helvetica, Arial, sans-serif">DEPENDS…</text></g><g class="relationship" transform="translate(-99.65034297991869 -5.720348711743732) rotate(360.44100407973144)"><path class="b-outline" fill="#A5ABB6" stroke="none" d="M 25 0.5 L 38.61496143707585 0.5 L 38.61496143707585 -0.5 L 25 -0.5 Z M 99.73996143707585 0.5 L 113.3549228741517 0.5 L 113.3549228741517 3.5 L 120.3549228741517 0 L 113.3549228741517 -3.5 L 113.3549228741517 -0.5 L 99.73996143707585 -0.5 Z"/><text text-anchor="middle" pointer-events="none" font-size="8px" fill="#000000" x="69.17746143707585" y="3" font-family="Helvetica Neue, Helvetica, Arial, sans-serif">DEPENDS_ON</text></g></g><g class="layer nodes"><g class="node" aria-label="graph-node-791" transform="translate(45.700274255822755,-4.601566811831553)"><circle class="b-outline" cx="0" cy="0" r="25" fill="#C990C0" stroke="#b261a5" stroke-width="2px"/><text class="caption" text-anchor="middle" pointer-events="none" x="0" y="5" font-size="10px" fill="#FFFFFF" font-family="Helvetica Neue, Helvetica, Arial, sans-serif"> Standard</text></g><g class="node" aria-label="graph-node-792" transform="translate(-99.65034297991869,-5.720348711743732)"><circle class="b-outline" cx="0" cy="0" r="25" fill="#F79767" stroke="#f36924" stroke-width="2px"/><text class="caption" text-anchor="middle" pointer-events="none" x="0" y="5" font-size="10px" fill="#FFFFFF" font-family="Helvetica Neue, Helvetica, Arial, sans-serif"> Section</text></g></g></svg>