<svg xmlns="http://www.w3.org/2000/svg" width="1289" height="706" viewBox="0 0 1289 706"><defs><style type="text/css"/></defs><g transform="translate(-856.5188490924912 346.65680618594314) scale(1)"><g class="relationship"><g transform="translate(1315.191226919469 5.907575917606482) rotate(-55.02458268764439)" stroke-width="5" stroke="#000000"><path d="M 59 0 L 254.6355774596099 0"/><polygon points="-24.8621506177483,0 -27.62461179749811,9.20820393249937 0,0 -27.62461179749811,-9.20820393249937" fill="#000000" transform="translate(279.4977280773582 0) rotate(0)" stroke="none"/></g><g transform="translate(1405.0830924690972 -122.58861612757941) rotate(-55.02458268764439) translate(0 -13)"><g transform="translate(0 0)"><g transform="translate(-49.90625 0)" fill="#ffffff" stroke="#000000" stroke-width="0"><rect x="0" y="0" width="99.8125" height="26" rx="5" ry="5" stroke="none"/><text xml:space="preserve" x="5" y="17.45703125" stroke="none" text-anchor="left" font-family="sans-serif" font-size="16" font-weight="normal" fill="#000000">HAS_EMAIL</text></g></g></g></g><g class="relationship"><g transform="translate(1703.261898080531 5.907575917606482) rotate(-124.9754173123556)" stroke-width="5" stroke="#000000"><path d="M 59 0 L 254.6355774596099 0"/><polygon points="-24.8621506177483,0 -27.62461179749811,9.20820393249937 0,0 -27.62461179749811,-9.20820393249937" fill="#000000" transform="translate(279.4977280773582 0) rotate(0)" stroke="none"/></g><g transform="translate(1613.3700325309028 -122.58861612757941) rotate(55.02458268764439) translate(0 -13)"><g transform="translate(0 0)"><g transform="translate(-49.90625 0)" fill="#ffffff" stroke="#000000" stroke-width="0"><rect x="0" y="0" width="99.8125" height="26" rx="5" ry="5" stroke="none"/><text xml:space="preserve" x="5" y="17.45703125" stroke="none" text-anchor="left" font-family="sans-serif" font-size="16" font-weight="normal" fill="#000000">HAS_EMAIL</text></g></g></g></g><g class="relationship"><g transform="translate(1703.261898080531 5.907575917606482) rotate(55.0245826876443)" stroke-width="5" stroke="#000000"><path d="M 59 0 L 254.6355774596099 0"/><polygon points="-24.8621506177483,0 -27.62461179749811,9.20820393249937 0,0 -27.62461179749811,-9.20820393249937" fill="#000000" transform="translate(279.4977280773582 0) rotate(0)" stroke="none"/></g><g transform="translate(1793.1537636301593 134.40376796279224) rotate(55.0245826876443) translate(0 -13)"><g transform="translate(0 0)"><g transform="translate(-54.34765625 0)" fill="#ffffff" stroke="#000000" stroke-width="0"><rect x="0" y="0" width="108.6953125" height="26" rx="5" ry="5" stroke="none"/><text xml:space="preserve" x="5" y="17.45703125" stroke="none" text-anchor="left" font-family="sans-serif" font-size="16" font-weight="normal" fill="#000000">HAS_PHONE</text></g></g></g></g><g class="relationship"><g transform="translate(1509.2265625 283.27195802115585) rotate(-8.392512590746452e-15)" stroke-width="5" stroke="#000000"><path d="M 59 0 L 304.2085205433141 0"/><polygon points="-24.8621506177483,0 -27.62461179749811,9.20820393249937 0,0 -27.62461179749811,-9.20820393249937" fill="#000000" transform="translate(329.07067116106236 0) rotate(0)" stroke="none"/></g><g transform="translate(1690.830822771657 283.27195802115585) rotate(-8.392512590746452e-15) translate(0 -13)"><g transform="translate(0 0)"><g transform="translate(-54.34765625 0)" fill="#ffffff" stroke="#000000" stroke-width="0"><rect x="0" y="0" width="108.6953125" height="26" rx="5" ry="5" stroke="none"/><text xml:space="preserve" x="5" y="17.45703125" stroke="none" text-anchor="left" font-family="sans-serif" font-size="16" font-weight="normal" fill="#000000">HAS_PHONE</text></g></g></g></g><g class="relationship"><g transform="translate(1509.2265625 283.27195802115585) rotate(180)" stroke-width="5" stroke="#000000"><path d="M 59 0 L 304.20852054331385 0"/><polygon points="-24.8621506177483,0 -27.62461179749811,9.20820393249937 0,0 -27.62461179749811,-9.20820393249937" fill="#000000" transform="translate(329.07067116106214 0) rotate(0)" stroke="none"/></g><g transform="translate(1327.622302228343 283.27195802115585) rotate(360) translate(0 -13)"><g transform="translate(0 0)"><g transform="translate(-68.734375 0)" fill="#ffffff" stroke="#000000" stroke-width="0"><rect x="0" y="0" width="137.46875" height="26" rx="5" ry="5" stroke="none"/><text xml:space="preserve" x="5" y="17.45703125" stroke="none" text-anchor="left" font-family="sans-serif" font-size="16" font-weight="normal" fill="#000000">HAS_PASSPORT</text></g></g></g></g><g class="relationship"><g transform="translate(1315.191226919469 5.907575917606482) rotate(124.97541731235566)" stroke-width="5" stroke="#000000"><path d="M 59 0 L 254.63557745960983 0"/><polygon points="-24.8621506177483,0 -27.62461179749811,9.20820393249937 0,0 -27.62461179749811,-9.20820393249937" fill="#000000" transform="translate(279.49772807735815 0) rotate(0)" stroke="none"/></g><g transform="translate(1225.2993613698407 134.4037679627923) rotate(304.9754173123556) translate(0 -13)"><g transform="translate(0 0)"><g transform="translate(-68.734375 0)" fill="#ffffff" stroke="#000000" stroke-width="0"><rect x="0" y="0" width="137.46875" height="26" rx="5" ry="5" stroke="none"/><text xml:space="preserve" x="5" y="17.45703125" stroke="none" text-anchor="left" font-family="sans-serif" font-size="16" font-weight="normal" fill="#000000">HAS_PASSPORT</text></g></g></g></g><g class="node"><g fill="#ffffff" stroke="#000000" stroke-width="4"><circle cx="1315.191226919469" cy="5.907575917606482" r="52"/></g><g transform="translate(1315.191226919469 5.907575917606482)"><g transform="scale(0.385103906977165) translate(0 -27)"><g transform="translate(0 0)"><g transform="translate(-113.689453125 0)"><g fill="#ffffff" stroke="#000000" stroke-width="4"><rect x="0" y="0" width="227.37890625" height="54" rx="27" ry="27"/><text xml:space="preserve" x="27" y="38.142578125" stroke="none" font-family="sans-serif" font-size="40" font-weight="normal" fill="#000000">Customer</text></g></g></g></g><g transform="translate(39.59797974644666 39.597979746446654)"><g transform="translate(0 0)"><g transform="translate(0 0)" fill="white"><rect x="0" y="0" width="157.3984375" height="19.2" rx="0" ry="0" stroke="none"/><g font-family="sans-serif" font-size="16" font-weight="normal" fill="#000000" text-anchor="end"><text xml:space="preserve" x="88.03125" y="14.05703125" stroke="none">customerId:</text><text xml:space="preserve" x="92.4765625" y="14.05703125" stroke="none" text-anchor="start">CUS001</text></g></g></g></g></g></g><g class="node"><g fill="#ffffff" stroke="#000000" stroke-width="4"><circle cx="1703.261898080531" cy="5.907575917606482" r="52"/></g><g transform="translate(1703.261898080531 5.907575917606482)"><g transform="scale(0.385103906977165) translate(0 -27)"><g transform="translate(0 0)"><g transform="translate(-113.689453125 0)"><g fill="#ffffff" stroke="#000000" stroke-width="4"><rect x="0" y="0" width="227.37890625" height="54" rx="27" ry="27"/><text xml:space="preserve" x="27" y="38.142578125" stroke="none" font-family="sans-serif" font-size="40" font-weight="normal" fill="#000000">Customer</text></g></g></g></g><g transform="translate(-39.597979746446654 39.59797974644666)"><g transform="translate(0 0)"><g transform="translate(-157.3984375 0)" fill="white"><rect x="0" y="0" width="157.3984375" height="19.2" rx="0" ry="0" stroke="none"/><g font-family="sans-serif" font-size="16" font-weight="normal" fill="#000000" text-anchor="end"><text xml:space="preserve" x="88.03125" y="14.05703125" stroke="none">customerId:</text><text xml:space="preserve" x="92.4765625" y="14.05703125" stroke="none" text-anchor="start">CUS002</text></g></g></g></g></g></g><g class="node"><g fill="#ffffff" stroke="#000000" stroke-width="4"><circle cx="1509.2265625" cy="283.27195802115585" r="52"/></g><g transform="translate(1509.2265625 283.27195802115585)"><g transform="scale(0.385103906977165) translate(0 -27)"><g transform="translate(0 0)"><g transform="translate(-113.689453125 0)"><g fill="#ffffff" stroke="#000000" stroke-width="4"><rect x="0" y="0" width="227.37890625" height="54" rx="27" ry="27"/><text xml:space="preserve" x="27" y="38.142578125" stroke="none" font-family="sans-serif" font-size="40" font-weight="normal" fill="#000000">Customer</text></g></g></g></g><g transform="translate(3.429011037612589e-15 56)"><g transform="translate(0 0)"><g transform="translate(-78.69921875 0)" fill="white"><rect x="0" y="0" width="157.3984375" height="19.2" rx="0" ry="0" stroke="none"/><g font-family="sans-serif" font-size="16" font-weight="normal" fill="#000000" text-anchor="end"><text xml:space="preserve" x="88.03125" y="14.05703125" stroke="none">customerId:</text><text xml:space="preserve" x="92.4765625" y="14.05703125" stroke="none" text-anchor="start">CUS003</text></g></g></g></g></g></g><g class="node"><g fill="#ffffff" stroke="#000000" stroke-width="4"><circle cx="1509.2265625" cy="-271.45680618594315" r="52"/></g><g transform="translate(1509.2265625 -271.45680618594315)"><g transform="scale(0.5514315006713292) translate(0 -27)"><g transform="translate(0 0)"><g transform="translate(-77.009765625 0)"><g fill="#ffffff" stroke="#000000" stroke-width="4"><rect x="0" y="0" width="154.01953125" height="54" rx="27" ry="27"/><text xml:space="preserve" x="27" y="38.142578125" stroke="none" font-family="sans-serif" font-size="40" font-weight="normal" fill="#000000">Email</text></g></g></g></g><g transform="translate(3.429011037612589e-15 -75.2)"><g transform="translate(0 0)"><g transform="translate(-103.2734375 0)" fill="white"><rect x="0" y="0" width="206.546875" height="19.2" rx="0" ry="0" stroke="none"/><g font-family="sans-serif" font-size="16" font-weight="normal" fill="#000000" text-anchor="end"><text xml:space="preserve" x="65.8125" y="14.05703125" stroke="none">address:</text><text xml:space="preserve" x="70.2578125" y="14.05703125" stroke="none" text-anchor="start">michael@abc.com</text></g></g></g></g></g></g><g class="node"><g fill="#ffffff" stroke="#000000" stroke-width="4"><circle cx="1897.2972336610624" cy="283.2719580211558" r="52"/></g><g transform="translate(1897.2972336610624 283.2719580211558)"><g transform="scale(0.5054752595925074) translate(0 -27)"><g transform="translate(0 0)"><g transform="translate(-84.83203125 0)"><g fill="#ffffff" stroke="#000000" stroke-width="4"><rect x="0" y="0" width="169.6640625" height="54" rx="27" ry="27"/><text xml:space="preserve" x="27" y="38.142578125" stroke="none" font-family="sans-serif" font-size="40" font-weight="normal" fill="#000000">Phone</text></g></g></g></g><g transform="translate(39.59797974644666 39.597979746446654)"><g transform="translate(0 0)"><g transform="translate(0 0)" fill="white"><rect x="0" y="0" width="208.1640625" height="19.2" rx="0" ry="0" stroke="none"/><g font-family="sans-serif" font-size="16" font-weight="normal" fill="#000000" text-anchor="end"><text xml:space="preserve" x="110.2890625" y="14.05703125" stroke="none">phoneNumber:</text><text xml:space="preserve" x="114.734375" y="14.05703125" stroke="none" text-anchor="start">9999990304</text></g></g></g></g></g></g><g class="node"><g fill="#ffffff" stroke="#000000" stroke-width="4"><circle cx="1121.1558913389379" cy="283.27195802115585" r="52"/></g><g transform="translate(1121.1558913389379 283.27195802115585)"><g transform="scale(0.41166297284691405) translate(0 -27)"><g transform="translate(0 0)"><g transform="translate(-105.92578125 0)"><g fill="#ffffff" stroke="#000000" stroke-width="4"><rect x="0" y="0" width="211.8515625" height="54" rx="27" ry="27"/><text xml:space="preserve" x="27" y="38.142578125" stroke="none" font-family="sans-serif" font-size="40" font-weight="normal" fill="#000000">Passport</text></g></g></g></g><g transform="translate(-39.597979746446654 39.59797974644666)"><g transform="translate(0 0)"><g transform="translate(-225.0390625 0)" fill="white"><rect x="0" y="0" width="225.0390625" height="19.2" rx="0" ry="0" stroke="none"/><g font-family="sans-serif" font-size="16" font-weight="normal" fill="#000000" text-anchor="end"><text xml:space="preserve" x="127.1640625" y="14.05703125" stroke="none">passportNumber:</text><text xml:space="preserve" x="131.609375" y="14.05703125" stroke="none" text-anchor="start">1234567890</text></g></g></g></g></g></g></g></svg>