<svg xmlns="http://www.w3.org/2000/svg" width="346.2731628417969" height="204.24530029296875" viewBox="-318.1754455566406 -115.77729034423828 346.2731628417969 204.24530029296875"><title>Neo4j Graph Visualization</title><desc>Created using Neo4j (http://www.neo4j.com/)</desc><g class="layer relationships"><g class="relationship" transform="translate(-142.3953452929338 59.467998755069985) rotate(180.56379909075451)"><path class="b-outline" fill="#A5ABB6" stroke="none" d="M 25 0.5 L 44.44049639882549 0.5 L 44.44049639882549 -0.5 L 25 -0.5 Z M 95.34674639882549 0.5 L 114.78724279765098 0.5 L 114.78724279765098 3.5 L 121.78724279765098 0 L 114.78724279765098 -3.5 L 114.78724279765098 -0.5 L 95.34674639882549 -0.5 Z"/><text text-anchor="middle" pointer-events="none" font-size="8px" fill="#000000" x="69.89362139882549" y="3" transform="rotate(180 69.89362139882549 0)" font-family="Helvetica Neue, Helvetica, Arial, sans-serif">HAS_EMAIL</text></g><g class="relationship" transform="translate(-142.3953452929338 59.467998755069985) rotate(270.81914078873837)"><path class="b-outline" fill="#A5ABB6" stroke="none" d="M 25 0.5 L 34.76293004330394 0.5 L 34.76293004330394 -0.5 L 25 -0.5 Z M 104.49730504330394 0.5 L 114.26023508660788 0.5 L 114.26023508660788 3.5 L 121.26023508660788 0 L 114.26023508660788 -3.5 L 114.26023508660788 -0.5 L 104.49730504330394 -0.5 Z"/><text text-anchor="middle" pointer-events="none" font-size="8px" fill="#000000" x="69.63011754330394" y="3" font-family="Helvetica Neue, Helvetica, Arial, sans-serif">HAS_PASSPORT</text></g><g class="relationship" transform="translate(-142.3953452929338 59.467998755069985) rotate(359.3731478898519)"><path class="b-outline" fill="#A5ABB6" stroke="none" d="M 25 0.5 L 39.57692993412539 0.5 L 39.57692993412539 -0.5 L 25 -0.5 Z M 94.92458618412539 0.5 L 109.50151611825078 0.5 L 109.50151611825078 3.5 L 116.50151611825078 0 L 109.50151611825078 -3.5 L 109.50151611825078 -0.5 L 94.92458618412539 -0.5 Z"/><text text-anchor="middle" pointer-events="none" font-size="8px" fill="#000000" x="67.25075805912539" y="3" font-family="Helvetica Neue, Helvetica, Arial, sans-serif">HAS_PHONE</text></g></g><g class="layer nodes"><g class="node" aria-label="graph-node-801" transform="translate(-140.30437726657993,-86.77728910167625)"><circle class="b-outline" cx="0" cy="0" r="25" fill="#F79767" stroke="#f36924" stroke-width="2px"/><text class="caption" text-anchor="middle" pointer-events="none" x="0" y="5" font-size="10px" fill="#FFFFFF" font-family="Helvetica Neue, Helvetica, Arial, sans-serif"> Passport</text></g><g class="node" aria-label="graph-node-799" transform="translate(-289.1754815491854,58.02361351118624)"><circle class="b-outline" cx="0" cy="0" r="25" fill="#57C7E3" stroke="#23b3d7" stroke-width="2px"/><text class="caption" text-anchor="middle" pointer-events="none" x="0" y="5" font-size="10px" fill="#2A2C34" font-family="Helvetica Neue, Helvetica, Arial, sans-serif"> Email</text></g><g class="node" aria-label="graph-node-802" transform="translate(-142.3953452929338,59.467998755069985)"><circle class="b-outline" cx="0" cy="0" r="25" fill="#F16667" stroke="#eb2728" stroke-width="2px"/><text class="caption" text-anchor="middle" pointer-events="none" x="0" y="5" font-size="10px" fill="#FFFFFF" font-family="Helvetica Neue, Helvetica, Arial, sans-serif"> Customer</text></g><g class="node" aria-label="graph-node-800" transform="translate(-0.9022977759459767,57.91991344766319)"><circle class="b-outline" cx="0" cy="0" r="25" fill="#D9C8AE" stroke="#c0a378" stroke-width="2px"/><text class="caption" text-anchor="middle" pointer-events="none" x="0" y="5" font-size="10px" fill="#2A2C34" font-family="Helvetica Neue, Helvetica, Arial, sans-serif"> Phone</text></g></g></svg>