<svg xmlns="http://www.w3.org/2000/svg" width="199.33253479003906" height="58" viewBox="-99.66626739501953 -38.02064514160156 199.33253479003906 58"><title>Neo4j Graph Visualization</title><desc>Created using Neo4j (http://www.neo4j.com/)</desc><g class="layer relationships"><g class="relationship" transform="translate(70.66626973082795 -9.020645809062186) rotate(180)"><path class="b-outline" fill="#A5ABB6" stroke="none" d="M 24.018736134675446,-6.953439040707552 L 24.277555179777966,-5.987513214418485 A 173.7783631829687 173.7783631829687 0 0 1 52.42229611706708,-11.091741196114384 L 52.32543475427772,-12.087039079362711 A 174.7783631829687 174.7783631829687 0 0 0 24.018736134675446,-6.953439040707552 Z M 81.92329239661764,-12.449129491085841 L 81.85080866941233,-11.451759895955519 A 173.7783631829687 173.7783631829687 0 0 1 110.11199462249222,-7.037583388192776 L 109.40666016066625,-4.121678160487209 L 117.03332923077622,-5.877787181883099 L 111.05244057159352,-10.925457025133534 L 110.34710610976755,-8.009551797427966 A 174.7783631829687 174.7783631829687 0 0 0 81.92329239661764,-12.449129491085841"/><text text-anchor="middle" pointer-events="none" font-size="8px" fill="#000000" x="67.1228008092468" y="-9.395827329625519" transform="rotate(180 67.1228008092468 -12.395827329625519)" font-family="Helvetica Neue, Helvetica, Arial, sans-serif">FROM</text></g><g class="relationship" transform="translate(-70.66626973082795 -9.020645809062222) rotate(360)"><path class="b-outline" fill="#A5ABB6" stroke="none" d="M 24.018736134675446,-6.953439040707552 L 24.277555179777966,-5.987513214418485 A 173.7783631829687 173.7783631829687 0 0 1 58.67537632593163,-11.586542720658201 L 58.61449804005894,-12.584687917665718 A 174.7783631829687 174.7783631829687 0 0 0 24.018736134675446,-6.953439040707552 Z M 75.62393698427366,-12.792775774054348 L 75.58749522071662,-11.793439995715147 A 173.7783631829687 173.7783631829687 0 0 1 110.11199462249222,-7.037583388192776 L 109.40666016066625,-4.121678160487209 L 117.03332923077622,-5.877787181883099 L 111.05244057159352,-10.925457025133534 L 110.34710610976755,-8.009551797427966 A 174.7783631829687 174.7783631829687 0 0 0 75.62393698427366,-12.792775774054348"/><text text-anchor="middle" pointer-events="none" font-size="8px" fill="#000000" x="67.1228008092468" y="-9.395827329625519" font-family="Helvetica Neue, Helvetica, Arial, sans-serif">TO</text></g></g><g class="layer nodes"><g class="node" aria-label="graph-node-327" transform="translate(70.66626973082795,-9.020645809062186)"><circle class="b-outline" cx="0" cy="0" r="25" fill="#F79767" stroke="#f36924" stroke-width="2px"/><text class="caption" text-anchor="middle" pointer-events="none" x="0" y="5" font-size="10px" fill="#FFFFFF" font-family="Helvetica Neue, Helvetica, Arial, sans-serif"> Account</text></g><g class="node" aria-label="graph-node-328" transform="translate(-70.66626973082795,-9.020645809062222)"><circle class="b-outline" cx="0" cy="0" r="25" fill="#57C7E3" stroke="#23b3d7" stroke-width="2px"/><text class="caption" text-anchor="middle" pointer-events="none" x="0" y="5" font-size="10px" fill="#2A2C34" font-family="Helvetica Neue, Helvetica, Arial, sans-serif"> TRANS…</text></g></g></svg>