<svg xmlns="http://www.w3.org/2000/svg" width="3352" height="1120" viewBox="0 0 3352 1120"><defs><style type="text/css"/></defs><g transform="translate(737.3096548898708 183.72255300517497) scale(1)"><g class="relationship"><g transform="translate(133.95192886895646 10.830831244851908) rotate(3.78872886947781e-15)" stroke-width="5" stroke="#68bc00"><path d="M 59 0 L 238.4974163391565 0"/><polygon points="-24.8621506177483,0 -27.62461179749811,9.20820393249937 0,0 -27.62461179749811,-9.20820393249937" fill="#68bc00" transform="translate(263.3595669569048 0) rotate(0)" stroke="none"/></g><g transform="translate(282.70063703853475 10.830831244851918) rotate(3.78872886947781e-15) translate(0 -13)"><g transform="translate(0 0)"><g transform="translate(-50.3359375 0)" fill="#ffffff" stroke="#000000" stroke-width="0"><rect x="0" y="0" width="100.671875" height="26" rx="5" ry="5" stroke="none"/><text xml:space="preserve" x="5" y="17.45703125" stroke="none" text-anchor="left" font-family="sans-serif" font-size="16" font-weight="normal" fill="#000000">PERFORMS</text></g></g></g></g><g class="relationship"><g transform="translate(456.3114958258613 10.830831244851929) rotate(40.809374104719346)" stroke-width="5" stroke="#68bc00"><path d="M 59 0 L 355.5693069921739 0"/><polygon points="-24.8621506177483,0 -27.62461179749811,9.20820393249937 0,0 -27.62461179749811,-9.20820393249937" fill="#68bc00" transform="translate(380.4314576099222 0) rotate(0)" stroke="none"/></g><g transform="translate(613.2027916681942 146.30056536988226) rotate(40.809374104719346) translate(0 -13)"><g transform="translate(0 0)"><g transform="translate(-59.53515625 0)" fill="#ffffff" stroke="#000000" stroke-width="0"><rect x="0" y="0" width="119.0703125" height="26" rx="5" ry="5" stroke="none"/><text xml:space="preserve" x="5" y="17.45703125" stroke="none" text-anchor="left" font-family="sans-serif" font-size="16" font-weight="normal" fill="#000000">BENEFITS_TO</text></g></g></g></g><g class="relationship"><g transform="translate(788.9119544488502 298.01881995774755) rotate(-29.3560793477667)" stroke-width="5" stroke="#68bc00"><path d="M 59 0 L 279.03365659367466 0"/><polygon points="-24.8621506177483,0 -27.62461179749811,9.20820393249937 0,0 -27.62461179749811,-9.20820393249937" fill="#68bc00" transform="translate(303.89580721142295 0) rotate(0)" stroke="none"/></g><g transform="translate(936.2253085490428 215.16072469075584) rotate(-29.3560793477667) translate(0 -13)"><g transform="translate(0 0)"><g transform="translate(-50.3359375 0)" fill="#ffffff" stroke="#000000" stroke-width="0"><rect x="0" y="0" width="100.671875" height="26" rx="5" ry="5" stroke="none"/><text xml:space="preserve" x="5" y="17.45703125" stroke="none" text-anchor="left" font-family="sans-serif" font-size="16" font-weight="normal" fill="#000000">PERFORMS</text></g></g></g></g><g class="relationship"><g transform="translate(1105.20826108243 120.11431382710808) rotate(16.208759259939452)" stroke-width="5" stroke="#68bc00"><path d="M 59 0 L 553.4733027774752 0"/><polygon points="-24.8621506177483,0 -27.62461179749811,9.20820393249937 0,0 -27.62461179749811,-9.20820393249937" fill="#68bc00" transform="translate(578.3354533952235 0) rotate(0)" stroke="none"/></g><g transform="translate(1399.272318819858 205.59657280981048) rotate(16.208759259939452) translate(0 -13)"><g transform="translate(0 0)"><g transform="translate(-59.53515625 0)" fill="#ffffff" stroke="#000000" stroke-width="0"><rect x="0" y="0" width="119.0703125" height="26" rx="5" ry="5" stroke="none"/><text xml:space="preserve" x="5" y="17.45703125" stroke="none" text-anchor="left" font-family="sans-serif" font-size="16" font-weight="normal" fill="#000000">BENEFITS_TO</text></g></g></g></g><g class="relationship"><g transform="translate(788.9119544488502 298.01881995774755) rotate(-0.0000035127129879337493)" stroke-width="5" stroke="#68bc00"><path d="M 59 0 L 232.4341560158321 0"/><polygon points="-24.8621506177483,0 -27.62461179749811,9.20820393249937 0,0 -27.62461179749811,-9.20820393249937" fill="#68bc00" transform="translate(257.2963066335804 0) rotate(0)" stroke="none"/></g><g transform="translate(934.629032456766 298.0188110240656) rotate(-0.0000035127129879337493) translate(0 -13)"><g transform="translate(0 0)"><g transform="translate(-50.3359375 0)" fill="#ffffff" stroke="#000000" stroke-width="0"><rect x="0" y="0" width="100.671875" height="26" rx="5" ry="5" stroke="none"/><text xml:space="preserve" x="5" y="17.45703125" stroke="none" text-anchor="left" font-family="sans-serif" font-size="16" font-weight="normal" fill="#000000">PERFORMS</text></g></g></g></g><g class="relationship"><g transform="translate(1105.20826108243 298.01880056612475) rotate(0)" stroke-width="5" stroke="#68bc00"><path d="M 59 0 L 528.1398704186386 0"/><polygon points="-24.8621506177483,0 -27.62461179749811,9.20820393249937 0,0 -27.62461179749811,-9.20820393249937" fill="#68bc00" transform="translate(553.0020210363869 0) rotate(0)" stroke="none"/></g><g transform="translate(1398.7781962917493 298.01880056612475) rotate(0) translate(0 -13)"><g transform="translate(0 0)"><g transform="translate(-59.53515625 0)" fill="#ffffff" stroke="#000000" stroke-width="0"><rect x="0" y="0" width="119.0703125" height="26" rx="5" ry="5" stroke="none"/><text xml:space="preserve" x="5" y="17.45703125" stroke="none" text-anchor="left" font-family="sans-serif" font-size="16" font-weight="normal" fill="#000000">BENEFITS_TO</text></g></g></g></g><g class="relationship"><g transform="translate(788.9119544488502 298.01881995774755) rotate(29.35607401076888)" stroke-width="5" stroke="#68bc00"><path d="M 59 0 L 279.0336375807419 0"/><polygon points="-24.8621506177483,0 -27.62461179749811,9.20820393249937 0,0 -27.62461179749811,-9.20820393249937" fill="#68bc00" transform="translate(303.8957881984902 0) rotate(0)" stroke="none"/></g><g transform="translate(936.2253079813831 380.87689684235835) rotate(29.35607401076888) translate(0 -13)"><g transform="translate(0 0)"><g transform="translate(-50.3359375 0)" fill="#ffffff" stroke="#000000" stroke-width="0"><rect x="0" y="0" width="100.671875" height="26" rx="5" ry="5" stroke="none"/><text xml:space="preserve" x="5" y="17.45703125" stroke="none" text-anchor="left" font-family="sans-serif" font-size="16" font-weight="normal" fill="#000000">PERFORMS</text></g></g></g></g><g class="relationship"><g transform="translate(1105.20826108243 475.92328730514146) rotate(-16.208759259939452)" stroke-width="5" stroke="#68bc00"><path d="M 59 0 L 553.4733027774752 0"/><polygon points="-24.8621506177483,0 -27.62461179749811,9.20820393249937 0,0 -27.62461179749811,-9.20820393249937" fill="#68bc00" transform="translate(578.3354533952235 0) rotate(0)" stroke="none"/></g><g transform="translate(1399.272318819858 390.4410283224391) rotate(-16.208759259939452) translate(0 -13)"><g transform="translate(0 0)"><g transform="translate(-59.53515625 0)" fill="#ffffff" stroke="#000000" stroke-width="0"><rect x="0" y="0" width="119.0703125" height="26" rx="5" ry="5" stroke="none"/><text xml:space="preserve" x="5" y="17.45703125" stroke="none" text-anchor="left" font-family="sans-serif" font-size="16" font-weight="normal" fill="#000000">BENEFITS_TO</text></g></g></g></g><g class="relationship"><g transform="translate(1717.2102821188168 298.01880056612475) rotate(-16.208759259939335)" stroke-width="5" stroke="#000000"><path d="M 59 0 L 251.87686241940727 0"/><polygon points="-24.8621506177483,0 -27.62461179749811,9.20820393249937 0,0 -27.62461179749811,-9.20820393249937" fill="#000000" transform="translate(276.7390130371556 0) rotate(0)" stroke="none"/></g><g transform="translate(1866.4701946818059 254.6300416691176) rotate(-16.208759259939335) translate(0 -13)"><g transform="translate(0 0)"><g transform="translate(-50.3359375 0)" fill="#ffffff" stroke="#000000" stroke-width="0"><rect x="0" y="0" width="100.671875" height="26" rx="5" ry="5" stroke="none"/><text xml:space="preserve" x="5" y="17.45703125" stroke="none" text-anchor="left" font-family="sans-serif" font-size="16" font-weight="normal" fill="#000000">PERFORMS</text></g></g></g></g><g class="relationship"><g transform="translate(2039.604012806326 204.30131399849859) rotate(12.95952266375484)" stroke-width="5" stroke="#d33115"><path d="M 59 0 L 251.876862419408 0"/><polygon points="-24.8621506177483,0 -27.62461179749811,9.20820393249937 0,0 -27.62461179749811,-9.20820393249937" fill="#d33115" transform="translate(276.7390130371563 0) rotate(0)" stroke="none"/></g><g transform="translate(2191.0832315029397 239.16034726101634) rotate(12.95952266375484) translate(0 -13)"><g transform="translate(0 0)"><g transform="translate(-59.53515625 0)" fill="#ffffff" stroke="#000000" stroke-width="0"><rect x="0" y="0" width="119.0703125" height="26" rx="5" ry="5" stroke="none"/><text xml:space="preserve" x="5" y="17.45703125" stroke="none" text-anchor="left" font-family="sans-serif" font-size="16" font-weight="normal" fill="#000000">BENEFITS_TO</text></g></g></g></g><g class="relationship"><g transform="translate(1717.2102821188168 298.01880056612475) rotate(12.959522663754559)" stroke-width="5" stroke="#000000"><path d="M 59 0 L 251.87686241940557 0"/><polygon points="-24.8621506177483,0 -27.62461179749811,9.20820393249937 0,0 -27.62461179749811,-9.20820393249937" fill="#000000" transform="translate(276.7390130371539 0) rotate(0)" stroke="none"/></g><g transform="translate(1868.6895008154297 332.8778338286415) rotate(12.959522663754559) translate(0 -13)"><g transform="translate(0 0)"><g transform="translate(-50.3359375 0)" fill="#ffffff" stroke="#000000" stroke-width="0"><rect x="0" y="0" width="100.671875" height="26" rx="5" ry="5" stroke="none"/><text xml:space="preserve" x="5" y="17.45703125" stroke="none" text-anchor="left" font-family="sans-serif" font-size="16" font-weight="normal" fill="#000000">PERFORMS</text></g></g></g></g><g class="relationship"><g transform="translate(2044.3975998563967 373.31251867627077) rotate(-16.208759259938887)" stroke-width="5" stroke="#d33115"><path d="M 59 0 L 251.87686241940864 0"/><polygon points="-24.8621506177483,0 -27.62461179749811,9.20820393249937 0,0 -27.62461179749811,-9.20820393249937" fill="#d33115" transform="translate(276.73901303715695 0) rotate(0)" stroke="none"/></g><g transform="translate(2193.657512419387 329.9237597792646) rotate(-16.208759259938887) translate(0 -13)"><g transform="translate(0 0)"><g transform="translate(-59.53515625 0)" fill="#ffffff" stroke="#000000" stroke-width="0"><rect x="0" y="0" width="119.0703125" height="26" rx="5" ry="5" stroke="none"/><text xml:space="preserve" x="5" y="17.45703125" stroke="none" text-anchor="left" font-family="sans-serif" font-size="16" font-weight="normal" fill="#000000">BENEFITS_TO</text></g></g></g></g><g class="relationship"><g transform="translate(-490.1065298898708 10.830831244851929) rotate(-14.544247745372125)" stroke-width="5" stroke="#000000"><path d="M 59 0 L 238.49741633915656 0"/><polygon points="-24.8621506177483,0 -27.62461179749811,9.20820393249937 0,0 -27.62461179749811,-9.20820393249937" fill="#000000" transform="translate(263.35956695690487 0) rotate(0)" stroke="none"/></g><g transform="translate(-346.12462415805885 -26.52407477770393) rotate(-14.544247745372125) translate(0 -13)"><g transform="translate(0 0)"><g transform="translate(-50.3359375 0)" fill="#ffffff" stroke="#000000" stroke-width="0"><rect x="0" y="0" width="100.671875" height="26" rx="5" ry="5" stroke="none"/><text xml:space="preserve" x="5" y="17.45703125" stroke="none" text-anchor="left" font-family="sans-serif" font-size="16" font-weight="normal" fill="#000000">PERFORMS</text></g></g></g></g><g class="relationship"><g transform="translate(-178.07730051045715 -70.12255300517496) rotate(14.544247745372125)" stroke-width="5" stroke="#000000"><path d="M 59 0 L 238.4974163391565 0"/><polygon points="-24.8621506177483,0 -27.62461179749811,9.20820393249937 0,0 -27.62461179749811,-9.20820393249937" fill="#000000" transform="translate(263.3595669569048 0) rotate(0)" stroke="none"/></g><g transform="translate(-34.095394778645215 -32.767646982619105) rotate(14.544247745372125) translate(0 -13)"><g transform="translate(0 0)"><g transform="translate(-59.53515625 0)" fill="#ffffff" stroke="#000000" stroke-width="0"><rect x="0" y="0" width="119.0703125" height="26" rx="5" ry="5" stroke="none"/><text xml:space="preserve" x="5" y="17.45703125" stroke="none" text-anchor="left" font-family="sans-serif" font-size="16" font-weight="normal" fill="#000000">BENEFITS_TO</text></g></g></g></g><g class="relationship"><g transform="translate(-490.1065298898708 10.830831244851929) rotate(14.544247745372086)" stroke-width="5" stroke="#000000"><path d="M 59 0 L 238.49741633915656 0"/><polygon points="-24.8621506177483,0 -27.62461179749811,9.20820393249937 0,0 -27.62461179749811,-9.20820393249937" fill="#000000" transform="translate(263.35956695690487 0) rotate(0)" stroke="none"/></g><g transform="translate(-346.12462415805885 48.18573726740769) rotate(14.544247745372086) translate(0 -13)"><g transform="translate(0 0)"><g transform="translate(-50.3359375 0)" fill="#ffffff" stroke="#000000" stroke-width="0"><rect x="0" y="0" width="100.671875" height="26" rx="5" ry="5" stroke="none"/><text xml:space="preserve" x="5" y="17.45703125" stroke="none" text-anchor="left" font-family="sans-serif" font-size="16" font-weight="normal" fill="#000000">PERFORMS</text></g></g></g></g><g class="relationship"><g transform="translate(-178.07730051045715 91.7842154948786) rotate(-14.54424774537209)" stroke-width="5" stroke="#000000"><path d="M 59 0 L 238.49741633915644 0"/><polygon points="-24.8621506177483,0 -27.62461179749811,9.20820393249937 0,0 -27.62461179749811,-9.20820393249937" fill="#000000" transform="translate(263.35956695690476 0) rotate(0)" stroke="none"/></g><g transform="translate(-34.09539477864524 54.429309472322835) rotate(-14.54424774537209) translate(0 -13)"><g transform="translate(0 0)"><g transform="translate(-59.53515625 0)" fill="#ffffff" stroke="#000000" stroke-width="0"><rect x="0" y="0" width="119.0703125" height="26" rx="5" ry="5" stroke="none"/><text xml:space="preserve" x="5" y="17.45703125" stroke="none" text-anchor="left" font-family="sans-serif" font-size="16" font-weight="normal" fill="#000000">BENEFITS_TO</text></g></g></g></g><g class="relationship"><g transform="translate(123.71103720287243 298.018813350498) rotate(0.0000011382050122693179)" stroke-width="5" stroke="#000000"><path d="M 59 0 L 248.7383080052406 0"/><polygon points="-24.8621506177483,0 -27.62461179749811,9.20820393249937 0,0 -27.62461179749811,-9.20820393249937" fill="#000000" transform="translate(273.6004586229889 0) rotate(0)" stroke="none"/></g><g transform="translate(277.5801912054927 298.01881640717414) rotate(0.0000011382050122693179) translate(0 -13)"><g transform="translate(0 0)"><g transform="translate(-50.3359375 0)" fill="#ffffff" stroke="#000000" stroke-width="0"><rect x="0" y="0" width="100.671875" height="26" rx="5" ry="5" stroke="none"/><text xml:space="preserve" x="5" y="17.45703125" stroke="none" text-anchor="left" font-family="sans-serif" font-size="16" font-weight="normal" fill="#000000">PERFORMS</text></g></g></g></g><g class="relationship"><g transform="translate(456.3114958258613 298.0188199577475) rotate(9.792193334015835e-15)" stroke-width="5" stroke="#000000"><path d="M 59 0 L 248.7383080052406 0"/><polygon points="-24.8621506177483,0 -27.62461179749811,9.20820393249937 0,0 -27.62461179749811,-9.20820393249937" fill="#000000" transform="translate(273.6004586229889 0) rotate(0)" stroke="none"/></g><g transform="translate(610.1806498284816 298.0188199577475) rotate(9.792193334015835e-15) translate(0 -13)"><g transform="translate(0 0)"><g transform="translate(-59.53515625 0)" fill="#ffffff" stroke="#000000" stroke-width="0"><rect x="0" y="0" width="119.0703125" height="26" rx="5" ry="5" stroke="none"/><text xml:space="preserve" x="5" y="17.45703125" stroke="none" text-anchor="left" font-family="sans-serif" font-size="16" font-weight="normal" fill="#000000">BENEFITS_TO</text></g></g></g></g><g class="relationship"><g transform="translate(1027.4923860845824 803.9805036719423) rotate(-23.505835763335366)" stroke-width="5" stroke="#000000"><path d="M 59 0 L 270.7583725908461 0"/><polygon points="-24.8621506177483,0 -27.62461179749811,9.20820393249937 0,0 -27.62461179749811,-9.20820393249937" fill="#000000" transform="translate(295.6205232085944 0) rotate(0)" stroke="none"/></g><g transform="translate(1178.6898077617525 738.2196813563961) rotate(-23.505835763335366) translate(0 -13)"><g transform="translate(0 0)"><g transform="translate(-50.3359375 0)" fill="#ffffff" stroke="#000000" stroke-width="0"><rect x="0" y="0" width="100.671875" height="26" rx="5" ry="5" stroke="none"/><text xml:space="preserve" x="5" y="17.45703125" stroke="none" text-anchor="left" font-family="sans-serif" font-size="16" font-weight="normal" fill="#000000">PERFORMS</text></g></g></g></g><g class="relationship"><g transform="translate(1352.6863052665874 662.5427774183543) rotate(-45.00000000000001)" stroke-width="5" stroke="#000000"><path d="M 59 0 L 431.65260125685086 0"/><polygon points="-24.8621506177483,0 -27.62461179749811,9.20820393249937 0,0 -27.62461179749811,-9.20820393249937" fill="#000000" transform="translate(456.51475187459914 0) rotate(0)" stroke="none"/></g><g transform="translate(1526.1581960443566 489.07088664058506) rotate(-45.00000000000001) translate(0 -13)"><g transform="translate(0 0)"><g transform="translate(-59.53515625 0)" fill="#ffffff" stroke="#000000" stroke-width="0"><rect x="0" y="0" width="119.0703125" height="26" rx="5" ry="5" stroke="none"/><text xml:space="preserve" x="5" y="17.45703125" stroke="none" text-anchor="left" font-family="sans-serif" font-size="16" font-weight="normal" fill="#000000">BENEFITS_TO</text></g></g></g></g><g class="relationship"><g transform="translate(1027.4923860845824 803.9805036719423) rotate(6.133758191424926)" stroke-width="5" stroke="#000000"><path d="M 59 0 L 243.20417038200006 0"/><polygon points="-24.8621506177483,0 -27.62461179749811,9.20820393249937 0,0 -27.62461179749811,-9.20820393249937" fill="#000000" transform="translate(268.06632099974837 0) rotate(0)" stroke="none"/></g><g transform="translate(1177.7294362633818 820.1257476354493) rotate(6.133758191424926) translate(0 -13)"><g transform="translate(0 0)"><g transform="translate(-50.3359375 0)" fill="#ffffff" stroke="#000000" stroke-width="0"><rect x="0" y="0" width="100.671875" height="26" rx="5" ry="5" stroke="none"/><text xml:space="preserve" x="5" y="17.45703125" stroke="none" text-anchor="left" font-family="sans-serif" font-size="16" font-weight="normal" fill="#000000">PERFORMS</text></g></g></g></g><g class="relationship"><g transform="translate(1352.6863052665874 838.9275101153859) rotate(-56.023562157362974)" stroke-width="5" stroke="#000000"><path d="M 59 0 L 568.4107690764635 0"/><polygon points="-24.8621506177483,0 -27.62461179749811,9.20820393249937 0,0 -27.62461179749811,-9.20820393249937" fill="#000000" transform="translate(593.2729196942117 0) rotate(0)" stroke="none"/></g><g transform="translate(1528.0011633254553 578.7818416292878) rotate(-56.023562157362974) translate(0 -13)"><g transform="translate(0 0)"><g transform="translate(-59.53515625 0)" fill="#ffffff" stroke="#000000" stroke-width="0"><rect x="0" y="0" width="119.0703125" height="26" rx="5" ry="5" stroke="none"/><text xml:space="preserve" x="5" y="17.45703125" stroke="none" text-anchor="left" font-family="sans-serif" font-size="16" font-weight="normal" fill="#000000">BENEFITS_TO</text></g></g></g></g><g class="node"><g fill="#ffffff" stroke="#000000" stroke-width="4"><circle cx="-490.1065298898708" cy="10.830831244851929" r="52"/></g><g transform="translate(-490.1065298898708 10.830831244851929)"><g transform="scale(0.4374364855992301) translate(0 -27)"><g transform="translate(0 0)"><g transform="translate(-99.265625 0)"><g fill="#ffffff" stroke="#000000" stroke-width="4"><rect x="0" y="0" width="198.53125" height="54" rx="27" ry="27"/><text xml:space="preserve" x="27" y="38.142578125" stroke="none" font-family="sans-serif" font-size="40" font-weight="normal" fill="#000000">Account</text></g></g></g></g><g transform="translate(-56 -9.599999999999993)"><g transform="translate(0 0)"><g transform="translate(-191.203125 0)" fill="white"><rect x="0" y="0" width="191.203125" height="19.2" rx="0" ry="0" stroke="none"/><g font-family="sans-serif" font-size="16" font-weight="normal" fill="#000000" text-anchor="end"><text xml:space="preserve" x="121.8359375" y="14.05703125" stroke="none">accountNumber:</text><text xml:space="preserve" x="126.28125" y="14.05703125" stroke="none" text-anchor="start">ACC001</text></g></g></g></g></g></g><g class="node"><g fill="#ffffff" stroke="#68bc00" stroke-width="4"><circle cx="133.95192886895646" cy="10.830831244851908" r="52"/></g><g transform="translate(133.95192886895646 10.830831244851908)"><g transform="scale(0.4374364855992301) translate(0 -27)"><g transform="translate(0 0)"><g transform="translate(-99.265625 0)"><g fill="#ffffff" stroke="#000000" stroke-width="4"><rect x="0" y="0" width="198.53125" height="54" rx="27" ry="27"/><text xml:space="preserve" x="27" y="38.142578125" stroke="none" font-family="sans-serif" font-size="40" font-weight="normal" fill="#000000">Account</text></g></g></g></g><g transform="translate(3.429011037612589e-15 56)"><g transform="translate(0 0)"><g transform="translate(-95.6015625 0)" fill="white"><rect x="0" y="0" width="191.203125" height="19.2" rx="0" ry="0" stroke="none"/><g font-family="sans-serif" font-size="16" font-weight="normal" fill="#000000" text-anchor="end"><text xml:space="preserve" x="121.8359375" y="14.05703125" stroke="none">accountNumber:</text><text xml:space="preserve" x="126.28125" y="14.05703125" stroke="none" text-anchor="start">ACC002</text></g></g></g></g></g></g><g class="node"><g fill="#ffffff" stroke="#000000" stroke-width="4"><circle cx="123.71103720287243" cy="298.018813350498" r="52"/></g><g transform="translate(123.71103720287243 298.018813350498)"><g transform="scale(0.4374364855992301) translate(0 -27)"><g transform="translate(0 0)"><g transform="translate(-99.265625 0)"><g fill="#ffffff" stroke="#000000" stroke-width="4"><rect x="0" y="0" width="198.53125" height="54" rx="27" ry="27"/><text xml:space="preserve" x="27" y="38.142578125" stroke="none" font-family="sans-serif" font-size="40" font-weight="normal" fill="#000000">Account</text></g></g></g></g><g transform="translate(-56 -9.599999999999993)"><g transform="translate(0 0)"><g transform="translate(-191.203125 0)" fill="white"><rect x="0" y="0" width="191.203125" height="19.2" rx="0" ry="0" stroke="none"/><g font-family="sans-serif" font-size="16" font-weight="normal" fill="#000000" text-anchor="end"><text xml:space="preserve" x="121.8359375" y="14.05703125" stroke="none">accountNumber:</text><text xml:space="preserve" x="126.28125" y="14.05703125" stroke="none" text-anchor="start">ACC003</text></g></g></g></g></g></g><g class="node"><g fill="#ffffff" stroke="#68bc00" stroke-width="4"><circle cx="788.9119544488502" cy="298.01881995774755" r="52"/></g><g transform="translate(788.9119544488502 298.01881995774755)"><g transform="scale(0.4374364855992301) translate(0 -27)"><g transform="translate(0 0)"><g transform="translate(-99.265625 0)"><g fill="#ffffff" stroke="#000000" stroke-width="4"><rect x="0" y="0" width="198.53125" height="54" rx="27" ry="27"/><text xml:space="preserve" x="27" y="38.142578125" stroke="none" font-family="sans-serif" font-size="40" font-weight="normal" fill="#000000">Account</text></g></g></g></g><g transform="translate(3.429011037612589e-15 56)"><g transform="translate(0 0)"><g transform="translate(-95.6015625 0)" fill="white"><rect x="0" y="0" width="191.203125" height="19.2" rx="0" ry="0" stroke="none"/><g font-family="sans-serif" font-size="16" font-weight="normal" fill="#000000" text-anchor="end"><text xml:space="preserve" x="121.8359375" y="14.05703125" stroke="none">accountNumber:</text><text xml:space="preserve" x="126.28125" y="14.05703125" stroke="none" text-anchor="start">ACC004</text></g></g></g></g></g></g><g class="node"><g fill="#ffffff" stroke="#000000" stroke-width="4"><circle cx="1027.4923860845824" cy="803.9805036719423" r="52"/></g><g transform="translate(1027.4923860845824 803.9805036719423)"><g transform="scale(0.4374364855992301) translate(0 -27)"><g transform="translate(0 0)"><g transform="translate(-99.265625 0)"><g fill="#ffffff" stroke="#000000" stroke-width="4"><rect x="0" y="0" width="198.53125" height="54" rx="27" ry="27"/><text xml:space="preserve" x="27" y="38.142578125" stroke="none" font-family="sans-serif" font-size="40" font-weight="normal" fill="#000000">Account</text></g></g></g></g><g transform="translate(-56 -9.599999999999993)"><g transform="translate(0 0)"><g transform="translate(-191.203125 0)" fill="white"><rect x="0" y="0" width="191.203125" height="19.2" rx="0" ry="0" stroke="none"/><g font-family="sans-serif" font-size="16" font-weight="normal" fill="#000000" text-anchor="end"><text xml:space="preserve" x="121.8359375" y="14.05703125" stroke="none">accountNumber:</text><text xml:space="preserve" x="126.28125" y="14.05703125" stroke="none" text-anchor="start">ACC005</text></g></g></g></g></g></g><g class="node"><g fill="#ffffff" stroke="#68bc00" stroke-width="4"><circle cx="1717.2102821188168" cy="298.01880056612475" r="52"/></g><g transform="translate(1717.2102821188168 298.01880056612475)"><g transform="scale(0.4374364855992301) translate(0 -27)"><g transform="translate(0 0)"><g transform="translate(-99.265625 0)"><g fill="#ffffff" stroke="#000000" stroke-width="4"><rect x="0" y="0" width="198.53125" height="54" rx="27" ry="27"/><text xml:space="preserve" x="27" y="38.142578125" stroke="none" font-family="sans-serif" font-size="40" font-weight="normal" fill="#000000">Account</text></g></g></g></g><g transform="translate(3.429011037612589e-15 -75.2)"><g transform="translate(0 0)"><g transform="translate(-95.6015625 0)" fill="white"><rect x="0" y="0" width="191.203125" height="19.2" rx="0" ry="0" stroke="none"/><g font-family="sans-serif" font-size="16" font-weight="normal" fill="#000000" text-anchor="end"><text xml:space="preserve" x="121.8359375" y="14.05703125" stroke="none">accountNumber:</text><text xml:space="preserve" x="126.28125" y="14.05703125" stroke="none" text-anchor="start">ACC006</text></g></g></g></g></g></g><g class="node"><g fill="#ffffff" stroke="#d33115" stroke-width="4"><circle cx="2366.791330543908" cy="279.59503210864676" r="52"/></g><g transform="translate(2366.791330543908 279.59503210864676)"><g transform="scale(0.2097924640086672) translate(0 -56)"><g transform="translate(0 0)"><g transform="translate(-99.265625 0)"><g fill="#ffffff" stroke="#000000" stroke-width="4"><rect x="0" y="0" width="198.53125" height="54" rx="27" ry="27"/><text xml:space="preserve" x="27" y="38.142578125" stroke="none" font-family="sans-serif" font-size="40" font-weight="normal" fill="#000000">Account</text></g></g><g transform="translate(-207.05859375 62)"><g fill="#ffffff" stroke="#000000" stroke-width="4"><rect x="0" y="0" width="414.1171875" height="54" rx="27" ry="27"/><text xml:space="preserve" x="27" y="38.142578125" stroke="none" font-family="sans-serif" font-size="40" font-weight="normal" fill="#000000">HighRiskJurisdiction</text></g></g></g></g><g transform="translate(56 -9.6)"><g transform="translate(0 0)"><g transform="translate(0 0)" fill="white"><rect x="0" y="0" width="191.203125" height="19.2" rx="0" ry="0" stroke="none"/><g font-family="sans-serif" font-size="16" font-weight="normal" fill="#000000" text-anchor="end"><text xml:space="preserve" x="121.8359375" y="14.05703125" stroke="none">accountNumber:</text><text xml:space="preserve" x="126.28125" y="14.05703125" stroke="none" text-anchor="start">ACC007</text></g></g></g></g></g></g><g class="node"><g fill="#ffffff" stroke="#68bc00" stroke-width="4"><circle cx="456.3114958258613" cy="10.830831244851929" r="52"/></g><g transform="translate(456.3114958258613 10.830831244851929)"><g transform="scale(0.3370326420028396) translate(0 -27)"><g transform="translate(0 0)"><g transform="translate(-130.759765625 0)"><g fill="#ffffff" stroke="#000000" stroke-width="4"><rect x="0" y="0" width="261.51953125" height="54" rx="27" ry="27"/><text xml:space="preserve" x="27" y="38.142578125" stroke="none" font-family="sans-serif" font-size="40" font-weight="normal" fill="#000000">Transaction</text></g></g></g></g><g transform="translate(3.429011037612589e-15 -113.6)"><g transform="translate(0 0)"><g transform="translate(-163.1953125 0)" fill="white"><rect x="0" y="0" width="326.390625" height="57.599999999999994" rx="0" ry="0" stroke="none"/><g font-family="sans-serif" font-size="16" font-weight="normal" fill="#000000" text-anchor="end"><text xml:space="preserve" x="100.5" y="14.05703125" stroke="none">transactionId:</text><text xml:space="preserve" x="104.9453125" y="14.05703125" stroke="none" text-anchor="start">TXN001</text><text xml:space="preserve" x="100.5" y="33.25703125" stroke="none" text-anchor="end">amount:</text><text xml:space="preserve" x="104.9453125" y="33.25703125" stroke="none" text-anchor="start">1100</text><text xml:space="preserve" x="100.5" y="52.45703125" stroke="none" text-anchor="end">date:</text><text xml:space="preserve" x="104.9453125" y="52.45703125" stroke="none" text-anchor="start">datetime()-duration({days: 29})</text></g></g></g></g></g></g><g class="node"><g fill="#ffffff" stroke="#68bc00" stroke-width="4"><circle cx="1105.20826108243" cy="120.11431382710808" r="52"/></g><g transform="translate(1105.20826108243 120.11431382710808)"><g transform="scale(0.3370326420028396) translate(0 -27)"><g transform="translate(0 0)"><g transform="translate(-130.759765625 0)"><g fill="#ffffff" stroke="#000000" stroke-width="4"><rect x="0" y="0" width="261.51953125" height="54" rx="27" ry="27"/><text xml:space="preserve" x="27" y="38.142578125" stroke="none" font-family="sans-serif" font-size="40" font-weight="normal" fill="#000000">Transaction</text></g></g></g></g><g transform="translate(3.429011037612589e-15 -113.6)"><g transform="translate(0 0)"><g transform="translate(-163.1953125 0)" fill="white"><rect x="0" y="0" width="326.390625" height="57.599999999999994" rx="0" ry="0" stroke="none"/><g font-family="sans-serif" font-size="16" font-weight="normal" fill="#000000" text-anchor="end"><text xml:space="preserve" x="100.5" y="14.05703125" stroke="none">transactionId:</text><text xml:space="preserve" x="104.9453125" y="14.05703125" stroke="none" text-anchor="start">TXN002</text><text xml:space="preserve" x="100.5" y="33.25703125" stroke="none" text-anchor="end">amount:</text><text xml:space="preserve" x="104.9453125" y="33.25703125" stroke="none" text-anchor="start">100</text><text xml:space="preserve" x="100.5" y="52.45703125" stroke="none" text-anchor="end">date:</text><text xml:space="preserve" x="104.9453125" y="52.45703125" stroke="none" text-anchor="start">datetime()-duration({days: 27})</text></g></g></g></g></g></g><g class="node"><g fill="#ffffff" stroke="#68bc00" stroke-width="4"><circle cx="1105.20826108243" cy="298.01880056612475" r="52"/></g><g transform="translate(1105.20826108243 298.01880056612475)"><g transform="scale(0.3370326420028396) translate(0 -27)"><g transform="translate(0 0)"><g transform="translate(-130.759765625 0)"><g fill="#ffffff" stroke="#000000" stroke-width="4"><rect x="0" y="0" width="261.51953125" height="54" rx="27" ry="27"/><text xml:space="preserve" x="27" y="38.142578125" stroke="none" font-family="sans-serif" font-size="40" font-weight="normal" fill="#000000">Transaction</text></g></g></g></g><g transform="translate(3.429011037612589e-15 -113.6)"><g transform="translate(0 0)"><g transform="translate(-163.1953125 0)" fill="white"><rect x="0" y="0" width="326.390625" height="57.599999999999994" rx="0" ry="0" stroke="none"/><g font-family="sans-serif" font-size="16" font-weight="normal" fill="#000000" text-anchor="end"><text xml:space="preserve" x="100.5" y="14.05703125" stroke="none">transactionId:</text><text xml:space="preserve" x="104.9453125" y="14.05703125" stroke="none" text-anchor="start">TXN003</text><text xml:space="preserve" x="100.5" y="33.25703125" stroke="none" text-anchor="end">amount:</text><text xml:space="preserve" x="104.9453125" y="33.25703125" stroke="none" text-anchor="start">200</text><text xml:space="preserve" x="100.5" y="52.45703125" stroke="none" text-anchor="end">date:</text><text xml:space="preserve" x="104.9453125" y="52.45703125" stroke="none" text-anchor="start">datetime()-duration({days: 26})</text></g></g></g></g></g></g><g class="node"><g fill="#ffffff" stroke="#68bc00" stroke-width="4"><circle cx="1105.20826108243" cy="475.92328730514146" r="52"/></g><g transform="translate(1105.20826108243 475.92328730514146)"><g transform="scale(0.3370326420028396) translate(0 -27)"><g transform="translate(0 0)"><g transform="translate(-130.759765625 0)"><g fill="#ffffff" stroke="#000000" stroke-width="4"><rect x="0" y="0" width="261.51953125" height="54" rx="27" ry="27"/><text xml:space="preserve" x="27" y="38.142578125" stroke="none" font-family="sans-serif" font-size="40" font-weight="normal" fill="#000000">Transaction</text></g></g></g></g><g transform="translate(3.429011037612589e-15 56)"><g transform="translate(0 0)"><g transform="translate(-163.1953125 0)" fill="white"><rect x="0" y="0" width="326.390625" height="57.599999999999994" rx="0" ry="0" stroke="none"/><g font-family="sans-serif" font-size="16" font-weight="normal" fill="#000000" text-anchor="end"><text xml:space="preserve" x="100.5" y="14.05703125" stroke="none">transactionId:</text><text xml:space="preserve" x="104.9453125" y="14.05703125" stroke="none" text-anchor="start">TXN004</text><text xml:space="preserve" x="100.5" y="33.25703125" stroke="none" text-anchor="end">amount:</text><text xml:space="preserve" x="104.9453125" y="33.25703125" stroke="none" text-anchor="start">600</text><text xml:space="preserve" x="100.5" y="52.45703125" stroke="none" text-anchor="end">date:</text><text xml:space="preserve" x="104.9453125" y="52.45703125" stroke="none" text-anchor="start">datetime()-duration({days: 25})</text></g></g></g></g></g></g><g class="node"><g fill="#ffffff" stroke="#d33115" stroke-width="4"><circle cx="2039.604012806326" cy="204.30131399849859" r="52"/></g><g transform="translate(2039.604012806326 204.30131399849859)"><g transform="scale(0.3370326420028396) translate(0 -27)"><g transform="translate(0 0)"><g transform="translate(-130.759765625 0)"><g fill="#ffffff" stroke="#000000" stroke-width="4"><rect x="0" y="0" width="261.51953125" height="54" rx="27" ry="27"/><text xml:space="preserve" x="27" y="38.142578125" stroke="none" font-family="sans-serif" font-size="40" font-weight="normal" fill="#000000">Transaction</text></g></g></g></g><g transform="translate(3.429011037612589e-15 -113.6)"><g transform="translate(0 0)"><g transform="translate(-158.74609375 0)" fill="white"><rect x="0" y="0" width="317.4921875" height="57.599999999999994" rx="0" ry="0" stroke="none"/><g font-family="sans-serif" font-size="16" font-weight="normal" fill="#000000" text-anchor="end"><text xml:space="preserve" x="100.5" y="14.05703125" stroke="none">transactionId:</text><text xml:space="preserve" x="104.9453125" y="14.05703125" stroke="none" text-anchor="start">TXN005</text><text xml:space="preserve" x="100.5" y="33.25703125" stroke="none" text-anchor="end">amount:</text><text xml:space="preserve" x="104.9453125" y="33.25703125" stroke="none" text-anchor="start">500</text><text xml:space="preserve" x="100.5" y="52.45703125" stroke="none" text-anchor="end">date:</text><text xml:space="preserve" x="104.9453125" y="52.45703125" stroke="none" text-anchor="start">datetime()-duration({days: 3})</text></g></g></g></g></g></g><g class="node"><g fill="#ffffff" stroke="#d33115" stroke-width="4"><circle cx="2044.3975998563967" cy="373.31251867627077" r="52"/></g><g transform="translate(2044.3975998563967 373.31251867627077)"><g transform="scale(0.3370326420028396) translate(0 -27)"><g transform="translate(0 0)"><g transform="translate(-130.759765625 0)"><g fill="#ffffff" stroke="#000000" stroke-width="4"><rect x="0" y="0" width="261.51953125" height="54" rx="27" ry="27"/><text xml:space="preserve" x="27" y="38.142578125" stroke="none" font-family="sans-serif" font-size="40" font-weight="normal" fill="#000000">Transaction</text></g></g></g></g><g transform="translate(3.429011037612589e-15 56)"><g transform="translate(0 0)"><g transform="translate(-158.74609375 0)" fill="white"><rect x="0" y="0" width="317.4921875" height="57.599999999999994" rx="0" ry="0" stroke="none"/><g font-family="sans-serif" font-size="16" font-weight="normal" fill="#000000" text-anchor="end"><text xml:space="preserve" x="100.5" y="14.05703125" stroke="none">transactionId:</text><text xml:space="preserve" x="104.9453125" y="14.05703125" stroke="none" text-anchor="start">TXN006</text><text xml:space="preserve" x="100.5" y="33.25703125" stroke="none" text-anchor="end">amount:</text><text xml:space="preserve" x="104.9453125" y="33.25703125" stroke="none" text-anchor="start">500</text><text xml:space="preserve" x="100.5" y="52.45703125" stroke="none" text-anchor="end">date:</text><text xml:space="preserve" x="104.9453125" y="52.45703125" stroke="none" text-anchor="start">datetime()-duration({days: 2})</text></g></g></g></g></g></g><g class="node"><g fill="#ffffff" stroke="#000000" stroke-width="4"><circle cx="-178.07730051045715" cy="-70.12255300517496" r="52"/></g><g transform="translate(-178.07730051045715 -70.12255300517496)"><g transform="scale(0.3370326420028396) translate(0 -27)"><g transform="translate(0 0)"><g transform="translate(-130.759765625 0)"><g fill="#ffffff" stroke="#000000" stroke-width="4"><rect x="0" y="0" width="261.51953125" height="54" rx="27" ry="27"/><text xml:space="preserve" x="27" y="38.142578125" stroke="none" font-family="sans-serif" font-size="40" font-weight="normal" fill="#000000">Transaction</text></g></g></g></g><g transform="translate(3.429011037612589e-15 -113.6)"><g transform="translate(0 0)"><g transform="translate(-163.1953125 0)" fill="white"><rect x="0" y="0" width="326.390625" height="57.599999999999994" rx="0" ry="0" stroke="none"/><g font-family="sans-serif" font-size="16" font-weight="normal" fill="#000000" text-anchor="end"><text xml:space="preserve" x="100.5" y="14.05703125" stroke="none">transactionId:</text><text xml:space="preserve" x="104.9453125" y="14.05703125" stroke="none" text-anchor="start">TXN007</text><text xml:space="preserve" x="100.5" y="33.25703125" stroke="none" text-anchor="end">amount:</text><text xml:space="preserve" x="104.9453125" y="33.25703125" stroke="none" text-anchor="start">500</text><text xml:space="preserve" x="100.5" y="52.45703125" stroke="none" text-anchor="end">date:</text><text xml:space="preserve" x="104.9453125" y="52.45703125" stroke="none" text-anchor="start">datetime()-duration({days: 60})</text></g></g></g></g></g></g><g class="node"><g fill="#ffffff" stroke="#000000" stroke-width="4"><circle cx="-178.07730051045715" cy="91.7842154948786" r="52"/></g><g transform="translate(-178.07730051045715 91.7842154948786)"><g transform="scale(0.3370326420028396) translate(0 -27)"><g transform="translate(0 0)"><g transform="translate(-130.759765625 0)"><g fill="#ffffff" stroke="#000000" stroke-width="4"><rect x="0" y="0" width="261.51953125" height="54" rx="27" ry="27"/><text xml:space="preserve" x="27" y="38.142578125" stroke="none" font-family="sans-serif" font-size="40" font-weight="normal" fill="#000000">Transaction</text></g></g></g></g><g transform="translate(3.429011037612589e-15 56)"><g transform="translate(0 0)"><g transform="translate(-163.1953125 0)" fill="white"><rect x="0" y="0" width="326.390625" height="57.599999999999994" rx="0" ry="0" stroke="none"/><g font-family="sans-serif" font-size="16" font-weight="normal" fill="#000000" text-anchor="end"><text xml:space="preserve" x="100.5" y="14.05703125" stroke="none">transactionId:</text><text xml:space="preserve" x="104.9453125" y="14.05703125" stroke="none" text-anchor="start">TXN008</text><text xml:space="preserve" x="100.5" y="33.25703125" stroke="none" text-anchor="end">amount:</text><text xml:space="preserve" x="104.9453125" y="33.25703125" stroke="none" text-anchor="start">500</text><text xml:space="preserve" x="100.5" y="52.45703125" stroke="none" text-anchor="end">date:</text><text xml:space="preserve" x="104.9453125" y="52.45703125" stroke="none" text-anchor="start">datetime()-duration({days: 60})</text></g></g></g></g></g></g><g class="node"><g fill="#ffffff" stroke="#000000" stroke-width="4"><circle cx="456.3114958258613" cy="298.0188199577475" r="52"/></g><g transform="translate(456.3114958258613 298.0188199577475)"><g transform="scale(0.3370326420028396) translate(0 -27)"><g transform="translate(0 0)"><g transform="translate(-130.759765625 0)"><g fill="#ffffff" stroke="#000000" stroke-width="4"><rect x="0" y="0" width="261.51953125" height="54" rx="27" ry="27"/><text xml:space="preserve" x="27" y="38.142578125" stroke="none" font-family="sans-serif" font-size="40" font-weight="normal" fill="#000000">Transaction</text></g></g></g></g><g transform="translate(3.429011037612589e-15 56)"><g transform="translate(0 0)"><g transform="translate(-163.1953125 0)" fill="white"><rect x="0" y="0" width="326.390625" height="57.599999999999994" rx="0" ry="0" stroke="none"/><g font-family="sans-serif" font-size="16" font-weight="normal" fill="#000000" text-anchor="end"><text xml:space="preserve" x="100.5" y="14.05703125" stroke="none">transactionId:</text><text xml:space="preserve" x="104.9453125" y="14.05703125" stroke="none" text-anchor="start">TXN009</text><text xml:space="preserve" x="100.5" y="33.25703125" stroke="none" text-anchor="end">amount:</text><text xml:space="preserve" x="104.9453125" y="33.25703125" stroke="none" text-anchor="start">750</text><text xml:space="preserve" x="100.5" y="52.45703125" stroke="none" text-anchor="end">date:</text><text xml:space="preserve" x="104.9453125" y="52.45703125" stroke="none" text-anchor="start">datetime()-duration({days: 28})</text></g></g></g></g></g></g><g class="node"><g fill="#ffffff" stroke="#000000" stroke-width="4"><circle cx="1352.6863052665874" cy="662.5427774183543" r="52"/></g><g transform="translate(1352.6863052665874 662.5427774183543)"><g transform="scale(0.3370326420028396) translate(0 -27)"><g transform="translate(0 0)"><g transform="translate(-130.759765625 0)"><g fill="#ffffff" stroke="#000000" stroke-width="4"><rect x="0" y="0" width="261.51953125" height="54" rx="27" ry="27"/><text xml:space="preserve" x="27" y="38.142578125" stroke="none" font-family="sans-serif" font-size="40" font-weight="normal" fill="#000000">Transaction</text></g></g></g></g><g transform="translate(39.59797974644666 39.597979746446654)"><g transform="translate(0 0)"><g transform="translate(0 0)" fill="white"><rect x="0" y="0" width="326.390625" height="57.599999999999994" rx="0" ry="0" stroke="none"/><g font-family="sans-serif" font-size="16" font-weight="normal" fill="#000000" text-anchor="end"><text xml:space="preserve" x="100.5" y="14.05703125" stroke="none">transactionId:</text><text xml:space="preserve" x="104.9453125" y="14.05703125" stroke="none" text-anchor="start">TXN010</text><text xml:space="preserve" x="100.5" y="33.25703125" stroke="none" text-anchor="end">amount:</text><text xml:space="preserve" x="104.9453125" y="33.25703125" stroke="none" text-anchor="start">100</text><text xml:space="preserve" x="100.5" y="52.45703125" stroke="none" text-anchor="end">date:</text><text xml:space="preserve" x="104.9453125" y="52.45703125" stroke="none" text-anchor="start">datetime()-duration({days: 24})</text></g></g></g></g></g></g><g class="node"><g fill="#ffffff" stroke="#000000" stroke-width="4"><circle cx="1352.6863052665874" cy="838.9275101153859" r="52"/></g><g transform="translate(1352.6863052665874 838.9275101153859)"><g transform="scale(0.3370326420028396) translate(0 -27)"><g transform="translate(0 0)"><g transform="translate(-130.759765625 0)"><g fill="#ffffff" stroke="#000000" stroke-width="4"><rect x="0" y="0" width="261.51953125" height="54" rx="27" ry="27"/><text xml:space="preserve" x="27" y="38.142578125" stroke="none" font-family="sans-serif" font-size="40" font-weight="normal" fill="#000000">Transaction</text></g></g></g></g><g transform="translate(39.59797974644666 39.597979746446654)"><g transform="translate(0 0)"><g transform="translate(0 0)" fill="white"><rect x="0" y="0" width="326.390625" height="57.599999999999994" rx="0" ry="0" stroke="none"/><g font-family="sans-serif" font-size="16" font-weight="normal" fill="#000000" text-anchor="end"><text xml:space="preserve" x="100.5" y="14.05703125" stroke="none">transactionId:</text><text xml:space="preserve" x="104.9453125" y="14.05703125" stroke="none" text-anchor="start">TXN011</text><text xml:space="preserve" x="100.5" y="33.25703125" stroke="none" text-anchor="end">amount:</text><text xml:space="preserve" x="104.9453125" y="33.25703125" stroke="none" text-anchor="start">50</text><text xml:space="preserve" x="100.5" y="52.45703125" stroke="none" text-anchor="end">date:</text><text xml:space="preserve" x="104.9453125" y="52.45703125" stroke="none" text-anchor="start">datetime()-duration({days: 24})</text></g></g></g></g></g></g></g></svg>