<svg xmlns="http://www.w3.org/2000/svg" width="1894" height="600" viewBox="0 0 1894 600"><defs><style type="text/css"/></defs><g transform="translate(-236.23437499999994 335) scale(1)"><g class="relationship"><g transform="translate(1120 -29) rotate(20.112943738087587)" stroke-width="5" stroke="#000000"><path d="M 57.78386207693039 -11.917436111609138 L 92.97590692370865 -19.17549971317315 A 40 40 0 0 1 101.0555246264945 -20 L 174.21924401730675 -20 L 247.382963408119 -20 A 40 40 0 0 1 255.4625811109048 -19.175499713173153 L 266.30494659782147 -16.939352918121326 L 266.30494659782147 -16.939352918121326"/><polygon points="-24.8621506177483,0 -27.62461179749811,9.20820393249937 0,0 -27.62461179749811,-9.20820393249937" fill="#000000" transform="translate(348.4384880346135 0) rotate(11.653378884016742) translate(-59 0)" stroke="none"/></g><g transform="translate(1290.4721974698653 12.128759715765476) rotate(20.112943738087587) translate(0 -9.6)"><g transform="translate(0 0)"><g transform="translate(-48.921875 0)" fill="white"><rect x="0" y="0" width="97.84375" height="19.2" rx="0" ry="0" stroke="none"/><g font-family="sans-serif" font-size="16" font-weight="normal" fill="#000000" text-anchor="end"><text xml:space="preserve" x="62.2578125" y="14.05703125" stroke="none">amount:</text><text xml:space="preserve" x="66.703125" y="14.05703125" stroke="none" text-anchor="start">100</text></g></g></g></g></g><g class="relationship"><g transform="translate(1120 -29) rotate(20.112943738087587)" stroke-width="5" stroke="#000000"><path d="M 59 0 L 264.57633741686516 0"/><polygon points="-24.8621506177483,0 -27.62461179749811,9.20820393249937 0,0 -27.62461179749811,-9.20820393249937" fill="#000000" transform="translate(289.4384880346135 0) rotate(0)" stroke="none"/></g><g transform="translate(1271.9217747545738 26.634394842119022) rotate(20.112943738087587) translate(0 -9.6)"><g transform="translate(0 0)"><g transform="translate(-48.921875 0)" fill="white"><rect x="0" y="0" width="97.84375" height="19.2" rx="0" ry="0" stroke="none"/><g font-family="sans-serif" font-size="16" font-weight="normal" fill="#000000" text-anchor="end"><text xml:space="preserve" x="62.2578125" y="14.05703125" stroke="none">amount:</text><text xml:space="preserve" x="66.703125" y="14.05703125" stroke="none" text-anchor="start">600</text></g></g></g></g></g><g class="relationship"><g transform="translate(1120 -29) rotate(20.112943738087587)" stroke-width="5" stroke="#000000"><path d="M 57.78386207693039 11.917436111609138 L 92.97590692370865 19.17549971317315 A 40 40 0 0 0 101.0555246264945 20 L 174.21924401730675 20 L 247.382963408119 20 A 40 40 0 0 0 255.4625811109048 19.175499713173153 L 266.30494659782147 16.939352918121326 L 266.30494659782147 16.939352918121326"/><polygon points="-24.8621506177483,0 -27.62461179749811,9.20820393249937 0,0 -27.62461179749811,-9.20820393249937" fill="#000000" transform="translate(348.4384880346135 0) rotate(-11.653378884016742) translate(-59 0)" stroke="none"/></g><g transform="translate(1276.7173239741694 49.689423382924076) rotate(20.112943738087587) translate(0 -9.6)"><g transform="translate(0 0)"><g transform="translate(-48.921875 0)" fill="white"><rect x="0" y="0" width="97.84375" height="19.2" rx="0" ry="0" stroke="none"/><g font-family="sans-serif" font-size="16" font-weight="normal" fill="#000000" text-anchor="end"><text xml:space="preserve" x="62.2578125" y="14.05703125" stroke="none">amount:</text><text xml:space="preserve" x="66.703125" y="14.05703125" stroke="none" text-anchor="start">200</text></g></g></g></g></g><g class="relationship"><g transform="translate(1120 210.63636619737912) rotate(-20.11294373808758)" stroke-width="5" stroke="#000000"><path d="M 58.695178092152055 -5.989663490593891 L 95.96898050729243 -9.793341079425122 A 40 40 0 0 1 100.02976931447472 -10 L 174.21924401730675 -10 L 248.4087187201388 -10 A 40 40 0 0 1 252.4695075273211 -9.79334107942512 L 265.009608954959 -8.51366206436971 L 265.009608954959 -8.51366206436971"/><polygon points="-24.8621506177483,0 -27.62461179749811,9.20820393249937 0,0 -27.62461179749811,-9.20820393249937" fill="#000000" transform="translate(348.4384880346135 0) rotate(5.826689442008371) translate(-59 0)" stroke="none"/></g><g transform="translate(1280.1560423480935 141.3371087312447) rotate(-20.11294373808758) translate(0 -9.6)"><g transform="translate(0 0)"><g transform="translate(-48.921875 0)" fill="white"><rect x="0" y="0" width="97.84375" height="19.2" rx="0" ry="0" stroke="none"/><g font-family="sans-serif" font-size="16" font-weight="normal" fill="#000000" text-anchor="end"><text xml:space="preserve" x="62.2578125" y="14.05703125" stroke="none">amount:</text><text xml:space="preserve" x="66.703125" y="14.05703125" stroke="none" text-anchor="start">100</text></g></g></g></g></g><g class="relationship"><g transform="translate(1120 210.63636619737912) rotate(-20.11294373808758)" stroke-width="5" stroke="#000000"><path d="M 58.695178092152055 5.989663490593891 L 95.96898050729243 9.793341079425122 A 40 40 0 0 0 100.02976931447472 10 L 174.21924401730675 10 L 248.4087187201388 10 A 40 40 0 0 0 252.4695075273211 9.79334107942512 L 265.009608954959 8.51366206436971 L 265.009608954959 8.51366206436971"/><polygon points="-24.8621506177483,0 -27.62461179749811,9.20820393249937 0,0 -27.62461179749811,-9.20820393249937" fill="#000000" transform="translate(348.4384880346135 0) rotate(-5.826689442008371) translate(-59 0)" stroke="none"/></g><g transform="translate(1287.0334790959412 160.117440564824) rotate(-20.11294373808758) translate(0 -9.6)"><g transform="translate(0 0)"><g transform="translate(-44.47265625 0)" fill="white"><rect x="0" y="0" width="88.9453125" height="19.2" rx="0" ry="0" stroke="none"/><g font-family="sans-serif" font-size="16" font-weight="normal" fill="#000000" text-anchor="end"><text xml:space="preserve" x="62.2578125" y="14.05703125" stroke="none">amount:</text><text xml:space="preserve" x="66.703125" y="14.05703125" stroke="none" text-anchor="start">50</text></g></g></g></g></g><g class="relationship"><g transform="translate(775.9296875 -155) rotate(20.1129437380876)" stroke-width="5" stroke="#000000"><path d="M 59 0 L 282.5534330353595 0"/><polygon points="-24.8621506177483,0 -27.62461179749811,9.20820393249937 0,0 -27.62461179749811,-9.20820393249937" fill="#000000" transform="translate(307.41558365310783 0) rotate(0)" stroke="none"/></g><g transform="translate(936.2918577825565 -96.27469670722576) rotate(20.1129437380876) translate(0 -9.6)"><g transform="translate(0 0)"><g transform="translate(-52.78125 0)" fill="white"><rect x="0" y="0" width="105.5625" height="19.2" rx="0" ry="0" stroke="none"/><g font-family="sans-serif" font-size="16" font-weight="normal" fill="#000000" text-anchor="end"><text xml:space="preserve" x="62.2578125" y="14.05703125" stroke="none">amount:</text><text xml:space="preserve" x="66.703125" y="14.05703125" stroke="none" text-anchor="start">1100</text></g></g></g></g></g><g class="relationship"><g transform="translate(760.4693616751899 41.69724216404947) rotate(-11.124571649253541)" stroke-width="5" stroke="#000000"><path d="M 59 0 L 282.5534330353595 0"/><polygon points="-24.8621506177483,0 -27.62461179749811,9.20820393249937 0,0 -27.62461179749811,-9.20820393249937" fill="#000000" transform="translate(307.4155836531078 0) rotate(0)" stroke="none"/></g><g transform="translate(928.0371853154217 8.747107338283492) rotate(-11.124571649253541) translate(0 -9.6)"><g transform="translate(0 0)"><g transform="translate(-48.921875 0)" fill="white"><rect x="0" y="0" width="97.84375" height="19.2" rx="0" ry="0" stroke="none"/><g font-family="sans-serif" font-size="16" font-weight="normal" fill="#000000" text-anchor="end"><text xml:space="preserve" x="62.2578125" y="14.05703125" stroke="none">amount:</text><text xml:space="preserve" x="66.703125" y="14.05703125" stroke="none" text-anchor="start">750</text></g></g></g></g></g><g class="relationship"><g transform="translate(431.85937499999994 -281) rotate(20.112943738087594)" stroke-width="5" stroke="#000000"><path d="M 58.695178092152055 -5.989663490593891 L 95.96898050729243 -9.793341079425122 A 40 40 0 0 1 100.02976931447472 -10 L 183.20779182655394 -10 L 266.38581433863317 -10 A 40 40 0 0 1 270.4466031458155 -9.79334107942512 L 282.9867045734534 -8.51366206436971 L 282.9867045734534 -8.51366206436971"/><polygon points="-24.8621506177483,0 -27.62461179749811,9.20820393249937 0,0 -27.62461179749811,-9.20820393249937" fill="#000000" transform="translate(366.4155836531079 0) rotate(5.826689442008371) translate(-59 0)" stroke="none"/></g><g transform="translate(607.3332496239238 -227.39016591678964) rotate(20.112943738087594) translate(0 -9.6)"><g transform="translate(0 0)"><g transform="translate(-48.921875 0)" fill="white"><rect x="0" y="0" width="97.84375" height="19.2" rx="0" ry="0" stroke="none"/><g font-family="sans-serif" font-size="16" font-weight="normal" fill="#000000" text-anchor="end"><text xml:space="preserve" x="62.2578125" y="14.05703125" stroke="none">amount:</text><text xml:space="preserve" x="66.703125" y="14.05703125" stroke="none" text-anchor="start">500</text></g></g></g></g></g><g class="relationship"><g transform="translate(431.85937499999994 -281) rotate(20.112943738087594)" stroke-width="5" stroke="#000000"><path d="M 58.695178092152055 5.989663490593891 L 95.96898050729243 9.793341079425122 A 40 40 0 0 0 100.02976931447472 10 L 183.20779182655394 10 L 266.38581433863317 10 A 40 40 0 0 0 270.4466031458155 9.79334107942512 L 282.9867045734534 8.51366206436971 L 282.9867045734534 8.51366206436971"/><polygon points="-24.8621506177483,0 -27.62461179749811,9.20820393249937 0,0 -27.62461179749811,-9.20820393249937" fill="#000000" transform="translate(366.4155836531079 0) rotate(-5.826689442008371) translate(-59 0)" stroke="none"/></g><g transform="translate(600.455812876076 -208.60983408321033) rotate(20.112943738087594) translate(0 -9.6)"><g transform="translate(0 0)"><g transform="translate(-48.921875 0)" fill="white"><rect x="0" y="0" width="97.84375" height="19.2" rx="0" ry="0" stroke="none"/><g font-family="sans-serif" font-size="16" font-weight="normal" fill="#000000" text-anchor="end"><text xml:space="preserve" x="62.2578125" y="14.05703125" stroke="none">amount:</text><text xml:space="preserve" x="66.703125" y="14.05703125" stroke="none" text-anchor="start">500</text></g></g></g></g></g><g class="relationship"><g transform="translate(1447.1895214440347 90.81818309868959) rotate(0)" stroke-width="5" stroke="#000000"><path d="M 58.695178092152055 -5.989663490593891 L 95.96898050729243 -9.793341079425122 A 40 40 0 0 1 100.02976931447472 -10 L 243.63642612089336 -10 L 387.243082927312 -10 A 40 40 0 0 1 391.30387173449435 -9.79334107942512 L 403.8439731621322 -8.51366206436971 L 403.8439731621322 -8.51366206436971"/><polygon points="-24.8621506177483,0 -27.62461179749811,9.20820393249937 0,0 -27.62461179749811,-9.20820393249937" fill="#000000" transform="translate(487.2728522417867 0) rotate(5.826689442008371) translate(-59 0)" stroke="none"/></g><g transform="translate(1690.825947564928 80.81818309868959) rotate(0) translate(0 -19.2)"><g transform="translate(0 0)"><g transform="translate(-121.41015625 0)" fill="white"><rect x="0" y="0" width="242.8203125" height="38.4" rx="0" ry="0" stroke="none"/><g font-family="sans-serif" font-size="16" font-weight="normal" fill="#000000" text-anchor="end"><text xml:space="preserve" x="70.2578125" y="14.05703125" stroke="none">amount:</text><text xml:space="preserve" x="74.703125" y="14.05703125" stroke="none" text-anchor="start">500</text><text xml:space="preserve" x="70.2578125" y="33.25703125" stroke="none" text-anchor="end">datetime:</text><text xml:space="preserve" x="74.703125" y="33.25703125" stroke="none" text-anchor="start">2023-06-01T00:00:00Z</text></g></g></g></g></g><g class="relationship"><g transform="translate(1447.1895214440347 90.81818309868959) rotate(0)" stroke-width="5" stroke="#000000"><path d="M 58.695178092152055 5.989663490593891 L 95.96898050729243 9.793341079425122 A 40 40 0 0 0 100.02976931447472 10 L 243.63642612089336 10 L 387.243082927312 10 A 40 40 0 0 0 391.30387173449435 9.79334107942512 L 403.8439731621322 8.51366206436971 L 403.8439731621322 8.51366206436971"/><polygon points="-24.8621506177483,0 -27.62461179749811,9.20820393249937 0,0 -27.62461179749811,-9.20820393249937" fill="#000000" transform="translate(487.2728522417867 0) rotate(-5.826689442008371) translate(-59 0)" stroke="none"/></g><g transform="translate(1690.825947564928 100.81818309868959) rotate(0) translate(0 -19.2)"><g transform="translate(0 0)"><g transform="translate(-121.41015625 0)" fill="white"><rect x="0" y="0" width="242.8203125" height="38.4" rx="0" ry="0" stroke="none"/><g font-family="sans-serif" font-size="16" font-weight="normal" fill="#000000" text-anchor="end"><text xml:space="preserve" x="70.2578125" y="14.05703125" stroke="none">amount:</text><text xml:space="preserve" x="74.703125" y="14.05703125" stroke="none" text-anchor="start">500</text><text xml:space="preserve" x="70.2578125" y="33.25703125" stroke="none" text-anchor="end">datetime:</text><text xml:space="preserve" x="74.703125" y="33.25703125" stroke="none" text-anchor="start">2023-06-02T00:00:00Z</text></g></g></g></g></g><g class="node"><g fill="#ffffff" stroke="#000000" stroke-width="4"><circle cx="1120" cy="-29" r="52"/></g><g transform="translate(1120 -29)"><g transform="scale(0.4374364855992301) translate(0 -27)"><g transform="translate(0 0)"><g transform="translate(-99.265625 0)"><g fill="#ffffff" stroke="#000000" stroke-width="4"><rect x="0" y="0" width="198.53125" height="54" rx="27" ry="27"/><text xml:space="preserve" x="27" y="38.142578125" stroke="none" font-family="sans-serif" font-size="40" font-weight="normal" fill="#000000">Account</text></g></g></g></g><g transform="translate(3.429011037612589e-15 -75.2)"><g transform="translate(0 0)"><g transform="translate(-69.8125 0)" fill="white"><rect x="0" y="0" width="139.625" height="19.2" rx="0" ry="0" stroke="none"/><g font-family="sans-serif" font-size="16" font-weight="normal" fill="#000000" text-anchor="end"><text xml:space="preserve" x="121.8359375" y="14.05703125" stroke="none">accountNumber:</text><text xml:space="preserve" x="126.28125" y="14.05703125" stroke="none" text-anchor="start">4</text></g></g></g></g></g></g><g class="node"><g fill="#ffffff" stroke="#000000" stroke-width="4"><circle cx="1447.1895214440347" cy="90.81818309868959" r="52"/></g><g transform="translate(1447.1895214440347 90.81818309868959)"><g transform="scale(0.4374364855992301) translate(0 -27)"><g transform="translate(0 0)"><g transform="translate(-99.265625 0)"><g fill="#ffffff" stroke="#000000" stroke-width="4"><rect x="0" y="0" width="198.53125" height="54" rx="27" ry="27"/><text xml:space="preserve" x="27" y="38.142578125" stroke="none" font-family="sans-serif" font-size="40" font-weight="normal" fill="#000000">Account</text></g></g></g></g><g transform="translate(3.429011037612589e-15 56)"><g transform="translate(0 0)"><g transform="translate(-69.8125 0)" fill="white"><rect x="0" y="0" width="139.625" height="19.2" rx="0" ry="0" stroke="none"/><g font-family="sans-serif" font-size="16" font-weight="normal" fill="#000000" text-anchor="end"><text xml:space="preserve" x="121.8359375" y="14.05703125" stroke="none">accountNumber:</text><text xml:space="preserve" x="126.28125" y="14.05703125" stroke="none" text-anchor="start">6</text></g></g></g></g></g></g><g class="node"><g fill="#ffffff" stroke="#000000" stroke-width="4"><circle cx="1120" cy="210.63636619737912" r="52"/></g><g transform="translate(1120 210.63636619737912)"><g transform="scale(0.4374364855992301) translate(0 -27)"><g transform="translate(0 0)"><g transform="translate(-99.265625 0)"><g fill="#ffffff" stroke="#000000" stroke-width="4"><rect x="0" y="0" width="198.53125" height="54" rx="27" ry="27"/><text xml:space="preserve" x="27" y="38.142578125" stroke="none" font-family="sans-serif" font-size="40" font-weight="normal" fill="#000000">Account</text></g></g></g></g><g transform="translate(-56 -9.599999999999993)"><g transform="translate(0 0)"><g transform="translate(-139.625 0)" fill="white"><rect x="0" y="0" width="139.625" height="19.2" rx="0" ry="0" stroke="none"/><g font-family="sans-serif" font-size="16" font-weight="normal" fill="#000000" text-anchor="end"><text xml:space="preserve" x="121.8359375" y="14.05703125" stroke="none">accountNumber:</text><text xml:space="preserve" x="126.28125" y="14.05703125" stroke="none" text-anchor="start">5</text></g></g></g></g></g></g><g class="node"><g fill="#ffffff" stroke="#000000" stroke-width="4"><circle cx="775.9296875" cy="-155" r="52"/></g><g transform="translate(775.9296875 -155)"><g transform="scale(0.4374364855992301) translate(0 -27)"><g transform="translate(0 0)"><g transform="translate(-99.265625 0)"><g fill="#ffffff" stroke="#000000" stroke-width="4"><rect x="0" y="0" width="198.53125" height="54" rx="27" ry="27"/><text xml:space="preserve" x="27" y="38.142578125" stroke="none" font-family="sans-serif" font-size="40" font-weight="normal" fill="#000000">Account</text></g></g></g></g><g transform="translate(3.429011037612589e-15 -75.2)"><g transform="translate(0 0)"><g transform="translate(-69.8125 0)" fill="white"><rect x="0" y="0" width="139.625" height="19.2" rx="0" ry="0" stroke="none"/><g font-family="sans-serif" font-size="16" font-weight="normal" fill="#000000" text-anchor="end"><text xml:space="preserve" x="121.8359375" y="14.05703125" stroke="none">accountNumber:</text><text xml:space="preserve" x="126.28125" y="14.05703125" stroke="none" text-anchor="start">2</text></g></g></g></g></g></g><g class="node"><g fill="#ffffff" stroke="#000000" stroke-width="4"><circle cx="760.4693616751899" cy="41.69724216404947" r="52"/></g><g transform="translate(760.4693616751899 41.69724216404947)"><g transform="scale(0.4374364855992301) translate(0 -27)"><g transform="translate(0 0)"><g transform="translate(-99.265625 0)"><g fill="#ffffff" stroke="#000000" stroke-width="4"><rect x="0" y="0" width="198.53125" height="54" rx="27" ry="27"/><text xml:space="preserve" x="27" y="38.142578125" stroke="none" font-family="sans-serif" font-size="40" font-weight="normal" fill="#000000">Account</text></g></g></g></g><g transform="translate(-56 -9.599999999999993)"><g transform="translate(0 0)"><g transform="translate(-139.625 0)" fill="white"><rect x="0" y="0" width="139.625" height="19.2" rx="0" ry="0" stroke="none"/><g font-family="sans-serif" font-size="16" font-weight="normal" fill="#000000" text-anchor="end"><text xml:space="preserve" x="121.8359375" y="14.05703125" stroke="none">accountNumber:</text><text xml:space="preserve" x="126.28125" y="14.05703125" stroke="none" text-anchor="start">3</text></g></g></g></g></g></g><g class="node"><g fill="#ffffff" stroke="#000000" stroke-width="4"><circle cx="431.85937499999994" cy="-281" r="52"/></g><g transform="translate(431.85937499999994 -281)"><g transform="scale(0.4374364855992301) translate(0 -27)"><g transform="translate(0 0)"><g transform="translate(-99.265625 0)"><g fill="#ffffff" stroke="#000000" stroke-width="4"><rect x="0" y="0" width="198.53125" height="54" rx="27" ry="27"/><text xml:space="preserve" x="27" y="38.142578125" stroke="none" font-family="sans-serif" font-size="40" font-weight="normal" fill="#000000">Account</text></g></g></g></g><g transform="translate(-56 -9.599999999999993)"><g transform="translate(0 0)"><g transform="translate(-139.625 0)" fill="white"><rect x="0" y="0" width="139.625" height="19.2" rx="0" ry="0" stroke="none"/><g font-family="sans-serif" font-size="16" font-weight="normal" fill="#000000" text-anchor="end"><text xml:space="preserve" x="121.8359375" y="14.05703125" stroke="none">accountNumber:</text><text xml:space="preserve" x="126.28125" y="14.05703125" stroke="none" text-anchor="start">1</text></g></g></g></g></g></g><g class="node"><g fill="#ffffff" stroke="#000000" stroke-width="4"><circle cx="1934.4623736858214" cy="90.81818309868959" r="52"/></g><g transform="translate(1934.4623736858214 90.81818309868959)"><g transform="scale(0.2097924640086672) translate(0 -56)"><g transform="translate(0 0)"><g transform="translate(-99.265625 0)"><g fill="#ffffff" stroke="#000000" stroke-width="4"><rect x="0" y="0" width="198.53125" height="54" rx="27" ry="27"/><text xml:space="preserve" x="27" y="38.142578125" stroke="none" font-family="sans-serif" font-size="40" font-weight="normal" fill="#000000">Account</text></g></g><g transform="translate(-207.05859375 62)"><g fill="#ffffff" stroke="#000000" stroke-width="4"><rect x="0" y="0" width="414.1171875" height="54" rx="27" ry="27"/><text xml:space="preserve" x="27" y="38.142578125" stroke="none" font-family="sans-serif" font-size="40" font-weight="normal" fill="#000000">HighRiskJurisdiction</text></g></g></g></g><g transform="translate(56 -9.6)"><g transform="translate(0 0)"><g transform="translate(0 0)" fill="white"><rect x="0" y="0" width="139.625" height="19.2" rx="0" ry="0" stroke="none"/><g font-family="sans-serif" font-size="16" font-weight="normal" fill="#000000" text-anchor="end"><text xml:space="preserve" x="121.8359375" y="14.05703125" stroke="none">accountNumber:</text><text xml:space="preserve" x="126.28125" y="14.05703125" stroke="none" text-anchor="start">7</text></g></g></g></g></g></g></g></svg>