<svg xmlns="http://www.w3.org/2000/svg" width="1299" height="938" viewBox="0 0 1299 938"><defs><style type="text/css"/></defs><g transform="translate(541.7094018975085 508.4757119770033) scale(1)"><g class="relationship"><g transform="translate(107.6884872445597 -433.2757119770033) rotate(40.93332421422439)" stroke-width="5" stroke="#000000"><path d="M 59 0 L 216.4617330305961 0"/><polygon points="-24.8621506177483,0 -27.62461179749811,9.20820393249937 0,0 -27.62461179749811,-9.20820393249937" fill="#000000" transform="translate(241.3238836483444 0) rotate(0)" stroke="none"/></g><g transform="translate(211.74037381385284 -343.03715872826274) rotate(40.93332421422439) translate(0 -13)"><g transform="translate(0 0)"><g transform="translate(-50.3359375 0)" fill="#ffffff" stroke="#000000" stroke-width="0"><rect x="0" y="0" width="100.671875" height="26" rx="5" ry="5" stroke="none"/><text xml:space="preserve" x="5" y="17.45703125" stroke="none" text-anchor="left" font-family="sans-serif" font-size="16" font-weight="normal" fill="#000000">PERFORMS</text></g></g></g></g><g class="relationship"><g transform="translate(334.5749322808741 -236.50941367262453) rotate(40.93332421422438)" stroke-width="5" stroke="#000000"><path d="M 59 0 L 216.46174017235026 0"/><polygon points="-24.8621506177483,0 -27.62461179749811,9.20820393249937 0,0 -27.62461179749811,-9.20820393249937" fill="#000000" transform="translate(241.32389079009857 0) rotate(0)" stroke="none"/></g><g transform="translate(438.6268215478668 -146.27085808431553) rotate(40.93332421422438) translate(0 -13)"><g transform="translate(0 0)"><g transform="translate(-59.53515625 0)" fill="#ffffff" stroke="#000000" stroke-width="0"><rect x="0" y="0" width="119.0703125" height="26" rx="5" ry="5" stroke="none"/><text xml:space="preserve" x="5" y="17.45703125" stroke="none" text-anchor="left" font-family="sans-serif" font-size="16" font-weight="normal" fill="#000000">BENEFITS_TO</text></g></g></g></g><g class="relationship"><g transform="translate(561.4613827125877 -39.74311068910902) rotate(139.0431772243224)" stroke-width="5" stroke="#000000"><path d="M 59 0 L 216.56862091871372 0"/><polygon points="-24.8621506177483,0 -27.62461179749811,9.20820393249937 0,0 -27.62461179749811,-9.20820393249937" fill="#000000" transform="translate(241.43077153646203 0) rotate(0)" stroke="none"/></g><g transform="translate(457.4061531168494 50.57314146153452) rotate(319.0431772243224) translate(0 -13)"><g transform="translate(0 0)"><g transform="translate(-50.3359375 0)" fill="#ffffff" stroke="#000000" stroke-width="0"><rect x="0" y="0" width="100.671875" height="26" rx="5" ry="5" stroke="none"/><text xml:space="preserve" x="5" y="17.45703125" stroke="none" text-anchor="left" font-family="sans-serif" font-size="16" font-weight="normal" fill="#000000">PERFORMS</text></g></g></g></g><g class="relationship"><g transform="translate(334.5749338445743 157.1862873347924) rotate(139.0431772243224)" stroke-width="5" stroke="#000000"><path d="M 59 0 L 216.5686137273049 0"/><polygon points="-24.8621506177483,0 -27.62461179749811,9.20820393249937 0,0 -27.62461179749811,-9.20820393249937" fill="#000000" transform="translate(241.4307643450532 0) rotate(0)" stroke="none"/></g><g transform="translate(230.5197069643255 247.5025371284873) rotate(319.0431772243224) translate(0 -13)"><g transform="translate(0 0)"><g transform="translate(-59.53515625 0)" fill="#ffffff" stroke="#000000" stroke-width="0"><rect x="0" y="0" width="119.0703125" height="26" rx="5" ry="5" stroke="none"/><text xml:space="preserve" x="5" y="17.45703125" stroke="none" text-anchor="left" font-family="sans-serif" font-size="16" font-weight="normal" fill="#000000">BENEFITS_TO</text></g></g></g></g><g class="relationship"><g transform="translate(107.68849040753989 354.1156806447965) rotate(-139.0431772243224)" stroke-width="5" stroke="#000000"><path d="M 59 0 L 216.56861372730484 0"/><polygon points="-24.8621506177483,0 -27.62461179749811,9.20820393249937 0,0 -27.62461179749811,-9.20820393249937" fill="#000000" transform="translate(241.43076434505315 0) rotate(0)" stroke="none"/></g><g transform="translate(3.6332635272911062 263.79943085110165) rotate(40.956822775677594) translate(0 -13)"><g transform="translate(0 0)"><g transform="translate(-50.3359375 0)" fill="#ffffff" stroke="#000000" stroke-width="0"><rect x="0" y="0" width="100.671875" height="26" rx="5" ry="5" stroke="none"/><text xml:space="preserve" x="5" y="17.45703125" stroke="none" text-anchor="left" font-family="sans-serif" font-size="16" font-weight="normal" fill="#000000">PERFORMS</text></g></g></g></g><g class="relationship"><g transform="translate(-119.19795302949447 157.18628733479244) rotate(-139.0431772243224)" stroke-width="5" stroke="#000000"><path d="M 59 0 L 216.56862091871463 0"/><polygon points="-24.8621506177483,0 -27.62461179749811,9.20820393249937 0,0 -27.62461179749811,-9.20820393249937" fill="#000000" transform="translate(241.43077153646294 0) rotate(0)" stroke="none"/></g><g transform="translate(-223.25318262523308 66.8700351841486) rotate(40.956822775677594) translate(0 -13)"><g transform="translate(0 0)"><g transform="translate(-59.53515625 0)" fill="#ffffff" stroke="#000000" stroke-width="0"><rect x="0" y="0" width="119.0703125" height="26" rx="5" ry="5" stroke="none"/><text xml:space="preserve" x="5" y="17.45703125" stroke="none" text-anchor="left" font-family="sans-serif" font-size="16" font-weight="normal" fill="#000000">BENEFITS_TO</text></g></g></g></g><g class="relationship"><g transform="translate(-346.08440189750854 -39.743110689109585) rotate(-40.93332520039453)" stroke-width="5" stroke="#000000"><path d="M 59 0 L 216.4617342119286 0"/><polygon points="-24.8621506177483,0 -27.62461179749811,9.20820393249937 0,0 -27.62461179749811,-9.20820393249937" fill="#000000" transform="translate(241.3238848296769 0) rotate(0)" stroke="none"/></g><g transform="translate(-242.03251643516165 -129.98166611577543) rotate(-40.93332520039453) translate(0 -13)"><g transform="translate(0 0)"><g transform="translate(-50.3359375 0)" fill="#ffffff" stroke="#000000" stroke-width="0"><rect x="0" y="0" width="100.671875" height="26" rx="5" ry="5" stroke="none"/><text xml:space="preserve" x="5" y="17.45703125" stroke="none" text-anchor="left" font-family="sans-serif" font-size="16" font-weight="normal" fill="#000000">PERFORMS</text></g></g></g></g><g class="relationship"><g transform="translate(-119.1979593554549 -236.50941367262453) rotate(-40.933324018769255)" stroke-width="5" stroke="#000000"><path d="M 59 0 L 216.46173421192864 0"/><polygon points="-24.8621506177483,0 -27.62461179749811,9.20820393249937 0,0 -27.62461179749811,-9.20820393249937" fill="#000000" transform="translate(241.32388482967696 0) rotate(0)" stroke="none"/></g><g transform="translate(-15.146072032095603 -326.74796695340217) rotate(-40.933324018769255) translate(0 -13)"><g transform="translate(0 0)"><g transform="translate(-59.53515625 0)" fill="#ffffff" stroke="#000000" stroke-width="0"><rect x="0" y="0" width="119.0703125" height="26" rx="5" ry="5" stroke="none"/><text xml:space="preserve" x="5" y="17.45703125" stroke="none" text-anchor="left" font-family="sans-serif" font-size="16" font-weight="normal" fill="#000000">BENEFITS_TO</text></g></g></g></g><g class="node"><g fill="#ffffff" stroke="#000000" stroke-width="4"><circle cx="-346.08440189750854" cy="-39.743110689109585" r="52"/></g><g transform="translate(-346.08440189750854 -39.743110689109585)"><g transform="scale(0.4374364855992301) translate(0 -27)"><g transform="translate(0 0)"><g transform="translate(-99.265625 0)"><g fill="#ffffff" stroke="#000000" stroke-width="4"><rect x="0" y="0" width="198.53125" height="54" rx="27" ry="27"/><text xml:space="preserve" x="27" y="38.142578125" stroke="none" font-family="sans-serif" font-size="40" font-weight="normal" fill="#000000">Account</text></g></g></g></g><g transform="translate(-56 -9.599999999999993)"><g transform="translate(0 0)"><g transform="translate(-139.625 0)" fill="white"><rect x="0" y="0" width="139.625" height="19.2" rx="0" ry="0" stroke="none"/><g font-family="sans-serif" font-size="16" font-weight="normal" fill="#000000" text-anchor="end"><text xml:space="preserve" x="121.8359375" y="14.05703125" stroke="none">accountNumber:</text><text xml:space="preserve" x="126.28125" y="14.05703125" stroke="none" text-anchor="start">1</text></g></g></g></g></g></g><g class="node"><g fill="#ffffff" stroke="#000000" stroke-width="4"><circle cx="107.6884872445597" cy="-433.2757119770033" r="52"/></g><g transform="translate(107.6884872445597 -433.2757119770033)"><g transform="scale(0.4374364855992301) translate(0 -27)"><g transform="translate(0 0)"><g transform="translate(-99.265625 0)"><g fill="#ffffff" stroke="#000000" stroke-width="4"><rect x="0" y="0" width="198.53125" height="54" rx="27" ry="27"/><text xml:space="preserve" x="27" y="38.142578125" stroke="none" font-family="sans-serif" font-size="40" font-weight="normal" fill="#000000">Account</text></g></g></g></g><g transform="translate(3.429011037612589e-15 -75.2)"><g transform="translate(0 0)"><g transform="translate(-69.8125 0)" fill="white"><rect x="0" y="0" width="139.625" height="19.2" rx="0" ry="0" stroke="none"/><g font-family="sans-serif" font-size="16" font-weight="normal" fill="#000000" text-anchor="end"><text xml:space="preserve" x="121.8359375" y="14.05703125" stroke="none">accountNumber:</text><text xml:space="preserve" x="126.28125" y="14.05703125" stroke="none" text-anchor="start">2</text></g></g></g></g></g></g><g class="node"><g fill="#ffffff" stroke="#000000" stroke-width="4"><circle cx="561.4613827125877" cy="-39.74311068910902" r="52"/></g><g transform="translate(561.4613827125877 -39.74311068910902)"><g transform="scale(0.4374364855992301) translate(0 -27)"><g transform="translate(0 0)"><g transform="translate(-99.265625 0)"><g fill="#ffffff" stroke="#000000" stroke-width="4"><rect x="0" y="0" width="198.53125" height="54" rx="27" ry="27"/><text xml:space="preserve" x="27" y="38.142578125" stroke="none" font-family="sans-serif" font-size="40" font-weight="normal" fill="#000000">Account</text></g></g></g></g><g transform="translate(56 -9.6)"><g transform="translate(0 0)"><g transform="translate(0 0)" fill="white"><rect x="0" y="0" width="139.625" height="19.2" rx="0" ry="0" stroke="none"/><g font-family="sans-serif" font-size="16" font-weight="normal" fill="#000000" text-anchor="end"><text xml:space="preserve" x="121.8359375" y="14.05703125" stroke="none">accountNumber:</text><text xml:space="preserve" x="126.28125" y="14.05703125" stroke="none" text-anchor="start">3</text></g></g></g></g></g></g><g class="node"><g fill="#ffffff" stroke="#000000" stroke-width="4"><circle cx="107.68849040753989" cy="354.1156806447965" r="52"/></g><g transform="translate(107.68849040753989 354.1156806447965)"><g transform="scale(0.4374364855992301) translate(0 -27)"><g transform="translate(0 0)"><g transform="translate(-99.265625 0)"><g fill="#ffffff" stroke="#000000" stroke-width="4"><rect x="0" y="0" width="198.53125" height="54" rx="27" ry="27"/><text xml:space="preserve" x="27" y="38.142578125" stroke="none" font-family="sans-serif" font-size="40" font-weight="normal" fill="#000000">Account</text></g></g></g></g><g transform="translate(3.429011037612589e-15 56)"><g transform="translate(0 0)"><g transform="translate(-69.8125 0)" fill="white"><rect x="0" y="0" width="139.625" height="19.2" rx="0" ry="0" stroke="none"/><g font-family="sans-serif" font-size="16" font-weight="normal" fill="#000000" text-anchor="end"><text xml:space="preserve" x="121.8359375" y="14.05703125" stroke="none">accountNumber:</text><text xml:space="preserve" x="126.28125" y="14.05703125" stroke="none" text-anchor="start">4</text></g></g></g></g></g></g><g class="node"><g fill="#ffffff" stroke="#000000" stroke-width="4"><circle cx="334.5749322808741" cy="-236.50941367262453" r="52"/></g><g transform="translate(334.5749322808741 -236.50941367262453)"><g transform="scale(0.3370326420028396) translate(0 -27)"><g transform="translate(0 0)"><g transform="translate(-130.759765625 0)"><g fill="#ffffff" stroke="#000000" stroke-width="4"><rect x="0" y="0" width="261.51953125" height="54" rx="27" ry="27"/><text xml:space="preserve" x="27" y="38.142578125" stroke="none" font-family="sans-serif" font-size="40" font-weight="normal" fill="#000000">Transaction</text></g></g></g></g><g transform="translate(-39.597979746446654 39.59797974644666)"><g transform="translate(0 0)"><g transform="translate(-301.125 0)" fill="white"><rect x="0" y="0" width="301.125" height="38.4" rx="0" ry="0" stroke="none"/><g font-family="sans-serif" font-size="16" font-weight="normal" fill="#000000" text-anchor="end"><text xml:space="preserve" x="62.2578125" y="14.05703125" stroke="none">amount:</text><text xml:space="preserve" x="66.703125" y="14.05703125" stroke="none" text-anchor="start">900</text><text xml:space="preserve" x="62.2578125" y="33.25703125" stroke="none" text-anchor="end">date:</text><text xml:space="preserve" x="66.703125" y="33.25703125" stroke="none" text-anchor="start">2023-01-02T10:10:10.000+0000</text></g></g></g></g></g></g><g class="node"><g fill="#ffffff" stroke="#000000" stroke-width="4"><circle cx="334.5749338445743" cy="157.1862873347924" r="52"/></g><g transform="translate(334.5749338445743 157.1862873347924)"><g transform="scale(0.3370326420028396) translate(0 -27)"><g transform="translate(0 0)"><g transform="translate(-130.759765625 0)"><g fill="#ffffff" stroke="#000000" stroke-width="4"><rect x="0" y="0" width="261.51953125" height="54" rx="27" ry="27"/><text xml:space="preserve" x="27" y="38.142578125" stroke="none" font-family="sans-serif" font-size="40" font-weight="normal" fill="#000000">Transaction</text></g></g></g></g><g transform="translate(-39.597979746446654 -77.99797974644666)"><g transform="translate(0 0)"><g transform="translate(-301.125 0)" fill="white"><rect x="0" y="0" width="301.125" height="38.4" rx="0" ry="0" stroke="none"/><g font-family="sans-serif" font-size="16" font-weight="normal" fill="#000000" text-anchor="end"><text xml:space="preserve" x="62.2578125" y="14.05703125" stroke="none">amount:</text><text xml:space="preserve" x="66.703125" y="14.05703125" stroke="none" text-anchor="start">810</text><text xml:space="preserve" x="62.2578125" y="33.25703125" stroke="none" text-anchor="end">date:</text><text xml:space="preserve" x="66.703125" y="33.25703125" stroke="none" text-anchor="start">2023-01-03T10:10:10.000+0000</text></g></g></g></g></g></g><g class="node"><g fill="#ffffff" stroke="#000000" stroke-width="4"><circle cx="-119.19795302949447" cy="157.18628733479244" r="52"/></g><g transform="translate(-119.19795302949447 157.18628733479244)"><g transform="scale(0.3370326420028396) translate(0 -27)"><g transform="translate(0 0)"><g transform="translate(-130.759765625 0)"><g fill="#ffffff" stroke="#000000" stroke-width="4"><rect x="0" y="0" width="261.51953125" height="54" rx="27" ry="27"/><text xml:space="preserve" x="27" y="38.142578125" stroke="none" font-family="sans-serif" font-size="40" font-weight="normal" fill="#000000">Transaction</text></g></g></g></g><g transform="translate(39.59797974644666 -77.99797974644665)"><g transform="translate(0 0)"><g transform="translate(0 0)" fill="white"><rect x="0" y="0" width="301.125" height="38.4" rx="0" ry="0" stroke="none"/><g font-family="sans-serif" font-size="16" font-weight="normal" fill="#000000" text-anchor="end"><text xml:space="preserve" x="62.2578125" y="14.05703125" stroke="none">amount:</text><text xml:space="preserve" x="66.703125" y="14.05703125" stroke="none" text-anchor="start">729</text><text xml:space="preserve" x="62.2578125" y="33.25703125" stroke="none" text-anchor="end">date:</text><text xml:space="preserve" x="66.703125" y="33.25703125" stroke="none" text-anchor="start">2023-01-04T10:10:10.000+0000</text></g></g></g></g></g></g><g class="node"><g fill="#ffffff" stroke="#000000" stroke-width="4"><circle cx="-119.1979593554549" cy="-236.50941367262453" r="52"/></g><g transform="translate(-119.1979593554549 -236.50941367262453)"><g transform="scale(0.3370326420028396) translate(0 -27)"><g transform="translate(0 0)"><g transform="translate(-130.759765625 0)"><g fill="#ffffff" stroke="#000000" stroke-width="4"><rect x="0" y="0" width="261.51953125" height="54" rx="27" ry="27"/><text xml:space="preserve" x="27" y="38.142578125" stroke="none" font-family="sans-serif" font-size="40" font-weight="normal" fill="#000000">Transaction</text></g></g></g></g><g transform="translate(-39.597979746446654 -77.99797974644666)"><g transform="translate(0 0)"><g transform="translate(-301.125 0)" fill="white"><rect x="0" y="0" width="301.125" height="38.4" rx="0" ry="0" stroke="none"/><g font-family="sans-serif" font-size="16" font-weight="normal" fill="#000000" text-anchor="end"><text xml:space="preserve" x="62.2578125" y="14.05703125" stroke="none">amount:</text><text xml:space="preserve" x="66.703125" y="14.05703125" stroke="none" text-anchor="start">1000</text><text xml:space="preserve" x="62.2578125" y="33.25703125" stroke="none" text-anchor="end">date:</text><text xml:space="preserve" x="66.703125" y="33.25703125" stroke="none" text-anchor="start">2023-01-01T10:10:10.000+0000</text></g></g></g></g></g></g></g></svg>