<svg xmlns="http://www.w3.org/2000/svg" width="357.7899169921875" height="220.2930145263672" viewBox="-124.32103729248047 -144.89369201660156 357.7899169921875 220.2930145263672"><title>Neo4j Graph Visualization</title><desc>Created using Neo4j (http://www.neo4j.com/)</desc><g class="layer relationships"><g class="relationship" transform="translate(-27.270339057861147 -70.7324918678022) rotate(476.91807355588196)"><path class="b-outline" fill="#A5ABB6" stroke="none" d="M 6.953439040707552 24.018736134675446 L 17.306200844808384 62.65576918623819 A 17.916697508022974 17.916697508022974 0 1 1 -17.306200844808384 62.65576918623819 L -8.765172356425198 30.780216918698923 L -4.901469051268926 31.815493099109005 L -6.4704761275630185 24.148145657226706 L -11.662949835292403 30.00375978339136 L -7.79924653013613 31.039035963801442 L -16.340275018519314 62.91458823134071 A 16.916697508022974 16.916697508022974 0 1 0 16.340275018519314 62.91458823134071 L 5.987513214418485 24.277555179777966 Z"/><text text-anchor="middle" pointer-events="none" font-size="8px" fill="#000000" x="0" y="94.20964923467838" transform="rotate(180 0 91.20964923467838)" font-family="Helvetica Neue, Helvetica, Arial, sans-serif">TRANSAC…</text></g><g class="relationship" transform="translate(137.10658753862745 -76.54084441088347) rotate(241.31059387362154)"><path class="b-outline" fill="#A5ABB6" stroke="none" d="M 6.953439040707552 24.018736134675446 L 17.306200844808384 62.65576918623819 A 17.916697508022974 17.916697508022974 0 1 1 -17.306200844808384 62.65576918623819 L -8.765172356425198 30.780216918698923 L -4.901469051268926 31.815493099109005 L -6.4704761275630185 24.148145657226706 L -11.662949835292403 30.00375978339136 L -7.79924653013613 31.039035963801442 L -16.340275018519314 62.91458823134071 A 16.916697508022974 16.916697508022974 0 1 0 16.340275018519314 62.91458823134071 L 5.987513214418485 24.277555179777966 Z"/><text text-anchor="middle" pointer-events="none" font-size="8px" fill="#000000" x="0" y="94.20964923467838" transform="rotate(180 0 91.20964923467838)" font-family="Helvetica Neue, Helvetica, Arial, sans-serif">TRANSAC…</text></g><g class="relationship" transform="translate(-27.270339057861147 -70.7324918678022) rotate(415.8598841898304)"><path class="b-outline" fill="#A5ABB6" stroke="none" d="M 25 0.5 L 35.59220046820482 0.5 L 35.59220046820482 -0.5 L 25 -0.5 Z M 98.92813796820482 0.5 L 109.52033843640965 0.5 L 109.52033843640965 3.5 L 116.52033843640965 0 L 109.52033843640965 -3.5 L 109.52033843640965 -0.5 L 98.92813796820482 -0.5 Z"/><text text-anchor="middle" pointer-events="none" font-size="8px" fill="#000000" x="67.26016921820482" y="3" font-family="Helvetica Neue, Helvetica, Arial, sans-serif">TRANSACTION</text></g><g class="relationship" transform="translate(137.10658753862745 -76.54084441088347) rotate(484.64492482530954)"><path class="b-outline" fill="#A5ABB6" stroke="none" d="M 25 0.5 L 39.55034564283119 0.5 L 39.55034564283119 -0.5 L 25 -0.5 Z M 102.88628314283119 0.5 L 117.43662878566238 0.5 L 117.43662878566238 3.5 L 124.43662878566238 0 L 117.43662878566238 -3.5 L 117.43662878566238 -0.5 L 102.88628314283119 -0.5 Z"/><text text-anchor="middle" pointer-events="none" font-size="8px" fill="#000000" x="71.21831439283119" y="3" transform="rotate(180 71.21831439283119 0)" font-family="Helvetica Neue, Helvetica, Arial, sans-serif">TRANSACTION</text></g><g class="relationship" transform="translate(137.10658753862745 -76.54084441088347) rotate(537.9762629219335)"><path class="b-outline" fill="#A5ABB6" stroke="none" d="M 24.018736134675446,-6.953439040707552 L 24.277555179777966,-5.987513214418485 A 219.26240186200346 219.26240186200346 0 0 1 47.24629111065442,-10.84087952041142 L 47.09222662326824,-11.828940314961244 A 220.26240186200346 220.26240186200346 0 0 0 24.018736134675446,-6.953439040707552 Z M 110.34925806267286,-12.498201028962939 L 110.21613313005518,-11.50710176435041 A 219.26240186200346 219.26240186200346 0 0 1 133.28241348038546,-7.140786892235674 L 132.56744038358403,-4.227230050358347 L 140.19987496089945,-5.958109140011897 L 134.23571094278736,-11.025529348072109 L 133.52073784598593,-8.111972506194782 A 220.26240186200346 220.26240186200346 0 0 0 110.34925806267286,-12.498201028962939"/><text text-anchor="middle" pointer-events="none" font-size="8px" fill="#000000" x="78.70187997501863" y="-10.946399661612418" transform="rotate(180 78.70187997501863 -13.946399661612418)" font-family="Helvetica Neue, Helvetica, Arial, sans-serif">TRANSACTION</text></g><g class="relationship" transform="translate(-27.270339057861147 -70.7324918678022) rotate(357.97626292193354)"><path class="b-outline" fill="#A5ABB6" stroke="none" d="M 24.018736134675446,-6.953439040707552 L 24.277555179777966,-5.987513214418485 A 219.26240186200346 219.26240186200346 0 0 1 47.24629111065442,-10.84087952041142 L 47.09222662326824,-11.828940314961244 A 220.26240186200346 220.26240186200346 0 0 0 24.018736134675446,-6.953439040707552 Z M 110.34925806267286,-12.498201028962939 L 110.21613313005518,-11.50710176435041 A 219.26240186200346 219.26240186200346 0 0 1 133.28241348038546,-7.140786892235674 L 132.56744038358403,-4.227230050358347 L 140.19987496089945,-5.958109140011897 L 134.23571094278736,-11.025529348072109 L 133.52073784598593,-8.111972506194782 A 220.26240186200346 220.26240186200346 0 0 0 110.34925806267286,-12.498201028962939"/><text text-anchor="middle" pointer-events="none" font-size="8px" fill="#000000" x="78.70187997501863" y="-10.946399661612418" font-family="Helvetica Neue, Helvetica, Arial, sans-serif">TRANSACTION</text></g></g><g class="layer nodes"><g class="node" aria-label="graph-node-2" transform="translate(137.10658753862745,-76.54084441088347)"><circle class="b-outline" cx="0" cy="0" r="25" fill="#C990C0" stroke="#b261a5" stroke-width="2px"/><text class="caption" text-anchor="middle" pointer-events="none" x="0" y="5" font-size="10px" fill="#FFFFFF" font-family="Helvetica Neue, Helvetica, Arial, sans-serif"> Account</text></g><g class="node" aria-label="graph-node-3" transform="translate(-27.270339057861147,-70.7324918678022)"><circle class="b-outline" cx="0" cy="0" r="25" fill="#F79767" stroke="#f36924" stroke-width="2px"/><text class="caption" text-anchor="middle" pointer-events="none" x="0" y="5" font-size="10px" fill="#FFFFFF" font-family="Helvetica Neue, Helvetica, Arial, sans-serif"> Internal</text></g><g class="node" aria-label="graph-node-4" transform="translate(52.15351083069524,46.3993068037626)"><circle class="b-outline" cx="0" cy="0" r="25" fill="#57C7E3" stroke="#23b3d7" stroke-width="2px"/><text class="caption" text-anchor="middle" pointer-events="none" x="0" y="5" font-size="10px" fill="#2A2C34" font-family="Helvetica Neue, Helvetica, Arial, sans-serif"> HighRis…</text></g></g></svg>