<svg xmlns="http://www.w3.org/2000/svg" width="199.33253479003906" height="58" viewBox="-99.66626739501953 -38.02064514160156 199.33253479003906 58"><title>Neo4j Graph Visualization</title><desc>Created using Neo4j (http://www.neo4j.com/)</desc><g class="layer relationships"><g class="relationship" transform="translate(-70.66626973082795 -9.020645809062234) rotate(360)"><path class="b-outline" fill="#A5ABB6" stroke="none" d="M 24.018736134675446,6.953439040707552 L 24.277555179777966,5.987513214418485 A 173.7783631829687 173.7783631829687 0 0 0 37.133894755059885,8.914499455186132 L 36.9490569544564,9.897268495941915 A 174.7783631829687 174.7783631829687 0 0 1 24.018736134675446,6.953439040707552 Z M 97.34863818787872,10.636177017666483 L 97.18789785092869,9.649180288149523 A 173.7783631829687 173.7783631829687 0 0 0 110.11199462249222,7.037583388192776 L 109.40666016066625,4.121678160487209 L 117.03332923077622,5.877787181883099 L 111.05244057159352,10.925457025133534 L 110.34710610976755,8.009551797427966 A 174.7783631829687 174.7783631829687 0 0 1 97.34863818787872,10.636177017666483"/><text text-anchor="middle" pointer-events="none" font-size="8px" fill="#000000" x="67.1228008092468" y="15.395827329625519" font-family="Helvetica Neue, Helvetica, Arial, sans-serif">BENEFITS_TO</text></g><g class="relationship" transform="translate(70.66626973082795 -9.020645809062179) rotate(180)"><path class="b-outline" fill="#A5ABB6" stroke="none" d="M 24.018736134675446,6.953439040707552 L 24.277555179777966,5.987513214418485 A 173.7783631829687 173.7783631829687 0 0 0 41.6519427131817,9.702666866295914 L 41.493103822197156,10.689971381990432 A 174.7783631829687 174.7783631829687 0 0 1 24.018736134675446,6.953439040707552 Z M 92.78655883689946,11.317478564078101 L 92.65192058299849,10.326583745953343 A 173.7783631829687 173.7783631829687 0 0 0 110.11199462249222,7.037583388192776 L 109.40666016066625,4.121678160487209 L 117.03332923077622,5.877787181883099 L 111.05244057159352,10.925457025133534 L 110.34710610976755,8.009551797427966 A 174.7783631829687 174.7783631829687 0 0 1 92.78655883689946,11.317478564078101"/><text text-anchor="middle" pointer-events="none" font-size="8px" fill="#000000" x="67.1228008092468" y="15.395827329625519" transform="rotate(180 67.1228008092468 12.395827329625519)" font-family="Helvetica Neue, Helvetica, Arial, sans-serif">PERFORMS</text></g></g><g class="layer nodes"><g class="node" aria-label="graph-node-330" transform="translate(70.66626973082795,-9.020645809062179)"><circle class="b-outline" cx="0" cy="0" r="25" fill="#F79767" stroke="#f36924" stroke-width="2px"/><text class="caption" text-anchor="middle" pointer-events="none" x="0" y="5" font-size="10px" fill="#FFFFFF" font-family="Helvetica Neue, Helvetica, Arial, sans-serif"> Account</text></g><g class="node" aria-label="graph-node-331" transform="translate(-70.66626973082795,-9.020645809062234)"><circle class="b-outline" cx="0" cy="0" r="25" fill="#57C7E3" stroke="#23b3d7" stroke-width="2px"/><text class="caption" text-anchor="middle" pointer-events="none" x="0" y="5" font-size="10px" fill="#2A2C34" font-family="Helvetica Neue, Helvetica, Arial, sans-serif"> TRANS…</text></g></g></svg>