<svg xmlns="http://www.w3.org/2000/svg" width="231.88946533203125" height="273.0881042480469" viewBox="-151.308349609375 -127.28819274902344 231.88946533203125 273.0881042480469"><title>Neo4j Graph Visualization</title><desc>Created using Neo4j (http://www.neo4j.com/)</desc><g class="layer relationships"><g class="relationship" transform="translate(-122.30834300523794 14.515372617219349) rotate(381.57608914873003)"><path class="b-outline" fill="#A5ABB6" stroke="none" d="M 25 0.5 L 61.062393752214774 0.5 L 61.062393752214774 -0.5 L 25 -0.5 Z M 118.92958125221477 0.5 L 154.99197500442955 0.5 L 154.99197500442955 3.5 L 161.99197500442955 0 L 154.99197500442955 -3.5 L 154.99197500442955 -0.5 L 118.92958125221477 -0.5 Z"/><text text-anchor="middle" pointer-events="none" font-size="8px" fill="#000000" x="89.99598750221477" y="3" font-family="Helvetica Neue, Helvetica, Arial, sans-serif">TREATED_BY</text></g><g class="relationship" transform="translate(51.581110255531286 83.27914767886031) rotate(253.81678877175966)"><path class="b-outline" fill="#A5ABB6" stroke="none" d="M 25 0.5 L 72.54498548662802 0.5 L 72.54498548662802 -0.5 L 25 -0.5 Z M 109.51373548662802 0.5 L 157.05872097325604 0.5 L 157.05872097325604 3.5 L 164.05872097325604 0 L 157.05872097325604 -3.5 L 157.05872097325604 -0.5 L 109.51373548662802 -0.5 Z"/><text text-anchor="middle" pointer-events="none" font-size="8px" fill="#000000" x="91.02936048662802" y="3" transform="rotate(180 91.02936048662802 0)" font-family="Helvetica Neue, Helvetica, Arial, sans-serif">TREATS</text></g><g class="relationship" transform="translate(-70.00344913898738 116.7998859838072) rotate(242.91631007505362)"><path class="b-outline" fill="#A5ABB6" stroke="none" d="M 25 0.5 L 27.007514345595233 0.5 L 27.007514345595233 -0.5 L 25 -0.5 Z M 80.87470184559524 0.5 L 82.88221619119047 0.5 L 82.88221619119047 3.5 L 89.88221619119047 0 L 82.88221619119047 -3.5 L 82.88221619119047 -0.5 L 80.87470184559524 -0.5 Z"/><text text-anchor="middle" pointer-events="none" font-size="8px" fill="#000000" x="53.94110809559523" y="3" transform="rotate(180 53.94110809559523 0)" font-family="Helvetica Neue, Helvetica, Arial, sans-serif">INVOLVED…</text></g><g class="relationship" transform="translate(-1.1113909339750663 -98.28819601057454) rotate(497.0542662123743)"><path class="b-outline" fill="#A5ABB6" stroke="none" d="M 25 0.5 L 53.611053173654696 0.5 L 53.611053173654696 -0.5 L 25 -0.5 Z M 104.9587094236547 0.5 L 133.5697625973094 0.5 L 133.5697625973094 3.5 L 140.5697625973094 0 L 133.5697625973094 -3.5 L 133.5697625973094 -0.5 L 104.9587094236547 -0.5 Z"/><text text-anchor="middle" pointer-events="none" font-size="8px" fill="#000000" x="79.2848812986547" y="3" transform="rotate(180 79.2848812986547 0)" font-family="Helvetica Neue, Helvetica, Arial, sans-serif">HAS_CLAIM</text></g><g class="relationship" transform="translate(-1.1113909339750663 -98.28819601057454) rotate(467.7601042544073)"><path class="b-outline" fill="#A5ABB6" stroke="none" d="M 25 0.5 L 93.9824998200319 0.5 L 93.9824998200319 -0.5 L 25 -0.5 Z M 124.8692185700319 0.5 L 193.8517183900638 0.5 L 193.8517183900638 3.5 L 200.8517183900638 0 L 193.8517183900638 -3.5 L 193.8517183900638 -0.5 L 124.8692185700319 -0.5 Z"/><text text-anchor="middle" pointer-events="none" font-size="8px" fill="#000000" x="109.4258591950319" y="3" transform="rotate(180 109.4258591950319 0)" font-family="Helvetica Neue, Helvetica, Arial, sans-serif">OWNS</text></g></g><g class="layer nodes"><g class="node" aria-label="graph-node-123" transform="translate(-70.00344913898738,116.7998859838072)"><circle class="b-outline" cx="0" cy="0" r="25" fill="#8DCC93" stroke="#5db665" stroke-width="2px"/><text class="caption" text-anchor="middle" pointer-events="none" x="0" y="5" font-size="10px" fill="#2A2C34" font-family="Helvetica Neue, Helvetica, Arial, sans-serif"> Vehicle</text></g><g class="node" aria-label="graph-node-125" transform="translate(51.581110255531286,83.27914767886031)"><circle class="b-outline" cx="0" cy="0" r="25" fill="#57C7E3" stroke="#23b3d7" stroke-width="2px"/><text class="caption" text-anchor="middle" pointer-events="none" x="0" y="5" font-size="10px" fill="#2A2C34" font-family="Helvetica Neue, Helvetica, Arial, sans-serif"> Medical…</text></g><g class="node" aria-label="graph-node-124" transform="translate(-1.1113909339750663,-98.28819601057454)"><circle class="b-outline" cx="0" cy="0" r="25" fill="#F16667" stroke="#eb2728" stroke-width="2px"/><text class="caption" text-anchor="middle" pointer-events="none" x="0" y="5" font-size="10px" fill="#FFFFFF" font-family="Helvetica Neue, Helvetica, Arial, sans-serif"> Claimant</text></g><g class="node" aria-label="graph-node-126" transform="translate(-122.30834300523794,14.515372617219349)"><circle class="b-outline" cx="0" cy="0" r="25" fill="#D9C8AE" stroke="#c0a378" stroke-width="2px"/><text class="caption" text-anchor="middle" pointer-events="none" x="0" y="5" font-size="10px" fill="#2A2C34" font-family="Helvetica Neue, Helvetica, Arial, sans-serif"> Claim</text></g></g></svg>