<svg xmlns="http://www.w3.org/2000/svg" width="1928" height="1629" viewBox="0 0 1928 1629"><defs><style type="text/css"/></defs><g transform="translate(374.9144727047782 593.9347852047784) scale(1)"><g class="relationship"><g transform="translate(-61.636805458331565 -439.13680545833176) rotate(45.00000000000001)" stroke-width="5" stroke="#000000"><path d="M 59 0 L 283.67329434324245 0"/><polygon points="-24.8621506177483,0 -27.62461179749811,9.20820393249937 0,0 -27.62461179749811,-9.20820393249937" fill="#000000" transform="translate(308.53544496099073 0) rotate(0)" stroke="none"/></g><g transform="translate(59.516499622488666 -317.98350037751146) rotate(45.00000000000001) translate(0 -22.6)"><g transform="translate(0 0)"><g transform="translate(-59.23046875 0)" fill="#ffffff" stroke="#000000" stroke-width="0"><rect x="0" y="0" width="118.4609375" height="26" rx="5" ry="5" stroke="none"/><text xml:space="preserve" x="5" y="17.45703125" stroke="none" text-anchor="left" font-family="sans-serif" font-size="16" font-weight="normal" fill="#000000">NEXT_QUOTE</text></g></g><g transform="translate(0 26)"><g transform="translate(-75.9140625 0)" fill="white"><rect x="0" y="0" width="151.828125" height="19.2" rx="0" ry="0" stroke="none"/><g font-family="sans-serif" font-size="16" font-weight="normal" fill="#000000" text-anchor="end"><text xml:space="preserve" x="98.4453125" y="14.05703125" stroke="none">diff_seconds:</text><text xml:space="preserve" x="102.890625" y="14.05703125" stroke="none" text-anchor="start">86400</text></g></g></g></g></g><g class="relationship"><g transform="translate(198.25000000000003 -179.25000000000006) rotate(45.00000000000001)" stroke-width="5" stroke="#000000"><path d="M 59 0 L 283.67329434324245 0"/><polygon points="-24.8621506177483,0 -27.62461179749811,9.20820393249937 0,0 -27.62461179749811,-9.20820393249937" fill="#000000" transform="translate(308.5354449609908 0) rotate(0)" stroke="none"/></g><g transform="translate(319.4033050808203 -58.09669491917978) rotate(45.00000000000001) translate(0 -22.6)"><g transform="translate(0 0)"><g transform="translate(-59.23046875 0)" fill="#ffffff" stroke="#000000" stroke-width="0"><rect x="0" y="0" width="118.4609375" height="26" rx="5" ry="5" stroke="none"/><text xml:space="preserve" x="5" y="17.45703125" stroke="none" text-anchor="left" font-family="sans-serif" font-size="16" font-weight="normal" fill="#000000">NEXT_QUOTE</text></g></g><g transform="translate(0 26)"><g transform="translate(-67.015625 0)" fill="white"><rect x="0" y="0" width="134.03125" height="19.2" rx="0" ry="0" stroke="none"/><g font-family="sans-serif" font-size="16" font-weight="normal" fill="#000000" text-anchor="end"><text xml:space="preserve" x="98.4453125" y="14.05703125" stroke="none">diff_seconds:</text><text xml:space="preserve" x="102.890625" y="14.05703125" stroke="none" text-anchor="start">269</text></g></g></g></g></g><g class="relationship"><g transform="translate(458.13680545833165 80.63680545833165) rotate(44.99999999999999)" stroke-width="5" stroke="#000000"><path d="M 59 0 L 283.67329434324256 0"/><polygon points="-24.8621506177483,0 -27.62461179749811,9.20820393249937 0,0 -27.62461179749811,-9.20820393249937" fill="#000000" transform="translate(308.53544496099084 0) rotate(0)" stroke="none"/></g><g transform="translate(579.290110539152 201.79011053915195) rotate(44.99999999999999) translate(0 -22.6)"><g transform="translate(0 0)"><g transform="translate(-59.23046875 0)" fill="#ffffff" stroke="#000000" stroke-width="0"><rect x="0" y="0" width="118.4609375" height="26" rx="5" ry="5" stroke="none"/><text xml:space="preserve" x="5" y="17.45703125" stroke="none" text-anchor="left" font-family="sans-serif" font-size="16" font-weight="normal" fill="#000000">NEXT_QUOTE</text></g></g><g transform="translate(0 26)"><g transform="translate(-66.42578125 0)" fill="white"><rect x="0" y="0" width="132.8515625" height="19.2" rx="0" ry="0" stroke="none"/><g font-family="sans-serif" font-size="16" font-weight="normal" fill="#000000" text-anchor="end"><text xml:space="preserve" x="98.4453125" y="14.05703125" stroke="none">diff_seconds:</text><text xml:space="preserve" x="102.890625" y="14.05703125" stroke="none" text-anchor="start">110</text></g></g></g></g></g><g class="relationship"><g transform="translate(718.0236109166634 340.52361091666336) rotate(44.99999999999999)" stroke-width="5" stroke="#000000"><path d="M 59 0 L 283.67329434324256 0"/><polygon points="-24.8621506177483,0 -27.62461179749811,9.20820393249937 0,0 -27.62461179749811,-9.20820393249937" fill="#000000" transform="translate(308.53544496099084 0) rotate(0)" stroke="none"/></g><g transform="translate(839.1769159974838 461.67691599748366) rotate(44.99999999999999) translate(0 -22.6)"><g transform="translate(0 0)"><g transform="translate(-59.23046875 0)" fill="#ffffff" stroke="#000000" stroke-width="0"><rect x="0" y="0" width="118.4609375" height="26" rx="5" ry="5" stroke="none"/><text xml:space="preserve" x="5" y="17.45703125" stroke="none" text-anchor="left" font-family="sans-serif" font-size="16" font-weight="normal" fill="#000000">NEXT_QUOTE</text></g></g><g transform="translate(0 26)"><g transform="translate(-89.26171875 0)" fill="white"><rect x="0" y="0" width="178.5234375" height="19.2" rx="0" ry="0" stroke="none"/><g font-family="sans-serif" font-size="16" font-weight="normal" fill="#000000" text-anchor="end"><text xml:space="preserve" x="98.4453125" y="14.05703125" stroke="none">diff_seconds:</text><text xml:space="preserve" x="102.890625" y="14.05703125" stroke="none" text-anchor="start">31536000</text></g></g></g></g></g><g class="relationship"><g transform="translate(977.9104163749952 600.4104163749951) rotate(44.999999999999986)" stroke-width="5" stroke="#000000"><path d="M 59 0 L 283.6732943432427 0"/><polygon points="-24.8621506177483,0 -27.62461179749811,9.20820393249937 0,0 -27.62461179749811,-9.20820393249937" fill="#000000" transform="translate(308.53544496099096 0) rotate(0)" stroke="none"/></g><g transform="translate(1099.0637214558155 721.5637214558154) rotate(44.999999999999986) translate(0 -22.6)"><g transform="translate(0 0)"><g transform="translate(-59.23046875 0)" fill="#ffffff" stroke="#000000" stroke-width="0"><rect x="0" y="0" width="118.4609375" height="26" rx="5" ry="5" stroke="none"/><text xml:space="preserve" x="5" y="17.45703125" stroke="none" text-anchor="left" font-family="sans-serif" font-size="16" font-weight="normal" fill="#000000">NEXT_QUOTE</text></g></g><g transform="translate(0 26)"><g transform="translate(-53.66796875 0)" fill="white"><rect x="0" y="0" width="107.3359375" height="19.2" rx="0" ry="0" stroke="none"/><g font-family="sans-serif" font-size="16" font-weight="normal" fill="#000000" text-anchor="end"><text xml:space="preserve" x="98.4453125" y="14.05703125" stroke="none">diff_seconds:</text><text xml:space="preserve" x="102.890625" y="14.05703125" stroke="none" text-anchor="start"></text></g></g></g></g></g><g class="node"><g fill="#ffffff" stroke="#000000" stroke-width="4"><circle cx="-61.636805458331565" cy="-439.13680545833176" r="52"/></g><g transform="translate(-61.636805458331565 -439.13680545833176)"><g transform="scale(0.5242354151114006) translate(0 -27)"><g transform="translate(0 0)"><g transform="translate(-81.482421875 0)"><g fill="#ffffff" stroke="#000000" stroke-width="4"><rect x="0" y="0" width="162.96484375" height="54" rx="27" ry="27"/><text xml:space="preserve" x="27" y="38.142578125" stroke="none" font-family="sans-serif" font-size="40" font-weight="normal" fill="#000000">Quote</text></g></g></g></g><g transform="translate(-39.597979746446654 -154.79797974644666)"><g transform="translate(0 0)"><g transform="translate(-273.6796875 0)" fill="white"><rect x="0" y="0" width="273.6796875" height="115.19999999999999" rx="0" ry="0" stroke="none"/><g font-family="sans-serif" font-size="16" font-weight="normal" fill="#000000" text-anchor="end"><text xml:space="preserve" x="102.296875" y="14.05703125" stroke="none">firstname:</text><text xml:space="preserve" x="106.7421875" y="14.05703125" stroke="none" text-anchor="start">Micheal</text><text xml:space="preserve" x="102.296875" y="33.25703125" stroke="none" text-anchor="end">surname:</text><text xml:space="preserve" x="106.7421875" y="33.25703125" stroke="none" text-anchor="start">Down</text><text xml:space="preserve" x="102.296875" y="52.45703125" stroke="none" text-anchor="end">dob:</text><text xml:space="preserve" x="106.7421875" y="52.45703125" stroke="none" text-anchor="start">1988-02-02</text><text xml:space="preserve" x="102.296875" y="71.65703125" stroke="none" text-anchor="end">postcode:</text><text xml:space="preserve" x="106.7421875" y="71.65703125" stroke="none" text-anchor="start">YO30 7DW</text><text xml:space="preserve" x="102.296875" y="90.85703124999999" stroke="none" text-anchor="end">passport:</text><text xml:space="preserve" x="106.7421875" y="90.85703124999999" stroke="none" text-anchor="start">584699531</text><text xml:space="preserve" x="102.296875" y="110.05703125" stroke="none" text-anchor="end">created_date:</text><text xml:space="preserve" x="106.7421875" y="110.05703125" stroke="none" text-anchor="start">2022-11-30T08:50:36Z</text></g></g></g></g></g></g><g class="node"><g fill="#ffffff" stroke="#000000" stroke-width="4"><circle cx="198.25000000000003" cy="-179.25000000000006" r="52"/></g><g transform="translate(198.25000000000003 -179.25000000000006)"><g transform="scale(0.5242354151114006) translate(0 -27)"><g transform="translate(0 0)"><g transform="translate(-81.482421875 0)"><g fill="#ffffff" stroke="#000000" stroke-width="4"><rect x="0" y="0" width="162.96484375" height="54" rx="27" ry="27"/><text xml:space="preserve" x="27" y="38.142578125" stroke="none" font-family="sans-serif" font-size="40" font-weight="normal" fill="#000000">Quote</text></g></g></g></g><g transform="translate(39.59797974644666 -173.99797974644667)"><g transform="translate(0 0)"><g transform="translate(0 0)" fill="white"><rect x="0" y="0" width="274.859375" height="134.4" rx="0" ry="0" stroke="none"/><g font-family="sans-serif" font-size="16" font-weight="normal" fill="#000000" text-anchor="end"><text xml:space="preserve" x="102.296875" y="14.05703125" stroke="none">firstname:</text><text xml:space="preserve" x="106.7421875" y="14.05703125" stroke="none" text-anchor="start">Michael</text><text xml:space="preserve" x="102.296875" y="33.25703125" stroke="none" text-anchor="end">surname:</text><text xml:space="preserve" x="106.7421875" y="33.25703125" stroke="none" text-anchor="start">Down</text><text xml:space="preserve" x="102.296875" y="52.45703125" stroke="none" text-anchor="end">dob:</text><text xml:space="preserve" x="106.7421875" y="52.45703125" stroke="none" text-anchor="start">1988-02-02</text><text xml:space="preserve" x="102.296875" y="71.65703125" stroke="none" text-anchor="end">postcode:</text><text xml:space="preserve" x="106.7421875" y="71.65703125" stroke="none" text-anchor="start">YO30 7DW</text><text xml:space="preserve" x="102.296875" y="90.85703124999999" stroke="none" text-anchor="end">passport:</text><text xml:space="preserve" x="106.7421875" y="90.85703124999999" stroke="none" text-anchor="start">584699531</text><text xml:space="preserve" x="102.296875" y="110.05703125" stroke="none" text-anchor="end">created_date:</text><text xml:space="preserve" x="106.7421875" y="110.05703125" stroke="none" text-anchor="start">2022-12-01T08:50:36Z</text><text xml:space="preserve" x="102.296875" y="129.25703125" stroke="none" text-anchor="end">change_info:</text><text xml:space="preserve" x="106.7421875" y="129.25703125" stroke="none" text-anchor="start">name change ea to ae</text></g></g></g></g></g></g><g class="node"><g fill="#ffffff" stroke="#000000" stroke-width="4"><circle cx="458.13680545833165" cy="80.63680545833165" r="52"/></g><g transform="translate(458.13680545833165 80.63680545833165)"><g transform="scale(0.5242354151114006) translate(0 -27)"><g transform="translate(0 0)"><g transform="translate(-81.482421875 0)"><g fill="#ffffff" stroke="#000000" stroke-width="4"><rect x="0" y="0" width="162.96484375" height="54" rx="27" ry="27"/><text xml:space="preserve" x="27" y="38.142578125" stroke="none" font-family="sans-serif" font-size="40" font-weight="normal" fill="#000000">Quote</text></g></g></g></g><g transform="translate(39.59797974644666 -173.99797974644667)"><g transform="translate(0 0)"><g transform="translate(0 0)" fill="white"><rect x="0" y="0" width="274.859375" height="134.4" rx="0" ry="0" stroke="none"/><g font-family="sans-serif" font-size="16" font-weight="normal" fill="#000000" text-anchor="end"><text xml:space="preserve" x="102.296875" y="14.05703125" stroke="none">firstname:</text><text xml:space="preserve" x="106.7421875" y="14.05703125" stroke="none" text-anchor="start">Michael</text><text xml:space="preserve" x="102.296875" y="33.25703125" stroke="none" text-anchor="end">surname:</text><text xml:space="preserve" x="106.7421875" y="33.25703125" stroke="none" text-anchor="start">Down</text><text xml:space="preserve" x="102.296875" y="52.45703125" stroke="none" text-anchor="end">dob:</text><text xml:space="preserve" x="106.7421875" y="52.45703125" stroke="none" text-anchor="start">1988-02-02</text><text xml:space="preserve" x="102.296875" y="71.65703125" stroke="none" text-anchor="end">postcode:</text><text xml:space="preserve" x="106.7421875" y="71.65703125" stroke="none" text-anchor="start">YO30 7DW</text><text xml:space="preserve" x="102.296875" y="90.85703124999999" stroke="none" text-anchor="end">passport:</text><text xml:space="preserve" x="106.7421875" y="90.85703124999999" stroke="none" text-anchor="start">584699531</text><text xml:space="preserve" x="102.296875" y="110.05703125" stroke="none" text-anchor="end">created_date:</text><text xml:space="preserve" x="106.7421875" y="110.05703125" stroke="none" text-anchor="start">2022-12-01T08:55:05Z</text><text xml:space="preserve" x="102.296875" y="129.25703125" stroke="none" text-anchor="end">change_info:</text><text xml:space="preserve" x="106.7421875" y="129.25703125" stroke="none" text-anchor="start">postcode_change</text></g></g></g></g></g></g><g class="node"><g fill="#ffffff" stroke="#000000" stroke-width="4"><circle cx="718.0236109166634" cy="340.52361091666336" r="52"/></g><g transform="translate(718.0236109166634 340.52361091666336)"><g transform="scale(0.5242354151114006) translate(0 -27)"><g transform="translate(0 0)"><g transform="translate(-81.482421875 0)"><g fill="#ffffff" stroke="#000000" stroke-width="4"><rect x="0" y="0" width="162.96484375" height="54" rx="27" ry="27"/><text xml:space="preserve" x="27" y="38.142578125" stroke="none" font-family="sans-serif" font-size="40" font-weight="normal" fill="#000000">Quote</text></g></g></g></g><g transform="translate(39.59797974644666 -173.99797974644667)"><g transform="translate(0 0)"><g transform="translate(0 0)" fill="white"><rect x="0" y="0" width="274.859375" height="134.4" rx="0" ry="0" stroke="none"/><g font-family="sans-serif" font-size="16" font-weight="normal" fill="#000000" text-anchor="end"><text xml:space="preserve" x="102.296875" y="14.05703125" stroke="none">firstname:</text><text xml:space="preserve" x="106.7421875" y="14.05703125" stroke="none" text-anchor="start">Michael</text><text xml:space="preserve" x="102.296875" y="33.25703125" stroke="none" text-anchor="end">surname:</text><text xml:space="preserve" x="106.7421875" y="33.25703125" stroke="none" text-anchor="start">Down</text><text xml:space="preserve" x="102.296875" y="52.45703125" stroke="none" text-anchor="end">dob:</text><text xml:space="preserve" x="106.7421875" y="52.45703125" stroke="none" text-anchor="start">1988-02-02</text><text xml:space="preserve" x="102.296875" y="71.65703125" stroke="none" text-anchor="end">postcode:</text><text xml:space="preserve" x="106.7421875" y="71.65703125" stroke="none" text-anchor="start">YO30 7DW</text><text xml:space="preserve" x="102.296875" y="90.85703124999999" stroke="none" text-anchor="end">passport:</text><text xml:space="preserve" x="106.7421875" y="90.85703124999999" stroke="none" text-anchor="start">584699530</text><text xml:space="preserve" x="102.296875" y="110.05703125" stroke="none" text-anchor="end">created_date:</text><text xml:space="preserve" x="106.7421875" y="110.05703125" stroke="none" text-anchor="start">2022-12-01T08:56:55Z</text><text xml:space="preserve" x="102.296875" y="129.25703125" stroke="none" text-anchor="end">change_info:</text><text xml:space="preserve" x="106.7421875" y="129.25703125" stroke="none" text-anchor="start">passport number</text></g></g></g></g></g></g><g class="node"><g fill="#ffffff" stroke="#000000" stroke-width="4"><circle cx="977.9104163749952" cy="600.4104163749951" r="52"/></g><g transform="translate(977.9104163749952 600.4104163749951)"><g transform="scale(0.5242354151114006) translate(0 -27)"><g transform="translate(0 0)"><g transform="translate(-81.482421875 0)"><g fill="#ffffff" stroke="#000000" stroke-width="4"><rect x="0" y="0" width="162.96484375" height="54" rx="27" ry="27"/><text xml:space="preserve" x="27" y="38.142578125" stroke="none" font-family="sans-serif" font-size="40" font-weight="normal" fill="#000000">Quote</text></g></g></g></g><g transform="translate(-39.597979746446654 39.59797974644666)"><g transform="translate(0 0)"><g transform="translate(-274.859375 0)" fill="white"><rect x="0" y="0" width="274.859375" height="134.4" rx="0" ry="0" stroke="none"/><g font-family="sans-serif" font-size="16" font-weight="normal" fill="#000000" text-anchor="end"><text xml:space="preserve" x="102.296875" y="14.05703125" stroke="none">firstname:</text><text xml:space="preserve" x="106.7421875" y="14.05703125" stroke="none" text-anchor="start">Michael</text><text xml:space="preserve" x="102.296875" y="33.25703125" stroke="none" text-anchor="end">surname:</text><text xml:space="preserve" x="106.7421875" y="33.25703125" stroke="none" text-anchor="start">Down</text><text xml:space="preserve" x="102.296875" y="52.45703125" stroke="none" text-anchor="end">dob:</text><text xml:space="preserve" x="106.7421875" y="52.45703125" stroke="none" text-anchor="start">1988-02-02</text><text xml:space="preserve" x="102.296875" y="71.65703125" stroke="none" text-anchor="end">postcode:</text><text xml:space="preserve" x="106.7421875" y="71.65703125" stroke="none" text-anchor="start">YO30 7DW</text><text xml:space="preserve" x="102.296875" y="90.85703124999999" stroke="none" text-anchor="end">passport:</text><text xml:space="preserve" x="106.7421875" y="90.85703124999999" stroke="none" text-anchor="start">584699530</text><text xml:space="preserve" x="102.296875" y="110.05703125" stroke="none" text-anchor="end">created_date:</text><text xml:space="preserve" x="106.7421875" y="110.05703125" stroke="none" text-anchor="start">2023-12-01T08:56:55Z</text><text xml:space="preserve" x="102.296875" y="129.25703125" stroke="none" text-anchor="end">change_info:</text><text xml:space="preserve" x="106.7421875" y="129.25703125" stroke="none" text-anchor="start">quote 1yr later</text></g></g></g></g></g></g><g class="node"><g fill="#ffffff" stroke="#000000" stroke-width="4"><circle cx="1237.797221833327" cy="860.2972218333268" r="52"/></g><g transform="translate(1237.797221833327 860.2972218333268)"><g transform="scale(0.5242354151114006) translate(0 -27)"><g transform="translate(0 0)"><g transform="translate(-81.482421875 0)"><g fill="#ffffff" stroke="#000000" stroke-width="4"><rect x="0" y="0" width="162.96484375" height="54" rx="27" ry="27"/><text xml:space="preserve" x="27" y="38.142578125" stroke="none" font-family="sans-serif" font-size="40" font-weight="normal" fill="#000000">Quote</text></g></g></g></g><g transform="translate(39.59797974644666 39.597979746446654)"><g transform="translate(0 0)"><g transform="translate(0 0)" fill="white"><rect x="0" y="0" width="274.859375" height="134.4" rx="0" ry="0" stroke="none"/><g font-family="sans-serif" font-size="16" font-weight="normal" fill="#000000" text-anchor="end"><text xml:space="preserve" x="102.296875" y="14.05703125" stroke="none">firstname:</text><text xml:space="preserve" x="106.7421875" y="14.05703125" stroke="none" text-anchor="start">Michael</text><text xml:space="preserve" x="102.296875" y="33.25703125" stroke="none" text-anchor="end">surname:</text><text xml:space="preserve" x="106.7421875" y="33.25703125" stroke="none" text-anchor="start">Down</text><text xml:space="preserve" x="102.296875" y="52.45703125" stroke="none" text-anchor="end">dob:</text><text xml:space="preserve" x="106.7421875" y="52.45703125" stroke="none" text-anchor="start">1988-02-02</text><text xml:space="preserve" x="102.296875" y="71.65703125" stroke="none" text-anchor="end">postcode:</text><text xml:space="preserve" x="106.7421875" y="71.65703125" stroke="none" text-anchor="start">YO30 7DW</text><text xml:space="preserve" x="102.296875" y="90.85703124999999" stroke="none" text-anchor="end">passport:</text><text xml:space="preserve" x="106.7421875" y="90.85703124999999" stroke="none" text-anchor="start">584699530</text><text xml:space="preserve" x="102.296875" y="110.05703125" stroke="none" text-anchor="end">created_date:</text><text xml:space="preserve" x="106.7421875" y="110.05703125" stroke="none" text-anchor="start">2024-01-01T08:56:55Z</text><text xml:space="preserve" x="102.296875" y="129.25703125" stroke="none" text-anchor="end">change_info:</text><text xml:space="preserve" x="106.7421875" y="129.25703125" stroke="none" text-anchor="start">quote 1m later</text></g></g></g></g></g></g></g></svg>