<svg xmlns="http://www.w3.org/2000/svg" width="1568" height="1059" viewBox="0 0 1568 1059"><defs><style type="text/css"/></defs><g transform="translate(23.9296875 29.180958710542768) scale(1)"><g class="relationship"><g transform="translate(1108.5523120689763 322.5174373563259) rotate(179.99999693249006)" stroke-width="5" stroke="#000000"><path d="M 59 0 L 242.6552867385776 0"/><polygon points="-24.8621506177483,0 -27.62461179749811,9.20820393249937 0,0 -27.62461179749811,-9.20820393249937" fill="#000000" transform="translate(267.5174373563259 0) rotate(0)" stroke="none"/></g><g transform="translate(957.7246686996878 322.5174454313586) rotate(359.9999969324901) translate(0 -13)"><g transform="translate(0 0)"><g transform="translate(-38.78515625 0)" fill="#ffffff" stroke="#000000" stroke-width="0"><rect x="0" y="0" width="77.5703125" height="26" rx="5" ry="5" stroke="none"/><text xml:space="preserve" x="5" y="17.45703125" stroke="none" text-anchor="left" font-family="sans-serif" font-size="16" font-weight="normal" fill="#000000">MAPPED</text></g></g></g></g><g class="relationship"><g transform="translate(129 649.0348747126518) rotate(0)" stroke-width="5" stroke="#000000"><path d="M 59 0 L 242.65528673857713 0"/><polygon points="-24.8621506177483,0 -27.62461179749811,9.20820393249937 0,0 -27.62461179749811,-9.20820393249937" fill="#000000" transform="translate(267.51743735632544 0) rotate(0)" stroke="none"/></g><g transform="translate(279.8276433692886 649.0348747126518) rotate(0) translate(0 -13)"><g transform="translate(0 0)"><g transform="translate(-58.35546875 0)" fill="#ffffff" stroke="#000000" stroke-width="0"><rect x="0" y="0" width="116.7109375" height="26" rx="5" ry="5" stroke="none"/><text xml:space="preserve" x="5" y="17.45703125" stroke="none" text-anchor="left" font-family="sans-serif" font-size="16" font-weight="normal" fill="#000000">HAS_SAMPLE</text></g></g></g></g><g class="relationship"><g transform="translate(455.51743735632544 649.0348747126518) rotate(0)" stroke-width="5" stroke="#000000"><path d="M 59 0 L 242.65528673857713 0"/><polygon points="-24.8621506177483,0 -27.62461179749811,9.20820393249937 0,0 -27.62461179749811,-9.20820393249937" fill="#000000" transform="translate(267.51743735632544 0) rotate(0)" stroke="none"/></g><g transform="translate(606.345080725614 649.0348747126518) rotate(0) translate(0 -13)"><g transform="translate(0 0)"><g transform="translate(-77.90625 0)" fill="#ffffff" stroke="#000000" stroke-width="0"><rect x="0" y="0" width="155.8125" height="26" rx="5" ry="5" stroke="none"/><text xml:space="preserve" x="5" y="17.45703125" stroke="none" text-anchor="left" font-family="sans-serif" font-size="16" font-weight="normal" fill="#000000">HAS_EXPERIMENT</text></g></g></g></g><g class="relationship"><g transform="translate(970.5497949726922 975.5522945878387) rotate(-120.00000000000001)" stroke-width="5" stroke="#000000"><path d="M 59 0 L 293.16768990233413 0"/><polygon points="-24.8621506177483,0 -27.62461179749811,9.20820393249937 0,0 -27.62461179749811,-9.20820393249937" fill="#000000" transform="translate(318.0298405200825 0) rotate(0)" stroke="none"/></g><g transform="translate(882.5078724971087 823.0592116640878) rotate(59.999999999999986) translate(0 -13)"><g transform="translate(0 0)"><g transform="translate(-50.1953125 0)" fill="#ffffff" stroke="#000000" stroke-width="0"><rect x="0" y="0" width="100.390625" height="26" rx="5" ry="5" stroke="none"/><text xml:space="preserve" x="5" y="17.45703125" stroke="none" text-anchor="left" font-family="sans-serif" font-size="16" font-weight="normal" fill="#000000">COMPARES</text></g></g></g></g><g class="relationship"><g transform="translate(782.0348747126509 649.0348747126518) rotate(-45.000000000000036)" stroke-width="5" stroke="#000000"><path d="M 59 0 L 377.9032376428749 0"/><polygon points="-24.8621506177483,0 -27.62461179749811,9.20820393249937 0,0 -27.62461179749811,-9.20820393249937" fill="#000000" transform="translate(402.7653882606232 0) rotate(0)" stroke="none"/></g><g transform="translate(936.5034957424681 494.56625368283443) rotate(-45.000000000000036) translate(0 -13)"><g transform="translate(0 0)"><g transform="translate(-51.54296875 0)" fill="#ffffff" stroke="#000000" stroke-width="0"><rect x="0" y="0" width="103.0859375" height="26" rx="5" ry="5" stroke="none"/><text xml:space="preserve" x="5" y="17.45703125" stroke="none" text-anchor="left" font-family="sans-serif" font-size="16" font-weight="normal" fill="#000000">HAS_VALUE</text></g></g></g></g><g class="relationship"><g transform="translate(455.51743735632544 649.0348747126518) rotate(-90)" stroke-width="5" stroke="#000000"><path d="M 59 0 L 220.13684952192338 0"/><polygon points="-24.8621506177483,0 -27.62461179749811,9.20820393249937 0,0 -27.62461179749811,-9.20820393249937" fill="#000000" transform="translate(244.9990001396717 0) rotate(0)" stroke="none"/></g><g transform="translate(455.51743735632544 509.4664499516901) rotate(90) translate(0 -13)"><g transform="translate(0 0)"><g transform="translate(-59.08203125 0)" fill="#ffffff" stroke="#000000" stroke-width="0"><rect x="0" y="0" width="118.1640625" height="26" rx="5" ry="5" stroke="none"/><text xml:space="preserve" x="5" y="17.45703125" stroke="none" text-anchor="left" font-family="sans-serif" font-size="16" font-weight="normal" fill="#000000">TAKEN_FROM</text></g></g></g></g><g class="relationship"><g transform="translate(970.5497949726922 975.5522945878387) rotate(-147.62634175239944)" stroke-width="5" stroke="#000000"><path d="M 58.695178092152055 -5.989663490593891 L 95.96898050729243 -9.793341079425122 A 40 40 0 0 1 100.02976931447472 -10 L 304.9065245586843 -10 L 509.7832798028938 -10 A 40 40 0 0 1 513.8440686100761 -9.793341079425124 L 526.3841700377141 -8.51366206436971 L 526.3841700377141 -8.51366206436971"/><polygon points="-24.8621506177483,0 -27.62461179749811,9.20820393249937 0,0 -27.62461179749811,-9.20820393249937" fill="#000000" transform="translate(609.8130491173686 0) rotate(5.826689442008371) translate(-59 0)" stroke="none"/></g><g transform="translate(707.6792305811275 820.7393264782008) rotate(32.37365824760057) translate(0 -13)"><g transform="translate(0 0)"><g transform="translate(-71.6875 0)" fill="#ffffff" stroke="#000000" stroke-width="0"><rect x="0" y="0" width="143.375" height="26" rx="5" ry="5" stroke="none"/><text xml:space="preserve" x="5" y="17.45703125" stroke="none" text-anchor="left" font-family="sans-serif" font-size="16" font-weight="normal" fill="#000000">INCLUDES_CASE</text></g></g></g></g><g class="relationship"><g transform="translate(970.5497949726922 975.5522945878387) rotate(-147.62634175239944)" stroke-width="5" stroke="#000000"><path d="M 58.695178092152055 5.989663490593891 L 95.96898050729243 9.793341079425122 A 40 40 0 0 0 100.02976931447472 10 L 304.9065245586843 10 L 509.7832798028938 10 A 40 40 0 0 0 513.8440686100761 9.793341079425124 L 526.3841700377141 8.51366206436971 L 526.3841700377141 8.51366206436971"/><polygon points="-24.8621506177483,0 -27.62461179749811,9.20820393249937 0,0 -27.62461179749811,-9.20820393249937" fill="#000000" transform="translate(609.8130491173686 0) rotate(-5.826689442008371) translate(-59 0)" stroke="none"/></g><g transform="translate(718.3880017478903 803.8478428222897) rotate(32.37365824760057) translate(0 -13)"><g transform="translate(0 0)"><g transform="translate(-89.015625 0)" fill="#ffffff" stroke="#000000" stroke-width="0"><rect x="0" y="0" width="178.03125" height="26" rx="5" ry="5" stroke="none"/><text xml:space="preserve" x="5" y="17.45703125" stroke="none" text-anchor="left" font-family="sans-serif" font-size="16" font-weight="normal" fill="#000000">INCLUDES_CONTROL</text></g></g></g></g><g class="relationship"><g transform="translate(970.5497949726922 975.5522945878387) rotate(0)" stroke-width="5" stroke="#000000"><path d="M 59 0 L 293.16768990233425 0"/><polygon points="-24.8621506177483,0 -27.62461179749811,9.20820393249937 0,0 -27.62461179749811,-9.20820393249937" fill="#000000" transform="translate(318.02984052008253 0) rotate(0)" stroke="none"/></g><g transform="translate(1146.6336399238594 975.5522945878387) rotate(0) translate(0 -13)"><g transform="translate(0 0)"><g transform="translate(-78.80078125 0)" fill="#ffffff" stroke="#000000" stroke-width="0"><rect x="0" y="0" width="157.6015625" height="26" rx="5" ry="5" stroke="none"/><text xml:space="preserve" x="5" y="17.45703125" stroke="none" text-anchor="left" font-family="sans-serif" font-size="16" font-weight="normal" fill="#000000">STUDIES_DISEASE</text></g></g></g></g><g class="relationship"><g transform="translate(1108.5523120689763 322.5174373563259) rotate(69.89609248659772)" stroke-width="5" stroke="#000000"><path d="M 59 0 L 611.5431888084942 0"/><polygon points="-24.8621506177483,0 -27.62461179749811,9.20820393249937 0,0 -27.62461179749811,-9.20820393249937" fill="#000000" transform="translate(636.4053394262424 0) rotate(0)" stroke="none"/></g><g transform="translate(1223.7931180952814 637.3612059793899) rotate(69.89609248659772) translate(0 -13)"><g transform="translate(0 0)"><g transform="translate(-56.7265625 0)" fill="#ffffff" stroke="#000000" stroke-width="0"><rect x="0" y="0" width="113.453125" height="26" rx="5" ry="5" stroke="none"/><text xml:space="preserve" x="5" y="17.45703125" stroke="none" text-anchor="left" font-family="sans-serif" font-size="16" font-weight="normal" fill="#000000">RELATED_TO</text></g></g></g></g><g class="relationship"><g transform="translate(970.5497949726922 975.5522945878387) rotate(-78.06753613405145)" stroke-width="5" stroke="#000000"><path d="M 59 0 L 583.5951285277357 0"/><polygon points="-24.8621506177483,0 -27.62461179749811,9.20820393249937 0,0 -27.62461179749811,-9.20820393249937" fill="#000000" transform="translate(608.457279145484 0) rotate(0)" stroke="none"/></g><g transform="translate(1036.9808220821503 661.1973305120717) rotate(-78.06753613405145) translate(0 -13)"><g transform="translate(0 0)"><g transform="translate(-94.78515625 0)" fill="#ffffff" stroke="#000000" stroke-width="0"><rect x="0" y="0" width="189.5703125" height="26" rx="5" ry="5" stroke="none"/><text xml:space="preserve" x="5" y="17.45703125" stroke="none" text-anchor="left" font-family="sans-serif" font-size="16" font-weight="normal" fill="#000000">FOUND_DIFFERENTIAL</text></g></g></g></g><g class="relationship"><g transform="translate(1108.5523120689763 322.5174373563259) rotate(0.0000033644636918750573)" stroke-width="5" stroke="#000000"><path d="M 59 0 L 213.83626293025966 0"/><polygon points="-24.8621506177483,0 -27.62461179749811,9.20820393249937 0,0 -27.62461179749811,-9.20820393249937" fill="#000000" transform="translate(238.69841354800798 0) rotate(0)" stroke="none"/></g><g transform="translate(1244.970443534106 322.51744536693076) rotate(0.0000033644636918750573) translate(0 -13)"><g transform="translate(0 0)"><g transform="translate(-33.44921875 0)" fill="#ffffff" stroke="#000000" stroke-width="0"><rect x="0" y="0" width="66.8984375" height="26" rx="5" ry="5" stroke="none"/><text xml:space="preserve" x="5" y="17.45703125" stroke="none" text-anchor="left" font-family="sans-serif" font-size="16" font-weight="normal" fill="#000000">CODES</text></g></g></g></g><g class="relationship"><g stroke-width="5" stroke="#000000"><path d="M 1406.2507256169838 381.5174548374652 L 1406.2507256169838 381.5174548374652 A 40 40 0 0 0 1446.2507256169838 421.5174548374652 L 1468.181800925858 421.5174548374652 L 1490.112876234732 421.5174548374652 A 40 40 0 0 0 1530.112876234732 381.5174548374652 L 1530.112876234732 372.0174548374652 L 1530.112876234732 362.5174548374652 A 40 40 0 0 1 1490.112876234732 322.5174548374652 L 1490.112876234732 322.5174548374652 L 1490.112876234732 322.5174548374652"/><polygon points="-24.8621506177483,0 -27.62461179749811,9.20820393249937 0,0 -27.62461179749811,-9.20820393249937" fill="#000000" transform="translate(1490.112876234732 322.5174548374652) rotate(180) translate(24.8621506177483 0)" stroke="none"/></g><g transform="translate(1530.112876234732 372.0174548374652) rotate(270) translate(0 -13)"><g transform="translate(0 0)"><g transform="translate(-75.22265625 0)" fill="#ffffff" stroke="#000000" stroke-width="0"><rect x="0" y="0" width="150.4453125" height="26" rx="5" ry="5" stroke="none"/><text xml:space="preserve" x="5" y="17.45703125" stroke="none" text-anchor="left" font-family="sans-serif" font-size="16" font-weight="normal" fill="#000000">INTERACTS_WITH</text></g></g></g></g><g class="relationship"><g transform="translate(782.0348747126509 649.0348747126518) rotate(-27.613353089706212)" stroke-width="5" stroke="#cccccc"><path d="M 59 0 L 620.5944158234832 0"/><polygon points="-24.8621506177483,0 -27.62461179749811,9.20820393249937 0,0 -27.62461179749811,-9.20820393249937" fill="#cccccc" transform="translate(645.4565664412315 0) rotate(0)" stroke="none"/></g><g transform="translate(1083.1276792599404 491.5379999675854) rotate(-27.613353089706212) translate(0 -13)"><g transform="translate(0 0)"><g transform="translate(-51.54296875 0)" fill="#ffffff" stroke="#000000" stroke-width="0"><rect x="0" y="0" width="103.0859375" height="26" rx="5" ry="5" stroke="none"/><text xml:space="preserve" x="5" y="17.45703125" stroke="none" text-anchor="left" font-family="sans-serif" font-size="16" font-weight="normal" fill="#cccccc">HAS_VALUE</text></g></g></g></g><g class="relationship"><g transform="translate(782.0348747126509 649.0348747126518) rotate(0)" stroke-width="5" stroke="#cccccc"><path d="M 59 0 L 540.3537002865846 0"/><polygon points="-24.8621506177483,0 -27.62461179749811,9.20820393249937 0,0 -27.62461179749811,-9.20820393249937" fill="#cccccc" transform="translate(565.2158509043329 0) rotate(0)" stroke="none"/></g><g transform="translate(1081.7117248559432 649.0348747126518) rotate(0) translate(0 -13)"><g transform="translate(0 0)"><g transform="translate(-51.54296875 0)" fill="#ffffff" stroke="#000000" stroke-width="0"><rect x="0" y="0" width="103.0859375" height="26" rx="5" ry="5" stroke="none"/><text xml:space="preserve" x="5" y="17.45703125" stroke="none" text-anchor="left" font-family="sans-serif" font-size="16" font-weight="normal" fill="#cccccc">HAS_VALUE</text></g></g></g></g><g class="relationship"><g transform="translate(1406.2507256169838 322.5174548374652) rotate(-90)" stroke-width="5" stroke="#000000"><path d="M 59 0 L 213.83626293025966 0"/><polygon points="-24.8621506177483,0 -27.62461179749811,9.20820393249937 0,0 -27.62461179749811,-9.20820393249937" fill="#000000" transform="translate(238.69841354800798 0) rotate(0)" stroke="none"/></g><g transform="translate(1406.2507256169838 186.0993233723354) rotate(90) translate(0 -13)"><g transform="translate(0 0)"><g transform="translate(-80.86328125 0)" fill="#ffffff" stroke="#000000" stroke-width="0"><rect x="0" y="0" width="161.7265625" height="26" rx="5" ry="5" stroke="none"/><text xml:space="preserve" x="5" y="17.45703125" stroke="none" text-anchor="left" font-family="sans-serif" font-size="16" font-weight="normal" fill="#000000">ASSOCIATED_WITH</text></g></g></g></g><g class="relationship"><g transform="translate(455.51743735632544 649.0348747126518) rotate(90)" stroke-width="5" stroke="#cccccc"><path d="M 59 0 L 242.65526925743856 0"/><polygon points="-24.8621506177483,0 -27.62461179749811,9.20820393249937 0,0 -27.62461179749811,-9.20820393249937" fill="#cccccc" transform="translate(267.5174198751869 0) rotate(0)" stroke="none"/></g><g transform="translate(455.51743735632544 799.8625093413712) rotate(270) translate(0 -13)"><g transform="translate(0 0)"><g transform="translate(-75.2421875 0)" fill="#ffffff" stroke="#000000" stroke-width="0"><rect x="0" y="0" width="150.484375" height="26" rx="5" ry="5" stroke="none"/><text xml:space="preserve" x="5" y="17.45703125" stroke="none" text-anchor="left" font-family="sans-serif" font-size="16" font-weight="normal" fill="#cccccc">HAS_PHENOTYPE</text></g></g></g></g><g class="node"><g fill="#ffffff" stroke="#000000" stroke-width="4"><circle cx="1108.5523120689763" cy="322.5174373563259" r="52"/></g><g transform="translate(1108.5523120689763 322.5174373563259)"><g transform="scale(0.5584259505184) translate(0 -27)"><g transform="translate(0 0)"><g transform="translate(-75.92578125 0)"><g fill="#ffffff" stroke="#000000" stroke-width="4"><rect x="0" y="0" width="151.8515625" height="54" rx="27" ry="27"/><text xml:space="preserve" x="27" y="38.142578125" stroke="none" font-family="sans-serif" font-size="40" font-weight="normal" fill="#000000">Gene</text></g></g></g></g><g transform="translate(3.429011037612589e-15 -113.6)"><g transform="translate(0 0)"><g transform="translate(-53.79296875 0)" fill="white"><rect x="0" y="0" width="107.5859375" height="57.599999999999994" rx="0" ry="0" stroke="none"/><g font-family="sans-serif" font-size="16" font-weight="normal" fill="#000000" text-anchor="end"><text xml:space="preserve" x="59.5703125" y="14.05703125" stroke="none">sid:</text><text xml:space="preserve" x="64.015625" y="14.05703125" stroke="none" text-anchor="start">string</text><text xml:space="preserve" x="59.5703125" y="33.25703125" stroke="none" text-anchor="end">source:</text><text xml:space="preserve" x="64.015625" y="33.25703125" stroke="none" text-anchor="start">string</text><text xml:space="preserve" x="59.5703125" y="52.45703125" stroke="none" text-anchor="end">symbol:</text><text xml:space="preserve" x="64.015625" y="52.45703125" stroke="none" text-anchor="start">string</text></g></g></g></g></g></g><g class="node"><g fill="#ffffff" stroke="#000000" stroke-width="4"><circle cx="782.0348747126509" cy="322.5174548374648" r="52"/></g><g transform="translate(782.0348747126509 322.5174548374648)"><g transform="scale(0.8302074342805233) translate(0 -27)"><g transform="translate(0 0)"><g transform="translate(-47 0)"><g fill="#ffffff" stroke="#000000" stroke-width="4"><rect x="0" y="0" width="94" height="54" rx="27" ry="27"/><text xml:space="preserve" x="27" y="38.142578125" stroke="none" font-family="sans-serif" font-size="40" font-weight="normal" fill="#000000">ID</text></g></g></g></g><g transform="translate(-56 -19.199999999999992)"><g transform="translate(0 0)"><g transform="translate(-104.9296875 0)" fill="white"><rect x="0" y="0" width="104.9296875" height="38.4" rx="0" ry="0" stroke="none"/><g font-family="sans-serif" font-size="16" font-weight="normal" fill="#000000" text-anchor="end"><text xml:space="preserve" x="56.9140625" y="14.05703125" stroke="none">source:</text><text xml:space="preserve" x="61.359375" y="14.05703125" stroke="none" text-anchor="start">string</text><text xml:space="preserve" x="56.9140625" y="33.25703125" stroke="none" text-anchor="end">sid:</text><text xml:space="preserve" x="61.359375" y="33.25703125" stroke="none" text-anchor="start">string</text></g></g></g></g></g></g><g class="node"><g fill="#ffffff" stroke="#000000" stroke-width="4"><circle cx="129" cy="649.0348747126518" r="52"/></g><g transform="translate(129 649.0348747126518)"><g transform="scale(0.48262082920763166) translate(0 -27)"><g transform="translate(0 0)"><g transform="translate(-89.24609375 0)"><g fill="#ffffff" stroke="#000000" stroke-width="4"><rect x="0" y="0" width="178.4921875" height="54" rx="27" ry="27"/><text xml:space="preserve" x="27" y="38.142578125" stroke="none" font-family="sans-serif" font-size="40" font-weight="normal" fill="#000000">Project</text></g></g></g></g><g transform="translate(-56 -19.199999999999992)"><g transform="translate(0 0)"><g transform="translate(-96.9296875 0)" fill="white"><rect x="0" y="0" width="96.9296875" height="38.4" rx="0" ry="0" stroke="none"/><g font-family="sans-serif" font-size="16" font-weight="normal" fill="#000000" text-anchor="end"><text xml:space="preserve" x="48.9140625" y="14.05703125" stroke="none">name:</text><text xml:space="preserve" x="53.359375" y="14.05703125" stroke="none" text-anchor="start">string</text><text xml:space="preserve" x="48.9140625" y="33.25703125" stroke="none" text-anchor="end">sid:</text><text xml:space="preserve" x="53.359375" y="33.25703125" stroke="none" text-anchor="start">string</text></g></g></g></g></g></g><g class="node"><g fill="#ffffff" stroke="#000000" stroke-width="4"><circle cx="455.51743735632544" cy="649.0348747126518" r="52"/></g><g transform="translate(455.51743735632544 649.0348747126518)"><g transform="scale(0.45647279741181035) translate(0 -27)"><g transform="translate(0 0)"><g transform="translate(-94.8125 0)"><g fill="#ffffff" stroke="#000000" stroke-width="4"><rect x="0" y="0" width="189.625" height="54" rx="27" ry="27"/><text xml:space="preserve" x="27" y="38.142578125" stroke="none" font-family="sans-serif" font-size="40" font-weight="normal" fill="#000000">Sample</text></g></g></g></g><g transform="translate(-39.597979746446654 -77.99797974644666)"><g transform="translate(0 0)"><g transform="translate(-96.9296875 0)" fill="white"><rect x="0" y="0" width="96.9296875" height="38.4" rx="0" ry="0" stroke="none"/><g font-family="sans-serif" font-size="16" font-weight="normal" fill="#000000" text-anchor="end"><text xml:space="preserve" x="48.9140625" y="14.05703125" stroke="none">name:</text><text xml:space="preserve" x="53.359375" y="14.05703125" stroke="none" text-anchor="start">string</text><text xml:space="preserve" x="48.9140625" y="33.25703125" stroke="none" text-anchor="end">sid:</text><text xml:space="preserve" x="53.359375" y="33.25703125" stroke="none" text-anchor="start">string</text></g></g></g></g></g></g><g class="node"><g fill="#ffffff" stroke="#000000" stroke-width="4"><circle cx="782.0348747126509" cy="649.0348747126518" r="52"/></g><g transform="translate(782.0348747126509 649.0348747126518)"><g transform="scale(0.34360132978623376) translate(0 -27)"><g transform="translate(0 0)"><g transform="translate(-128.15234375 0)"><g fill="#ffffff" stroke="#000000" stroke-width="4"><rect x="0" y="0" width="256.3046875" height="54" rx="27" ry="27"/><text xml:space="preserve" x="27" y="38.142578125" stroke="none" font-family="sans-serif" font-size="40" font-weight="normal" fill="#000000">Experiment</text></g></g></g></g><g transform="translate(-39.597979746446654 -77.99797974644666)"><g transform="translate(0 0)"><g transform="translate(-87.1484375 0)" fill="white"><rect x="0" y="0" width="87.1484375" height="38.4" rx="0" ry="0" stroke="none"/><g font-family="sans-serif" font-size="16" font-weight="normal" fill="#000000" text-anchor="end"><text xml:space="preserve" x="39.1328125" y="14.05703125" stroke="none">type:</text><text xml:space="preserve" x="43.578125" y="14.05703125" stroke="none" text-anchor="start">string</text><text xml:space="preserve" x="39.1328125" y="33.25703125" stroke="none" text-anchor="end">sid:</text><text xml:space="preserve" x="43.578125" y="33.25703125" stroke="none" text-anchor="start">string</text></g></g></g></g></g></g><g class="node"><g fill="#ffffff" stroke="#000000" stroke-width="4"><circle cx="970.5497949726922" cy="975.5522945878387" r="52"/></g><g transform="translate(970.5497949726922 975.5522945878387)"><g transform="scale(0.32727451623470377) translate(0 -27)"><g transform="translate(0 0)"><g transform="translate(-134.822265625 0)"><g fill="#ffffff" stroke="#000000" stroke-width="4"><rect x="0" y="0" width="269.64453125" height="54" rx="27" ry="27"/><text xml:space="preserve" x="27" y="38.142578125" stroke="none" font-family="sans-serif" font-size="40" font-weight="normal" fill="#000000">Comparison</text></g></g></g></g></g></g><g class="node"><g fill="#ffffff" stroke="#000000" stroke-width="4"><circle cx="455.51743735632544" cy="345.0358745729801" r="52"/></g><g transform="translate(455.51743735632544 345.0358745729801)"><g transform="scale(0.5036323817222105) translate(0 -27)"><g transform="translate(0 0)"><g transform="translate(-85.173828125 0)"><g fill="#ffffff" stroke="#000000" stroke-width="4"><rect x="0" y="0" width="170.34765625" height="54" rx="27" ry="27"/><text xml:space="preserve" x="27" y="38.142578125" stroke="none" font-family="sans-serif" font-size="40" font-weight="normal" fill="#000000">Tissue</text></g></g></g></g></g></g><g class="node"><g fill="#ffffff" stroke="#000000" stroke-width="4"><circle cx="1347.5796354927747" cy="975.5522945878387" r="52"/></g><g transform="translate(1347.5796354927747 975.5522945878387)"><g transform="scale(0.4374765590941863) translate(0 -27)"><g transform="translate(0 0)"><g transform="translate(-99.255859375 0)"><g fill="#ffffff" stroke="#000000" stroke-width="4"><rect x="0" y="0" width="198.51171875" height="54" rx="27" ry="27"/><text xml:space="preserve" x="27" y="38.142578125" stroke="none" font-family="sans-serif" font-size="40" font-weight="normal" fill="#000000">Disease</text></g></g></g></g></g></g><g class="node"><g fill="#ffffff" stroke="#000000" stroke-width="4"><circle cx="1406.2507256169838" cy="322.5174548374652" r="52"/></g><g transform="translate(1406.2507256169838 322.5174548374652)"><g transform="scale(0.47711749366985773) translate(0 -27)"><g transform="translate(0 0)"><g transform="translate(-90.369140625 0)"><g fill="#ffffff" stroke="#000000" stroke-width="4"><rect x="0" y="0" width="180.73828125" height="54" rx="27" ry="27"/><text xml:space="preserve" x="27" y="38.142578125" stroke="none" font-family="sans-serif" font-size="40" font-weight="normal" fill="#000000">Protein</text></g></g></g></g></g></g><g class="node"><g fill="#ffffff" stroke="#cccccc" stroke-width="4"><circle cx="1406.2507256169838" cy="649.0348747126518" r="52"/></g><g transform="translate(1406.2507256169838 649.0348747126518)"><g transform="scale(0.4076387826235159) translate(0 -27)"><g transform="translate(0 0)"><g transform="translate(-107.0390625 0)"><g fill="#ffffff" stroke="#cccccc" stroke-width="4"><rect x="0" y="0" width="214.078125" height="54" rx="27" ry="27"/><text xml:space="preserve" x="27" y="38.142578125" stroke="none" font-family="sans-serif" font-size="40" font-weight="normal" fill="#cccccc">Molecule</text></g></g></g></g></g></g><g class="node"><g fill="#ffffff" stroke="#000000" stroke-width="4"><circle cx="1406.2507256169838" cy="24.819041289457232" r="52"/></g><g transform="translate(1406.2507256169838 24.819041289457232)"><g transform="scale(0.7022551386124949) translate(0 -27)"><g transform="translate(0 0)"><g transform="translate(-58.11328125 0)"><g fill="#ffffff" stroke="#000000" stroke-width="4"><rect x="0" y="0" width="116.2265625" height="54" rx="27" ry="27"/><text xml:space="preserve" x="27" y="38.142578125" stroke="none" font-family="sans-serif" font-size="40" font-weight="normal" fill="#000000">GO</text></g></g></g></g></g></g><g class="node"><g fill="#ffffff" stroke="#cccccc" stroke-width="4"><circle cx="455.51743735632544" cy="975.5522945878387" r="52"/></g><g transform="translate(455.51743735632544 975.5522945878387)"><g transform="scale(0.6141710028746507) translate(0 -27)"><g transform="translate(0 0)"><g transform="translate(-68.11328125 0)"><g fill="#ffffff" stroke="#cccccc" stroke-width="4"><rect x="0" y="0" width="136.2265625" height="54" rx="27" ry="27"/><text xml:space="preserve" x="27" y="38.142578125" stroke="none" font-family="sans-serif" font-size="40" font-weight="normal" fill="#cccccc">EFO</text></g></g></g></g></g></g></g></svg>