<svg xmlns="http://www.w3.org/2000/svg" width="1280" height="805" viewBox="0 0 1280 805"><defs><style type="text/css"/></defs><g transform="translate(23.9296875 -225.31945760987924) scale(1)"><g class="relationship"><g transform="translate(1108.5523120689763 322.5174373563259) rotate(179.99999693249006)" stroke-width="5" stroke="#000000"><path d="M 59 0 L 242.6552867385776 0"/><polygon points="-24.8621506177483,0 -27.62461179749811,9.20820393249937 0,0 -27.62461179749811,-9.20820393249937" fill="#000000" transform="translate(267.5174373563259 0) rotate(0)" stroke="none"/></g><g transform="translate(957.7246686996878 322.5174454313586) rotate(359.9999969324901) translate(0 -13)"><g transform="translate(0 0)"><g transform="translate(-38.78515625 0)" fill="#ffffff" stroke="#000000" stroke-width="0"><rect x="0" y="0" width="77.5703125" height="26" rx="5" ry="5" stroke="none"/><text xml:space="preserve" x="5" y="17.45703125" stroke="none" text-anchor="left" font-family="sans-serif" font-size="16" font-weight="normal" fill="#000000">MAPPED</text></g></g></g></g><g class="relationship"><g transform="translate(129 649.0348747126518) rotate(0)" stroke-width="5" stroke="#000000"><path d="M 59 0 L 242.65528673857713 0"/><polygon points="-24.8621506177483,0 -27.62461179749811,9.20820393249937 0,0 -27.62461179749811,-9.20820393249937" fill="#000000" transform="translate(267.51743735632544 0) rotate(0)" stroke="none"/></g><g transform="translate(279.8276433692886 649.0348747126518) rotate(0) translate(0 -13)"><g transform="translate(0 0)"><g transform="translate(-58.35546875 0)" fill="#ffffff" stroke="#000000" stroke-width="0"><rect x="0" y="0" width="116.7109375" height="26" rx="5" ry="5" stroke="none"/><text xml:space="preserve" x="5" y="17.45703125" stroke="none" text-anchor="left" font-family="sans-serif" font-size="16" font-weight="normal" fill="#000000">HAS_SAMPLE</text></g></g></g></g><g class="relationship"><g transform="translate(455.51743735632544 649.0348747126518) rotate(0)" stroke-width="5" stroke="#000000"><path d="M 59 0 L 242.65528673857713 0"/><polygon points="-24.8621506177483,0 -27.62461179749811,9.20820393249937 0,0 -27.62461179749811,-9.20820393249937" fill="#000000" transform="translate(267.51743735632544 0) rotate(0)" stroke="none"/></g><g transform="translate(606.345080725614 649.0348747126518) rotate(0) translate(0 -13)"><g transform="translate(0 0)"><g transform="translate(-77.90625 0)" fill="#ffffff" stroke="#000000" stroke-width="0"><rect x="0" y="0" width="155.8125" height="26" rx="5" ry="5" stroke="none"/><text xml:space="preserve" x="5" y="17.45703125" stroke="none" text-anchor="left" font-family="sans-serif" font-size="16" font-weight="normal" fill="#000000">HAS_EXPERIMENT</text></g></g></g></g><g class="relationship"><g transform="translate(781.9280299999641 975.5522945878387) rotate(-89.98125138044982)" stroke-width="5" stroke="#000000"><path d="M 59 0 L 242.65528673857685 0"/><polygon points="-24.8621506177483,0 -27.62461179749811,9.20820393249937 0,0 -27.62461179749811,-9.20820393249937" fill="#000000" transform="translate(267.51743735632516 0) rotate(0)" stroke="none"/></g><g transform="translate(781.977384596005 824.7246592935827) rotate(-89.98125138044982) translate(0 -13)"><g transform="translate(0 0)"><g transform="translate(-50.1953125 0)" fill="#ffffff" stroke="#000000" stroke-width="0"><rect x="0" y="0" width="100.390625" height="26" rx="5" ry="5" stroke="none"/><text xml:space="preserve" x="5" y="17.45703125" stroke="none" text-anchor="left" font-family="sans-serif" font-size="16" font-weight="normal" fill="#000000">COMPARES</text></g></g></g></g><g class="relationship"><g transform="translate(782.0348747126509 649.0348747126518) rotate(-45.000000000000036)" stroke-width="5" stroke="#000000"><path d="M 59 0 L 377.9032376428749 0"/><polygon points="-24.8621506177483,0 -27.62461179749811,9.20820393249937 0,0 -27.62461179749811,-9.20820393249937" fill="#000000" transform="translate(402.7653882606232 0) rotate(0)" stroke="none"/></g><g transform="translate(936.5034957424681 494.56625368283443) rotate(-45.000000000000036) translate(0 -13)"><g transform="translate(0 0)"><g transform="translate(-51.54296875 0)" fill="#ffffff" stroke="#000000" stroke-width="0"><rect x="0" y="0" width="103.0859375" height="26" rx="5" ry="5" stroke="none"/><text xml:space="preserve" x="5" y="17.45703125" stroke="none" text-anchor="left" font-family="sans-serif" font-size="16" font-weight="normal" fill="#000000">HAS_VALUE</text></g></g></g></g><g class="node"><g fill="#fe9200" stroke="#000000" stroke-width="4"><circle cx="1108.5523120689763" cy="322.5174373563259" r="52"/></g><g transform="translate(1108.5523120689763 322.5174373563259)"><g transform="scale(0.5584259505184) translate(0 -27)"><g transform="translate(0 0)"><g transform="translate(-75.92578125 0)"><g fill="#ffffff" stroke="#000000" stroke-width="4"><rect x="0" y="0" width="151.8515625" height="54" rx="27" ry="27"/><text xml:space="preserve" x="27" y="38.142578125" stroke="none" font-family="sans-serif" font-size="40" font-weight="normal" fill="#000000">Gene</text></g></g></g></g><g transform="translate(39.59797974644666 -97.19797974644665)"><g transform="translate(0 0)"><g transform="translate(0 0)" fill="white"><rect x="0" y="0" width="107.5859375" height="57.599999999999994" rx="0" ry="0" stroke="none"/><g font-family="sans-serif" font-size="16" font-weight="normal" fill="#000000" text-anchor="end"><text xml:space="preserve" x="59.5703125" y="14.05703125" stroke="none">sid:</text><text xml:space="preserve" x="64.015625" y="14.05703125" stroke="none" text-anchor="start">string</text><text xml:space="preserve" x="59.5703125" y="33.25703125" stroke="none" text-anchor="end">source:</text><text xml:space="preserve" x="64.015625" y="33.25703125" stroke="none" text-anchor="start">string</text><text xml:space="preserve" x="59.5703125" y="52.45703125" stroke="none" text-anchor="end">symbol:</text><text xml:space="preserve" x="64.015625" y="52.45703125" stroke="none" text-anchor="start">string</text></g></g></g></g></g></g><g class="node"><g fill="#e27300" stroke="#000000" stroke-width="4"><circle cx="782.0348747126509" cy="322.5174548374648" r="52"/></g><g transform="translate(782.0348747126509 322.5174548374648)"><g transform="scale(0.8302074342805233) translate(0 -27)"><g transform="translate(0 0)"><g transform="translate(-47 0)"><g fill="#ffffff" stroke="#000000" stroke-width="4"><rect x="0" y="0" width="94" height="54" rx="27" ry="27"/><text xml:space="preserve" x="27" y="38.142578125" stroke="none" font-family="sans-serif" font-size="40" font-weight="normal" fill="#000000">ID</text></g></g></g></g><g transform="translate(-56 -19.199999999999992)"><g transform="translate(0 0)"><g transform="translate(-104.9296875 0)" fill="white"><rect x="0" y="0" width="104.9296875" height="38.4" rx="0" ry="0" stroke="none"/><g font-family="sans-serif" font-size="16" font-weight="normal" fill="#000000" text-anchor="end"><text xml:space="preserve" x="56.9140625" y="14.05703125" stroke="none">source:</text><text xml:space="preserve" x="61.359375" y="14.05703125" stroke="none" text-anchor="start">string</text><text xml:space="preserve" x="56.9140625" y="33.25703125" stroke="none" text-anchor="end">sid:</text><text xml:space="preserve" x="61.359375" y="33.25703125" stroke="none" text-anchor="start">string</text></g></g></g></g></g></g><g class="node"><g fill="#fda1ff" stroke="#000000" stroke-width="4"><circle cx="129" cy="649.0348747126518" r="52"/></g><g transform="translate(129 649.0348747126518)"><g transform="scale(0.48262082920763166) translate(0 -27)"><g transform="translate(0 0)"><g transform="translate(-89.24609375 0)"><g fill="#ffffff" stroke="#000000" stroke-width="4"><rect x="0" y="0" width="178.4921875" height="54" rx="27" ry="27"/><text xml:space="preserve" x="27" y="38.142578125" stroke="none" font-family="sans-serif" font-size="40" font-weight="normal" fill="#000000">Project</text></g></g></g></g><g transform="translate(-56 -19.199999999999992)"><g transform="translate(0 0)"><g transform="translate(-96.9296875 0)" fill="white"><rect x="0" y="0" width="96.9296875" height="38.4" rx="0" ry="0" stroke="none"/><g font-family="sans-serif" font-size="16" font-weight="normal" fill="#000000" text-anchor="end"><text xml:space="preserve" x="48.9140625" y="14.05703125" stroke="none">name:</text><text xml:space="preserve" x="53.359375" y="14.05703125" stroke="none" text-anchor="start">string</text><text xml:space="preserve" x="48.9140625" y="33.25703125" stroke="none" text-anchor="end">sid:</text><text xml:space="preserve" x="53.359375" y="33.25703125" stroke="none" text-anchor="start">string</text></g></g></g></g></g></g><g class="node"><g fill="#fda1ff" stroke="#000000" stroke-width="4"><circle cx="455.51743735632544" cy="649.0348747126518" r="52"/></g><g transform="translate(455.51743735632544 649.0348747126518)"><g transform="scale(0.45647279741181035) translate(0 -27)"><g transform="translate(0 0)"><g transform="translate(-94.8125 0)"><g fill="#ffffff" stroke="#000000" stroke-width="4"><rect x="0" y="0" width="189.625" height="54" rx="27" ry="27"/><text xml:space="preserve" x="27" y="38.142578125" stroke="none" font-family="sans-serif" font-size="40" font-weight="normal" fill="#000000">Sample</text></g></g></g></g><g transform="translate(3.429011037612589e-15 -94.4)"><g transform="translate(0 0)"><g transform="translate(-48.46484375 0)" fill="white"><rect x="0" y="0" width="96.9296875" height="38.4" rx="0" ry="0" stroke="none"/><g font-family="sans-serif" font-size="16" font-weight="normal" fill="#000000" text-anchor="end"><text xml:space="preserve" x="48.9140625" y="14.05703125" stroke="none">name:</text><text xml:space="preserve" x="53.359375" y="14.05703125" stroke="none" text-anchor="start">string</text><text xml:space="preserve" x="48.9140625" y="33.25703125" stroke="none" text-anchor="end">sid:</text><text xml:space="preserve" x="53.359375" y="33.25703125" stroke="none" text-anchor="start">string</text></g></g></g></g></g></g><g class="node"><g fill="#fda1ff" stroke="#000000" stroke-width="4"><circle cx="782.0348747126509" cy="649.0348747126518" r="52"/></g><g transform="translate(782.0348747126509 649.0348747126518)"><g transform="scale(0.34360132978623376) translate(0 -27)"><g transform="translate(0 0)"><g transform="translate(-128.15234375 0)"><g fill="#ffffff" stroke="#000000" stroke-width="4"><rect x="0" y="0" width="256.3046875" height="54" rx="27" ry="27"/><text xml:space="preserve" x="27" y="38.142578125" stroke="none" font-family="sans-serif" font-size="40" font-weight="normal" fill="#000000">Experiment</text></g></g></g></g><g transform="translate(39.59797974644666 39.597979746446654)"><g transform="translate(0 0)"><g transform="translate(0 0)" fill="white"><rect x="0" y="0" width="87.1484375" height="38.4" rx="0" ry="0" stroke="none"/><g font-family="sans-serif" font-size="16" font-weight="normal" fill="#000000" text-anchor="end"><text xml:space="preserve" x="39.1328125" y="14.05703125" stroke="none">type:</text><text xml:space="preserve" x="43.578125" y="14.05703125" stroke="none" text-anchor="start">string</text><text xml:space="preserve" x="39.1328125" y="33.25703125" stroke="none" text-anchor="end">sid:</text><text xml:space="preserve" x="43.578125" y="33.25703125" stroke="none" text-anchor="start">string</text></g></g></g></g></g></g><g class="node"><g fill="#ffffff" stroke="#000000" stroke-width="4"><circle cx="781.9280299999641" cy="975.5522945878387" r="52"/></g><g transform="translate(781.9280299999641 975.5522945878387)"><g transform="scale(0.32727451623470377) translate(0 -27)"><g transform="translate(0 0)"><g transform="translate(-134.822265625 0)"><g fill="#ffffff" stroke="#000000" stroke-width="4"><rect x="0" y="0" width="269.64453125" height="54" rx="27" ry="27"/><text xml:space="preserve" x="27" y="38.142578125" stroke="none" font-family="sans-serif" font-size="40" font-weight="normal" fill="#000000">Comparison</text></g></g></g></g></g></g></g></svg>