<svg xmlns="http://www.w3.org/2000/svg" width="1062" height="632" viewBox="0 0 1062 632"><defs><style type="text/css"/></defs><g transform="translate(407.86153559426174 329.7556913769331) scale(1)"><g class="relationship"><g transform="translate(-80.10584421732881 0) rotate(0)" stroke-width="5" stroke="#000000"><path d="M 54.18558361104117 -23.343575748605154 L 85.27232583849288 -36.73598888884147 A 40 40 0 0 1 101.09847888839468 -40 L 215.90430674279875 -40 L 330.7101345972028 -40 A 40 40 0 0 1 346.53628764710464 -36.73598888884146 L 354.7896376533987 -33.18038076926003 L 354.7896376533987 -33.18038076926003"/><polygon points="-24.8621506177483,0 -27.62461179749811,9.20820393249937 0,0 -27.62461179749811,-9.20820393249937" fill="#000000" transform="translate(431.8086134855975 0) rotate(23.306757768033485) translate(-59 0)" stroke="none"/></g><g transform="translate(135.79846252546994 -40) rotate(0) translate(0 -13)"><g transform="translate(0 0)"><g transform="translate(-77.1640625 0)" fill="#ffffff" stroke="#000000" stroke-width="0"><rect x="0" y="0" width="154.328125" height="26" rx="5" ry="5" stroke="none"/><text xml:space="preserve" x="5" y="17" stroke="none" text-anchor="left" font-family="sans-serif" font-size="16" font-weight="normal" fill="#000000">INTERACTING_DRUG</text></g></g></g></g><g class="relationship"><g transform="translate(-80.10584421732881 0) rotate(0)" stroke-width="5" stroke="#000000"><path d="M 57.78386207693039 -11.917436111609138 L 92.97590692370865 -19.17549971317315 A 40 40 0 0 1 101.0555246264945 -20 L 215.90430674279875 -20 L 330.753088859103 -20 A 40 40 0 0 1 338.8327065618888 -19.175499713173153 L 349.6750720488055 -16.939352918121326 L 349.6750720488055 -16.939352918121326"/><polygon points="-24.8621506177483,0 -27.62461179749811,9.20820393249937 0,0 -27.62461179749811,-9.20820393249937" fill="#000000" transform="translate(431.8086134855975 0) rotate(11.653378884016742) translate(-59 0)" stroke="none"/></g><g transform="translate(135.79846252546994 -20) rotate(0) translate(0 -13)"><g transform="translate(0 0)"><g transform="translate(-95.0546875 0)" fill="#ffffff" stroke="#000000" stroke-width="0"><rect x="0" y="0" width="190.109375" height="26" rx="5" ry="5" stroke="none"/><text xml:space="preserve" x="5" y="17" stroke="none" text-anchor="left" font-family="sans-serif" font-size="16" font-weight="normal" fill="#000000">PRIMARY_SUSPECT_DRUG</text></g></g></g></g><g class="relationship"><g transform="translate(-80.10584421732881 0) rotate(0)" stroke-width="5" stroke="#000000"><path d="M 59 0 L 347.9464628678492 0"/><polygon points="-24.8621506177483,0 -27.62461179749811,9.20820393249937 0,0 -27.62461179749811,-9.20820393249937" fill="#000000" transform="translate(372.8086134855975 0) rotate(0)" stroke="none"/></g><g transform="translate(123.3673872165958 0) rotate(0) translate(0 -13)"><g transform="translate(0 0)"><g transform="translate(-106.35546875 0)" fill="#ffffff" stroke="#000000" stroke-width="0"><rect x="0" y="0" width="212.7109375" height="26" rx="5" ry="5" stroke="none"/><text xml:space="preserve" x="5" y="17" stroke="none" text-anchor="left" font-family="sans-serif" font-size="16" font-weight="normal" fill="#000000">SECONDARY_SUSPECT_DRUG</text></g></g></g></g><g class="relationship"><g transform="translate(-80.10584421732881 0) rotate(0)" stroke-width="5" stroke="#000000"><path d="M 57.78386207693039 11.917436111609138 L 92.97590692370865 19.17549971317315 A 40 40 0 0 0 101.0555246264945 20 L 215.90430674279875 20 L 330.753088859103 20 A 40 40 0 0 0 338.8327065618888 19.175499713173153 L 349.6750720488055 16.939352918121326 L 349.6750720488055 16.939352918121326"/><polygon points="-24.8621506177483,0 -27.62461179749811,9.20820393249937 0,0 -27.62461179749811,-9.20820393249937" fill="#000000" transform="translate(431.8086134855975 0) rotate(-11.653378884016742) translate(-59 0)" stroke="none"/></g><g transform="translate(135.79846252546994 20) rotate(0) translate(0 -13)"><g transform="translate(0 0)"><g transform="translate(-81.05078125 0)" fill="#ffffff" stroke="#000000" stroke-width="0"><rect x="0" y="0" width="162.1015625" height="26" rx="5" ry="5" stroke="none"/><text xml:space="preserve" x="5" y="17" stroke="none" text-anchor="left" font-family="sans-serif" font-size="16" font-weight="normal" fill="#000000">CONCOMITANT_DRUG</text></g></g></g></g><g class="relationship"><g transform="translate(-80.10584421732881 0) rotate(0)" stroke-width="5" stroke="#000000"><path d="M 54.18558361104117 23.343575748605154 L 85.27232583849288 36.73598888884147 A 40 40 0 0 0 101.09847888839468 40 L 215.90430674279875 40 L 330.7101345972028 40 A 40 40 0 0 0 346.53628764710464 36.73598888884146 L 354.7896376533987 33.18038076926003 L 354.7896376533987 33.18038076926003"/><polygon points="-24.8621506177483,0 -27.62461179749811,9.20820393249937 0,0 -27.62461179749811,-9.20820393249937" fill="#000000" transform="translate(431.8086134855975 0) rotate(-23.306757768033485) translate(-59 0)" stroke="none"/></g><g transform="translate(135.79846252546994 40) rotate(0) translate(0 -13)"><g transform="translate(0 0)"><g transform="translate(-100.17578125 0)" fill="#ffffff" stroke="#000000" stroke-width="0"><rect x="0" y="0" width="200.3515625" height="26" rx="5" ry="5" stroke="none"/><text xml:space="preserve" x="5" y="17" stroke="none" text-anchor="left" font-family="sans-serif" font-size="16" font-weight="normal" fill="#000000">DRUG_NOT_ADMINISTERED</text></g></g></g></g><g class="relationship"><g transform="translate(351.7027692682687 0) rotate(44.99999999999999)" stroke-width="5" stroke="#000000"><path d="M 59 0 L 266.3604514467943 0"/><polygon points="-24.8621506177483,0 -27.62461179749811,9.20820393249937 0,0 -27.62461179749811,-9.20820393249937" fill="#000000" transform="translate(291.22260206454257 0) rotate(0)" stroke="none"/></g><g transform="translate(466.73506004224106 115.03229077397233) rotate(44.99999999999999) translate(0 -13)"><g transform="translate(0 0)"><g transform="translate(-67.31640625 0)" fill="#ffffff" stroke="#000000" stroke-width="0"><rect x="0" y="0" width="134.6328125" height="26" rx="5" ry="5" stroke="none"/><text xml:space="preserve" x="5" y="17" stroke="none" text-anchor="left" font-family="sans-serif" font-size="16" font-weight="normal" fill="#000000">CONCERNS_DRUG</text></g></g></g></g><g class="relationship"><g transform="translate(351.7027692682687 0) rotate(-44.99999999999999)" stroke-width="5" stroke="#000000"><path d="M 59 0 L 266.3604514467943 0"/><polygon points="-24.8621506177483,0 -27.62461179749811,9.20820393249937 0,0 -27.62461179749811,-9.20820393249937" fill="#000000" transform="translate(291.22260206454257 0) rotate(0)" stroke="none"/></g><g transform="translate(466.73506004224106 -115.03229077397233) rotate(-44.99999999999999) translate(0 -13)"><g transform="translate(0 0)"><g transform="translate(-47.63671875 0)" fill="#ffffff" stroke="#000000" stroke-width="0"><rect x="0" y="0" width="95.2734375" height="26" rx="5" ry="5" stroke="none"/><text xml:space="preserve" x="5" y="17" stroke="none" text-anchor="left" font-family="sans-serif" font-size="16" font-weight="normal" fill="#000000">PRESCRIBED</text></g></g></g></g><g class="relationship"><g transform="translate(351.7027692682687 0) rotate(-128.05934683335425)" stroke-width="5" stroke="#000000"><path d="M 59 0 L 266.3604514467943 0"/><polygon points="-24.8621506177483,0 -27.62461179749811,9.20820393249937 0,0 -27.62461179749811,-9.20820393249937" fill="#000000" transform="translate(291.22260206454257 0) rotate(0)" stroke="none"/></g><g transform="translate(251.4140924423819 -128.08995722510127) rotate(51.94065316664574) translate(0 -13)"><g transform="translate(0 0)"><g transform="translate(-81.515625 0)" fill="#ffffff" stroke="#000000" stroke-width="0"><rect x="0" y="0" width="163.03125" height="26" rx="5" ry="5" stroke="none"/><text xml:space="preserve" x="5" y="17" stroke="none" text-anchor="left" font-family="sans-serif" font-size="16" font-weight="normal" fill="#000000">INDICATION_FOR_USE</text></g></g></g></g><g class="relationship"><g transform="translate(-80.10584421732881 0) rotate(-51.94065316664574)" stroke-width="5" stroke="#000000"><path d="M 59 0 L 266.3604514467942 0"/><polygon points="-24.8621506177483,0 -27.62461179749811,9.20820393249937 0,0 -27.62461179749811,-9.20820393249937" fill="#000000" transform="translate(291.2226020645425 0) rotate(0)" stroke="none"/></g><g transform="translate(20.182832608557987 -128.08995722510124) rotate(-51.94065316664574) translate(0 -13)"><g transform="translate(0 0)"><g transform="translate(-58.80859375 0)" fill="#ffffff" stroke="#000000" stroke-width="0"><rect x="0" y="0" width="117.6171875" height="26" rx="5" ry="5" stroke="none"/><text xml:space="preserve" x="5" y="17" stroke="none" text-anchor="left" font-family="sans-serif" font-size="16" font-weight="normal" fill="#000000">HAS_REACTION</text></g></g></g></g><g class="relationship"><g transform="translate(-80.10584421732881 0) rotate(-135)" stroke-width="5" stroke="#000000"><path d="M 59 0 L 232.2436935995805 0"/><polygon points="-24.8621506177483,0 -27.62461179749811,9.20820393249937 0,0 -27.62461179749811,-9.20820393249937" fill="#000000" transform="translate(257.1058442173288 0) rotate(0)" stroke="none"/></g><g transform="translate(-183.07603957836903 -102.97019536104024) rotate(45) translate(0 -13)"><g transform="translate(0 0)"><g transform="translate(-58.35546875 0)" fill="#ffffff" stroke="#000000" stroke-width="0"><rect x="0" y="0" width="116.7109375" height="26" rx="5" ry="5" stroke="none"/><text xml:space="preserve" x="5" y="17" stroke="none" text-anchor="left" font-family="sans-serif" font-size="16" font-weight="normal" fill="#000000">HAS_OUTCOME</text></g></g></g></g><g class="relationship"><g transform="translate(-80.10584421732881 0) rotate(149.99999999999997)" stroke-width="5" stroke="#000000"><path d="M 59 0 L 232.24369359958044 0"/><polygon points="-24.8621506177483,0 -27.62461179749811,9.20820393249937 0,0 -27.62461179749811,-9.20820393249937" fill="#000000" transform="translate(257.10584421732875 0) rotate(0)" stroke="none"/></g><g transform="translate(-206.21806289195277 72.81092339989515) rotate(329.99999999999994) translate(0 -13)"><g transform="translate(0 0)"><g transform="translate(-55.2421875 0)" fill="#ffffff" stroke="#000000" stroke-width="0"><rect x="0" y="0" width="110.484375" height="26" rx="5" ry="5" stroke="none"/><text xml:space="preserve" x="5" y="17" stroke="none" text-anchor="left" font-family="sans-serif" font-size="16" font-weight="normal" fill="#000000">REPORTED_BY</text></g></g></g></g><g class="node"><g fill="#ffffff" stroke="#808900" stroke-width="4"><circle cx="-80.10584421732881" cy="0" r="52"/></g><g transform="translate(-80.10584421732881 0)"><g transform="scale(0.35858678888300805) translate(0 -85)"><g transform="translate(0 0)"><g transform="translate(-68.474609375 0)"><g fill="#ffffff" stroke="#000000" stroke-width="4"><rect x="0" y="0" width="136.94921875" height="54" rx="27" ry="27"/><text xml:space="preserve" x="27" y="37.5" stroke="none" font-family="sans-serif" font-size="40" font-weight="normal" fill="#000000">Case</text></g></g><g transform="translate(-74.6953125 62)"><g fill="#ffffff" stroke="#000000" stroke-width="4"><rect x="0" y="0" width="149.390625" height="54" rx="27" ry="27"/><text xml:space="preserve" x="27" y="37.5" stroke="none" font-family="sans-serif" font-size="40" font-weight="normal" fill="#000000">Adult</text></g></g><g transform="translate(-92.322265625 124)"><g fill="#ffffff" stroke="#000000" stroke-width="4"><rect x="0" y="0" width="184.64453125" height="54" rx="27" ry="27"/><text xml:space="preserve" x="27" y="37.5" stroke="none" font-family="sans-serif" font-size="40" font-weight="normal" fill="#000000">Female</text></g></g></g></g></g></g><g class="node"><g fill="#ffffff" stroke="#000000" stroke-width="4"><circle cx="351.7027692682687" cy="0" r="52"/></g><g transform="translate(351.7027692682687 0)"><g transform="scale(0.3990752477976194) translate(0 -27)"><g transform="translate(0 0)"><g transform="translate(-109.48046875 0)"><g fill="#ffffff" stroke="#000000" stroke-width="4"><rect x="0" y="0" width="218.9609375" height="54" rx="27" ry="27"/><text xml:space="preserve" x="27" y="37.5" stroke="none" font-family="sans-serif" font-size="40" font-weight="normal" fill="#000000">DrugCase</text></g></g></g></g></g></g><g class="node"><g fill="#ffffff" stroke="#000000" stroke-width="4"><circle cx="599.3475461129045" cy="247.64477684463577" r="52"/></g><g transform="translate(599.3475461129045 247.64477684463577)"><g transform="scale(0.6150091362135075) translate(0 -27)"><g transform="translate(0 0)"><g transform="translate(-68.005859375 0)"><g fill="#ffffff" stroke="#000000" stroke-width="4"><rect x="0" y="0" width="136.01171875" height="54" rx="27" ry="27"/><text xml:space="preserve" x="27" y="37.5" stroke="none" font-family="sans-serif" font-size="40" font-weight="normal" fill="#000000">Drug</text></g></g></g></g></g></g><g class="node"><g fill="#ffffff" stroke="#000000" stroke-width="4"><circle cx="599.3475461129045" cy="-247.64477684463577" r="52"/></g><g transform="translate(599.3475461129045 -247.64477684463577)"><g transform="scale(0.43552123854879954) translate(0 -27)"><g transform="translate(0 0)"><g transform="translate(-99.734375 0)"><g fill="#ffffff" stroke="#000000" stroke-width="4"><rect x="0" y="0" width="199.46875" height="54" rx="27" ry="27"/><text xml:space="preserve" x="27" y="37.5" stroke="none" font-family="sans-serif" font-size="40" font-weight="normal" fill="#000000">Therapy</text></g></g></g></g></g></g><g class="node"><g fill="#ffffff" stroke="#000000" stroke-width="4"><circle cx="135.79846252546992" cy="-275.7556913769331" r="52"/></g><g transform="translate(135.79846252546992 -275.7556913769331)"><g transform="scale(0.3195924007100352) translate(0 -27)"><g transform="translate(0 0)"><g transform="translate(-138.19140625 0)"><g fill="#ffffff" stroke="#000000" stroke-width="4"><rect x="0" y="0" width="276.3828125" height="54" rx="27" ry="27"/><text xml:space="preserve" x="27" y="37.5" stroke="none" font-family="sans-serif" font-size="40" font-weight="normal" fill="#000000">MedDraTerm</text></g></g></g></g></g></g><g class="node"><g fill="#ffffff" stroke="#000000" stroke-width="4"><circle cx="-303.62643023610036" cy="-223.5205860187716" r="52"/></g><g transform="translate(-303.62643023610036 -223.5205860187716)"><g transform="scale(0.4060711795452392) translate(0 -27)"><g transform="translate(0 0)"><g transform="translate(-107.478515625 0)"><g fill="#ffffff" stroke="#000000" stroke-width="4"><rect x="0" y="0" width="214.95703125" height="54" rx="27" ry="27"/><text xml:space="preserve" x="27" y="37.5" stroke="none" font-family="sans-serif" font-size="40" font-weight="normal" fill="#000000">Outcome</text></g></g></g></g></g></g><g class="node"><g fill="#ffffff" stroke="#000000" stroke-width="4"><circle cx="-353.86153559426174" cy="158.0529221086645" r="52"/></g><g transform="translate(-353.86153559426174 158.0529221086645)"><g transform="scale(0.30174515688957404) translate(0 -27)"><g transform="translate(0 0)"><g transform="translate(-146.66796875 0)"><g fill="#ffffff" stroke="#000000" stroke-width="4"><rect x="0" y="0" width="293.3359375" height="54" rx="27" ry="27"/><text xml:space="preserve" x="27" y="37.5" stroke="none" font-family="sans-serif" font-size="40" font-weight="normal" fill="#000000">Manufacturer</text></g></g></g></g></g></g></g></svg>