<svg xmlns="http://www.w3.org/2000/svg" width="1161" height="796" viewBox="0 0 1161 796"><defs><style type="text/css"/></defs><g transform="translate(849.9854241950225 375.37519626709394) scale(1)"><g class="relationship"><g transform="translate(-298.59462378765465 38.59462378765471) rotate(-90)" stroke-width="5" stroke="#000000"><path d="M 59 0 L 254.90766943700035 0"/><polygon points="-24.8621506177483,0 -27.62461179749811,9.20820393249937 0,0 -27.62461179749811,-9.20820393249937" fill="#000000" transform="translate(279.76982005474866 0) rotate(0)" stroke="none"/></g><g transform="translate(-298.59462378765465 -118.35921093084545) rotate(90) translate(0 -13)"><g transform="translate(0 0)"><g transform="translate(-60.125 0)" fill="#ffffff" stroke="#000000" stroke-width="0"><rect x="0" y="0" width="120.25" height="26" rx="5" ry="5" stroke="none"/><text xml:space="preserve" x="5" y="17.45703125" stroke="none" text-anchor="left" font-family="sans-serif" font-size="16" font-weight="normal" fill="#000000">DEPENDS_ON</text></g></g></g></g><g class="relationship"><g transform="translate(-487.5671319485758 342.4461604454609) rotate(-58.12153519271254)" stroke-width="5" stroke="#000000"><path d="M 59 0 L 273.9595440430695 0"/><polygon points="-24.8621506177483,0 -27.62461179749811,9.20820393249937 0,0 -27.62461179749811,-9.20820393249937" fill="#000000" transform="translate(298.82169466081785 0) rotate(0)" stroke="none"/></g><g transform="translate(-399.64596745129995 201.07649140084177) rotate(-58.12153519271254) translate(0 -13)"><g transform="translate(0 0)"><g transform="translate(-60.125 0)" fill="#ffffff" stroke="#000000" stroke-width="0"><rect x="0" y="0" width="120.25" height="26" rx="5" ry="5" stroke="none"/><text xml:space="preserve" x="5" y="17.45703125" stroke="none" text-anchor="left" font-family="sans-serif" font-size="16" font-weight="normal" fill="#000000">DEPENDS_ON</text></g></g></g></g><g class="relationship"><g transform="translate(-109.62211562673343 342.4461604454609) rotate(-121.87846480728749)" stroke-width="5" stroke="#000000"><path d="M 59 0 L 273.9595440430695 0"/><polygon points="-24.8621506177483,0 -27.62461179749811,9.20820393249937 0,0 -27.62461179749811,-9.20820393249937" fill="#000000" transform="translate(298.82169466081785 0) rotate(0)" stroke="none"/></g><g transform="translate(-197.5432801240093 201.0764914008418) rotate(58.121535192712514) translate(0 -13)"><g transform="translate(0 0)"><g transform="translate(-60.125 0)" fill="#ffffff" stroke="#000000" stroke-width="0"><rect x="0" y="0" width="120.25" height="26" rx="5" ry="5" stroke="none"/><text xml:space="preserve" x="5" y="17.45703125" stroke="none" text-anchor="left" font-family="sans-serif" font-size="16" font-weight="normal" fill="#000000">DEPENDS_ON</text></g></g></g></g><g class="relationship"><g transform="translate(-109.62211562673343 342.4461604454609) rotate(180)" stroke-width="5" stroke="#000000"><path d="M 59 0 L 294.08286570409405 0"/><polygon points="-24.8621506177483,0 -27.62461179749811,9.20820393249937 0,0 -27.62461179749811,-9.20820393249937" fill="#000000" transform="translate(318.9450163218424 0) rotate(0)" stroke="none"/></g><g transform="translate(-286.16354847878046 342.4461604454609) rotate(360) translate(0 -22.6)"><g transform="translate(0 0)"><g transform="translate(-41.30859375 0)" fill="#ffffff" stroke="#000000" stroke-width="0"><rect x="0" y="0" width="82.6171875" height="26" rx="5" ry="5" stroke="none"/><text xml:space="preserve" x="5" y="17.45703125" stroke="none" text-anchor="left" font-family="sans-serif" font-size="16" font-weight="normal" fill="#000000">RELATED</text></g></g><g transform="translate(0 26)"><g transform="translate(-104.921875 0)" fill="white"><rect x="0" y="0" width="209.84375" height="19.2" rx="0" ry="0" stroke="none"/><g font-family="sans-serif" font-size="16" font-weight="normal" fill="#000000" text-anchor="end"><text xml:space="preserve" x="85.3828125" y="14.05703125" stroke="none">subsection:</text><text xml:space="preserve" x="89.828125" y="14.05703125" stroke="none" text-anchor="start">MIFIDPRU 1.1R</text></g></g></g></g></g><g class="node"><g fill="#ffffff" stroke="#000000" stroke-width="4"><circle cx="-298.59462378765465" cy="-300.17519626709395" r="52"/></g><g transform="translate(-298.59462378765465 -300.17519626709395)"><g transform="scale(0.4036214606309297) translate(0 -27)"><g transform="translate(0 0)"><g transform="translate(-108.171875 0)"><g fill="#ffffff" stroke="#000000" stroke-width="4"><rect x="0" y="0" width="216.34375" height="54" rx="27" ry="27"/><text xml:space="preserve" x="27" y="38.142578125" stroke="none" font-family="sans-serif" font-size="40" font-weight="normal" fill="#000000">Standard</text></g></g></g></g><g transform="translate(3.429011037612589e-15 -75.2)"><g transform="translate(0 0)"><g transform="translate(-53.78125 0)" fill="white"><rect x="0" y="0" width="107.5625" height="19.2" rx="0" ry="0" stroke="none"/><g font-family="sans-serif" font-size="16" font-weight="normal" fill="#000000" text-anchor="end"><text xml:space="preserve" x="21.34375" y="14.05703125" stroke="none">id:</text><text xml:space="preserve" x="25.7890625" y="14.05703125" stroke="none" text-anchor="start">MIFIDPRU</text></g></g></g></g></g></g><g class="node"><g fill="#ffffff" stroke="#000000" stroke-width="4"><circle cx="-298.59462378765465" cy="38.59462378765471" r="52"/></g><g transform="translate(-298.59462378765465 38.59462378765471)"><g transform="scale(0.4614383878274014) translate(0 -27)"><g transform="translate(0 0)"><g transform="translate(-93.708984375 0)"><g fill="#ffffff" stroke="#000000" stroke-width="4"><rect x="0" y="0" width="187.41796875" height="54" rx="27" ry="27"/><text xml:space="preserve" x="27" y="38.142578125" stroke="none" font-family="sans-serif" font-size="40" font-weight="normal" fill="#000000">Section</text></g></g></g></g><g transform="translate(-56 -9.599999999999993)"><g transform="translate(0 0)"><g transform="translate(-120.90625 0)" fill="white"><rect x="0" y="0" width="120.90625" height="19.2" rx="0" ry="0" stroke="none"/><g font-family="sans-serif" font-size="16" font-weight="normal" fill="#000000" text-anchor="end"><text xml:space="preserve" x="21.34375" y="14.05703125" stroke="none">id:</text><text xml:space="preserve" x="25.7890625" y="14.05703125" stroke="none" text-anchor="start">MIFIDPRU 1</text></g></g></g></g></g></g><g class="node"><g fill="#ffffff" stroke="#000000" stroke-width="4"><circle cx="-487.5671319485758" cy="342.4461604454609" r="52"/></g><g transform="translate(-487.5671319485758 342.4461604454609)"><g transform="scale(0.4614383878274014) translate(0 -27)"><g transform="translate(0 0)"><g transform="translate(-93.708984375 0)"><g fill="#ffffff" stroke="#000000" stroke-width="4"><rect x="0" y="0" width="187.41796875" height="54" rx="27" ry="27"/><text xml:space="preserve" x="27" y="38.142578125" stroke="none" font-family="sans-serif" font-size="40" font-weight="normal" fill="#000000">Section</text></g></g></g></g><g transform="translate(-39.597979746446654 39.59797974644666)"><g transform="translate(0 0)"><g transform="translate(-322.8203125 0)" fill="white"><rect x="0" y="0" width="322.8203125" height="38.4" rx="0" ry="0" stroke="none"/><g font-family="sans-serif" font-size="16" font-weight="normal" fill="#000000" text-anchor="end"><text xml:space="preserve" x="33.7890625" y="14.05703125" stroke="none">id:</text><text xml:space="preserve" x="38.234375" y="14.05703125" stroke="none" text-anchor="start">MIFIDPRU 1.1</text><text xml:space="preserve" x="33.7890625" y="33.25703125" stroke="none" text-anchor="end">title:</text><text xml:space="preserve" x="38.234375" y="33.25703125" stroke="none" text-anchor="start">MIFIDPRU 1.1 Application and purpose</text></g></g></g></g></g></g><g class="node"><g fill="#ffffff" stroke="#000000" stroke-width="4"><circle cx="-109.62211562673343" cy="342.4461604454609" r="52"/></g><g transform="translate(-109.62211562673343 342.4461604454609)"><g transform="scale(0.4614383878274014) translate(0 -27)"><g transform="translate(0 0)"><g transform="translate(-93.708984375 0)"><g fill="#ffffff" stroke="#000000" stroke-width="4"><rect x="0" y="0" width="187.41796875" height="54" rx="27" ry="27"/><text xml:space="preserve" x="27" y="38.142578125" stroke="none" font-family="sans-serif" font-size="40" font-weight="normal" fill="#000000">Section</text></g></g></g></g><g transform="translate(39.59797974644666 39.597979746446654)"><g transform="translate(0 0)"><g transform="translate(0 0)" fill="white"><rect x="0" y="0" width="380.5" height="38.4" rx="0" ry="0" stroke="none"/><g font-family="sans-serif" font-size="16" font-weight="normal" fill="#000000" text-anchor="end"><text xml:space="preserve" x="33.7890625" y="14.05703125" stroke="none">id:</text><text xml:space="preserve" x="38.234375" y="14.05703125" stroke="none" text-anchor="start">MIFIDPRU 1.2</text><text xml:space="preserve" x="33.7890625" y="33.25703125" stroke="none" text-anchor="end">title:</text><text xml:space="preserve" x="38.234375" y="33.25703125" stroke="none" text-anchor="start">MIFIDPRU 1.2 SNI MIFIDPRU investment firms</text></g></g></g></g></g></g></g></svg>