<svg xmlns="http://www.w3.org/2000/svg" width="379.5950927734375" height="332.59796142578125" viewBox="-197.77197265625 -94.70680236816406 379.5950927734375 332.59796142578125"><title>Neo4j Graph Visualization</title><desc>Created using Neo4j (http://www.neo4j.com/)</desc><g class="layer relationships"><g class="relationship" transform="translate(-88.37790773279139 65.3702511391954) rotate(302.1492129651645)"><path class="b-outline" fill="#A5ABB6" stroke="none" d="M 25 0.5 L 48.454719278119896 0.5 L 48.454719278119896 -0.5 L 25 -0.5 Z M 99.3609692781199 0.5 L 122.81568855623979 0.5 L 122.81568855623979 3.5 L 129.8156885562398 0 L 122.81568855623979 -3.5 L 122.81568855623979 -0.5 L 99.3609692781199 -0.5 Z"/><text text-anchor="middle" pointer-events="none" font-size="8px" fill="#000000" x="73.9078442781199" y="3" font-family="Helvetica Neue, Helvetica, Arial, sans-serif">HAS_EMAIL</text></g><g class="relationship" transform="translate(-88.37790773279139 65.3702511391954) rotate(479.2556242282184)"><path class="b-outline" fill="#A5ABB6" stroke="none" d="M 25 0.5 L 43.884637209736496 0.5 L 43.884637209736496 -0.5 L 25 -0.5 Z M 113.6190122097365 0.5 L 132.503649419473 0.5 L 132.503649419473 3.5 L 139.503649419473 0 L 132.503649419473 -3.5 L 132.503649419473 -0.5 L 113.6190122097365 -0.5 Z"/><text text-anchor="middle" pointer-events="none" font-size="8px" fill="#000000" x="78.7518247097365" y="3" transform="rotate(180 78.7518247097365 0)" font-family="Helvetica Neue, Helvetica, Arial, sans-serif">HAS_PASSPORT</text></g><g class="relationship" transform="translate(73.387401024864 65.54765933174748) rotate(180.06283631940073)"><path class="b-outline" fill="#A5ABB6" stroke="none" d="M 25 0.5 L 59.933484269753194 0.5 L 59.933484269753194 -0.5 L 25 -0.5 Z M 94.8319217697532 0.5 L 129.7654060395064 0.5 L 129.7654060395064 3.5 L 136.7654060395064 0 L 129.7654060395064 -3.5 L 129.7654060395064 -0.5 L 94.8319217697532 -0.5 Z"/><text text-anchor="middle" pointer-events="none" font-size="8px" fill="#000000" x="77.3827030197532" y="3" transform="rotate(180 77.3827030197532 0)" font-family="Helvetica Neue, Helvetica, Arial, sans-serif">LINKED</text></g><g class="relationship" transform="translate(73.387401024864 65.54765933174748) rotate(420.70478819103334)"><path class="b-outline" fill="#A5ABB6" stroke="none" d="M 25 0.5 L 49.99739310012559 0.5 L 49.99739310012559 -0.5 L 25 -0.5 Z M 105.34504935012559 0.5 L 130.34244245025118 0.5 L 130.34244245025118 3.5 L 137.34244245025118 0 L 130.34244245025118 -3.5 L 130.34244245025118 -0.5 L 105.34504935012559 -0.5 Z"/><text text-anchor="middle" pointer-events="none" font-size="8px" fill="#000000" x="77.67122122512559" y="3" font-family="Helvetica Neue, Helvetica, Arial, sans-serif">HAS_PHONE</text></g><g class="relationship" transform="translate(73.387401024864 65.54765933174748) rotate(238.8340811197013)"><path class="b-outline" fill="#A5ABB6" stroke="none" d="M 25 0.5 L 47.74356640762828 0.5 L 47.74356640762828 -0.5 L 25 -0.5 Z M 98.64981640762828 0.5 L 121.39338281525656 0.5 L 121.39338281525656 3.5 L 128.39338281525656 0 L 121.39338281525656 -3.5 L 121.39338281525656 -0.5 L 98.64981640762828 -0.5 Z"/><text text-anchor="middle" pointer-events="none" font-size="8px" fill="#000000" x="73.19669140762828" y="3" transform="rotate(180 73.19669140762828 0)" font-family="Helvetica Neue, Helvetica, Arial, sans-serif">HAS_EMAIL</text></g><g class="relationship" transform="translate(-4.837364021293702 207.45009265648383) rotate(298.8660758109624)"><path class="b-outline" fill="#A5ABB6" stroke="none" d="M 25 0.5 L 60.06839422706787 0.5 L 60.06839422706787 -0.5 L 25 -0.5 Z M 94.96683172706787 0.5 L 130.03522595413574 0.5 L 130.03522595413574 3.5 L 137.03522595413574 0 L 130.03522595413574 -3.5 L 130.03522595413574 -0.5 L 94.96683172706787 -0.5 Z"/><text text-anchor="middle" pointer-events="none" font-size="8px" fill="#000000" x="77.51761297706787" y="3" font-family="Helvetica Neue, Helvetica, Arial, sans-serif">LINKED</text></g><g class="relationship" transform="translate(-4.837364021293702 207.45009265648383) rotate(239.54519194182018)"><path class="b-outline" fill="#A5ABB6" stroke="none" d="M 25 0.5 L 61.46088956383255 0.5 L 61.46088956383255 -0.5 L 25 -0.5 Z M 96.35932706383255 0.5 L 132.8202166276651 0.5 L 132.8202166276651 3.5 L 139.8202166276651 0 L 132.8202166276651 -3.5 L 132.8202166276651 -0.5 L 96.35932706383255 -0.5 Z"/><text text-anchor="middle" pointer-events="none" font-size="8px" fill="#000000" x="78.91010831383255" y="3" transform="rotate(180 78.91010831383255 0)" font-family="Helvetica Neue, Helvetica, Arial, sans-serif">LINKED</text></g><g class="relationship" transform="translate(-4.837364021293702 207.45009265648383) rotate(359.883003617235)"><path class="b-outline" fill="#A5ABB6" stroke="none" d="M 25 0.5 L 47.65657421927537 0.5 L 47.65657421927537 -0.5 L 25 -0.5 Z M 103.00423046927537 0.5 L 125.66080468855074 0.5 L 125.66080468855074 3.5 L 132.66080468855074 0 L 125.66080468855074 -3.5 L 125.66080468855074 -0.5 L 103.00423046927537 -0.5 Z"/><text text-anchor="middle" pointer-events="none" font-size="8px" fill="#000000" x="75.33040234427537" y="3" font-family="Helvetica Neue, Helvetica, Arial, sans-serif">HAS_PHONE</text></g><g class="relationship" transform="translate(-4.837364021293702 207.45009265648383) rotate(539.496362226841)"><path class="b-outline" fill="#A5ABB6" stroke="none" d="M 25 0.5 L 43.603284118826636 0.5 L 43.603284118826636 -0.5 L 25 -0.5 Z M 113.33765911882664 0.5 L 131.94094323765327 0.5 L 131.94094323765327 3.5 L 138.94094323765327 0 L 131.94094323765327 -3.5 L 131.94094323765327 -0.5 L 113.33765911882664 -0.5 Z"/><text text-anchor="middle" pointer-events="none" font-size="8px" fill="#000000" x="78.47047161882664" y="3" transform="rotate(180 78.47047161882664 0)" font-family="Helvetica Neue, Helvetica, Arial, sans-serif">HAS_PASSPORT</text></g></g><g class="layer nodes"><g class="node" aria-label="graph-node66591" transform="translate(-88.37790773279139,65.3702511391954)"><circle class="b-outline" cx="0" cy="0" r="25" fill="#C990C0" stroke="#b261a5" stroke-width="2px"/><text class="caption" text-anchor="middle" pointer-events="none" x="0" y="5" font-size="10px" fill="#FFFFFF" font-family="Helvetica Neue, Helvetica, Arial, sans-serif"> Michael</text></g><g class="node" aria-label="graph-node66592" transform="translate(73.387401024864,65.54765933174748)"><circle class="b-outline" cx="0" cy="0" r="25" fill="#C990C0" stroke="#b261a5" stroke-width="2px"/><text class="caption" text-anchor="middle" pointer-events="none" x="0" y="5" font-size="10px" fill="#FFFFFF" font-family="Helvetica Neue, Helvetica, Arial, sans-serif"> Adam</text></g><g class="node" aria-label="graph-node66593" transform="translate(-4.837364021293702,207.45009265648383)"><circle class="b-outline" cx="0" cy="0" r="25" fill="#C990C0" stroke="#b261a5" stroke-width="2px"/><text class="caption" text-anchor="middle" pointer-events="none" x="0" y="5" font-size="10px" fill="#FFFFFF" font-family="Helvetica Neue, Helvetica, Arial, sans-serif"> Alice</text></g><g class="node" aria-label="graph-node66594" transform="translate(-5.996454585427415,-65.70680101132906)"><circle class="b-outline" cx="0" cy="0" r="25" fill="#F79767" stroke="#f36924" stroke-width="2px"/><text class="caption" text-anchor="middle" pointer-events="none" x="0" y="5" font-size="10px" fill="#FFFFFF" font-family="Helvetica Neue, Helvetica, Arial, sans-serif"> michael…</text></g><g class="node" aria-label="graph-node66595" transform="translate(152.82311197218215,207.1281539170089)"><circle class="b-outline" cx="0" cy="0" r="25" fill="#57C7E3" stroke="#23b3d7" stroke-width="2px"/><text class="caption" text-anchor="middle" pointer-events="none" x="0" y="5" font-size="10px" fill="#2A2C34" font-family="Helvetica Neue, Helvetica, Arial, sans-serif"> 7971020…</text></g><g class="node" aria-label="graph-node66596" transform="translate(-168.7719737270414,208.89113751200546)"><circle class="b-outline" cx="0" cy="0" r="25" fill="#F16667" stroke="#eb2728" stroke-width="2px"/><text class="caption" text-anchor="middle" pointer-events="none" x="0" y="5" font-size="10px" fill="#FFFFFF" font-family="Helvetica Neue, Helvetica, Arial, sans-serif"> 1234567…</text></g></g></svg>