<svg xmlns="http://www.w3.org/2000/svg" width="401.7034912109375" height="306.92755126953125" viewBox="-226.70091247558594 -131.39627075195312 401.7034912109375 306.92755126953125"><title>Neo4j Graph Visualization</title><desc>Created using Neo4j (http://www.neo4j.com/)</desc><g class="layer relationships"><g class="relationship" transform="translate(-114.31856048437491 12.159369973125202) rotate(307.81546060006536)"><path class="b-outline" fill="#A5ABB6" stroke="none" d="M 25 0.5 L 43.551393504402895 0.5 L 43.551393504402895 -0.5 L 25 -0.5 Z M 94.4576435044029 0.5 L 113.00903700880579 0.5 L 113.00903700880579 3.5 L 120.00903700880579 0 L 113.00903700880579 -3.5 L 113.00903700880579 -0.5 L 94.4576435044029 -0.5 Z"/><text text-anchor="middle" pointer-events="none" font-size="8px" fill="#000000" x="69.0045185044029" y="3" font-family="Helvetica Neue, Helvetica, Arial, sans-serif">HAS_EMAIL</text></g><g class="relationship" transform="translate(-114.31856048437491 12.159369973125202) rotate(481.8758929548014)"><path class="b-outline" fill="#A5ABB6" stroke="none" d="M 25 0.5 L 40.581247980754426 0.5 L 40.581247980754426 -0.5 L 25 -0.5 Z M 110.31562298075443 0.5 L 125.89687096150885 0.5 L 125.89687096150885 3.5 L 132.89687096150885 0 L 125.89687096150885 -3.5 L 125.89687096150885 -0.5 L 110.31562298075443 -0.5 Z"/><text text-anchor="middle" pointer-events="none" font-size="8px" fill="#000000" x="75.44843548075443" y="3" transform="rotate(180 75.44843548075443 0)" font-family="Helvetica Neue, Helvetica, Arial, sans-serif">HAS_PASSPORT</text></g><g class="relationship" transform="translate(53.57001970462818 10.330648987318327) rotate(539.3759322358572)"><path class="b-outline" fill="#A5ABB6" stroke="none" d="M 25 0.5 L 63.00005101800224 0.5 L 63.00005101800224 -0.5 L 25 -0.5 Z M 97.89848851800224 0.5 L 135.89853953600448 0.5 L 135.89853953600448 3.5 L 142.89853953600448 0 L 135.89853953600448 -3.5 L 135.89853953600448 -0.5 L 97.89848851800224 -0.5 Z"/><text text-anchor="middle" pointer-events="none" font-size="8px" fill="#000000" x="80.44926976800224" y="3" transform="rotate(180 80.44926976800224 0)" font-family="Helvetica Neue, Helvetica, Arial, sans-serif">LINKED</text></g><g class="relationship" transform="translate(53.57001970462818 10.330648987318327) rotate(415.3731758761537)"><path class="b-outline" fill="#A5ABB6" stroke="none" d="M 25 0.5 L 50.160066881918766 0.5 L 50.160066881918766 -0.5 L 25 -0.5 Z M 105.50772313191877 0.5 L 130.66779001383753 0.5 L 130.66779001383753 3.5 L 137.66779001383753 0 L 130.66779001383753 -3.5 L 130.66779001383753 -0.5 L 105.50772313191877 -0.5 Z"/><text text-anchor="middle" pointer-events="none" font-size="8px" fill="#000000" x="77.83389500691877" y="3" font-family="Helvetica Neue, Helvetica, Arial, sans-serif">HAS_PHONE</text></g><g class="relationship" transform="translate(53.57001970462818 10.330648987318327) rotate(234.98350589613244)"><path class="b-outline" fill="#A5ABB6" stroke="none" d="M 25 0.5 L 39.8678238101876 0.5 L 39.8678238101876 -0.5 L 25 -0.5 Z M 90.7740738101876 0.5 L 105.6418976203752 0.5 L 105.6418976203752 3.5 L 112.6418976203752 0 L 105.6418976203752 -3.5 L 105.6418976203752 -0.5 L 90.7740738101876 -0.5 Z"/><text text-anchor="middle" pointer-events="none" font-size="8px" fill="#000000" x="65.3209488101876" y="3" transform="rotate(180 65.3209488101876 0)" font-family="Helvetica Neue, Helvetica, Arial, sans-serif">HAS_EMAIL</text></g><g class="relationship" transform="translate(-23.86933539255252 146.53128026776125) rotate(236.0544782397423)"><path class="b-outline" fill="#A5ABB6" stroke="none" d="M 25 0.5 L 60.039781422771725 0.5 L 60.039781422771725 -0.5 L 25 -0.5 Z M 94.93821892277172 0.5 L 129.97800034554345 0.5 L 129.97800034554345 3.5 L 136.97800034554345 0 L 129.97800034554345 -3.5 L 129.97800034554345 -0.5 L 94.93821892277172 -0.5 Z"/><text text-anchor="middle" pointer-events="none" font-size="8px" fill="#000000" x="77.48900017277172" y="3" transform="rotate(180 77.48900017277172 0)" font-family="Helvetica Neue, Helvetica, Arial, sans-serif">LINKED</text></g><g class="relationship" transform="translate(-23.86933539255252 146.53128026776125) rotate(299.6211856603674)"><path class="b-outline" fill="#A5ABB6" stroke="none" d="M 25 0.5 L 57.388935554046526 0.5 L 57.388935554046526 -0.5 L 25 -0.5 Z M 92.28737305404653 0.5 L 124.67630860809305 0.5 L 124.67630860809305 3.5 L 131.67630860809305 0 L 124.67630860809305 -3.5 L 124.67630860809305 -0.5 L 92.28737305404653 -0.5 Z"/><text text-anchor="middle" pointer-events="none" font-size="8px" fill="#000000" x="74.83815430404653" y="3" font-family="Helvetica Neue, Helvetica, Arial, sans-serif">LINKED</text></g><g class="relationship" transform="translate(-23.86933539255252 146.53128026776125) rotate(180.0945446793138)"><path class="b-outline" fill="#A5ABB6" stroke="none" d="M 25 0.5 L 48.54871887636618 0.5 L 48.54871887636618 -0.5 L 25 -0.5 Z M 118.28309387636618 0.5 L 141.83181275273236 0.5 L 141.83181275273236 3.5 L 148.83181275273236 0 L 141.83181275273236 -3.5 L 141.83181275273236 -0.5 L 118.28309387636618 -0.5 Z"/><text text-anchor="middle" pointer-events="none" font-size="8px" fill="#000000" x="83.41590637636618" y="3" transform="rotate(180 83.41590637636618 0)" font-family="Helvetica Neue, Helvetica, Arial, sans-serif">HAS_PASSPORT</text></g><g class="relationship" transform="translate(-23.86933539255252 146.53128026776125) rotate(359.208733009905)"><path class="b-outline" fill="#A5ABB6" stroke="none" d="M 25 0.5 L 53.77023153614975 0.5 L 53.77023153614975 -0.5 L 25 -0.5 Z M 109.11788778614975 0.5 L 137.8881193222995 0.5 L 137.8881193222995 3.5 L 144.8881193222995 0 L 137.8881193222995 -3.5 L 137.8881193222995 -0.5 L 109.11788778614975 -0.5 Z"/><text text-anchor="middle" pointer-events="none" font-size="8px" fill="#000000" x="81.44405966114975" y="3" font-family="Helvetica Neue, Helvetica, Arial, sans-serif">HAS_PHONE</text></g></g><g class="layer nodes"><g class="node" aria-label="graph-node66621" transform="translate(-114.31856048437491,12.159369973125202)"><circle class="b-outline" cx="0" cy="0" r="25" fill="#C990C0" stroke="#b261a5" stroke-width="2px"/><text class="caption" text-anchor="middle" pointer-events="none" x="0" y="5" font-size="10px" fill="#FFFFFF" font-family="Helvetica Neue, Helvetica, Arial, sans-serif"> Michael</text></g><g class="node" aria-label="graph-node66622" transform="translate(53.57001970462818,10.330648987318327)"><circle class="b-outline" cx="0" cy="0" r="25" fill="#C990C0" stroke="#b261a5" stroke-width="2px"/><text class="caption" text-anchor="middle" pointer-events="none" x="0" y="5" font-size="10px" fill="#FFFFFF" font-family="Helvetica Neue, Helvetica, Arial, sans-serif"> Adam</text></g><g class="node" aria-label="graph-node66623" transform="translate(-23.86933539255252,146.53128026776125)"><circle class="b-outline" cx="0" cy="0" r="25" fill="#C990C0" stroke="#b261a5" stroke-width="2px"/><text class="caption" text-anchor="middle" pointer-events="none" x="0" y="5" font-size="10px" fill="#FFFFFF" font-family="Helvetica Neue, Helvetica, Arial, sans-serif"> Alice</text></g><g class="node" aria-label="graph-node66624" transform="translate(-25.41058411648867,-102.39626084609114)"><circle class="b-outline" cx="0" cy="0" r="25" fill="#F79767" stroke="#f36924" stroke-width="2px"/><text class="caption" text-anchor="middle" pointer-events="none" x="0" y="5" font-size="10px" fill="#FFFFFF" font-family="Helvetica Neue, Helvetica, Arial, sans-serif"> michael…</text></g><g class="node" aria-label="graph-node66625" transform="translate(146.0025834848115,144.18516352085314)"><circle class="b-outline" cx="0" cy="0" r="25" fill="#57C7E3" stroke="#23b3d7" stroke-width="2px"/><text class="caption" text-anchor="middle" pointer-events="none" x="0" y="5" font-size="10px" fill="#2A2C34" font-family="Helvetica Neue, Helvetica, Arial, sans-serif"> 7971020…</text></g><g class="node" aria-label="graph-node66626" transform="translate(-197.70091148352688,146.24443775209005)"><circle class="b-outline" cx="0" cy="0" r="25" fill="#F16667" stroke="#eb2728" stroke-width="2px"/><text class="caption" text-anchor="middle" pointer-events="none" x="0" y="5" font-size="10px" fill="#FFFFFF" font-family="Helvetica Neue, Helvetica, Arial, sans-serif"> 1234567…</text></g></g></svg>