<svg xmlns="http://www.w3.org/2000/svg" width="357.68389892578125" height="197.95547485351562" viewBox="-253.9106903076172 -79.17391967773438 357.68389892578125 197.95547485351562"><title>Neo4j Graph Visualization</title><desc>Created using Neo4j (http://www.neo4j.com/)</desc><g class="layer relationships"><g class="relationship" transform="translate(-80.71563309100976 89.78154474072444) rotate(270.5662552660271)"><path class="b-outline" fill="#A5ABB6" stroke="none" d="M 25 0.5 L 41.0280242188808 0.5 L 41.0280242188808 -0.5 L 25 -0.5 Z M 91.9342742188808 0.5 L 107.9622984377616 0.5 L 107.9622984377616 3.5 L 114.9622984377616 0 L 107.9622984377616 -3.5 L 107.9622984377616 -0.5 L 91.9342742188808 -0.5 Z"/><text text-anchor="middle" pointer-events="none" font-size="8px" fill="#000000" x="66.4811492188808" y="3" font-family="Helvetica Neue, Helvetica, Arial, sans-serif">HAS_EMAIL</text></g><g class="relationship" transform="translate(-80.71563309100976 89.78154474072444) rotate(359.71541492994527)"><path class="b-outline" fill="#A5ABB6" stroke="none" d="M 25 0.5 L 39.37818574150458 0.5 L 39.37818574150458 -0.5 L 25 -0.5 Z M 109.11256074150458 0.5 L 123.49074648300916 0.5 L 123.49074648300916 3.5 L 130.49074648300916 0 L 123.49074648300916 -3.5 L 123.49074648300916 -0.5 L 109.11256074150458 -0.5 Z"/><text text-anchor="middle" pointer-events="none" font-size="8px" fill="#000000" x="74.24537324150458" y="3" font-family="Helvetica Neue, Helvetica, Arial, sans-serif">HAS_PASSPORT</text></g><g class="relationship" transform="translate(-80.71563309100976 89.78154474072444) rotate(180.66454136561623)"><path class="b-outline" fill="#A5ABB6" stroke="none" d="M 25 0.5 L 40.9285486528879 0.5 L 40.9285486528879 -0.5 L 25 -0.5 Z M 96.2762049028879 0.5 L 112.2047535557758 0.5 L 112.2047535557758 3.5 L 119.2047535557758 0 L 112.2047535557758 -3.5 L 112.2047535557758 -0.5 L 96.2762049028879 -0.5 Z"/><text text-anchor="middle" pointer-events="none" font-size="8px" fill="#000000" x="68.6023767778879" y="3" transform="rotate(180 68.6023767778879 0)" font-family="Helvetica Neue, Helvetica, Arial, sans-serif">HAS_PHONE</text></g></g><g class="layer nodes"><g class="node" aria-label="graph-node-778" transform="translate(74.77319537425878,89.00923370123371)"><circle class="b-outline" cx="0" cy="0" r="25" fill="#C990C0" stroke="#b261a5" stroke-width="2px"/><text class="caption" text-anchor="middle" pointer-events="none" x="0" y="5" font-size="10px" fill="#FFFFFF" font-family="Helvetica Neue, Helvetica, Arial, sans-serif"> Passport</text></g><g class="node" aria-label="graph-node-776" transform="translate(-79.33240558223922,-50.17391840966504)"><circle class="b-outline" cx="0" cy="0" r="25" fill="#F79767" stroke="#f36924" stroke-width="2px"/><text class="caption" text-anchor="middle" pointer-events="none" x="0" y="5" font-size="10px" fill="#FFFFFF" font-family="Helvetica Neue, Helvetica, Arial, sans-serif"> Email</text></g><g class="node" aria-label="graph-node-777" transform="translate(-224.91068727767455,88.10903280150224)"><circle class="b-outline" cx="0" cy="0" r="25" fill="#57C7E3" stroke="#23b3d7" stroke-width="2px"/><text class="caption" text-anchor="middle" pointer-events="none" x="0" y="5" font-size="10px" fill="#2A2C34" font-family="Helvetica Neue, Helvetica, Arial, sans-serif"> Phone</text></g><g class="node" aria-label="graph-node-774" transform="translate(-80.71563309100976,89.78154474072444)"><circle class="b-outline" cx="0" cy="0" r="25" fill="#F16667" stroke="#eb2728" stroke-width="2px"/><text class="caption" text-anchor="middle" pointer-events="none" x="0" y="5" font-size="10px" fill="#FFFFFF" font-family="Helvetica Neue, Helvetica, Arial, sans-serif"> Person</text></g></g></svg>