<svg xmlns="http://www.w3.org/2000/svg" width="1181" height="597" viewBox="0 0 1181 597"><defs><style type="text/css"/></defs><g transform="translate(503.4015220005624 243.04661486505455) scale(1)"><g class="relationship"><g transform="translate(-114.69239588957063 63.59479447964071) rotate(-49.596857880807896)" stroke-width="5" stroke="#000000"><path d="M 59 0 L 220.06505818999327 0"/><polygon points="-24.8621506177483,0 -27.62461179749811,9.20820393249937 0,0 -27.62461179749811,-9.20820393249937" fill="#000000" transform="translate(244.92720880774158 0) rotate(0)" stroke="none"/></g><g transform="translate(-24.252759775213647 -42.6596119943911) rotate(-49.596857880807896) translate(0 -13)"><g transform="translate(0 0)"><g transform="translate(-49.90625 0)" fill="#ffffff" stroke="#000000" stroke-width="0"><rect x="0" y="0" width="99.8125" height="26" rx="5" ry="5" stroke="none"/><text xml:space="preserve" x="5" y="17.45703125" stroke="none" text-anchor="left" font-family="sans-serif" font-size="16" font-weight="normal" fill="#000000">HAS_EMAIL</text></g></g></g></g><g class="relationship"><g transform="translate(279.29553435299783 63.59479447964071) rotate(-130.40314211919213)" stroke-width="5" stroke="#000000"><path d="M 59 0 L 220.06505818999327 0"/><polygon points="-24.8621506177483,0 -27.62461179749811,9.20820393249937 0,0 -27.62461179749811,-9.20820393249937" fill="#000000" transform="translate(244.92720880774158 0) rotate(0)" stroke="none"/></g><g transform="translate(188.85589823864086 -42.6596119943911) rotate(49.59685788080788) translate(0 -13)"><g transform="translate(0 0)"><g transform="translate(-49.90625 0)" fill="#ffffff" stroke="#000000" stroke-width="0"><rect x="0" y="0" width="99.8125" height="26" rx="5" ry="5" stroke="none"/><text xml:space="preserve" x="5" y="17.45703125" stroke="none" text-anchor="left" font-family="sans-serif" font-size="16" font-weight="normal" fill="#000000">HAS_EMAIL</text></g></g></g></g><g class="relationship"><g transform="translate(279.29553435299783 63.59479447964071) rotate(49.5968594297301)" stroke-width="5" stroke="#000000"><path d="M 59 0 L 220.06505818999332 0"/><polygon points="-24.8621506177483,0 -27.62461179749811,9.20820393249937 0,0 -27.62461179749811,-9.20820393249937" fill="#000000" transform="translate(244.92720880774164 0) rotate(0)" stroke="none"/></g><g transform="translate(369.73516759489524 169.8492033985989) rotate(49.5968594297301) translate(0 -13)"><g transform="translate(0 0)"><g transform="translate(-54.34765625 0)" fill="#ffffff" stroke="#000000" stroke-width="0"><rect x="0" y="0" width="108.6953125" height="26" rx="5" ry="5" stroke="none"/><text xml:space="preserve" x="5" y="17.45703125" stroke="none" text-anchor="left" font-family="sans-serif" font-size="16" font-weight="normal" fill="#000000">HAS_PHONE</text></g></g></g></g><g class="relationship"><g transform="translate(82.30156923171361 295.0362091498299) rotate(0)" stroke-width="5" stroke="#000000"><path d="M 59 0 L 310.1257733680811 0"/><polygon points="-24.8621506177483,0 -27.62461179749811,9.20820393249937 0,0 -27.62461179749811,-9.20820393249937" fill="#000000" transform="translate(334.9879239858294 0) rotate(0)" stroke="none"/></g><g transform="translate(266.8644559157542 295.0362091498299) rotate(0) translate(0 -13)"><g transform="translate(0 0)"><g transform="translate(-54.34765625 0)" fill="#ffffff" stroke="#000000" stroke-width="0"><rect x="0" y="0" width="108.6953125" height="26" rx="5" ry="5" stroke="none"/><text xml:space="preserve" x="5" y="17.45703125" stroke="none" text-anchor="left" font-family="sans-serif" font-size="16" font-weight="normal" fill="#000000">HAS_PHONE</text></g></g></g></g><g class="relationship"><g transform="translate(-114.69239588957063 63.59479447964071) rotate(130.4031405702699)" stroke-width="5" stroke="#000000"><path d="M 59 0 L 220.06505818999332 0"/><polygon points="-24.8621506177483,0 -27.62461179749811,9.20820393249937 0,0 -27.62461179749811,-9.20820393249937" fill="#000000" transform="translate(244.92720880774164 0) rotate(0)" stroke="none"/></g><g transform="translate(-205.13202913146804 169.8492033985989) rotate(310.4031405702699) translate(0 -13)"><g transform="translate(0 0)"><g transform="translate(-68.734375 0)" fill="#ffffff" stroke="#000000" stroke-width="0"><rect x="0" y="0" width="137.46875" height="26" rx="5" ry="5" stroke="none"/><text xml:space="preserve" x="5" y="17.45703125" stroke="none" text-anchor="left" font-family="sans-serif" font-size="16" font-weight="normal" fill="#000000">HAS_PASSPORT</text></g></g></g></g><g class="relationship"><g transform="translate(82.30156923171361 295.0362091498299) rotate(180)" stroke-width="5" stroke="#000000"><path d="M 59 0 L 310.1257733680811 0"/><polygon points="-24.8621506177483,0 -27.62461179749811,9.20820393249937 0,0 -27.62461179749811,-9.20820393249937" fill="#000000" transform="translate(334.9879239858294 0) rotate(0)" stroke="none"/></g><g transform="translate(-102.26131745232695 295.0362091498299) rotate(360) translate(0 -13)"><g transform="translate(0 0)"><g transform="translate(-68.734375 0)" fill="#ffffff" stroke="#000000" stroke-width="0"><rect x="0" y="0" width="137.46875" height="26" rx="5" ry="5" stroke="none"/><text xml:space="preserve" x="5" y="17.45703125" stroke="none" text-anchor="left" font-family="sans-serif" font-size="16" font-weight="normal" fill="#000000">HAS_PASSPORT</text></g></g></g></g><g class="node"><g fill="#ffffff" stroke="#000000" stroke-width="4"><circle cx="-114.69239588957063" cy="63.59479447964071" r="52"/></g><g transform="translate(-114.69239588957063 63.59479447964071)"><g transform="scale(0.47711749366985773) translate(0 -27)"><g transform="translate(0 0)"><g transform="translate(-90.369140625 0)"><g fill="#ffffff" stroke="#000000" stroke-width="4"><rect x="0" y="0" width="180.73828125" height="54" rx="27" ry="27"/><text xml:space="preserve" x="27" y="38.142578125" stroke="none" font-family="sans-serif" font-size="40" font-weight="normal" fill="#000000">Person</text></g></g></g></g><g transform="translate(-39.597979746446654 -58.79797974644666)"><g transform="translate(0 0)"><g transform="translate(-112.9375 0)" fill="white"><rect x="0" y="0" width="112.9375" height="19.2" rx="0" ry="0" stroke="none"/><g font-family="sans-serif" font-size="16" font-weight="normal" fill="#000000" text-anchor="end"><text xml:space="preserve" x="48.9140625" y="14.05703125" stroke="none">name:</text><text xml:space="preserve" x="53.359375" y="14.05703125" stroke="none" text-anchor="start">Michael</text></g></g></g></g></g></g><g class="node"><g fill="#ffffff" stroke="#000000" stroke-width="4"><circle cx="82.30156923171361" cy="-167.84661486505456" r="52"/></g><g transform="translate(82.30156923171361 -167.84661486505456)"><g transform="scale(0.5514315006713292) translate(0 -27)"><g transform="translate(0 0)"><g transform="translate(-77.009765625 0)"><g fill="#ffffff" stroke="#000000" stroke-width="4"><rect x="0" y="0" width="154.01953125" height="54" rx="27" ry="27"/><text xml:space="preserve" x="27" y="38.142578125" stroke="none" font-family="sans-serif" font-size="40" font-weight="normal" fill="#000000">Email</text></g></g></g></g><g transform="translate(3.429011037612589e-15 -75.2)"><g transform="translate(0 0)"><g transform="translate(-93.9296875 0)" fill="white"><rect x="0" y="0" width="187.859375" height="19.2" rx="0" ry="0" stroke="none"/><g font-family="sans-serif" font-size="16" font-weight="normal" fill="#000000" text-anchor="end"><text xml:space="preserve" x="47.125" y="14.05703125" stroke="none">email:</text><text xml:space="preserve" x="51.5703125" y="14.05703125" stroke="none" text-anchor="start">michael@abc.com</text></g></g></g></g></g></g><g class="node"><g fill="#ffffff" stroke="#000000" stroke-width="4"><circle cx="279.29553435299783" cy="63.59479447964071" r="52"/></g><g transform="translate(279.29553435299783 63.59479447964071)"><g transform="scale(0.47711749366985773) translate(0 -27)"><g transform="translate(0 0)"><g transform="translate(-90.369140625 0)"><g fill="#ffffff" stroke="#000000" stroke-width="4"><rect x="0" y="0" width="180.73828125" height="54" rx="27" ry="27"/><text xml:space="preserve" x="27" y="38.142578125" stroke="none" font-family="sans-serif" font-size="40" font-weight="normal" fill="#000000">Person</text></g></g></g></g><g transform="translate(39.59797974644666 -58.79797974644666)"><g transform="translate(0 0)"><g transform="translate(0 0)" fill="white"><rect x="0" y="0" width="99.6015625" height="19.2" rx="0" ry="0" stroke="none"/><g font-family="sans-serif" font-size="16" font-weight="normal" fill="#000000" text-anchor="end"><text xml:space="preserve" x="48.9140625" y="14.05703125" stroke="none">name:</text><text xml:space="preserve" x="53.359375" y="14.05703125" stroke="none" text-anchor="start">Adam</text></g></g></g></g></g></g><g class="node"><g fill="#ffffff" stroke="#000000" stroke-width="4"><circle cx="476.28949321754305" cy="295.0362091498299" r="52"/></g><g transform="translate(476.28949321754305 295.0362091498299)"><g transform="scale(0.5054752595925074) translate(0 -27)"><g transform="translate(0 0)"><g transform="translate(-84.83203125 0)"><g fill="#ffffff" stroke="#000000" stroke-width="4"><rect x="0" y="0" width="169.6640625" height="54" rx="27" ry="27"/><text xml:space="preserve" x="27" y="38.142578125" stroke="none" font-family="sans-serif" font-size="40" font-weight="normal" fill="#000000">Phone</text></g></g></g></g><g transform="translate(39.59797974644666 39.597979746446654)"><g transform="translate(0 0)"><g transform="translate(0 0)" fill="white"><rect x="0" y="0" width="161.015625" height="19.2" rx="0" ry="0" stroke="none"/><g font-family="sans-serif" font-size="16" font-weight="normal" fill="#000000" text-anchor="end"><text xml:space="preserve" x="63.140625" y="14.05703125" stroke="none">number:</text><text xml:space="preserve" x="67.5859375" y="14.05703125" stroke="none" text-anchor="start">7971020304</text></g></g></g></g></g></g><g class="node"><g fill="#ffffff" stroke="#000000" stroke-width="4"><circle cx="82.30156923171361" cy="295.0362091498299" r="52"/></g><g transform="translate(82.30156923171361 295.0362091498299)"><g transform="scale(0.47711749366985773) translate(0 -27)"><g transform="translate(0 0)"><g transform="translate(-90.369140625 0)"><g fill="#ffffff" stroke="#000000" stroke-width="4"><rect x="0" y="0" width="180.73828125" height="54" rx="27" ry="27"/><text xml:space="preserve" x="27" y="38.142578125" stroke="none" font-family="sans-serif" font-size="40" font-weight="normal" fill="#000000">Person</text></g></g></g></g><g transform="translate(3.429011037612589e-15 -75.2)"><g transform="translate(0 0)"><g transform="translate(-46.2421875 0)" fill="white"><rect x="0" y="0" width="92.484375" height="19.2" rx="0" ry="0" stroke="none"/><g font-family="sans-serif" font-size="16" font-weight="normal" fill="#000000" text-anchor="end"><text xml:space="preserve" x="48.9140625" y="14.05703125" stroke="none">name:</text><text xml:space="preserve" x="53.359375" y="14.05703125" stroke="none" text-anchor="start">Alice</text></g></g></g></g></g></g><g class="node"><g fill="#ffffff" stroke="#000000" stroke-width="4"><circle cx="-311.68635475411577" cy="295.0362091498299" r="52"/></g><g transform="translate(-311.68635475411577 295.0362091498299)"><g transform="scale(0.41166297284691405) translate(0 -27)"><g transform="translate(0 0)"><g transform="translate(-105.92578125 0)"><g fill="#ffffff" stroke="#000000" stroke-width="4"><rect x="0" y="0" width="211.8515625" height="54" rx="27" ry="27"/><text xml:space="preserve" x="27" y="38.142578125" stroke="none" font-family="sans-serif" font-size="40" font-weight="normal" fill="#000000">Passport</text></g></g></g></g><g transform="translate(-39.597979746446654 39.59797974644666)"><g transform="translate(0 0)"><g transform="translate(-152.1171875 0)" fill="white"><rect x="0" y="0" width="152.1171875" height="19.2" rx="0" ry="0" stroke="none"/><g font-family="sans-serif" font-size="16" font-weight="normal" fill="#000000" text-anchor="end"><text xml:space="preserve" x="63.140625" y="14.05703125" stroke="none">number:</text><text xml:space="preserve" x="67.5859375" y="14.05703125" stroke="none" text-anchor="start">123456789</text></g></g></g></g></g></g></g></svg>