<svg xmlns="http://www.w3.org/2000/svg" width="1242" height="790" viewBox="0 0 1242 790"><defs><style type="text/css"/></defs><g transform="translate(549.0282590670938 389.94999999999993) scale(1)"><g class="relationship"><g transform="translate(-353.40325906709387 5.000000000000109) rotate(-36.94615710069548)" stroke-width="5" stroke="#000000"><path d="M 59 0 L 448.1109278320653 0"/><polygon points="-24.8621506177483,0 -27.62461179749811,9.20820393249937 0,0 -27.62461179749811,-9.20820393249937" fill="#000000" transform="translate(472.97307844981356 0) rotate(0)" stroke="none"/></g><g transform="translate(-150.76155367797415 -147.40312502919255) rotate(-36.94615710069548) translate(0 -41.8)"><g transform="translate(0 0)"><g transform="translate(-62.3359375 0)" fill="#ffffff" stroke="#000000" stroke-width="0"><rect x="0" y="0" width="124.671875" height="26" rx="5" ry="5" stroke="none"/><text xml:space="preserve" x="5" y="17.45703125" stroke="none" text-anchor="left" font-family="sans-serif" font-size="16" font-weight="normal" fill="#000000">TRANSACTION</text></g></g><g transform="translate(0 26)"><g transform="translate(-154.5546875 0)" fill="white"><rect x="0" y="0" width="309.109375" height="57.599999999999994" rx="0" ry="0" stroke="none"/><g font-family="sans-serif" font-size="16" font-weight="normal" fill="#000000" text-anchor="end"><text xml:space="preserve" x="70.2421875" y="14.05703125" stroke="none">amount:</text><text xml:space="preserve" x="74.6875" y="14.05703125" stroke="none" text-anchor="start">10000</text><text xml:space="preserve" x="70.2421875" y="33.25703125" stroke="none" text-anchor="end">currency:</text><text xml:space="preserve" x="74.6875" y="33.25703125" stroke="none" text-anchor="start">gbp</text><text xml:space="preserve" x="70.2421875" y="52.45703125" stroke="none" text-anchor="end">date:</text><text xml:space="preserve" x="74.6875" y="52.45703125" stroke="none" text-anchor="start">2023-01-01T10:10:10.000+0000</text></g></g></g></g></g><g class="relationship"><g transform="translate(71.75 -314.74999999999994) rotate(36.94615710069548)" stroke-width="5" stroke="#000000"><path d="M 59 0 L 448.1109278320653 0"/><polygon points="-24.8621506177483,0 -27.62461179749811,9.20820393249937 0,0 -27.62461179749811,-9.20820393249937" fill="#000000" transform="translate(472.97307844981356 0) rotate(0)" stroke="none"/></g><g transform="translate(274.3917053891197 -162.34687497080728) rotate(36.94615710069548) translate(0 -41.8)"><g transform="translate(0 0)"><g transform="translate(-62.3359375 0)" fill="#ffffff" stroke="#000000" stroke-width="0"><rect x="0" y="0" width="124.671875" height="26" rx="5" ry="5" stroke="none"/><text xml:space="preserve" x="5" y="17.45703125" stroke="none" text-anchor="left" font-family="sans-serif" font-size="16" font-weight="normal" fill="#000000">TRANSACTION</text></g></g><g transform="translate(0 26)"><g transform="translate(-154.5546875 0)" fill="white"><rect x="0" y="0" width="309.109375" height="57.599999999999994" rx="0" ry="0" stroke="none"/><g font-family="sans-serif" font-size="16" font-weight="normal" fill="#000000" text-anchor="end"><text xml:space="preserve" x="70.2421875" y="14.05703125" stroke="none">amount:</text><text xml:space="preserve" x="74.6875" y="14.05703125" stroke="none" text-anchor="start">900</text><text xml:space="preserve" x="70.2421875" y="33.25703125" stroke="none" text-anchor="end">currency:</text><text xml:space="preserve" x="74.6875" y="33.25703125" stroke="none" text-anchor="start">gbp</text><text xml:space="preserve" x="70.2421875" y="52.45703125" stroke="none" text-anchor="end">date:</text><text xml:space="preserve" x="74.6875" y="52.45703125" stroke="none" text-anchor="start">2023-01-02T10:10:10.000+0000</text></g></g></g></g></g><g class="relationship"><g transform="translate(496.90325906709387 5.000000000000109) rotate(143.05384289930456)" stroke-width="5" stroke="#000000"><path d="M 59 0 L 448.11092783206516 0"/><polygon points="-24.8621506177483,0 -27.62461179749811,9.20820393249937 0,0 -27.62461179749811,-9.20820393249937" fill="#000000" transform="translate(472.97307844981344 0) rotate(0)" stroke="none"/></g><g transform="translate(294.2615536779741 157.4031250291927) rotate(323.0538428993045) translate(0 -41.8)"><g transform="translate(0 0)"><g transform="translate(-62.3359375 0)" fill="#ffffff" stroke="#000000" stroke-width="0"><rect x="0" y="0" width="124.671875" height="26" rx="5" ry="5" stroke="none"/><text xml:space="preserve" x="5" y="17.45703125" stroke="none" text-anchor="left" font-family="sans-serif" font-size="16" font-weight="normal" fill="#000000">TRANSACTION</text></g></g><g transform="translate(0 26)"><g transform="translate(-154.5546875 0)" fill="white"><rect x="0" y="0" width="309.109375" height="57.599999999999994" rx="0" ry="0" stroke="none"/><g font-family="sans-serif" font-size="16" font-weight="normal" fill="#000000" text-anchor="end"><text xml:space="preserve" x="70.2421875" y="14.05703125" stroke="none">amount:</text><text xml:space="preserve" x="74.6875" y="14.05703125" stroke="none" text-anchor="start">810</text><text xml:space="preserve" x="70.2421875" y="33.25703125" stroke="none" text-anchor="end">currency:</text><text xml:space="preserve" x="74.6875" y="33.25703125" stroke="none" text-anchor="start">gbp</text><text xml:space="preserve" x="70.2421875" y="52.45703125" stroke="none" text-anchor="end">date:</text><text xml:space="preserve" x="74.6875" y="52.45703125" stroke="none" text-anchor="start">2023-01-03T10:10:10.000+0000</text></g></g></g></g></g><g class="relationship"><g transform="translate(71.75 324.75000000000006) rotate(-143.05384289930456)" stroke-width="5" stroke="#000000"><path d="M 59 0 L 448.11092783206516 0"/><polygon points="-24.8621506177483,0 -27.62461179749811,9.20820393249937 0,0 -27.62461179749811,-9.20820393249937" fill="#000000" transform="translate(472.97307844981344 0) rotate(0)" stroke="none"/></g><g transform="translate(-130.89170538911972 172.34687497080748) rotate(36.94615710069546) translate(0 -41.8)"><g transform="translate(0 0)"><g transform="translate(-62.3359375 0)" fill="#ffffff" stroke="#000000" stroke-width="0"><rect x="0" y="0" width="124.671875" height="26" rx="5" ry="5" stroke="none"/><text xml:space="preserve" x="5" y="17.45703125" stroke="none" text-anchor="left" font-family="sans-serif" font-size="16" font-weight="normal" fill="#000000">TRANSACTION</text></g></g><g transform="translate(0 26)"><g transform="translate(-154.5546875 0)" fill="white"><rect x="0" y="0" width="309.109375" height="57.599999999999994" rx="0" ry="0" stroke="none"/><g font-family="sans-serif" font-size="16" font-weight="normal" fill="#000000" text-anchor="end"><text xml:space="preserve" x="70.2421875" y="14.05703125" stroke="none">amount:</text><text xml:space="preserve" x="74.6875" y="14.05703125" stroke="none" text-anchor="start">729</text><text xml:space="preserve" x="70.2421875" y="33.25703125" stroke="none" text-anchor="end">currency:</text><text xml:space="preserve" x="74.6875" y="33.25703125" stroke="none" text-anchor="start">gbp</text><text xml:space="preserve" x="70.2421875" y="52.45703125" stroke="none" text-anchor="end">date:</text><text xml:space="preserve" x="74.6875" y="52.45703125" stroke="none" text-anchor="start">2023-01-04T10:10:10.000+0000</text></g></g></g></g></g><g class="node"><g fill="#ffffff" stroke="#000000" stroke-width="4"><circle cx="-353.40325906709387" cy="5.000000000000109" r="52"/></g><g transform="translate(-353.40325906709387 5.000000000000109)"><g transform="scale(0.4374364855992301) translate(0 -27)"><g transform="translate(0 0)"><g transform="translate(-99.265625 0)"><g fill="#ffffff" stroke="#000000" stroke-width="4"><rect x="0" y="0" width="198.53125" height="54" rx="27" ry="27"/><text xml:space="preserve" x="27" y="38.142578125" stroke="none" font-family="sans-serif" font-size="40" font-weight="normal" fill="#000000">Account</text></g></g></g></g><g transform="translate(-56 -9.599999999999993)"><g transform="translate(0 0)"><g transform="translate(-139.625 0)" fill="white"><rect x="0" y="0" width="139.625" height="19.2" rx="0" ry="0" stroke="none"/><g font-family="sans-serif" font-size="16" font-weight="normal" fill="#000000" text-anchor="end"><text xml:space="preserve" x="121.8359375" y="14.05703125" stroke="none">accountNumber:</text><text xml:space="preserve" x="126.28125" y="14.05703125" stroke="none" text-anchor="start">1</text></g></g></g></g></g></g><g class="node"><g fill="#ffffff" stroke="#000000" stroke-width="4"><circle cx="71.75" cy="-314.74999999999994" r="52"/></g><g transform="translate(71.75 -314.74999999999994)"><g transform="scale(0.4374364855992301) translate(0 -27)"><g transform="translate(0 0)"><g transform="translate(-99.265625 0)"><g fill="#ffffff" stroke="#000000" stroke-width="4"><rect x="0" y="0" width="198.53125" height="54" rx="27" ry="27"/><text xml:space="preserve" x="27" y="38.142578125" stroke="none" font-family="sans-serif" font-size="40" font-weight="normal" fill="#000000">Account</text></g></g></g></g><g transform="translate(3.429011037612589e-15 -75.2)"><g transform="translate(0 0)"><g transform="translate(-69.8125 0)" fill="white"><rect x="0" y="0" width="139.625" height="19.2" rx="0" ry="0" stroke="none"/><g font-family="sans-serif" font-size="16" font-weight="normal" fill="#000000" text-anchor="end"><text xml:space="preserve" x="121.8359375" y="14.05703125" stroke="none">accountNumber:</text><text xml:space="preserve" x="126.28125" y="14.05703125" stroke="none" text-anchor="start">2</text></g></g></g></g></g></g><g class="node"><g fill="#ffffff" stroke="#000000" stroke-width="4"><circle cx="496.90325906709387" cy="5.000000000000109" r="52"/></g><g transform="translate(496.90325906709387 5.000000000000109)"><g transform="scale(0.4374364855992301) translate(0 -27)"><g transform="translate(0 0)"><g transform="translate(-99.265625 0)"><g fill="#ffffff" stroke="#000000" stroke-width="4"><rect x="0" y="0" width="198.53125" height="54" rx="27" ry="27"/><text xml:space="preserve" x="27" y="38.142578125" stroke="none" font-family="sans-serif" font-size="40" font-weight="normal" fill="#000000">Account</text></g></g></g></g><g transform="translate(56 -9.6)"><g transform="translate(0 0)"><g transform="translate(0 0)" fill="white"><rect x="0" y="0" width="139.625" height="19.2" rx="0" ry="0" stroke="none"/><g font-family="sans-serif" font-size="16" font-weight="normal" fill="#000000" text-anchor="end"><text xml:space="preserve" x="121.8359375" y="14.05703125" stroke="none">accountNumber:</text><text xml:space="preserve" x="126.28125" y="14.05703125" stroke="none" text-anchor="start">3</text></g></g></g></g></g></g><g class="node"><g fill="#ffffff" stroke="#000000" stroke-width="4"><circle cx="71.75" cy="324.75000000000006" r="52"/></g><g transform="translate(71.75 324.75000000000006)"><g transform="scale(0.4374364855992301) translate(0 -27)"><g transform="translate(0 0)"><g transform="translate(-99.265625 0)"><g fill="#ffffff" stroke="#000000" stroke-width="4"><rect x="0" y="0" width="198.53125" height="54" rx="27" ry="27"/><text xml:space="preserve" x="27" y="38.142578125" stroke="none" font-family="sans-serif" font-size="40" font-weight="normal" fill="#000000">Account</text></g></g></g></g><g transform="translate(3.429011037612589e-15 56)"><g transform="translate(0 0)"><g transform="translate(-69.8125 0)" fill="white"><rect x="0" y="0" width="139.625" height="19.2" rx="0" ry="0" stroke="none"/><g font-family="sans-serif" font-size="16" font-weight="normal" fill="#000000" text-anchor="end"><text xml:space="preserve" x="121.8359375" y="14.05703125" stroke="none">accountNumber:</text><text xml:space="preserve" x="126.28125" y="14.05703125" stroke="none" text-anchor="start">4</text></g></g></g></g></g></g></g></svg>