<svg xmlns="http://www.w3.org/2000/svg" width="1326" height="797" viewBox="0 0 1326 797"><defs><style type="text/css"/></defs><g transform="translate(471.36094282077545 585.1473838988978) scale(1)"><g class="relationship"><g transform="translate(-2.7641969419113384 -121.37618681363679) rotate(3.690030485488784e-14)" stroke-width="5" stroke="#000000"><path d="M 59 0 L 269.1851216610586 0"/><polygon points="-24.8621506177483,0 -27.62461179749811,9.20820393249937 0,0 -27.62461179749811,-9.20820393249937" fill="#000000" transform="translate(294.0472722788069 0) rotate(0)" stroke="none"/></g><g transform="translate(161.32836388861796 -121.37618681363669) rotate(3.690030485488784e-14) translate(0 -13)"><g transform="translate(0 0)"><g transform="translate(-76.56640625 0)" fill="#ffffff" stroke="#000000" stroke-width="0"><rect x="0" y="0" width="153.1328125" height="26" rx="5" ry="5" stroke="none"/><text xml:space="preserve" x="5" y="17.45703125" stroke="none" text-anchor="left" font-family="sans-serif" font-size="16" font-weight="normal" fill="#000000">HAS_ENCOUNTER</text></g></g></g></g><g class="relationship"><g stroke-width="5" stroke="#000000"><path d="M 409.28307533689554 -121.37618681363656 L 409.28307533689554 -121.37618681363656 A 40 40 0 0 1 449.28307533689554 -81.37618681363656 L 449.28307533689554 -59.445111504762416 L 449.28307533689554 -37.51403619588826 A 40 40 0 0 1 409.28307533689554 2.4859638041117385 L 399.78307533689554 2.48596380411174 L 390.28307533689554 2.4859638041117407 A 40 40 0 0 0 350.28307533689554 -37.51403619588826 L 350.28307533689554 -37.514036195888266 L 350.28307533689554 -37.514036195888266"/><polygon points="-24.8621506177483,0 -27.62461179749811,9.20820393249937 0,0 -27.62461179749811,-9.20820393249937" fill="#000000" transform="translate(350.28307533689554 -37.514036195888266) rotate(-90) translate(24.8621506177483 0)" stroke="none"/></g><g transform="translate(399.78307533689554 2.48596380411174) rotate(-6.939392032284036e-15) translate(0 -13)"><g transform="translate(0 0)"><g transform="translate(-26.3359375 0)" fill="#ffffff" stroke="#000000" stroke-width="0"><rect x="0" y="0" width="52.671875" height="26" rx="5" ry="5" stroke="none"/><text xml:space="preserve" x="5" y="17.45703125" stroke="none" text-anchor="left" font-family="sans-serif" font-size="16" font-weight="normal" fill="#000000">NEXT</text></g></g></g></g><g class="relationship"><g transform="translate(350.28307533689554 -121.37618681363656) rotate(-82.68159248869011)" stroke-width="5" stroke="#000000"><path d="M 59 0 L 269.1851216610586 0"/><polygon points="-24.8621506177483,0 -27.62461179749811,9.20820393249937 0,0 -27.62461179749811,-9.20820393249937" fill="#000000" transform="translate(294.04727227880693 0) rotate(0)" stroke="none"/></g><g transform="translate(371.1857222577375 -284.1319789428986) rotate(-82.68159248869011) translate(0 -13)"><g transform="translate(0 0)"><g transform="translate(-70.78515625 0)" fill="#ffffff" stroke="#000000" stroke-width="0"><rect x="0" y="0" width="141.5703125" height="26" rx="5" ry="5" stroke="none"/><text xml:space="preserve" x="5" y="17.45703125" stroke="none" text-anchor="left" font-family="sans-serif" font-size="16" font-weight="normal" fill="#000000">HAS_CONDITION</text></g></g></g></g><g class="relationship"><g transform="translate(350.28307533689554 -121.37618681363656) rotate(-56.37802638961062)" stroke-width="5" stroke="#000000"><path d="M 59 0 L 269.1851216610586 0"/><polygon points="-24.8621506177483,0 -27.62461179749811,9.20820393249937 0,0 -27.62461179749811,-9.20820393249937" fill="#000000" transform="translate(294.04727227880693 0) rotate(0)" stroke="none"/></g><g transform="translate(441.14292204926073 -258.0175303935591) rotate(-56.37802638961062) translate(0 -13)"><g transform="translate(0 0)"><g transform="translate(-57.01171875 0)" fill="#ffffff" stroke="#000000" stroke-width="0"><rect x="0" y="0" width="114.0234375" height="26" rx="5" ry="5" stroke="none"/><text xml:space="preserve" x="5" y="17.45703125" stroke="none" text-anchor="left" font-family="sans-serif" font-size="16" font-weight="normal" fill="#000000">PRESCRIBED</text></g></g></g></g><g class="relationship"><g transform="translate(350.28307533689554 -121.37618681363656) rotate(-29.999999999999996)" stroke-width="5" stroke="#000000"><path d="M 59 0 L 269.1851216610586 0"/><polygon points="-24.8621506177483,0 -27.62461179749811,9.20820393249937 0,0 -27.62461179749811,-9.20820393249937" fill="#000000" transform="translate(294.04727227880693 0) rotate(0)" stroke="none"/></g><g transform="translate(492.39140158817725 -203.4224672289012) rotate(-29.999999999999996) translate(0 -13)"><g transform="translate(0 0)"><g transform="translate(-82.3671875 0)" fill="#ffffff" stroke="#000000" stroke-width="0"><rect x="0" y="0" width="164.734375" height="26" rx="5" ry="5" stroke="none"/><text xml:space="preserve" x="5" y="17.45703125" stroke="none" text-anchor="left" font-family="sans-serif" font-size="16" font-weight="normal" fill="#000000">HAS_OBSERVATION</text></g></g></g></g><g class="relationship"><g transform="translate(350.28307533689554 -121.37618681363656) rotate(-108.98515858776962)" stroke-width="5" stroke="#000000"><path d="M 59 0 L 269.1851216610588 0"/><polygon points="-24.8621506177483,0 -27.62461179749811,9.20820393249937 0,0 -27.62461179749811,-9.20820393249937" fill="#000000" transform="translate(294.0472722788071 0) rotate(0)" stroke="none"/></g><g transform="translate(296.89995434187006 -276.54258431242323) rotate(71.01484141223037) translate(0 -13)"><g transform="translate(0 0)"><g transform="translate(-61.4609375 0)" fill="#ffffff" stroke="#000000" stroke-width="0"><rect x="0" y="0" width="122.921875" height="26" rx="5" ry="5" stroke="none"/><text xml:space="preserve" x="5" y="17.45703125" stroke="none" text-anchor="left" font-family="sans-serif" font-size="16" font-weight="normal" fill="#000000">DEVICE_USED</text></g></g></g></g><g class="relationship"><g transform="translate(350.28307533689554 -121.37618681363656) rotate(-3.6219736103893805)" stroke-width="5" stroke="#000000"><path d="M 59 0 L 269.1851216610586 0"/><polygon points="-24.8621506177483,0 -27.62461179749811,9.20820393249937 0,0 -27.62461179749811,-9.20820393249937" fill="#000000" transform="translate(294.04727227880693 0) rotate(0)" stroke="none"/></g><g transform="translate(514.0478734405289 -131.74245046054355) rotate(-3.6219736103893805) translate(0 -13)"><g transform="translate(0 0)"><g transform="translate(-77.015625 0)" fill="#ffffff" stroke="#000000" stroke-width="0"><rect x="0" y="0" width="154.03125" height="26" rx="5" ry="5" stroke="none"/><text xml:space="preserve" x="5" y="17.45703125" stroke="none" text-anchor="left" font-family="sans-serif" font-size="16" font-weight="normal" fill="#000000">HAS_PROCEDURE</text></g></g></g></g><g class="relationship"><g transform="translate(350.28307533689554 -121.37618681363656) rotate(123.6219736103894)" stroke-width="5" stroke="#000000"><path d="M 59 0 L 225.77268387104803 0"/><polygon points="-24.8621506177483,0 -27.62461179749811,9.20820393249937 0,0 -27.62461179749811,-9.20820393249937" fill="#000000" transform="translate(250.63483448879634 0) rotate(0)" stroke="none"/></g><g transform="translate(271.4421995731408 -2.8098059184428905) rotate(303.62197361038943) translate(0 -13)"><g transform="translate(0 0)"><g transform="translate(-67.68359375 0)" fill="#ffffff" stroke="#000000" stroke-width="0"><rect x="0" y="0" width="135.3671875" height="26" rx="5" ry="5" stroke="none"/><text xml:space="preserve" x="5" y="17.45703125" stroke="none" text-anchor="left" font-family="sans-serif" font-size="16" font-weight="normal" fill="#000000">HAS_PROVIDER</text></g></g></g></g><g class="relationship"><g transform="translate(178.83487892830843 136.4595102439021) rotate(180)" stroke-width="5" stroke="#000000"><path d="M 59 0 L 247.772961313972 0"/><polygon points="-24.8621506177483,0 -27.62461179749811,9.20820393249937 0,0 -27.62461179749811,-9.20820393249937" fill="#000000" transform="translate(272.6351119317203 0) rotate(0)" stroke="none"/></g><g transform="translate(25.448398271322418 136.45951024390212) rotate(360) translate(0 -13)"><g transform="translate(0 0)"><g transform="translate(-72.13671875 0)" fill="#ffffff" stroke="#000000" stroke-width="0"><rect x="0" y="0" width="144.2734375" height="26" rx="5" ry="5" stroke="none"/><text xml:space="preserve" x="5" y="17.45703125" stroke="none" text-anchor="left" font-family="sans-serif" font-size="16" font-weight="normal" fill="#000000">HAS_SPECIALITY</text></g></g></g></g><g class="relationship"><g transform="translate(178.83487892830843 136.4595102439021) rotate(0)" stroke-width="5" stroke="#000000"><path d="M 59 0 L 283.0721840966469 0"/><polygon points="-24.8621506177483,0 -27.62461179749811,9.20820393249937 0,0 -27.62461179749811,-9.20820393249937" fill="#000000" transform="translate(307.93433471439516 0) rotate(0)" stroke="none"/></g><g transform="translate(349.87097097663184 136.4595102439021) rotate(0) translate(0 -13)"><g transform="translate(0 0)"><g transform="translate(-59.09765625 0)" fill="#ffffff" stroke="#000000" stroke-width="0"><rect x="0" y="0" width="118.1953125" height="26" rx="5" ry="5" stroke="none"/><text xml:space="preserve" x="5" y="17.45703125" stroke="none" text-anchor="left" font-family="sans-serif" font-size="16" font-weight="normal" fill="#000000">BELONGS_TO</text></g></g></g></g><g class="relationship"><g transform="translate(-2.7641969419113384 -121.37618681363679) rotate(-90)" stroke-width="5" stroke="#000000"><path d="M 59 0 L 249.98036551466916 0"/><polygon points="-24.8621506177483,0 -27.62461179749811,9.20820393249937 0,0 -27.62461179749811,-9.20820393249937" fill="#000000" transform="translate(274.8425161324175 0) rotate(0)" stroke="none"/></g><g transform="translate(-2.764196941911329 -275.8663695709714) rotate(90) translate(0 -13)"><g transform="translate(0 0)"><g transform="translate(-62.8046875 0)" fill="#ffffff" stroke="#000000" stroke-width="0"><rect x="0" y="0" width="125.609375" height="26" rx="5" ry="5" stroke="none"/><text xml:space="preserve" x="5" y="17.45703125" stroke="none" text-anchor="left" font-family="sans-serif" font-size="16" font-weight="normal" fill="#000000">HAS_ALLERGY</text></g></g></g></g><g class="relationship"><g transform="translate(-2.7641969419113384 -121.37618681363679) rotate(179.99999999999997)" stroke-width="5" stroke="#000000"><path d="M 59 0 L 249.98036551466916 0"/><polygon points="-24.8621506177483,0 -27.62461179749811,9.20820393249937 0,0 -27.62461179749811,-9.20820393249937" fill="#000000" transform="translate(274.8425161324175 0) rotate(0)" stroke="none"/></g><g transform="translate(-157.25437969924593 -121.3761868136367) rotate(360) translate(0 -13)"><g transform="translate(0 0)"><g transform="translate(-67.234375 0)" fill="#ffffff" stroke="#000000" stroke-width="0"><rect x="0" y="0" width="134.46875" height="26" rx="5" ry="5" stroke="none"/><text xml:space="preserve" x="5" y="17.45703125" stroke="none" text-anchor="left" font-family="sans-serif" font-size="16" font-weight="normal" fill="#000000">HAS_REACTION</text></g></g></g></g><g class="relationship"><g transform="translate(-2.7641969419113384 -455.21870294605424) rotate(135)" stroke-width="5" stroke="#000000"><path d="M 59 0 L 388.26246339347546 0"/><polygon points="-24.8621506177483,0 -27.62461179749811,9.20820393249937 0,0 -27.62461179749811,-9.20820393249937" fill="#000000" transform="translate(413.12461401122374 0) rotate(0)" stroke="none"/></g><g transform="translate(-160.89535735977455 -297.08754252819097) rotate(315) translate(0 -13)"><g transform="translate(0 0)"><g transform="translate(-83.68359375 0)" fill="#ffffff" stroke="#000000" stroke-width="0"><rect x="0" y="0" width="167.3671875" height="26" rx="5" ry="5" stroke="none"/><text xml:space="preserve" x="5" y="17.45703125" stroke="none" text-anchor="left" font-family="sans-serif" font-size="16" font-weight="normal" fill="#000000">CAUSES_REACTION</text></g></g></g></g><g class="relationship"><g transform="translate(350.28307533689554 -121.37618681363656) rotate(-136.60151586119406)" stroke-width="5" stroke="#000000"><path d="M 59 0 L 402.0320786555881 0"/><polygon points="-24.8621506177483,0 -27.62461179749811,9.20820393249937 0,0 -27.62461179749811,-9.20820393249937" fill="#000000" transform="translate(426.8942292733364 0) rotate(0)" stroke="none"/></g><g transform="translate(182.79176962021373 -279.75644725253767) rotate(43.398484138805955) translate(0 -13)"><g transform="translate(0 0)"><g transform="translate(-89.46875 0)" fill="#ffffff" stroke="#000000" stroke-width="0"><rect x="0" y="0" width="178.9375" height="26" rx="5" ry="5" stroke="none"/><text xml:space="preserve" x="5" y="17.45703125" stroke="none" text-anchor="left" font-family="sans-serif" font-size="16" font-weight="normal" fill="#000000">ALLERGY_DETECTED</text></g></g></g></g><g class="node"><g fill="#ffffff" stroke="#000000" stroke-width="4"><circle cx="-2.7641969419113384" cy="-121.37618681363679" r="52"/></g><g transform="translate(-2.7641969419113384 -121.37618681363679)"><g transform="scale(0.4825240840292241) translate(0 -27)"><g transform="translate(0 0)"><g transform="translate(-89.265625 0)"><g fill="#ffffff" stroke="#000000" stroke-width="4"><rect x="0" y="0" width="178.53125" height="54" rx="27" ry="27"/><text xml:space="preserve" x="27" y="38.142578125" stroke="none" font-family="sans-serif" font-size="40" font-weight="normal" fill="#000000">Patient</text></g></g></g></g><g transform="translate(3.429011037612589e-15 56)"><g transform="translate(0 0)"><g transform="translate(-15.1171875 0)" fill="white"><rect x="0" y="0" width="30.234375" height="19.2" rx="0" ry="0" stroke="none"/><g font-family="sans-serif" font-size="16" font-weight="normal" fill="#000000" text-anchor="end"><text xml:space="preserve" x="21.34375" y="14.05703125" stroke="none">id:</text><text xml:space="preserve" x="25.7890625" y="14.05703125" stroke="none" text-anchor="start"></text></g></g></g></g></g></g><g class="node"><g fill="#ffffff" stroke="#000000" stroke-width="4"><circle cx="350.28307533689554" cy="-121.37618681363656" r="52"/></g><g transform="translate(350.28307533689554 -121.37618681363656)"><g transform="scale(0.3712346667858484) translate(0 -27)"><g transform="translate(0 0)"><g transform="translate(-118.171875 0)"><g fill="#ffffff" stroke="#000000" stroke-width="4"><rect x="0" y="0" width="236.34375" height="54" rx="27" ry="27"/><text xml:space="preserve" x="27" y="38.142578125" stroke="none" font-family="sans-serif" font-size="40" font-weight="normal" fill="#000000">Encounter</text></g></g></g></g><g transform="translate(39.59797974644666 39.597979746446654)"><g transform="translate(0 0)"><g transform="translate(0 0)" fill="white"><rect x="0" y="0" width="30.234375" height="19.2" rx="0" ry="0" stroke="none"/><g font-family="sans-serif" font-size="16" font-weight="normal" fill="#000000" text-anchor="end"><text xml:space="preserve" x="21.34375" y="14.05703125" stroke="none">id:</text><text xml:space="preserve" x="25.7890625" y="14.05703125" stroke="none" text-anchor="start"></text></g></g></g></g></g></g><g class="node"><g fill="#ffffff" stroke="#000000" stroke-width="4"><circle cx="395.25539121434565" cy="-471.5473838988978" r="52"/></g><g transform="translate(395.25539121434565 -471.5473838988978)"><g transform="scale(0.3922444058177833) translate(0 -27)"><g transform="translate(0 0)"><g transform="translate(-111.501953125 0)"><g fill="#ffffff" stroke="#000000" stroke-width="4"><rect x="0" y="0" width="223.00390625" height="54" rx="27" ry="27"/><text xml:space="preserve" x="27" y="38.142578125" stroke="none" font-family="sans-serif" font-size="40" font-weight="normal" fill="#000000">Condition</text></g></g></g></g><g transform="translate(3.429011037612589e-15 -113.6)"><g transform="translate(0 0)"><g transform="translate(-47.578125 0)" fill="white"><rect x="0" y="0" width="95.15625" height="57.599999999999994" rx="0" ry="0" stroke="none"/><g font-family="sans-serif" font-size="16" font-weight="normal" fill="#000000" text-anchor="end"><text xml:space="preserve" x="86.265625" y="14.05703125" stroke="none">id:</text><text xml:space="preserve" x="90.7109375" y="14.05703125" stroke="none" text-anchor="start"></text><text xml:space="preserve" x="86.265625" y="33.25703125" stroke="none" text-anchor="end">code:</text><text xml:space="preserve" x="90.7109375" y="33.25703125" stroke="none" text-anchor="start"></text><text xml:space="preserve" x="86.265625" y="52.45703125" stroke="none" text-anchor="end">description:</text><text xml:space="preserve" x="90.7109375" y="52.45703125" stroke="none" text-anchor="start"></text></g></g></g></g></g></g><g class="node"><g fill="#ffffff" stroke="#000000" stroke-width="4"><circle cx="545.7692136427036" cy="-415.36180924063297" r="52"/></g><g transform="translate(545.7692136427036 -415.36180924063297)"><g transform="scale(0.5971896011417263) translate(0 -27)"><g transform="translate(0 0)"><g transform="translate(-70.349609375 0)"><g fill="#ffffff" stroke="#000000" stroke-width="4"><rect x="0" y="0" width="140.69921875" height="54" rx="27" ry="27"/><text xml:space="preserve" x="27" y="38.142578125" stroke="none" font-family="sans-serif" font-size="40" font-weight="normal" fill="#000000">Drug</text></g></g></g></g><g transform="translate(39.59797974644666 -97.19797974644665)"><g transform="translate(0 0)"><g transform="translate(0 0)" fill="white"><rect x="0" y="0" width="95.15625" height="57.599999999999994" rx="0" ry="0" stroke="none"/><g font-family="sans-serif" font-size="16" font-weight="normal" fill="#000000" text-anchor="end"><text xml:space="preserve" x="86.265625" y="14.05703125" stroke="none">name:</text><text xml:space="preserve" x="90.7109375" y="14.05703125" stroke="none" text-anchor="start"></text><text xml:space="preserve" x="86.265625" y="33.25703125" stroke="none" text-anchor="end">code:</text><text xml:space="preserve" x="90.7109375" y="33.25703125" stroke="none" text-anchor="start"></text><text xml:space="preserve" x="86.265625" y="52.45703125" stroke="none" text-anchor="end">description:</text><text xml:space="preserve" x="90.7109375" y="52.45703125" stroke="none" text-anchor="start"></text></g></g></g></g></g></g><g class="node"><g fill="#ffffff" stroke="#000000" stroke-width="4"><circle cx="656.030981867144" cy="-297.89982295304003" r="52"/></g><g transform="translate(656.030981867144 -297.89982295304003)"><g transform="scale(0.3272517262744091) translate(0 -27)"><g transform="translate(0 0)"><g transform="translate(-134.83203125 0)"><g fill="#ffffff" stroke="#000000" stroke-width="4"><rect x="0" y="0" width="269.6640625" height="54" rx="27" ry="27"/><text xml:space="preserve" x="27" y="38.142578125" stroke="none" font-family="sans-serif" font-size="40" font-weight="normal" fill="#000000">Observation</text></g></g></g></g><g transform="translate(39.59797974644666 -116.39797974644665)"><g transform="translate(0 0)"><g transform="translate(0 0)" fill="white"><rect x="0" y="0" width="95.15625" height="76.8" rx="0" ry="0" stroke="none"/><g font-family="sans-serif" font-size="16" font-weight="normal" fill="#000000" text-anchor="end"><text xml:space="preserve" x="86.265625" y="14.05703125" stroke="none">code:</text><text xml:space="preserve" x="90.7109375" y="14.05703125" stroke="none" text-anchor="start"></text><text xml:space="preserve" x="86.265625" y="33.25703125" stroke="none" text-anchor="end">description:</text><text xml:space="preserve" x="90.7109375" y="33.25703125" stroke="none" text-anchor="start"></text><text xml:space="preserve" x="86.265625" y="52.45703125" stroke="none" text-anchor="end">type:</text><text xml:space="preserve" x="90.7109375" y="52.45703125" stroke="none" text-anchor="start"></text><text xml:space="preserve" x="86.265625" y="71.65703125" stroke="none" text-anchor="end">unit:</text><text xml:space="preserve" x="90.7109375" y="71.65703125" stroke="none" text-anchor="start"></text></g></g></g></g></g></g><g class="node"><g fill="#ffffff" stroke="#000000" stroke-width="4"><circle cx="235.42859834151423" cy="-455.21870294605424" r="52"/></g><g transform="translate(235.42859834151423 -455.21870294605424)"><g transform="scale(0.48819713539309556) translate(0 -27)"><g transform="translate(0 0)"><g transform="translate(-88.1328125 0)"><g fill="#ffffff" stroke="#000000" stroke-width="4"><rect x="0" y="0" width="176.265625" height="54" rx="27" ry="27"/><text xml:space="preserve" x="27" y="38.142578125" stroke="none" font-family="sans-serif" font-size="40" font-weight="normal" fill="#000000">Device</text></g></g></g></g><g transform="translate(3.429011037612589e-15 -94.4)"><g transform="translate(0 0)"><g transform="translate(-47.578125 0)" fill="white"><rect x="0" y="0" width="95.15625" height="38.4" rx="0" ry="0" stroke="none"/><g font-family="sans-serif" font-size="16" font-weight="normal" fill="#000000" text-anchor="end"><text xml:space="preserve" x="86.265625" y="14.05703125" stroke="none">code:</text><text xml:space="preserve" x="90.7109375" y="14.05703125" stroke="none" text-anchor="start"></text><text xml:space="preserve" x="86.265625" y="33.25703125" stroke="none" text-anchor="end">description:</text><text xml:space="preserve" x="90.7109375" y="33.25703125" stroke="none" text-anchor="start"></text></g></g></g></g></g></g><g class="node"><g fill="#ffffff" stroke="#000000" stroke-width="4"><circle cx="702.6251618589587" cy="-143.67933746068633" r="52"/></g><g transform="translate(702.6251618589587 -143.67933746068633)"><g transform="scale(0.36796822694687853) translate(0 -27)"><g transform="translate(0 0)"><g transform="translate(-119.275390625 0)"><g fill="#ffffff" stroke="#000000" stroke-width="4"><rect x="0" y="0" width="238.55078125" height="54" rx="27" ry="27"/><text xml:space="preserve" x="27" y="38.142578125" stroke="none" font-family="sans-serif" font-size="40" font-weight="normal" fill="#000000">Procedure</text></g></g></g></g><g transform="translate(56 -19.2)"><g transform="translate(0 0)"><g transform="translate(0 0)" fill="white"><rect x="0" y="0" width="95.15625" height="38.4" rx="0" ry="0" stroke="none"/><g font-family="sans-serif" font-size="16" font-weight="normal" fill="#000000" text-anchor="end"><text xml:space="preserve" x="86.265625" y="14.05703125" stroke="none">code:</text><text xml:space="preserve" x="90.7109375" y="14.05703125" stroke="none" text-anchor="start"></text><text xml:space="preserve" x="86.265625" y="33.25703125" stroke="none" text-anchor="end">description:</text><text xml:space="preserve" x="90.7109375" y="33.25703125" stroke="none" text-anchor="start"></text></g></g></g></g></g></g><g class="node"><g fill="#ffffff" stroke="#000000" stroke-width="4"><circle cx="178.83487892830843" cy="136.4595102439021" r="52"/></g><g transform="translate(178.83487892830843 136.4595102439021)"><g transform="scale(0.4285578244294987) translate(0 -27)"><g transform="translate(0 0)"><g transform="translate(-101.47265625 0)"><g fill="#ffffff" stroke="#000000" stroke-width="4"><rect x="0" y="0" width="202.9453125" height="54" rx="27" ry="27"/><text xml:space="preserve" x="27" y="38.142578125" stroke="none" font-family="sans-serif" font-size="40" font-weight="normal" fill="#000000">Provider</text></g></g></g></g><g transform="translate(3.429011037612589e-15 56)"><g transform="translate(0 0)"><g transform="translate(-28.90234375 0)" fill="white"><rect x="0" y="0" width="57.8046875" height="19.2" rx="0" ry="0" stroke="none"/><g font-family="sans-serif" font-size="16" font-weight="normal" fill="#000000" text-anchor="end"><text xml:space="preserve" x="48.9140625" y="14.05703125" stroke="none">name:</text><text xml:space="preserve" x="53.359375" y="14.05703125" stroke="none" text-anchor="start"></text></g></g></g></g></g></g><g class="node"><g fill="#ffffff" stroke="#000000" stroke-width="4"><circle cx="-152.80023300341188" cy="136.4595102439021" r="52"/></g><g transform="translate(-152.80023300341188 136.4595102439021)"><g transform="scale(0.38864230401678984) translate(0 -27)"><g transform="translate(0 0)"><g transform="translate(-112.595703125 0)"><g fill="#ffffff" stroke="#000000" stroke-width="4"><rect x="0" y="0" width="225.19140625" height="54" rx="27" ry="27"/><text xml:space="preserve" x="27" y="38.142578125" stroke="none" font-family="sans-serif" font-size="40" font-weight="normal" fill="#000000">Speciality</text></g></g></g></g></g></g><g class="node"><g fill="#ffffff" stroke="#000000" stroke-width="4"><circle cx="545.7692136427036" cy="136.4595102439021" r="52"/></g><g transform="translate(545.7692136427036 136.4595102439021)"><g transform="scale(0.31474903397675363) translate(0 -27)"><g transform="translate(0 0)"><g transform="translate(-140.3984375 0)"><g fill="#ffffff" stroke="#000000" stroke-width="4"><rect x="0" y="0" width="280.796875" height="54" rx="27" ry="27"/><text xml:space="preserve" x="27" y="38.142578125" stroke="none" font-family="sans-serif" font-size="40" font-weight="normal" fill="#000000">Organisation</text></g></g></g></g><g transform="translate(56 -9.6)"><g transform="translate(0 0)"><g transform="translate(0 0)" fill="white"><rect x="0" y="0" width="57.8046875" height="19.2" rx="0" ry="0" stroke="none"/><g font-family="sans-serif" font-size="16" font-weight="normal" fill="#000000" text-anchor="end"><text xml:space="preserve" x="48.9140625" y="14.05703125" stroke="none">name:</text><text xml:space="preserve" x="53.359375" y="14.05703125" stroke="none" text-anchor="start"></text></g></g></g></g></g></g><g class="node"><g fill="#ffffff" stroke="#000000" stroke-width="4"><circle cx="-2.7641969419113384" cy="-455.21870294605424" r="52"/></g><g transform="translate(-2.7641969419113384 -455.21870294605424)"><g transform="scale(0.48819713539309556) translate(0 -27)"><g transform="translate(0 0)"><g transform="translate(-88.1328125 0)"><g fill="#ffffff" stroke="#000000" stroke-width="4"><rect x="0" y="0" width="176.265625" height="54" rx="27" ry="27"/><text xml:space="preserve" x="27" y="38.142578125" stroke="none" font-family="sans-serif" font-size="40" font-weight="normal" fill="#000000">Allergy</text></g></g></g></g><g transform="translate(3.429011037612589e-15 -94.4)"><g transform="translate(0 0)"><g transform="translate(-47.578125 0)" fill="white"><rect x="0" y="0" width="95.15625" height="38.4" rx="0" ry="0" stroke="none"/><g font-family="sans-serif" font-size="16" font-weight="normal" fill="#000000" text-anchor="end"><text xml:space="preserve" x="86.265625" y="14.05703125" stroke="none">code:</text><text xml:space="preserve" x="90.7109375" y="14.05703125" stroke="none" text-anchor="start"></text><text xml:space="preserve" x="86.265625" y="33.25703125" stroke="none" text-anchor="end">description:</text><text xml:space="preserve" x="90.7109375" y="33.25703125" stroke="none" text-anchor="start"></text></g></g></g></g></g></g><g class="node"><g fill="#ffffff" stroke="#000000" stroke-width="4"><circle cx="-336.6067130743288" cy="-121.37618681363656" r="52"/></g><g transform="translate(-336.6067130743288 -121.37618681363656)"><g transform="scale(0.41162733875169777) translate(0 -27)"><g transform="translate(0 0)"><g transform="translate(-105.935546875 0)"><g fill="#ffffff" stroke="#000000" stroke-width="4"><rect x="0" y="0" width="211.87109375" height="54" rx="27" ry="27"/><text xml:space="preserve" x="27" y="38.142578125" stroke="none" font-family="sans-serif" font-size="40" font-weight="normal" fill="#000000">Reaction</text></g></g></g></g><g transform="translate(-39.597979746446654 39.59797974644666)"><g transform="translate(0 0)"><g transform="translate(-95.15625 0)" fill="white"><rect x="0" y="0" width="95.15625" height="38.4" rx="0" ry="0" stroke="none"/><g font-family="sans-serif" font-size="16" font-weight="normal" fill="#000000" text-anchor="end"><text xml:space="preserve" x="86.265625" y="14.05703125" stroke="none">code:</text><text xml:space="preserve" x="90.7109375" y="14.05703125" stroke="none" text-anchor="start"></text><text xml:space="preserve" x="86.265625" y="33.25703125" stroke="none" text-anchor="end">description:</text><text xml:space="preserve" x="90.7109375" y="33.25703125" stroke="none" text-anchor="start"></text></g></g></g></g></g></g></g></svg>