<svg xmlns="http://www.w3.org/2000/svg" width="1939" height="1169" viewBox="0 0 1939 1169"><defs><style type="text/css"/></defs><g transform="translate(-1265.3261898601386 219.7862207361659) scale(1)"><g class="relationship"><g transform="translate(2397.808189429115 201.13121662016) rotate(-9.974621938075637e-15)" stroke-width="5" stroke="#000000"><path d="M 59 0 L 242.65528673857713 0"/><polygon points="-24.8621506177483,0 -27.62461179749811,9.20820393249937 0,0 -27.62461179749811,-9.20820393249937" fill="#000000" transform="translate(267.51743735632544 0) rotate(0)" stroke="none"/></g><g transform="translate(2548.6358327984035 201.13121662015996) rotate(-9.974621938075637e-15) translate(0 -13)"><g transform="translate(0 0)"><g transform="translate(-33.44921875 0)" fill="#ffffff" stroke="#000000" stroke-width="0"><rect x="0" y="0" width="66.8984375" height="26" rx="5" ry="5" stroke="none"/><text xml:space="preserve" x="5" y="17.45703125" stroke="none" text-anchor="left" font-family="sans-serif" font-size="16" font-weight="normal" fill="#000000">CODES</text></g></g></g></g><g class="relationship"><g transform="translate(2397.808189429115 201.13121662016) rotate(179.99999693249006)" stroke-width="5" stroke="#000000"><path d="M 59 0 L 242.6552867385776 0"/><polygon points="-24.8621506177483,0 -27.62461179749811,9.20820393249937 0,0 -27.62461179749811,-9.20820393249937" fill="#000000" transform="translate(267.5174373563259 0) rotate(0)" stroke="none"/></g><g transform="translate(2246.9805460598263 201.1312246951927) rotate(359.9999969324901) translate(0 -13)"><g transform="translate(0 0)"><g transform="translate(-38.78515625 0)" fill="#ffffff" stroke="#000000" stroke-width="0"><rect x="0" y="0" width="77.5703125" height="26" rx="5" ry="5" stroke="none"/><text xml:space="preserve" x="5" y="17.45703125" stroke="none" text-anchor="left" font-family="sans-serif" font-size="16" font-weight="normal" fill="#000000">MAPPED</text></g></g></g></g><g class="relationship"><g transform="translate(2724.3256267854404 201.13121662015993) rotate(0)" stroke-width="5" stroke="#000000"><path d="M 59 0 L 242.65528673857713 0"/><polygon points="-24.8621506177483,0 -27.62461179749811,9.20820393249937 0,0 -27.62461179749811,-9.20820393249937" fill="#000000" transform="translate(267.51743735632544 0) rotate(0)" stroke="none"/></g><g transform="translate(2875.153270154729 201.13121662015993) rotate(0) translate(0 -22.6)"><g transform="translate(0 0)"><g transform="translate(-80.86328125 0)" fill="#ffffff" stroke="#000000" stroke-width="0"><rect x="0" y="0" width="161.7265625" height="26" rx="5" ry="5" stroke="none"/><text xml:space="preserve" x="5" y="17.45703125" stroke="none" text-anchor="left" font-family="sans-serif" font-size="16" font-weight="normal" fill="#000000">ASSOCIATED_WITH</text></g></g><g transform="translate(0 26)"><g transform="translate(-52.46484375 0)" fill="white"><rect x="0" y="0" width="104.9296875" height="19.2" rx="0" ry="0" stroke="none"/><g font-family="sans-serif" font-size="16" font-weight="normal" fill="#000000" text-anchor="end"><text xml:space="preserve" x="56.9140625" y="14.05703125" stroke="none">source:</text><text xml:space="preserve" x="61.359375" y="14.05703125" stroke="none" text-anchor="start">string</text></g></g></g></g></g><g class="relationship"><g transform="translate(2397.808189429115 201.13121662016) rotate(-90)" stroke-width="5" stroke="#000000"><path d="M 59 0 L 242.6552867385776 0"/><polygon points="-24.8621506177483,0 -27.62461179749811,9.20820393249937 0,0 -27.62461179749811,-9.20820393249937" fill="#000000" transform="translate(267.5174373563259 0) rotate(0)" stroke="none"/></g><g transform="translate(2397.808189429115 50.30357325087118) rotate(90) translate(0 -22.6)"><g transform="translate(0 0)"><g transform="translate(-56.7265625 0)" fill="#ffffff" stroke="#000000" stroke-width="0"><rect x="0" y="0" width="113.453125" height="26" rx="5" ry="5" stroke="none"/><text xml:space="preserve" x="5" y="17.45703125" stroke="none" text-anchor="left" font-family="sans-serif" font-size="16" font-weight="normal" fill="#000000">RELATED_TO</text></g></g><g transform="translate(0 26)"><g transform="translate(-52.46484375 0)" fill="white"><rect x="0" y="0" width="104.9296875" height="19.2" rx="0" ry="0" stroke="none"/><g font-family="sans-serif" font-size="16" font-weight="normal" fill="#000000" text-anchor="end"><text xml:space="preserve" x="56.9140625" y="14.05703125" stroke="none">source:</text><text xml:space="preserve" x="61.359375" y="14.05703125" stroke="none" text-anchor="start">string</text></g></g></g></g></g><g class="relationship"><g transform="translate(1418.2558773601386 527.6486539764859) rotate(0)" stroke-width="5" stroke="#000000"><path d="M 59 0 L 242.65528673857713 0"/><polygon points="-24.8621506177483,0 -27.62461179749811,9.20820393249937 0,0 -27.62461179749811,-9.20820393249937" fill="#000000" transform="translate(267.51743735632544 0) rotate(0)" stroke="none"/></g><g transform="translate(1569.0835207294272 527.6486539764859) rotate(0) translate(0 -13)"><g transform="translate(0 0)"><g transform="translate(-58.35546875 0)" fill="#ffffff" stroke="#000000" stroke-width="0"><rect x="0" y="0" width="116.7109375" height="26" rx="5" ry="5" stroke="none"/><text xml:space="preserve" x="5" y="17.45703125" stroke="none" text-anchor="left" font-family="sans-serif" font-size="16" font-weight="normal" fill="#000000">HAS_SAMPLE</text></g></g></g></g><g class="relationship"><g transform="translate(1744.773314716464 527.6486539764859) rotate(0)" stroke-width="5" stroke="#000000"><path d="M 59 0 L 242.65528673857713 0"/><polygon points="-24.8621506177483,0 -27.62461179749811,9.20820393249937 0,0 -27.62461179749811,-9.20820393249937" fill="#000000" transform="translate(267.51743735632544 0) rotate(0)" stroke="none"/></g><g transform="translate(1895.6009580857526 527.6486539764859) rotate(0) translate(0 -13)"><g transform="translate(0 0)"><g transform="translate(-77.90625 0)" fill="#ffffff" stroke="#000000" stroke-width="0"><rect x="0" y="0" width="155.8125" height="26" rx="5" ry="5" stroke="none"/><text xml:space="preserve" x="5" y="17.45703125" stroke="none" text-anchor="left" font-family="sans-serif" font-size="16" font-weight="normal" fill="#000000">HAS_EXPERIMENT</text></g></g></g></g><g class="relationship"><g transform="translate(1744.773314716464 527.6486539764859) rotate(-90)" stroke-width="5" stroke="#000000"><path d="M 59 0 L 242.65528673857713 0"/><polygon points="-24.8621506177483,0 -27.62461179749811,9.20820393249937 0,0 -27.62461179749811,-9.20820393249937" fill="#000000" transform="translate(267.51743735632544 0) rotate(0)" stroke="none"/></g><g transform="translate(1744.773314716464 376.8210106071973) rotate(90) translate(0 -13)"><g transform="translate(0 0)"><g transform="translate(-59.08203125 0)" fill="#ffffff" stroke="#000000" stroke-width="0"><rect x="0" y="0" width="118.1640625" height="26" rx="5" ry="5" stroke="none"/><text xml:space="preserve" x="5" y="17.45703125" stroke="none" text-anchor="left" font-family="sans-serif" font-size="16" font-weight="normal" fill="#000000">TAKEN_FROM</text></g></g></g></g><g class="relationship"><g transform="translate(1744.773314716464 527.6486539764859) rotate(90)" stroke-width="5" stroke="#000000"><path d="M 59 0 L 242.65528673857713 0"/><polygon points="-24.8621506177483,0 -27.62461179749811,9.20820393249937 0,0 -27.62461179749811,-9.20820393249937" fill="#000000" transform="translate(267.51743735632544 0) rotate(0)" stroke="none"/></g><g transform="translate(1744.773314716464 678.4762973457745) rotate(270) translate(0 -13)"><g transform="translate(0 0)"><g transform="translate(-75.2421875 0)" fill="#ffffff" stroke="#000000" stroke-width="0"><rect x="0" y="0" width="150.484375" height="26" rx="5" ry="5" stroke="none"/><text xml:space="preserve" x="5" y="17.45703125" stroke="none" text-anchor="left" font-family="sans-serif" font-size="16" font-weight="normal" fill="#000000">HAS_PHENOTYPE</text></g></g></g></g><g class="relationship"><g transform="translate(2071.1839073601027 854.1660738516728) rotate(-89.98125138044982)" stroke-width="5" stroke="#000000"><path d="M 59 0 L 242.65528673857685 0"/><polygon points="-24.8621506177483,0 -27.62461179749811,9.20820393249937 0,0 -27.62461179749811,-9.20820393249937" fill="#000000" transform="translate(267.51743735632516 0) rotate(0)" stroke="none"/></g><g transform="translate(2071.2332619561435 703.3384385574168) rotate(-89.98125138044982) translate(0 -13)"><g transform="translate(0 0)"><g transform="translate(-50.1953125 0)" fill="#ffffff" stroke="#000000" stroke-width="0"><rect x="0" y="0" width="100.390625" height="26" rx="5" ry="5" stroke="none"/><text xml:space="preserve" x="5" y="17.45703125" stroke="none" text-anchor="left" font-family="sans-serif" font-size="16" font-weight="normal" fill="#000000">COMPARES</text></g></g></g></g><g class="relationship"><g transform="translate(2071.2907520727895 527.6486539764859) rotate(-45.000000000000036)" stroke-width="5" stroke="#000000"><path d="M 59 0 L 377.9032376428749 0"/><polygon points="-24.8621506177483,0 -27.62461179749811,9.20820393249937 0,0 -27.62461179749811,-9.20820393249937" fill="#000000" transform="translate(402.7653882606232 0) rotate(0)" stroke="none"/></g><g transform="translate(2225.759373102607 373.1800329466685) rotate(-45.000000000000036) translate(0 -13)"><g transform="translate(0 0)"><g transform="translate(-51.54296875 0)" fill="#ffffff" stroke="#000000" stroke-width="0"><rect x="0" y="0" width="103.0859375" height="26" rx="5" ry="5" stroke="none"/><text xml:space="preserve" x="5" y="17.45703125" stroke="none" text-anchor="left" font-family="sans-serif" font-size="16" font-weight="normal" fill="#000000">HAS_VALUE</text></g></g></g></g><g class="node"><g fill="#fe9200" stroke="#000000" stroke-width="4"><circle cx="2397.808189429115" cy="201.13121662016" r="52"/></g><g transform="translate(2397.808189429115 201.13121662016)"><g transform="scale(0.5584259505184) translate(0 -27)"><g transform="translate(0 0)"><g transform="translate(-75.92578125 0)"><g fill="#ffffff" stroke="#000000" stroke-width="4"><rect x="0" y="0" width="151.8515625" height="54" rx="27" ry="27"/><text xml:space="preserve" x="27" y="38.142578125" stroke="none" font-family="sans-serif" font-size="40" font-weight="normal" fill="#000000">Gene</text></g></g></g></g><g transform="translate(39.59797974644666 39.597979746446654)"><g transform="translate(0 0)"><g transform="translate(0 0)" fill="white"><rect x="0" y="0" width="107.5859375" height="57.599999999999994" rx="0" ry="0" stroke="none"/><g font-family="sans-serif" font-size="16" font-weight="normal" fill="#000000" text-anchor="end"><text xml:space="preserve" x="59.5703125" y="14.05703125" stroke="none">sid:</text><text xml:space="preserve" x="64.015625" y="14.05703125" stroke="none" text-anchor="start">string</text><text xml:space="preserve" x="59.5703125" y="33.25703125" stroke="none" text-anchor="end">source:</text><text xml:space="preserve" x="64.015625" y="33.25703125" stroke="none" text-anchor="start">string</text><text xml:space="preserve" x="59.5703125" y="52.45703125" stroke="none" text-anchor="end">symbol:</text><text xml:space="preserve" x="64.015625" y="52.45703125" stroke="none" text-anchor="start">string</text></g></g></g></g></g></g><g class="node"><g fill="#fe9200" stroke="#000000" stroke-width="4"><circle cx="2724.3256267854404" cy="201.13121662015993" r="52"/></g><g transform="translate(2724.3256267854404 201.13121662015993)"><g transform="scale(0.47711749366985773) translate(0 -27)"><g transform="translate(0 0)"><g transform="translate(-90.369140625 0)"><g fill="#ffffff" stroke="#000000" stroke-width="4"><rect x="0" y="0" width="180.73828125" height="54" rx="27" ry="27"/><text xml:space="preserve" x="27" y="38.142578125" stroke="none" font-family="sans-serif" font-size="40" font-weight="normal" fill="#000000">Protein</text></g></g></g></g><g transform="translate(3.429011037612589e-15 -94.4)"><g transform="translate(0 0)"><g transform="translate(-52.46484375 0)" fill="white"><rect x="0" y="0" width="104.9296875" height="38.4" rx="0" ry="0" stroke="none"/><g font-family="sans-serif" font-size="16" font-weight="normal" fill="#000000" text-anchor="end"><text xml:space="preserve" x="56.9140625" y="14.05703125" stroke="none">sid:</text><text xml:space="preserve" x="61.359375" y="14.05703125" stroke="none" text-anchor="start">string</text><text xml:space="preserve" x="56.9140625" y="33.25703125" stroke="none" text-anchor="end">source:</text><text xml:space="preserve" x="61.359375" y="33.25703125" stroke="none" text-anchor="start">string</text></g></g></g></g></g></g><g class="node"><g fill="#e27300" stroke="#000000" stroke-width="4"><circle cx="2071.2907520727895" cy="201.13123410129896" r="52"/></g><g transform="translate(2071.2907520727895 201.13123410129896)"><g transform="scale(0.8302074342805233) translate(0 -27)"><g transform="translate(0 0)"><g transform="translate(-47 0)"><g fill="#ffffff" stroke="#000000" stroke-width="4"><rect x="0" y="0" width="94" height="54" rx="27" ry="27"/><text xml:space="preserve" x="27" y="38.142578125" stroke="none" font-family="sans-serif" font-size="40" font-weight="normal" fill="#000000">ID</text></g></g></g></g><g transform="translate(-56 -19.199999999999992)"><g transform="translate(0 0)"><g transform="translate(-104.9296875 0)" fill="white"><rect x="0" y="0" width="104.9296875" height="38.4" rx="0" ry="0" stroke="none"/><g font-family="sans-serif" font-size="16" font-weight="normal" fill="#000000" text-anchor="end"><text xml:space="preserve" x="56.9140625" y="14.05703125" stroke="none">source:</text><text xml:space="preserve" x="61.359375" y="14.05703125" stroke="none" text-anchor="start">string</text><text xml:space="preserve" x="56.9140625" y="33.25703125" stroke="none" text-anchor="end">sid:</text><text xml:space="preserve" x="61.359375" y="33.25703125" stroke="none" text-anchor="start">string</text></g></g></g></g></g></g><g class="node"><g fill="#73d8ff" stroke="#000000" stroke-width="4"><circle cx="3050.843064141766" cy="201.13121662015993" r="52"/></g><g transform="translate(3050.843064141766 201.13121662015993)"><g transform="scale(0.7022551386124949) translate(0 -27)"><g transform="translate(0 0)"><g transform="translate(-58.11328125 0)"><g fill="#ffffff" stroke="#000000" stroke-width="4"><rect x="0" y="0" width="116.2265625" height="54" rx="27" ry="27"/><text xml:space="preserve" x="27" y="38.142578125" stroke="none" font-family="sans-serif" font-size="40" font-weight="normal" fill="#000000">GO</text></g></g></g></g><g transform="translate(56 -19.2)"><g transform="translate(0 0)"><g transform="translate(0 0)" fill="white"><rect x="0" y="0" width="96.9296875" height="38.4" rx="0" ry="0" stroke="none"/><g font-family="sans-serif" font-size="16" font-weight="normal" fill="#000000" text-anchor="end"><text xml:space="preserve" x="48.9140625" y="14.05703125" stroke="none">name:</text><text xml:space="preserve" x="53.359375" y="14.05703125" stroke="none" text-anchor="start">string</text><text xml:space="preserve" x="48.9140625" y="33.25703125" stroke="none" text-anchor="end">sid:</text><text xml:space="preserve" x="53.359375" y="33.25703125" stroke="none" text-anchor="start">string</text></g></g></g></g></g></g><g class="node"><g fill="#73d8ff" stroke="#000000" stroke-width="4"><circle cx="2397.808189429115" cy="-125.38622073616588" r="52"/></g><g transform="translate(2397.808189429115 -125.38622073616588)"><g transform="scale(0.4374765590941863) translate(0 -27)"><g transform="translate(0 0)"><g transform="translate(-99.255859375 0)"><g fill="#ffffff" stroke="#000000" stroke-width="4"><rect x="0" y="0" width="198.51171875" height="54" rx="27" ry="27"/><text xml:space="preserve" x="27" y="38.142578125" stroke="none" font-family="sans-serif" font-size="40" font-weight="normal" fill="#000000">Disease</text></g></g></g></g><g transform="translate(3.429011037612589e-15 -94.4)"><g transform="translate(0 0)"><g transform="translate(-48.46484375 0)" fill="white"><rect x="0" y="0" width="96.9296875" height="38.4" rx="0" ry="0" stroke="none"/><g font-family="sans-serif" font-size="16" font-weight="normal" fill="#000000" text-anchor="end"><text xml:space="preserve" x="48.9140625" y="14.05703125" stroke="none">name:</text><text xml:space="preserve" x="53.359375" y="14.05703125" stroke="none" text-anchor="start">string</text><text xml:space="preserve" x="48.9140625" y="33.25703125" stroke="none" text-anchor="end">sid:</text><text xml:space="preserve" x="53.359375" y="33.25703125" stroke="none" text-anchor="start">string</text></g></g></g></g></g></g><g class="node"><g fill="#fda1ff" stroke="#000000" stroke-width="4"><circle cx="1418.2558773601386" cy="527.6486539764859" r="52"/></g><g transform="translate(1418.2558773601386 527.6486539764859)"><g transform="scale(0.48262082920763166) translate(0 -27)"><g transform="translate(0 0)"><g transform="translate(-89.24609375 0)"><g fill="#ffffff" stroke="#000000" stroke-width="4"><rect x="0" y="0" width="178.4921875" height="54" rx="27" ry="27"/><text xml:space="preserve" x="27" y="38.142578125" stroke="none" font-family="sans-serif" font-size="40" font-weight="normal" fill="#000000">Project</text></g></g></g></g><g transform="translate(-56 -19.199999999999992)"><g transform="translate(0 0)"><g transform="translate(-96.9296875 0)" fill="white"><rect x="0" y="0" width="96.9296875" height="38.4" rx="0" ry="0" stroke="none"/><g font-family="sans-serif" font-size="16" font-weight="normal" fill="#000000" text-anchor="end"><text xml:space="preserve" x="48.9140625" y="14.05703125" stroke="none">name:</text><text xml:space="preserve" x="53.359375" y="14.05703125" stroke="none" text-anchor="start">string</text><text xml:space="preserve" x="48.9140625" y="33.25703125" stroke="none" text-anchor="end">sid:</text><text xml:space="preserve" x="53.359375" y="33.25703125" stroke="none" text-anchor="start">string</text></g></g></g></g></g></g><g class="node"><g fill="#fda1ff" stroke="#000000" stroke-width="4"><circle cx="1744.773314716464" cy="527.6486539764859" r="52"/></g><g transform="translate(1744.773314716464 527.6486539764859)"><g transform="scale(0.45647279741181035) translate(0 -27)"><g transform="translate(0 0)"><g transform="translate(-94.8125 0)"><g fill="#ffffff" stroke="#000000" stroke-width="4"><rect x="0" y="0" width="189.625" height="54" rx="27" ry="27"/><text xml:space="preserve" x="27" y="38.142578125" stroke="none" font-family="sans-serif" font-size="40" font-weight="normal" fill="#000000">Sample</text></g></g></g></g><g transform="translate(-39.597979746446654 -77.99797974644666)"><g transform="translate(0 0)"><g transform="translate(-96.9296875 0)" fill="white"><rect x="0" y="0" width="96.9296875" height="38.4" rx="0" ry="0" stroke="none"/><g font-family="sans-serif" font-size="16" font-weight="normal" fill="#000000" text-anchor="end"><text xml:space="preserve" x="48.9140625" y="14.05703125" stroke="none">name:</text><text xml:space="preserve" x="53.359375" y="14.05703125" stroke="none" text-anchor="start">string</text><text xml:space="preserve" x="48.9140625" y="33.25703125" stroke="none" text-anchor="end">sid:</text><text xml:space="preserve" x="53.359375" y="33.25703125" stroke="none" text-anchor="start">string</text></g></g></g></g></g></g><g class="node"><g fill="#fda1ff" stroke="#000000" stroke-width="4"><circle cx="2071.2907520727895" cy="527.6486539764859" r="52"/></g><g transform="translate(2071.2907520727895 527.6486539764859)"><g transform="scale(0.34360132978623376) translate(0 -27)"><g transform="translate(0 0)"><g transform="translate(-128.15234375 0)"><g fill="#ffffff" stroke="#000000" stroke-width="4"><rect x="0" y="0" width="256.3046875" height="54" rx="27" ry="27"/><text xml:space="preserve" x="27" y="38.142578125" stroke="none" font-family="sans-serif" font-size="40" font-weight="normal" fill="#000000">Experiment</text></g></g></g></g><g transform="translate(39.59797974644666 39.597979746446654)"><g transform="translate(0 0)"><g transform="translate(0 0)" fill="white"><rect x="0" y="0" width="87.1484375" height="38.4" rx="0" ry="0" stroke="none"/><g font-family="sans-serif" font-size="16" font-weight="normal" fill="#000000" text-anchor="end"><text xml:space="preserve" x="39.1328125" y="14.05703125" stroke="none">type:</text><text xml:space="preserve" x="43.578125" y="14.05703125" stroke="none" text-anchor="start">string</text><text xml:space="preserve" x="39.1328125" y="33.25703125" stroke="none" text-anchor="end">sid:</text><text xml:space="preserve" x="43.578125" y="33.25703125" stroke="none" text-anchor="start">string</text></g></g></g></g></g></g><g class="node"><g fill="#73d8ff" stroke="#000000" stroke-width="4"><circle cx="1744.773314716464" cy="201.13121662016044" r="52"/></g><g transform="translate(1744.773314716464 201.13121662016044)"><g transform="scale(0.5036323817222105) translate(0 -27)"><g transform="translate(0 0)"><g transform="translate(-85.173828125 0)"><g fill="#ffffff" stroke="#000000" stroke-width="4"><rect x="0" y="0" width="170.34765625" height="54" rx="27" ry="27"/><text xml:space="preserve" x="27" y="38.142578125" stroke="none" font-family="sans-serif" font-size="40" font-weight="normal" fill="#000000">Tissue</text></g></g></g></g><g transform="translate(3.429011037612589e-15 -94.4)"><g transform="translate(0 0)"><g transform="translate(-48.46484375 0)" fill="white"><rect x="0" y="0" width="96.9296875" height="38.4" rx="0" ry="0" stroke="none"/><g font-family="sans-serif" font-size="16" font-weight="normal" fill="#000000" text-anchor="end"><text xml:space="preserve" x="48.9140625" y="14.05703125" stroke="none">name:</text><text xml:space="preserve" x="53.359375" y="14.05703125" stroke="none" text-anchor="start">string</text><text xml:space="preserve" x="48.9140625" y="33.25703125" stroke="none" text-anchor="end">sid:</text><text xml:space="preserve" x="53.359375" y="33.25703125" stroke="none" text-anchor="start">string</text></g></g></g></g></g></g><g class="node"><g fill="#73d8ff" stroke="#000000" stroke-width="4"><circle cx="1744.773314716464" cy="854.1660913328113" r="52"/></g><g transform="translate(1744.773314716464 854.1660913328113)"><g transform="scale(0.6141710028746507) translate(0 -27)"><g transform="translate(0 0)"><g transform="translate(-68.11328125 0)"><g fill="#ffffff" stroke="#000000" stroke-width="4"><rect x="0" y="0" width="136.2265625" height="54" rx="27" ry="27"/><text xml:space="preserve" x="27" y="38.142578125" stroke="none" font-family="sans-serif" font-size="40" font-weight="normal" fill="#000000">EFO</text></g></g></g></g><g transform="translate(3.429011037612589e-15 56)"><g transform="translate(0 0)"><g transform="translate(-48.46484375 0)" fill="white"><rect x="0" y="0" width="96.9296875" height="38.4" rx="0" ry="0" stroke="none"/><g font-family="sans-serif" font-size="16" font-weight="normal" fill="#000000" text-anchor="end"><text xml:space="preserve" x="48.9140625" y="14.05703125" stroke="none">name:</text><text xml:space="preserve" x="53.359375" y="14.05703125" stroke="none" text-anchor="start">string</text><text xml:space="preserve" x="48.9140625" y="33.25703125" stroke="none" text-anchor="end">sid:</text><text xml:space="preserve" x="53.359375" y="33.25703125" stroke="none" text-anchor="start">string</text></g></g></g></g></g></g><g class="node"><g fill="#ffffff" stroke="#000000" stroke-width="4"><circle cx="2071.1839073601027" cy="854.1660738516728" r="52"/></g><g transform="translate(2071.1839073601027 854.1660738516728)"><g transform="scale(0.32727451623470377) translate(0 -27)"><g transform="translate(0 0)"><g transform="translate(-134.822265625 0)"><g fill="#ffffff" stroke="#000000" stroke-width="4"><rect x="0" y="0" width="269.64453125" height="54" rx="27" ry="27"/><text xml:space="preserve" x="27" y="38.142578125" stroke="none" font-family="sans-serif" font-size="40" font-weight="normal" fill="#000000">Comparison</text></g></g></g></g></g></g></g></svg>