<svg xmlns="http://www.w3.org/2000/svg" width="1297" height="716" viewBox="0 0 1297 716"><defs><style type="text/css"/></defs><g transform="translate(434.76464992425826 349.1) scale(1)"><g class="relationship"><g transform="translate(10.5 249.98475458586893) rotate(-125.81686197268468)" stroke-width="5" stroke="#000000"><path d="M 59 0 L 263.88438325261643 0"/><polygon points="-24.8621506177483,0 -27.62461179749811,9.20820393249937 0,0 -27.62461179749811,-9.20820393249937" fill="#000000" transform="translate(288.7465338703647 0) rotate(0)" stroke="none"/></g><g transform="translate(-83.97538018653859 119.07263224529035) rotate(54.183138027315316) translate(0 -13)"><g transform="translate(0 0)"><g transform="translate(-64.4296875 0)" fill="#ffffff" stroke="#000000" stroke-width="0"><rect x="0" y="0" width="128.859375" height="26" rx="5" ry="5" stroke="none"/><text xml:space="preserve" x="5" y="17.45703125" stroke="none" text-anchor="left" font-family="sans-serif" font-size="16" font-weight="normal" fill="#000000">INSTALLED_ON</text></g></g></g></g><g class="relationship"><g transform="translate(10.5 249.98475458586893) rotate(0)" stroke-width="5" stroke="#000000"><path d="M 59 0 L 232.1378493822517 0"/><polygon points="-24.8621506177483,0 -27.62461179749811,9.20820393249937 0,0 -27.62461179749811,-9.20820393249937" fill="#000000" transform="translate(257 0) rotate(0)" stroke="none"/></g><g transform="translate(156.06892469112586 249.98475458586893) rotate(0) translate(0 -13)"><g transform="translate(0 0)"><g transform="translate(-44.5703125 0)" fill="#ffffff" stroke="#000000" stroke-width="0"><rect x="0" y="0" width="89.140625" height="26" rx="5" ry="5" stroke="none"/><text xml:space="preserve" x="5" y="17.45703125" stroke="none" text-anchor="left" font-family="sans-serif" font-size="16" font-weight="normal" fill="#000000">DELIVERS</text></g></g></g></g><g class="relationship"><g transform="translate(-193 -32) rotate(-45)" stroke-width="5" stroke="#000000"><path d="M 59 0 L 203.93030932517658 0"/><polygon points="-24.8621506177483,0 -27.62461179749811,9.20820393249937 0,0 -27.62461179749811,-9.20820393249937" fill="#000000" transform="translate(228.7924599429249 0) rotate(0)" stroke="none"/></g><g transform="translate(-100.04009764834554 -124.95990235165445) rotate(-45) translate(0 -13)"><g transform="translate(0 0)"><g transform="translate(-54.64453125 0)" fill="#ffffff" stroke="#000000" stroke-width="0"><rect x="0" y="0" width="109.2890625" height="26" rx="5" ry="5" stroke="none"/><text xml:space="preserve" x="5" y="17.45703125" stroke="none" text-anchor="left" font-family="sans-serif" font-size="16" font-weight="normal" fill="#000000">LOCATED_IN</text></g></g></g></g><g class="relationship"><g transform="translate(10.500000000000059 -235.50000000000003) rotate(1.0306607575375447e-14)" stroke-width="5" stroke="#000000"><path d="M 59 0 L 232.13784938225163 0"/><polygon points="-24.8621506177483,0 -27.62461179749811,9.20820393249937 0,0 -27.62461179749811,-9.20820393249937" fill="#000000" transform="translate(256.99999999999994 0) rotate(0)" stroke="none"/></g><g transform="translate(156.06892469112586 -235.5) rotate(1.0306607575375447e-14) translate(0 -13)"><g transform="translate(0 0)"><g transform="translate(-53.0078125 0)" fill="#ffffff" stroke="#000000" stroke-width="0"><rect x="0" y="0" width="106.015625" height="26" rx="5" ry="5" stroke="none"/><text xml:space="preserve" x="5" y="17.45703125" stroke="none" text-anchor="left" font-family="sans-serif" font-size="16" font-weight="normal" fill="#000000">IN_SECTION</text></g></g></g></g><g class="relationship"><g transform="translate(326.5 -235.49999999999997) rotate(-1.0306607575375447e-14)" stroke-width="5" stroke="#000000"><path d="M 59 0 L 232.1378493822517 0"/><polygon points="-24.8621506177483,0 -27.62461179749811,9.20820393249937 0,0 -27.62461179749811,-9.20820393249937" fill="#000000" transform="translate(257 0) rotate(0)" stroke="none"/></g><g transform="translate(472.06892469112586 -235.5) rotate(-1.0306607575375447e-14) translate(0 -13)"><g transform="translate(0 0)"><g transform="translate(-39.67578125 0)" fill="#ffffff" stroke="#000000" stroke-width="0"><rect x="0" y="0" width="79.3515625" height="26" rx="5" ry="5" stroke="none"/><text xml:space="preserve" x="5" y="17.45703125" stroke="none" text-anchor="left" font-family="sans-serif" font-size="16" font-weight="normal" fill="#000000">IN_RACK</text></g></g></g></g><g class="relationship"><g transform="translate(326.5 249.98475458586893) rotate(0)" stroke-width="5" stroke="#000000"><path d="M 59 0 L 232.1378493822517 0"/><polygon points="-24.8621506177483,0 -27.62461179749811,9.20820393249937 0,0 -27.62461179749811,-9.20820393249937" fill="#000000" transform="translate(257 0) rotate(0)" stroke="none"/></g><g transform="translate(472.06892469112586 249.98475458586893) rotate(0) translate(0 -22.6)"><g transform="translate(0 0)"><g transform="translate(-42.34765625 0)" fill="#ffffff" stroke="#000000" stroke-width="0"><rect x="0" y="0" width="84.6953125" height="26" rx="5" ry="5" stroke="none"/><text xml:space="preserve" x="5" y="17.45703125" stroke="none" text-anchor="left" font-family="sans-serif" font-size="16" font-weight="normal" fill="#000000">USED_BY</text></g></g><g transform="translate(0 26)"><g transform="translate(-27.56640625 0)" fill="white"><rect x="0" y="0" width="55.1328125" height="19.2" rx="0" ry="0" stroke="none"/><g font-family="sans-serif" font-size="16" font-weight="normal" fill="#000000" text-anchor="end"><text xml:space="preserve" x="46.2421875" y="14.05703125" stroke="none">since:</text><text xml:space="preserve" x="50.6875" y="14.05703125" stroke="none" text-anchor="start"></text></g></g></g></g></g><g class="relationship"><g transform="translate(-193 -32) rotate(28.493122909383306)" stroke-width="5" stroke="#000000"><path d="M 59 0 L 507.2348395783216 0"/><polygon points="-24.8621506177483,0 -27.62461179749811,9.20820393249937 0,0 -27.62461179749811,-9.20820393249937" fill="#000000" transform="translate(532.0969901960699 0) rotate(0)" stroke="none"/></g><g transform="translate(55.82464641155087 103.06209211410354) rotate(28.493122909383306) translate(0 -32.2)"><g transform="translate(0 0)"><g transform="translate(-27.66796875 0)" fill="#ffffff" stroke="#000000" stroke-width="0"><rect x="0" y="0" width="55.3359375" height="26" rx="5" ry="5" stroke="none"/><text xml:space="preserve" x="5" y="17.45703125" stroke="none" text-anchor="left" font-family="sans-serif" font-size="16" font-weight="normal" fill="#000000">RUNS</text></g></g><g transform="translate(0 26)"><g transform="translate(-49.3515625 0)" fill="white"><rect x="0" y="0" width="98.703125" height="38.4" rx="0" ry="0" stroke="none"/><g font-family="sans-serif" font-size="16" font-weight="normal" fill="#000000" text-anchor="end"><text xml:space="preserve" x="89.8125" y="14.05703125" stroke="none">since:</text><text xml:space="preserve" x="94.2578125" y="14.05703125" stroke="none" text-anchor="start"></text><text xml:space="preserve" x="89.8125" y="33.25703125" stroke="none" text-anchor="end">serviceSLA:</text><text xml:space="preserve" x="94.2578125" y="33.25703125" stroke="none" text-anchor="start"></text></g></g></g></g></g><g class="relationship"><g transform="translate(-193 -32) rotate(-175.40843098634232)" stroke-width="5" stroke="#000000"><path d="M 58.695178092152055 -5.989663490593892 L 95.96898050729241 -9.793341079425122 A 40 40 0 0 1 100.0297693144747 -10 L 118 -10 L 226 -10 A 10 10 0 0 1 236 -1.7763568394002505e-15 L 236 0 L 236 1.7763568394002505e-15 A 10 10 0 0 1 226 10 L 118 10 L 100.0297693144747 10 A 40 40 0 0 0 95.96898050729241 9.793341079425122 L 83.42887907965451 8.513662064369711 L 83.42887907965451 8.513662064369711"/><polygon points="-24.8621506177483,0 -27.62461179749811,9.20820393249937 0,0 -27.62461179749811,-9.20820393249937" fill="#000000" transform="rotate(185.8266894420084) translate(-59 0)" stroke="none"/></g><g transform="translate(-418.2746911519236 -50.091808267982344) rotate(-85.40843098634232) translate(0 -13)"><g transform="translate(0 0)"><g transform="translate(-44.1171875 0)" fill="#ffffff" stroke="#000000" stroke-width="0"><rect x="0" y="0" width="88.234375" height="26" rx="5" ry="5" stroke="none"/><text xml:space="preserve" x="5" y="17.45703125" stroke="none" text-anchor="left" font-family="sans-serif" font-size="16" font-weight="normal" fill="#000000">RUNS_ON</text></g></g></g></g><g class="relationship"><g transform="translate(326.5 -235.49999999999997) rotate(90)" stroke-width="5" stroke="#000000"><path d="M 58.695178092152055 -5.989663490593892 L 95.96898050729241 -9.793341079425122 A 40 40 0 0 1 100.0297693144747 -10 L 118 -10 L 226 -10 A 10 10 0 0 1 236 -1.7763568394002505e-15 L 236 0 L 236 1.7763568394002505e-15 A 10 10 0 0 1 226 10 L 118 10 L 100.0297693144747 10 A 40 40 0 0 0 95.96898050729241 9.793341079425122 L 83.42887907965451 8.513662064369711 L 83.42887907965451 8.513662064369711"/><polygon points="-24.8621506177483,0 -27.62461179749811,9.20820393249937 0,0 -27.62461179749811,-9.20820393249937" fill="#000000" transform="rotate(185.8266894420084) translate(-59 0)" stroke="none"/></g><g transform="translate(326.5 -9.499999999999972) rotate(360) translate(0 -13)"><g transform="translate(0 0)"><g transform="translate(-42.3359375 0)" fill="#ffffff" stroke="#000000" stroke-width="0"><rect x="0" y="0" width="84.671875" height="26" rx="5" ry="5" stroke="none"/><text xml:space="preserve" x="5" y="17.45703125" stroke="none" text-anchor="left" font-family="sans-serif" font-size="16" font-weight="normal" fill="#000000">IN_ROOM</text></g></g></g></g><g class="node"><g fill="#ffffff" stroke="#000000" stroke-width="4"><circle cx="-193" cy="-32" r="52"/></g><g transform="translate(-193 -32)"><g transform="scale(0.3169567903312425) translate(0 -85)"><g transform="translate(0 0)"><g transform="translate(-85.90625 0)"><g fill="#ffffff" stroke="#000000" stroke-width="4"><rect x="0" y="0" width="171.8125" height="54" rx="27" ry="27"/><text xml:space="preserve" x="27" y="38.142578125" stroke="none" font-family="sans-serif" font-size="40" font-weight="normal" fill="#000000">Server</text></g></g><g transform="translate(-57 62)"><g fill="#ffffff" stroke="#000000" stroke-width="4"><rect x="0" y="0" width="114" height="54" rx="27" ry="27"/><text xml:space="preserve" x="27" y="38.142578125" stroke="none" font-family="sans-serif" font-size="40" font-weight="normal" fill="#000000">VM</text></g></g><g transform="translate(-113.71875 124)"><g fill="#ffffff" stroke="#000000" stroke-width="4"><rect x="0" y="0" width="227.4375" height="54" rx="27" ry="27"/><text xml:space="preserve" x="27" y="38.142578125" stroke="none" font-family="sans-serif" font-size="40" font-weight="normal" fill="#000000">Container</text></g></g></g></g><g transform="translate(-56 -38.39999999999999)"><g transform="translate(0 0)"><g transform="translate(-112.9296875 0)" fill="white"><rect x="0" y="0" width="112.9296875" height="76.8" rx="0" ry="0" stroke="none"/><g font-family="sans-serif" font-size="16" font-weight="normal" fill="#000000" text-anchor="end"><text xml:space="preserve" x="104.0390625" y="14.05703125" stroke="none">assetNumber:</text><text xml:space="preserve" x="108.484375" y="14.05703125" stroke="none" text-anchor="start"></text><text xml:space="preserve" x="104.0390625" y="33.25703125" stroke="none" text-anchor="end">name:</text><text xml:space="preserve" x="108.484375" y="33.25703125" stroke="none" text-anchor="start"></text><text xml:space="preserve" x="104.0390625" y="52.45703125" stroke="none" text-anchor="end">fristSeen:</text><text xml:space="preserve" x="108.484375" y="52.45703125" stroke="none" text-anchor="start"></text><text xml:space="preserve" x="104.0390625" y="71.65703125" stroke="none" text-anchor="end">leaseEnd:</text><text xml:space="preserve" x="108.484375" y="71.65703125" stroke="none" text-anchor="start"></text></g></g></g></g></g></g><g class="node"><g fill="#ffffff" stroke="#000000" stroke-width="4"><circle cx="10.5" cy="249.98475458586893" r="52"/></g><g transform="translate(10.5 249.98475458586893)"><g transform="scale(0.41166297284691405) translate(0 -27)"><g transform="translate(0 0)"><g transform="translate(-105.92578125 0)"><g fill="#ffffff" stroke="#000000" stroke-width="4"><rect x="0" y="0" width="211.8515625" height="54" rx="27" ry="27"/><text xml:space="preserve" x="27" y="38.142578125" stroke="none" font-family="sans-serif" font-size="40" font-weight="normal" fill="#000000">Software</text></g></g></g></g><g transform="translate(-39.597979746446654 39.59797974644666)"><g transform="translate(0 0)"><g transform="translate(-103.171875 0)" fill="white"><rect x="0" y="0" width="103.171875" height="76.8" rx="0" ry="0" stroke="none"/><g font-family="sans-serif" font-size="16" font-weight="normal" fill="#000000" text-anchor="end"><text xml:space="preserve" x="94.28125" y="14.05703125" stroke="none">swName:</text><text xml:space="preserve" x="98.7265625" y="14.05703125" stroke="none" text-anchor="start"></text><text xml:space="preserve" x="94.28125" y="33.25703125" stroke="none" text-anchor="end">swVersion:</text><text xml:space="preserve" x="98.7265625" y="33.25703125" stroke="none" text-anchor="start"></text><text xml:space="preserve" x="94.28125" y="52.45703125" stroke="none" text-anchor="end">lastUpdated:</text><text xml:space="preserve" x="98.7265625" y="52.45703125" stroke="none" text-anchor="start"></text><text xml:space="preserve" x="94.28125" y="71.65703125" stroke="none" text-anchor="end">swVendor:</text><text xml:space="preserve" x="98.7265625" y="71.65703125" stroke="none" text-anchor="start"></text></g></g></g></g></g></g><g class="node"><g fill="#ffffff" stroke="#000000" stroke-width="4"><circle cx="326.5" cy="249.98475458586893" r="52"/></g><g transform="translate(326.5 249.98475458586893)"><g transform="scale(0.46152720716361845) translate(0 -27)"><g transform="translate(0 0)"><g transform="translate(-93.689453125 0)"><g fill="#ffffff" stroke="#000000" stroke-width="4"><rect x="0" y="0" width="187.37890625" height="54" rx="27" ry="27"/><text xml:space="preserve" x="27" y="38.142578125" stroke="none" font-family="sans-serif" font-size="40" font-weight="normal" fill="#000000">Service</text></g></g></g></g><g transform="translate(3.429011037612589e-15 56)"><g transform="translate(0 0)"><g transform="translate(-57.79296875 0)" fill="white"><rect x="0" y="0" width="115.5859375" height="38.4" rx="0" ry="0" stroke="none"/><g font-family="sans-serif" font-size="16" font-weight="normal" fill="#000000" text-anchor="end"><text xml:space="preserve" x="106.6953125" y="14.05703125" stroke="none">serviceName:</text><text xml:space="preserve" x="111.140625" y="14.05703125" stroke="none" text-anchor="start"></text><text xml:space="preserve" x="106.6953125" y="33.25703125" stroke="none" text-anchor="end">serviceOwner:</text><text xml:space="preserve" x="111.140625" y="33.25703125" stroke="none" text-anchor="start"></text></g></g></g></g></g></g><g class="node"><g fill="#ffffff" stroke="#000000" stroke-width="4"><circle cx="10.500000000000059" cy="-235.50000000000003" r="52"/></g><g transform="translate(10.500000000000059 -235.50000000000003)"><g transform="scale(0.35233714248078973) translate(0 -27)"><g transform="translate(0 0)"><g transform="translate(-124.83203125 0)"><g fill="#ffffff" stroke="#000000" stroke-width="4"><rect x="0" y="0" width="249.6640625" height="54" rx="27" ry="27"/><text xml:space="preserve" x="27" y="38.142578125" stroke="none" font-family="sans-serif" font-size="40" font-weight="normal" fill="#000000">Datacenter</text></g></g></g></g><g transform="translate(3.429011037612589e-15 -113.6)"><g transform="translate(0 0)"><g transform="translate(-62.70703125 0)" fill="white"><rect x="0" y="0" width="125.4140625" height="57.599999999999994" rx="0" ry="0" stroke="none"/><g font-family="sans-serif" font-size="16" font-weight="normal" fill="#000000" text-anchor="end"><text xml:space="preserve" x="116.5234375" y="14.05703125" stroke="none">dcName:</text><text xml:space="preserve" x="120.96875" y="14.05703125" stroke="none" text-anchor="start"></text><text xml:space="preserve" x="116.5234375" y="33.25703125" stroke="none" text-anchor="end">dcCity:</text><text xml:space="preserve" x="120.96875" y="33.25703125" stroke="none" text-anchor="start"></text><text xml:space="preserve" x="116.5234375" y="52.45703125" stroke="none" text-anchor="end">dcGeoLocation:</text><text xml:space="preserve" x="120.96875" y="52.45703125" stroke="none" text-anchor="start"></text></g></g></g></g></g></g><g class="node"><g fill="#ffffff" stroke="#000000" stroke-width="4"><circle cx="326.5" cy="-235.49999999999997" r="52"/></g><g transform="translate(326.5 -235.49999999999997)"><g transform="scale(0.4122135218278693) translate(0 -56)"><g transform="translate(0 0)"><g transform="translate(-93.708984375 0)"><g fill="#ffffff" stroke="#000000" stroke-width="4"><rect x="0" y="0" width="187.41796875" height="54" rx="27" ry="27"/><text xml:space="preserve" x="27" y="38.142578125" stroke="none" font-family="sans-serif" font-size="40" font-weight="normal" fill="#000000">Section</text></g></g><g transform="translate(-80.349609375 62)"><g fill="#ffffff" stroke="#000000" stroke-width="4"><rect x="0" y="0" width="160.69921875" height="54" rx="27" ry="27"/><text xml:space="preserve" x="27" y="38.142578125" stroke="none" font-family="sans-serif" font-size="40" font-weight="normal" fill="#000000">Room</text></g></g></g></g><g transform="translate(3.429011037612589e-15 56)"><g transform="translate(0 0)"><g transform="translate(-52.484375 0)" fill="white"><rect x="0" y="0" width="104.96875" height="38.4" rx="0" ry="0" stroke="none"/><g font-family="sans-serif" font-size="16" font-weight="normal" fill="#000000" text-anchor="end"><text xml:space="preserve" x="96.078125" y="14.05703125" stroke="none">name:</text><text xml:space="preserve" x="100.5234375" y="14.05703125" stroke="none" text-anchor="start"></text><text xml:space="preserve" x="96.078125" y="33.25703125" stroke="none" text-anchor="end">geoLocation:</text><text xml:space="preserve" x="100.5234375" y="33.25703125" stroke="none" text-anchor="start"></text></g></g></g></g></g></g><g class="node"><g fill="#ffffff" stroke="#000000" stroke-width="4"><circle cx="642.5" cy="-235.50000000000003" r="52"/></g><g transform="translate(642.5 -235.50000000000003)"><g transform="scale(0.5811953708728226) translate(0 -27)"><g transform="translate(0 0)"><g transform="translate(-72.56640625 0)"><g fill="#ffffff" stroke="#000000" stroke-width="4"><rect x="0" y="0" width="145.1328125" height="54" rx="27" ry="27"/><text xml:space="preserve" x="27" y="38.142578125" stroke="none" font-family="sans-serif" font-size="40" font-weight="normal" fill="#000000">Rack</text></g></g></g></g><g transform="translate(56 -28.799999999999997)"><g transform="translate(0 0)"><g transform="translate(0 0)" fill="white"><rect x="0" y="0" width="104.96875" height="57.599999999999994" rx="0" ry="0" stroke="none"/><g font-family="sans-serif" font-size="16" font-weight="normal" fill="#000000" text-anchor="end"><text xml:space="preserve" x="96.078125" y="14.05703125" stroke="none">geoLocation:</text><text xml:space="preserve" x="100.5234375" y="14.05703125" stroke="none" text-anchor="start"></text><text xml:space="preserve" x="96.078125" y="33.25703125" stroke="none" text-anchor="end">rackName:</text><text xml:space="preserve" x="100.5234375" y="33.25703125" stroke="none" text-anchor="start"></text><text xml:space="preserve" x="96.078125" y="52.45703125" stroke="none" text-anchor="end">freeUnits:</text><text xml:space="preserve" x="100.5234375" y="52.45703125" stroke="none" text-anchor="start"></text></g></g></g></g></g></g><g class="node"><g fill="#ffffff" stroke="#000000" stroke-width="4"><circle cx="642.5" cy="249.98475458586893" r="52"/></g><g transform="translate(642.5 249.98475458586893)"><g transform="scale(0.385103906977165) translate(0 -27)"><g transform="translate(0 0)"><g transform="translate(-113.689453125 0)"><g fill="#ffffff" stroke="#000000" stroke-width="4"><rect x="0" y="0" width="227.37890625" height="54" rx="27" ry="27"/><text xml:space="preserve" x="27" y="38.142578125" stroke="none" font-family="sans-serif" font-size="40" font-weight="normal" fill="#000000">Customer</text></g></g></g></g><g transform="translate(56 -28.799999999999997)"><g transform="translate(0 0)"><g transform="translate(0 0)" fill="white"><rect x="0" y="0" width="163.6171875" height="57.599999999999994" rx="0" ry="0" stroke="none"/><g font-family="sans-serif" font-size="16" font-weight="normal" fill="#000000" text-anchor="end"><text xml:space="preserve" x="154.7265625" y="14.05703125" stroke="none">customerName:</text><text xml:space="preserve" x="159.171875" y="14.05703125" stroke="none" text-anchor="start"></text><text xml:space="preserve" x="154.7265625" y="33.25703125" stroke="none" text-anchor="end">customerDept:</text><text xml:space="preserve" x="159.171875" y="33.25703125" stroke="none" text-anchor="start"></text><text xml:space="preserve" x="154.7265625" y="52.45703125" stroke="none" text-anchor="end">customerImportance:</text><text xml:space="preserve" x="159.171875" y="52.45703125" stroke="none" text-anchor="start"></text></g></g></g></g></g></g></g></svg>