<svg xmlns="http://www.w3.org/2000/svg" width="986" height="542" viewBox="0 0 986 542"><defs><style type="text/css"/></defs><g transform="translate(31.571680031385654 347.6723238699368) scale(1)"><g class="relationship"><g stroke-width="5" stroke="#000000"><path d="M 22.42831996861435 -64.44899610313934 L 22.42831996861436 130.63648228140644 A 50 50 0 0 0 72.42831996861436 180.63648228140644 L 322.5472540141056 180.63648228140644 L 572.6661880595968 180.63648228140644 A 50 50 0 0 0 622.6661880595968 130.63648228140644 L 622.6661880595968 130.63648228140642 L 622.6661880595968 130.63648228140642"/><polygon points="-24.8621506177483,0 -27.62461179749811,9.20820393249937 0,0 -27.62461179749811,-9.20820393249937" fill="#000000" transform="translate(622.6661880595968 130.63648228140642) rotate(-90) translate(24.8621506177483 0)" stroke="none"/></g><g transform="translate(322.5472540141056 180.63648228140644) rotate(360) translate(0 -13)"><g transform="translate(0 0)"><g transform="translate(-50.3515625 0)" fill="#ffffff" stroke="#000000" stroke-width="0"><rect x="0" y="0" width="100.703125" height="26" rx="5" ry="5" stroke="none"/><text xml:space="preserve" x="5" y="17.45703125" stroke="none" text-anchor="left" font-family="sans-serif" font-size="16" font-weight="normal" fill="#000000">IN_PIPILINE</text></g></g></g></g><g class="relationship"><g stroke-width="5" stroke="#000000"><path d="M 612.6661880595968 105.77433166365813 L 612.6661880595968 105.77433166365813 A 40 40 0 0 1 572.6661880595968 145.77433166365813 L 416.75356536260267 145.77433166365816 L 260.84094266560857 145.7743316636582 A 40 40 0 0 0 220.84094266560857 105.77433166365819 L 220.8409426656085 -209.81017325218852 L 220.8409426656085 -209.81017325218852"/><polygon points="-24.8621506177483,0 -27.62461179749811,9.20820393249937 0,0 -27.62461179749811,-9.20820393249937" fill="#000000" transform="translate(220.8409426656085 -209.81017325218852) rotate(-90) translate(24.8621506177483 0)" stroke="none"/></g><g transform="translate(416.75356536260267 145.77433166365816) rotate(-8.312093291854571e-15) translate(0 -13)"><g transform="translate(0 0)"><g transform="translate(-42.19140625 0)" fill="#ffffff" stroke="#000000" stroke-width="0"><rect x="0" y="0" width="84.3828125" height="26" rx="5" ry="5" stroke="none"/><text xml:space="preserve" x="5" y="17.45703125" stroke="none" text-anchor="left" font-family="sans-serif" font-size="16" font-weight="normal" fill="#000000">TARGETS</text></g></g></g></g><g class="relationship"><g transform="translate(22.428319968614346 -123.44899610313934) rotate(-40.62714800052394)" stroke-width="5" stroke="#000000"><path d="M 59 0 L 177.5638430429861 0"/><polygon points="-24.8621506177483,0 -27.62461179749811,9.20820393249937 0,0 -27.62461179749811,-9.20820393249937" fill="#000000" transform="translate(202.42599366073438 0) rotate(0)" stroke="none"/></g><g transform="translate(112.19990671134617 -200.46636539415584) rotate(-40.62714800052394) translate(0 -13)"><g transform="translate(0 0)"><g transform="translate(-42.19140625 0)" fill="#ffffff" stroke="#000000" stroke-width="0"><rect x="0" y="0" width="84.3828125" height="26" rx="5" ry="5" stroke="none"/><text xml:space="preserve" x="5" y="17.45703125" stroke="none" text-anchor="left" font-family="sans-serif" font-size="16" font-weight="normal" fill="#000000">TARGETS</text></g></g></g></g><g class="relationship"><g transform="translate(220.8409426656085 -293.6723238699368) rotate(0)" stroke-width="5" stroke="#000000"><path d="M 59 0 L 309.25178581630934 0"/><polygon points="-24.8621506177483,0 -27.62461179749811,9.20820393249937 0,0 -27.62461179749811,-9.20820393249937" fill="#000000" transform="translate(334.1139364340577 0) rotate(0)" stroke="none"/></g><g transform="translate(404.9668355737632 -293.6723238699368) rotate(0) translate(0 -13)"><g transform="translate(0 0)"><g transform="translate(-75.53515625 0)" fill="#ffffff" stroke="#000000" stroke-width="0"><rect x="0" y="0" width="151.0703125" height="26" rx="5" ry="5" stroke="none"/><text xml:space="preserve" x="5" y="17.45703125" stroke="none" text-anchor="left" font-family="sans-serif" font-size="16" font-weight="normal" fill="#000000">INVESTIGATED_IN</text></g></g></g></g><g class="relationship"><g transform="translate(617.6661880595968 46.77433166365813) rotate(-90.62457337639546)" stroke-width="5" stroke="#000000"><path d="M 59 0 L 256.6047333492629 0"/><polygon points="-24.8621506177483,0 -27.62461179749811,9.20820393249937 0,0 -27.62461179749811,-9.20820393249937" fill="#000000" transform="translate(281.46688396701126 0) rotate(0)" stroke="none"/></g><g transform="translate(615.9460403303552 -111.01865937176277) rotate(89.37542662360454) translate(0 -13)"><g transform="translate(0 0)"><g transform="translate(-75.53515625 0)" fill="#ffffff" stroke="#000000" stroke-width="0"><rect x="0" y="0" width="151.0703125" height="26" rx="5" ry="5" stroke="none"/><text xml:space="preserve" x="5" y="17.45703125" stroke="none" text-anchor="left" font-family="sans-serif" font-size="16" font-weight="normal" fill="#000000">INVESTIGATED_IN</text></g></g></g></g><g class="relationship"><g transform="translate(613.9548790996662 -293.6723238699368) rotate(0)" stroke-width="5" stroke="#000000"><path d="M 59 0 L 201.80931705801467 0"/><polygon points="-24.8621506177483,0 -27.62461179749811,9.20820393249937 0,0 -27.62461179749811,-9.20820393249937" fill="#000000" transform="translate(226.67146767576298 0) rotate(0)" stroke="none"/></g><g transform="translate(744.3595376286735 -293.6723238699368) rotate(0) translate(0 -13)"><g transform="translate(0 0)"><g transform="translate(-53.01953125 0)" fill="#ffffff" stroke="#000000" stroke-width="0"><rect x="0" y="0" width="106.0390625" height="26" rx="5" ry="5" stroke="none"/><text xml:space="preserve" x="5" y="17.45703125" stroke="none" text-anchor="left" font-family="sans-serif" font-size="16" font-weight="normal" fill="#000000">HAS_PHASE</text></g></g></g></g><g class="relationship"><g transform="translate(220.8409426656085 -293.6723238699368) rotate(59.99999999999999)" stroke-width="5" stroke="#000000"><path d="M 59 0 L 177.56384304298615 0"/><polygon points="-24.8621506177483,0 -27.62461179749811,9.20820393249937 0,0 -27.62461179749811,-9.20820393249937" fill="#000000" transform="translate(202.42599366073443 0) rotate(0)" stroke="none"/></g><g transform="translate(279.9819034263551 -191.2371750238865) rotate(59.99999999999999) translate(0 -13)"><g transform="translate(0 0)"><g transform="translate(-80.86328125 0)" fill="#ffffff" stroke="#000000" stroke-width="0"><rect x="0" y="0" width="161.7265625" height="26" rx="5" ry="5" stroke="none"/><text xml:space="preserve" x="5" y="17.45703125" stroke="none" text-anchor="left" font-family="sans-serif" font-size="16" font-weight="normal" fill="#000000">ASSOCIATED_WITH</text></g></g></g></g><g class="relationship"><g transform="translate(617.6661880595968 46.77433166365813) rotate(-156.80195567355267)" stroke-width="5" stroke="#000000"><path d="M 59 0 L 205.65816739031308 0"/><polygon points="-24.8621506177483,0 -27.62461179749811,9.20820393249937 0,0 -27.62461179749811,-9.20820393249937" fill="#000000" transform="translate(230.5203180080614 0) rotate(0)" stroke="none"/></g><g transform="translate(496.0360715456283 -5.3514886982142755) rotate(23.19804432644733) translate(0 -13)"><g transform="translate(0 0)"><g transform="translate(-35.96875 0)" fill="#ffffff" stroke="#000000" stroke-width="0"><rect x="0" y="0" width="71.9375" height="26" rx="5" ry="5" stroke="none"/><text xml:space="preserve" x="5" y="17.45703125" stroke="none" text-anchor="left" font-family="sans-serif" font-size="16" font-weight="normal" fill="#000000">TREATS</text></g></g></g></g><g class="relationship"><g transform="translate(613.9548790996662 -293.6723238699368) rotate(139.21212223901873)" stroke-width="5" stroke="#000000"><path d="M 58.695178092152055 -5.989663490593891 L 95.96898050729243 -9.793341079425122 A 40 40 0 0 1 100.02976931447472 -10 L 173.28583015211197 -10 L 246.54189098974925 -10 A 40 40 0 0 1 250.60267979693154 -9.79334107942512 L 263.14278122456943 -8.51366206436971 L 263.14278122456943 -8.51366206436971"/><polygon points="-24.8621506177483,0 -27.62461179749811,9.20820393249937 0,0 -27.62461179749811,-9.20820393249937" fill="#000000" transform="translate(346.57166030422394 0) rotate(5.826689442008371) translate(-59 0)" stroke="none"/></g><g transform="translate(489.28701359446336 -172.90021516149676) rotate(319.21212223901875) translate(0 -13)"><g transform="translate(0 0)"><g transform="translate(-61.015625 0)" fill="#ffffff" stroke="#000000" stroke-width="0"><rect x="0" y="0" width="122.03125" height="26" rx="5" ry="5" stroke="none"/><text xml:space="preserve" x="5" y="17.45703125" stroke="none" text-anchor="left" font-family="sans-serif" font-size="16" font-weight="normal" fill="#000000">FOR_DISEASE</text></g></g></g></g><g class="relationship"><g transform="translate(613.9548790996662 -293.6723238699368) rotate(139.21212223901873)" stroke-width="5" stroke="#000000"><path d="M 58.695178092152055 5.989663490593891 L 95.96898050729243 9.793341079425122 A 40 40 0 0 0 100.02976931447472 10 L 173.28583015211197 10 L 246.54189098974925 10 A 40 40 0 0 0 250.60267979693154 9.79334107942512 L 263.14278122456943 8.51366206436971 L 263.14278122456943 8.51366206436971"/><polygon points="-24.8621506177483,0 -27.62461179749811,9.20820393249937 0,0 -27.62461179749811,-9.20820393249937" fill="#000000" transform="translate(346.57166030422394 0) rotate(-5.826689442008371) translate(-59 0)" stroke="none"/></g><g transform="translate(476.2218050011786 -188.0428808585911) rotate(319.21212223901875) translate(0 -13)"><g transform="translate(0 0)"><g transform="translate(-55.9765625 0)" fill="#ffffff" stroke="#000000" stroke-width="0"><rect x="0" y="0" width="111.953125" height="26" rx="5" ry="5" stroke="none"/><text xml:space="preserve" x="5" y="17.45703125" stroke="none" text-anchor="left" font-family="sans-serif" font-size="16" font-weight="normal" fill="#000000">ASSOCIATED</text></g></g></g></g><g class="node"><g fill="#ffffff" stroke="#000000" stroke-width="4"><circle cx="22.428319968614346" cy="-123.44899610313934" r="52"/></g><g transform="translate(22.428319968614346 -123.44899610313934)"><g transform="scale(0.38864230401678984) translate(0 -27)"><g transform="translate(0 0)"><g transform="translate(-112.595703125 0)"><g fill="#ffffff" stroke="#000000" stroke-width="4"><rect x="0" y="0" width="225.19140625" height="54" rx="27" ry="27"/><text xml:space="preserve" x="27" y="38.142578125" stroke="none" font-family="sans-serif" font-size="40" font-weight="normal" fill="#000000">Company</text></g></g></g></g></g></g><g class="node"><g fill="#ffffff" stroke="#000000" stroke-width="4"><circle cx="617.6661880595968" cy="46.77433166365813" r="52"/></g><g transform="translate(617.6661880595968 46.77433166365813)"><g transform="scale(0.5971896011417263) translate(0 -27)"><g transform="translate(0 0)"><g transform="translate(-70.349609375 0)"><g fill="#ffffff" stroke="#000000" stroke-width="4"><rect x="0" y="0" width="140.69921875" height="54" rx="27" ry="27"/><text xml:space="preserve" x="27" y="38.142578125" stroke="none" font-family="sans-serif" font-size="40" font-weight="normal" fill="#000000">Drug</text></g></g></g></g></g></g><g class="node"><g fill="#ffffff" stroke="#000000" stroke-width="4"><circle cx="220.8409426656085" cy="-293.6723238699368" r="52"/></g><g transform="translate(220.8409426656085 -293.6723238699368)"><g transform="scale(0.4232760430990848) translate(0 -56)"><g transform="translate(0 0)"><g transform="translate(-90.369140625 0)"><g fill="#ffffff" stroke="#000000" stroke-width="4"><rect x="0" y="0" width="180.73828125" height="54" rx="27" ry="27"/><text xml:space="preserve" x="27" y="38.142578125" stroke="none" font-family="sans-serif" font-size="40" font-weight="normal" fill="#000000">Protein</text></g></g><g transform="translate(-75.92578125 62)"><g fill="#ffffff" stroke="#000000" stroke-width="4"><rect x="0" y="0" width="151.8515625" height="54" rx="27" ry="27"/><text xml:space="preserve" x="27" y="38.142578125" stroke="none" font-family="sans-serif" font-size="40" font-weight="normal" fill="#000000">Gene</text></g></g></g></g></g></g><g class="node"><g fill="#ffffff" stroke="#000000" stroke-width="4"><circle cx="613.9548790996662" cy="-293.6723238699368" r="52"/></g><g transform="translate(613.9548790996662 -293.6723238699368)"><g transform="scale(0.33988055690374774) translate(0 -27)"><g transform="translate(0 0)"><g transform="translate(-129.6171875 0)"><g fill="#ffffff" stroke="#000000" stroke-width="4"><rect x="0" y="0" width="259.234375" height="54" rx="27" ry="27"/><text xml:space="preserve" x="27" y="38.142578125" stroke="none" font-family="sans-serif" font-size="40" font-weight="normal" fill="#000000">ClinicalTrial</text></g></g></g></g></g></g><g class="node"><g fill="#ffffff" stroke="#000000" stroke-width="4"><circle cx="899.6263467754292" cy="-293.6723238699368" r="52"/></g><g transform="translate(899.6263467754292 -293.6723238699368)"><g transform="scale(0.5116215580767506) translate(0 -27)"><g transform="translate(0 0)"><g transform="translate(-83.708984375 0)"><g fill="#ffffff" stroke="#000000" stroke-width="4"><rect x="0" y="0" width="167.41796875" height="54" rx="27" ry="27"/><text xml:space="preserve" x="27" y="38.142578125" stroke="none" font-family="sans-serif" font-size="40" font-weight="normal" fill="#000000">Phase</text></g></g></g></g></g></g><g class="node"><g fill="#ffffff" stroke="#000000" stroke-width="4"><circle cx="351.5539394959757" cy="-67.27077215015117" r="52"/></g><g transform="translate(351.5539394959757 -67.27077215015117)"><g transform="scale(0.4374765590941863) translate(0 -27)"><g transform="translate(0 0)"><g transform="translate(-99.255859375 0)"><g fill="#ffffff" stroke="#000000" stroke-width="4"><rect x="0" y="0" width="198.51171875" height="54" rx="27" ry="27"/><text xml:space="preserve" x="27" y="38.142578125" stroke="none" font-family="sans-serif" font-size="40" font-weight="normal" fill="#000000">Disease</text></g></g></g></g></g></g></g></svg>