<svg xmlns="http://www.w3.org/2000/svg" width="1190" height="725" viewBox="0 0 1190 725"><defs><style type="text/css"/></defs><g transform="translate(669.5115812407347 345.90663889511245) scale(1)"><g class="relationship"><g stroke-width="5" stroke="#000000"><path d="M 10.211061843956744 -78.50042762062115 L 10.211061843956744 -78.50042762062117 A 40 40 0 0 1 50.21106184395674 -118.50042762062115 L 72.1421371528309 -118.50042762062115 L 94.07321246170505 -118.50042762062115 A 40 40 0 0 1 134.07321246170505 -78.50042762062117 L 134.07321246170505 -69.00042762062115 L 134.07321246170505 -59.500427620621146 A 40 40 0 0 1 94.07321246170505 -19.500427620621153 L 94.07321246170504 -19.500427620621153 L 94.07321246170504 -19.500427620621153"/><polygon points="-24.8621506177483,0 -27.62461179749811,9.20820393249937 0,0 -27.62461179749811,-9.20820393249937" fill="#000000" transform="translate(94.07321246170504 -19.500427620621153) rotate(180) translate(24.8621506177483 0)" stroke="none"/></g><g transform="translate(134.07321246170505 -69.00042762062115) rotate(90) translate(0 -13)"><g transform="translate(0 0)"><g transform="translate(-28.55859375 0)" fill="#ffffff" stroke="#000000" stroke-width="0"><rect x="0" y="0" width="57.1171875" height="26" rx="5" ry="5" stroke="none"/><text xml:space="preserve" x="5" y="17.45703125" stroke="none" text-anchor="left" font-family="sans-serif" font-size="16" font-weight="normal" fill="#000000">CITES</text></g></g></g></g><g class="relationship"><g transform="translate(10.21106184395674 -19.500427620621153) rotate(-166.9591048179791)" stroke-width="5" stroke="#000000"><path d="M 59 0 L 233.08633952506008 0"/><polygon points="-24.8621506177483,0 -27.62461179749811,9.20820393249937 0,0 -27.62461179749811,-9.20820393249937" fill="#000000" transform="translate(257.9484901428084 0) rotate(0)" stroke="none"/></g><g transform="translate(-132.06554599239718 -52.45455174594915) rotate(13.040895182020884) translate(0 -13)"><g transform="translate(0 0)"><g transform="translate(-59.67578125 0)" fill="#ffffff" stroke="#000000" stroke-width="0"><rect x="0" y="0" width="119.3515625" height="26" rx="5" ry="5" stroke="none"/><text xml:space="preserve" x="5" y="17.45703125" stroke="none" text-anchor="left" font-family="sans-serif" font-size="16" font-weight="normal" fill="#000000">HAS_AUTHOR</text></g></g></g></g><g class="relationship"><g transform="translate(10.21106184395674 -19.500427620621153) rotate(169.02090341503012)" stroke-width="5" stroke="#000000"><path d="M 59 0 L 230.66894946437824 0"/><polygon points="-24.8621506177483,0 -27.62461179749811,9.20820393249937 0,0 -27.62461179749811,-9.20820393249937" fill="#000000" transform="translate(255.53110008212656 0) rotate(0)" stroke="none"/></g><g transform="translate(-131.9724686258035 8.083421532531592) rotate(349.0209034150301) translate(0 -13)"><g transform="translate(0 0)"><g transform="translate(-62.796875 0)" fill="#ffffff" stroke="#000000" stroke-width="0"><rect x="0" y="0" width="125.59375" height="26" rx="5" ry="5" stroke="none"/><text xml:space="preserve" x="5" y="17.45703125" stroke="none" text-anchor="left" font-family="sans-serif" font-size="16" font-weight="normal" fill="#000000">PUBLISHED_IN</text></g></g></g></g><g class="relationship"><g transform="translate(-298.5630910979263 -91.0187321225356) rotate(180)" stroke-width="5" stroke="#000000"><path d="M 59 0 L 233.08633952506008 0"/><polygon points="-24.8621506177483,0 -27.62461179749811,9.20820393249937 0,0 -27.62461179749811,-9.20820393249937" fill="#000000" transform="translate(257.9484901428084 0) rotate(0)" stroke="none"/></g><g transform="translate(-444.60626086045636 -91.01873212253558) rotate(360) translate(0 -13)"><g transform="translate(0 0)"><g transform="translate(-53.171875 0)" fill="#ffffff" stroke="#000000" stroke-width="0"><rect x="0" y="0" width="106.34375" height="26" rx="5" ry="5" stroke="none"/><text xml:space="preserve" x="5" y="17.45703125" stroke="none" text-anchor="left" font-family="sans-serif" font-size="16" font-weight="normal" fill="#000000">IS_PART_OF</text></g></g></g></g><g class="relationship"><g transform="translate(10.21106184395674 -19.500427620621153) rotate(-135)" stroke-width="5" stroke="#000000"><path d="M 59 0 L 184.19363063028624 0"/><polygon points="-24.8621506177483,0 -27.62461179749811,9.20820393249937 0,0 -27.62461179749811,-9.20820393249937" fill="#000000" transform="translate(209.05578124803452 0) rotate(0)" stroke="none"/></g><g transform="translate(-75.7708708360692 -105.48236030064709) rotate(45) translate(0 -13)"><g transform="translate(0 0)"><g transform="translate(-67.234375 0)" fill="#ffffff" stroke="#000000" stroke-width="0"><rect x="0" y="0" width="134.46875" height="26" rx="5" ry="5" stroke="none"/><text xml:space="preserve" x="5" y="17.45703125" stroke="none" text-anchor="left" font-family="sans-serif" font-size="16" font-weight="normal" fill="#000000">HAS_KEYWORD</text></g></g></g></g><g class="relationship"><g transform="translate(10.21106184395674 -19.500427620621153) rotate(-102.93893148687751)" stroke-width="5" stroke="#000000"><path d="M 59 0 L 184.1936306302863 0"/><polygon points="-24.8621506177483,0 -27.62461179749811,9.20820393249937 0,0 -27.62461179749811,-9.20820393249937" fill="#000000" transform="translate(209.05578124803458 0) rotate(0)" stroke="none"/></g><g transform="translate(-17.01597262857549 -138.00981158921905) rotate(77.0610685131225) translate(0 -13)"><g transform="translate(0 0)"><g transform="translate(-56.12109375 0)" fill="#ffffff" stroke="#000000" stroke-width="0"><rect x="0" y="0" width="112.2421875" height="26" rx="5" ry="5" stroke="none"/><text xml:space="preserve" x="5" y="17.45703125" stroke="none" text-anchor="left" font-family="sans-serif" font-size="16" font-weight="normal" fill="#000000">HAS_FIGURE</text></g></g></g></g><g class="relationship"><g stroke-width="5" stroke="#000000"><path d="M -238.33299881278623 -209.04448827736414 L -238.33299881278623 -209.04448827736414 A 40 40 0 0 0 -278.33299881278623 -249.04448827736414 L -278.33299881278623 -270.9755635862383 L -278.33299881278623 -292.90663889511245 A 40 40 0 0 1 -238.33299881278623 -332.90663889511245 L -228.83299881278623 -332.90663889511245 L -219.33299881278623 -332.90663889511245 A 40 40 0 0 1 -179.33299881278623 -292.90663889511245 L -179.33299881278623 -292.90663889511245 L -179.33299881278623 -292.90663889511245"/><polygon points="-24.8621506177483,0 -27.62461179749811,9.20820393249937 0,0 -27.62461179749811,-9.20820393249937" fill="#000000" transform="translate(-179.33299881278623 -292.90663889511245) rotate(90) translate(24.8621506177483 0)" stroke="none"/></g><g transform="translate(-228.83299881278623 -332.90663889511245) rotate(360) translate(0 -13)"><g transform="translate(0 0)"><g transform="translate(-22.34375 0)" fill="#ffffff" stroke="#000000" stroke-width="0"><rect x="0" y="0" width="44.6875" height="26" rx="5" ry="5" stroke="none"/><text xml:space="preserve" x="5" y="17.45703125" stroke="none" text-anchor="left" font-family="sans-serif" font-size="16" font-weight="normal" fill="#000000">IS_A</text></g></g></g></g><g class="relationship"><g transform="translate(10.21106184395674 -19.500427620621153) rotate(90)" stroke-width="5" stroke="#000000"><path d="M 59 0 L 203.75386946323002 0"/><polygon points="-24.8621506177483,0 -27.62461179749811,9.20820393249937 0,0 -27.62461179749811,-9.20820393249937" fill="#000000" transform="translate(228.61602008097833 0) rotate(0)" stroke="none"/></g><g transform="translate(10.211061843956749 111.87650711099384) rotate(270) translate(0 -13)"><g transform="translate(0 0)"><g transform="translate(-47.22265625 0)" fill="#ffffff" stroke="#000000" stroke-width="0"><rect x="0" y="0" width="94.4453125" height="26" rx="5" ry="5" stroke="none"/><text xml:space="preserve" x="5" y="17.45703125" stroke="none" text-anchor="left" font-family="sans-serif" font-size="16" font-weight="normal" fill="#000000">MENTIONS</text></g></g></g></g><g class="relationship"><g transform="translate(10.21106184395674 -19.500427620621153) rotate(148.21666985178322)" stroke-width="5" stroke="#000000"><path d="M 59 0 L 279.3819129760186 0"/><polygon points="-24.8621506177483,0 -27.62461179749811,9.20820393249937 0,0 -27.62461179749811,-9.20820393249937" fill="#000000" transform="translate(304.2440635937669 0) rotate(0)" stroke="none"/></g><g transform="translate(-133.60902913882813 69.6138876549334) rotate(328.21666985178325) translate(0 -13)"><g transform="translate(0 0)"><g transform="translate(-47.22265625 0)" fill="#ffffff" stroke="#000000" stroke-width="0"><rect x="0" y="0" width="94.4453125" height="26" rx="5" ry="5" stroke="none"/><text xml:space="preserve" x="5" y="17.45703125" stroke="none" text-anchor="left" font-family="sans-serif" font-size="16" font-weight="normal" fill="#000000">MENTIONS</text></g></g></g></g><g class="relationship"><g transform="translate(10.21106184395674 -19.500427620621153) rotate(17.508264498721065)" stroke-width="5" stroke="#000000"><path d="M 59 0 L 394.1540786925545 0"/><polygon points="-24.8621506177483,0 -27.62461179749811,9.20820393249937 0,0 -27.62461179749811,-9.20820393249937" fill="#000000" transform="translate(419.0162293103028 0) rotate(0)" stroke="none"/></g><g transform="translate(226.29159497779295 48.663770896794034) rotate(17.508264498721065) translate(0 -13)"><g transform="translate(0 0)"><g transform="translate(-47.22265625 0)" fill="#ffffff" stroke="#000000" stroke-width="0"><rect x="0" y="0" width="94.4453125" height="26" rx="5" ry="5" stroke="none"/><text xml:space="preserve" x="5" y="17.45703125" stroke="none" text-anchor="left" font-family="sans-serif" font-size="16" font-weight="normal" fill="#000000">MENTIONS</text></g></g></g></g><g class="relationship"><g transform="translate(-298.5630910979263 324.3046842829668) rotate(-10.313528522293653)" stroke-width="5" stroke="#000000"><path d="M 59 0 L 229.98286139427492 0"/><polygon points="-24.8621506177483,0 -27.62461179749811,9.20820393249937 0,0 -27.62461179749811,-9.20820393249937" fill="#000000" transform="translate(254.84501201202323 0) rotate(0)" stroke="none"/></g><g transform="translate(-156.406238469151 298.4357300020854) rotate(-10.313528522293653) translate(0 -13)"><g transform="translate(0 0)"><g transform="translate(-80.86328125 0)" fill="#ffffff" stroke="#000000" stroke-width="0"><rect x="0" y="0" width="161.7265625" height="26" rx="5" ry="5" stroke="none"/><text xml:space="preserve" x="5" y="17.45703125" stroke="none" text-anchor="left" font-family="sans-serif" font-size="16" font-weight="normal" fill="#000000">ASSOCIATED_WITH</text></g></g></g></g><g class="relationship"><g transform="translate(10.21106184395674 268.11559246035716) rotate(-162.67973062274112)" stroke-width="5" stroke="#000000"><path d="M 59 0 L 239.57823240608352 0"/><polygon points="-24.8621506177483,0 -27.62461179749811,9.20820393249937 0,0 -27.62461179749811,-9.20820393249937" fill="#000000" transform="translate(264.4403830238318 0) rotate(0)" stroke="none"/></g><g transform="translate(-132.30861973717734 223.67033873515658) rotate(17.320269377258885) translate(0 -13)"><g transform="translate(0 0)"><g transform="translate(-33.44921875 0)" fill="#ffffff" stroke="#000000" stroke-width="0"><rect x="0" y="0" width="66.8984375" height="26" rx="5" ry="5" stroke="none"/><text xml:space="preserve" x="5" y="17.45703125" stroke="none" text-anchor="left" font-family="sans-serif" font-size="16" font-weight="normal" fill="#000000">CODES</text></g></g></g></g><g class="relationship"><g transform="translate(10.21106184395674 268.11559246035716) rotate(-17.508264498721072)" stroke-width="5" stroke="#000000"><path d="M 59 0 L 394.15407869255455 0"/><polygon points="-24.8621506177483,0 -27.62461179749811,9.20820393249937 0,0 -27.62461179749811,-9.20820393249937" fill="#000000" transform="translate(419.01622931030283 0) rotate(0)" stroke="none"/></g></g><g class="node"><g fill="#ffffff" stroke="#000000" stroke-width="4"><circle cx="10.21106184395674" cy="-19.500427620621153" r="52"/></g><g transform="translate(10.21106184395674 -19.500427620621153)"><g transform="scale(0.3523108128578131) translate(0 -27)"><g transform="translate(0 0)"><g transform="translate(-124.841796875 0)"><g fill="#ffffff" stroke="#000000" stroke-width="4"><rect x="0" y="0" width="249.68359375" height="54" rx="27" ry="27"/><text xml:space="preserve" x="27" y="38.142578125" stroke="none" font-family="sans-serif" font-size="40" font-weight="normal" fill="#000000">Publication</text></g></g></g></g><g transform="translate(39.59797974644666 39.597979746446654)"><g transform="translate(0 0)"><g transform="translate(0 0)" fill="white"><rect x="0" y="0" width="74.6953125" height="57.599999999999994" rx="0" ry="0" stroke="none"/><g font-family="sans-serif" font-size="16" font-weight="normal" fill="#000000" text-anchor="end"><text xml:space="preserve" x="65.8046875" y="14.05703125" stroke="none">id:</text><text xml:space="preserve" x="70.25" y="14.05703125" stroke="none" text-anchor="start"></text><text xml:space="preserve" x="65.8046875" y="33.25703125" stroke="none" text-anchor="end">text:</text><text xml:space="preserve" x="70.25" y="33.25703125" stroke="none" text-anchor="start"></text><text xml:space="preserve" x="65.8046875" y="52.45703125" stroke="none" text-anchor="end">abstract:</text><text xml:space="preserve" x="70.25" y="52.45703125" stroke="none" text-anchor="start"></text></g></g></g></g></g></g><g class="node"><g fill="#ffffff" stroke="#000000" stroke-width="4"><circle cx="-298.5630910979263" cy="-91.0187321225356" r="52"/></g><g transform="translate(-298.5630910979263 -91.0187321225356)"><g transform="scale(0.4996226534218527) translate(0 -27)"><g transform="translate(0 0)"><g transform="translate(-85.92578125 0)"><g fill="#ffffff" stroke="#000000" stroke-width="4"><rect x="0" y="0" width="171.8515625" height="54" rx="27" ry="27"/><text xml:space="preserve" x="27" y="38.142578125" stroke="none" font-family="sans-serif" font-size="40" font-weight="normal" fill="#000000">Author</text></g></g></g></g></g></g><g class="node"><g fill="#ffffff" stroke="#000000" stroke-width="4"><circle cx="-298.5630910979263" cy="40.402288460499484" r="52"/></g><g transform="translate(-298.5630910979263 40.402288460499484)"><g transform="scale(0.46655391497850557) translate(0 -27)"><g transform="translate(0 0)"><g transform="translate(-92.595703125 0)"><g fill="#ffffff" stroke="#000000" stroke-width="4"><rect x="0" y="0" width="185.19140625" height="54" rx="27" ry="27"/><text xml:space="preserve" x="27" y="38.142578125" stroke="none" font-family="sans-serif" font-size="40" font-weight="normal" fill="#000000">Journal</text></g></g></g></g></g></g><g class="node"><g fill="#ffffff" stroke="#000000" stroke-width="4"><circle cx="-615.5115812407347" cy="-91.0187321225356" r="52"/></g><g transform="translate(-615.5115812407347 -91.0187321225356)"><g transform="scale(0.38861043178641264) translate(0 -27)"><g transform="translate(0 0)"><g transform="translate(-112.60546875 0)"><g fill="#ffffff" stroke="#000000" stroke-width="4"><rect x="0" y="0" width="225.2109375" height="54" rx="27" ry="27"/><text xml:space="preserve" x="27" y="38.142578125" stroke="none" font-family="sans-serif" font-size="40" font-weight="normal" fill="#000000">Institution</text></g></g></g></g></g></g><g class="node"><g fill="#ffffff" stroke="#000000" stroke-width="4"><circle cx="-179.33299881278623" cy="-209.04448827736414" r="52"/></g><g transform="translate(-179.33299881278623 -209.04448827736414)"><g transform="scale(0.4157647510967721) translate(0 -27)"><g transform="translate(0 0)"><g transform="translate(-104.8125 0)"><g fill="#ffffff" stroke="#000000" stroke-width="4"><rect x="0" y="0" width="209.625" height="54" rx="27" ry="27"/><text xml:space="preserve" x="27" y="38.142578125" stroke="none" font-family="sans-serif" font-size="40" font-weight="normal" fill="#000000">Keyword</text></g></g></g></g></g></g><g class="node"><g fill="#ffffff" stroke="#000000" stroke-width="4"><circle cx="-49.809950858444864" cy="-280.75007813650666" r="52"/></g><g transform="translate(-49.809950858444864 -280.75007813650666)"><g transform="scale(0.5117297041133403) translate(0 -27)"><g transform="translate(0 0)"><g transform="translate(-83.689453125 0)"><g fill="#ffffff" stroke="#000000" stroke-width="4"><rect x="0" y="0" width="167.37890625" height="54" rx="27" ry="27"/><text xml:space="preserve" x="27" y="38.142578125" stroke="none" font-family="sans-serif" font-size="40" font-weight="normal" fill="#000000">Figure</text></g></g></g></g></g></g><g class="node"><g fill="#ffffff" stroke="#000000" stroke-width="4"><circle cx="10.21106184395674" cy="268.11559246035716" r="52"/></g><g transform="translate(10.21106184395674 268.11559246035716)"><g transform="scale(0.5584259505184) translate(0 -27)"><g transform="translate(0 0)"><g transform="translate(-75.92578125 0)"><g fill="#ffffff" stroke="#000000" stroke-width="4"><rect x="0" y="0" width="151.8515625" height="54" rx="27" ry="27"/><text xml:space="preserve" x="27" y="38.142578125" stroke="none" font-family="sans-serif" font-size="40" font-weight="normal" fill="#000000">Gene</text></g></g></g></g></g></g><g class="node"><g fill="#ffffff" stroke="#000000" stroke-width="4"><circle cx="-298.5630910979263" cy="171.82330904353458" r="52"/></g><g transform="translate(-298.5630910979263 171.82330904353458)"><g transform="scale(0.47711749366985773) translate(0 -27)"><g transform="translate(0 0)"><g transform="translate(-90.369140625 0)"><g fill="#ffffff" stroke="#000000" stroke-width="4"><rect x="0" y="0" width="180.73828125" height="54" rx="27" ry="27"/><text xml:space="preserve" x="27" y="38.142578125" stroke="none" font-family="sans-serif" font-size="40" font-weight="normal" fill="#000000">Protein</text></g></g></g></g></g></g><g class="node"><g fill="#ffffff" stroke="#000000" stroke-width="4"><circle cx="466.08250395481605" cy="124.30758241986796" r="52"/></g><g transform="translate(466.08250395481605 124.30758241986796)"><g transform="scale(0.4374765590941863) translate(0 -27)"><g transform="translate(0 0)"><g transform="translate(-99.255859375 0)"><g fill="#ffffff" stroke="#000000" stroke-width="4"><rect x="0" y="0" width="198.51171875" height="54" rx="27" ry="27"/><text xml:space="preserve" x="27" y="38.142578125" stroke="none" font-family="sans-serif" font-size="40" font-weight="normal" fill="#000000">Disease</text></g></g></g></g></g></g><g class="node"><g fill="#ffffff" stroke="#000000" stroke-width="4"><circle cx="-298.5630910979263" cy="324.3046842829668" r="52"/></g><g transform="translate(-298.5630910979263 324.3046842829668)"><g transform="scale(0.6140949132991267) translate(0 -27)"><g transform="translate(0 0)"><g transform="translate(-68.123046875 0)"><g fill="#ffffff" stroke="#000000" stroke-width="4"><rect x="0" y="0" width="136.24609375" height="54" rx="27" ry="27"/><text xml:space="preserve" x="27" y="38.142578125" stroke="none" font-family="sans-serif" font-size="40" font-weight="normal" fill="#000000">SNP</text></g></g></g></g></g></g></g></svg>