<svg xmlns="http://www.w3.org/2000/svg" width="965" height="696" viewBox="0 0 965 696"><defs><style type="text/css"/></defs><g transform="translate(380.57888330128924 338.1098137556568) scale(1)"><g class="relationship"><g transform="translate(-23 0) rotate(-35.841269861887724)" stroke-width="5" stroke="#000000"><path d="M 59 0 L 250.21367967108412 0"/><polygon points="-24.8621506177483,0 -27.62461179749811,9.20820393249937 0,0 -27.62461179749811,-9.20820393249937" fill="#000000" transform="translate(275.07583028883244 0) rotate(0)" stroke="none"/></g><g transform="translate(102.33083906899476 -90.5287562169872) rotate(-35.841269861887724) translate(0 -13)"><g transform="translate(0 0)"><g transform="translate(-50.34765625 0)" fill="#ffffff" stroke="#000000" stroke-width="0"><rect x="0" y="0" width="100.6953125" height="26" rx="5" ry="5" stroke="none"/><text xml:space="preserve" x="5" y="17.45703125" stroke="none" text-anchor="left" font-family="sans-serif" font-size="16" font-weight="normal" fill="#000000">HAS_CLAIM</text></g></g></g></g><g class="relationship"><g stroke-width="5" stroke="#000000"><path d="M 247.81598826616138 -254.6153390779851 L 247.81598826616138 -254.61533907798514 A 40 40 0 0 1 287.81598826616136 -294.61533907798514 L 309.74706357503555 -294.61533907798514 L 331.6781388839097 -294.61533907798514 A 40 40 0 0 1 371.6781388839097 -254.61533907798514 L 371.6781388839097 -247.61533907798514 L 371.6781388839097 -240.6153390779851 A 40 40 0 0 1 331.6781388839097 -200.6153390779851 L 331.6781388839097 -200.6153390779851 L 331.6781388839097 -200.6153390779851"/><polygon points="-24.8621506177483,0 -27.62461179749811,9.20820393249937 0,0 -27.62461179749811,-9.20820393249937" fill="#000000" transform="translate(331.6781388839097 -200.6153390779851) rotate(180) translate(24.8621506177483 0)" stroke="none"/></g><g transform="translate(371.6781388839097 -247.61533907798514) rotate(90) translate(0 -31)"><g transform="translate(0 0)"><g transform="translate(-66.796875 0)" fill="#ffffff" stroke="#000000" stroke-width="0"><rect x="0" y="0" width="133.59375" height="26" rx="5" ry="5" stroke="none"/><text xml:space="preserve" x="5" y="17.45703125" stroke="none" text-anchor="left" font-family="sans-serif" font-size="16" font-weight="normal" fill="#000000">HAS_SUBCLAIM</text></g></g></g></g><g class="relationship"><g transform="translate(-23 0) rotate(-110.63114062242968)" stroke-width="5" stroke="#000000"><path d="M 59 0 L 219.71673268354087 0"/><polygon points="-24.8621506177483,0 -27.62461179749811,9.20820393249937 0,0 -27.62461179749811,-9.20820393249937" fill="#000000" transform="translate(244.57888330128918 0) rotate(0)" stroke="none"/></g><g transform="translate(-72.10296926106022 -130.42105918598602) rotate(69.36885937757033) translate(0 -13)"><g transform="translate(0 0)"><g transform="translate(-28.55859375 0)" fill="#ffffff" stroke="#000000" stroke-width="0"><rect x="0" y="0" width="57.1171875" height="26" rx="5" ry="5" stroke="none"/><text xml:space="preserve" x="5" y="17.45703125" stroke="none" text-anchor="left" font-family="sans-serif" font-size="16" font-weight="normal" fill="#000000">CITES</text></g></g></g></g><g class="relationship"><g stroke-width="5" stroke="#000000"><path d="M 247.81598826616138 -136.6153390779851 L 247.81598826616138 -136.6153390779851 A 40 40 0 0 0 287.81598826616136 -96.61533907798511 L 309.74706357503555 -96.61533907798511 L 331.6781388839097 -96.61533907798511 A 40 40 0 0 0 371.6781388839097 -136.6153390779851 L 371.6781388839097 -143.6153390779851 L 371.6781388839097 -150.6153390779851 A 40 40 0 0 1 331.6781388839097 -190.6153390779851 L 331.6781388839097 -190.6153390779851 L 331.6781388839097 -190.6153390779851"/><polygon points="-24.8621506177483,0 -27.62461179749811,9.20820393249937 0,0 -27.62461179749811,-9.20820393249937" fill="#000000" transform="translate(331.6781388839097 -190.6153390779851) rotate(180) translate(24.8621506177483 0)" stroke="none"/></g><g transform="translate(371.6781388839097 -143.6153390779851) rotate(270) translate(0 -31)"><g transform="translate(0 0)"><g transform="translate(-26.3359375 0)" fill="#ffffff" stroke="#000000" stroke-width="0"><rect x="0" y="0" width="52.671875" height="26" rx="5" ry="5" stroke="none"/><text xml:space="preserve" x="5" y="17.45703125" stroke="none" text-anchor="left" font-family="sans-serif" font-size="16" font-weight="normal" fill="#000000">NEXT</text></g></g></g></g><g class="relationship"><g transform="translate(-23 0) rotate(-157.05500944809256)" stroke-width="5" stroke="#000000"><path d="M 59 0 L 219.71673268354093 0"/><polygon points="-24.8621506177483,0 -27.62461179749811,9.20820393249937 0,0 -27.62461179749811,-9.20820393249937" fill="#000000" transform="translate(244.57888330128924 0) rotate(0)" stroke="none"/></g><g transform="translate(-151.33227226793667 -54.32846550377877) rotate(22.94499055190744) translate(0 -13)"><g transform="translate(0 0)"><g transform="translate(-67.09375 0)" fill="#ffffff" stroke="#000000" stroke-width="0"><rect x="0" y="0" width="134.1875" height="26" rx="5" ry="5" stroke="none"/><text xml:space="preserve" x="5" y="17.45703125" stroke="none" text-anchor="left" font-family="sans-serif" font-size="16" font-weight="normal" fill="#000000">HAS_INVENTOR</text></g></g></g></g><g class="relationship"><g transform="translate(-23 0) rotate(157.05500944809256)" stroke-width="5" stroke="#000000"><path d="M 59 0 L 219.71673268354093 0"/><polygon points="-24.8621506177483,0 -27.62461179749811,9.20820393249937 0,0 -27.62461179749811,-9.20820393249937" fill="#000000" transform="translate(244.57888330128924 0) rotate(0)" stroke="none"/></g><g transform="translate(-151.33227226793667 54.32846550377877) rotate(337.0550094480925) translate(0 -13)"><g transform="translate(0 0)"><g transform="translate(-70.35546875 0)" fill="#ffffff" stroke="#000000" stroke-width="0"><rect x="0" y="0" width="140.7109375" height="26" rx="5" ry="5" stroke="none"/><text xml:space="preserve" x="5" y="17.45703125" stroke="none" text-anchor="left" font-family="sans-serif" font-size="16" font-weight="normal" fill="#000000">HAS_APPLICANT</text></g></g></g></g><g class="relationship"><g transform="translate(-23 0) rotate(-179.99999999999997)" stroke-width="5" stroke="#000000"><path d="M 59 0 L 219.71673268354093 0"/><polygon points="-24.8621506177483,0 -27.62461179749811,9.20820393249937 0,0 -27.62461179749811,-9.20820393249937" fill="#000000" transform="translate(244.57888330128924 0) rotate(0)" stroke="none"/></g><g transform="translate(-162.35836634177048 -7.895402452219776e-14) rotate(2.5444437451708134e-14) translate(0 -13)"><g transform="translate(0 0)"><g transform="translate(-56.5625 0)" fill="#ffffff" stroke="#000000" stroke-width="0"><rect x="0" y="0" width="113.125" height="26" rx="5" ry="5" stroke="none"/><text xml:space="preserve" x="5" y="17.45703125" stroke="none" text-anchor="left" font-family="sans-serif" font-size="16" font-weight="normal" fill="#000000">HAS_OWNER</text></g></g></g></g><g class="relationship"><g transform="translate(-23 0) rotate(-64.20727179676676)" stroke-width="5" stroke="#000000"><path d="M 59 0 L 219.71673268354093 0"/><polygon points="-24.8621506177483,0 -27.62461179749811,9.20820393249937 0,0 -27.62461179749811,-9.20820393249937" fill="#000000" transform="translate(244.57888330128924 0) rotate(0)" stroke="none"/></g><g transform="translate(37.637170637492204 -125.47465005540666) rotate(-64.20727179676676) translate(0 -13)"><g transform="translate(0 0)"><g transform="translate(-80.5703125 0)" fill="#ffffff" stroke="#000000" stroke-width="0"><rect x="0" y="0" width="161.140625" height="26" rx="5" ry="5" stroke="none"/><text xml:space="preserve" x="5" y="17.45703125" stroke="none" text-anchor="left" font-family="sans-serif" font-size="16" font-weight="normal" fill="#000000">HAS_DESCRIPTION</text></g></g></g></g><g class="relationship"><g transform="translate(-23 0) rotate(5.376092120487132e-14)" stroke-width="5" stroke="#000000"><path d="M 59 0 L 250.21367967108412 0"/><polygon points="-24.8621506177483,0 -27.62461179749811,9.20820393249937 0,0 -27.62461179749811,-9.20820393249937" fill="#000000" transform="translate(275.07583028883244 0) rotate(0)" stroke="none"/></g><g transform="translate(131.60683983554208 1.450683838280777e-13) rotate(5.376092120487132e-14) translate(0 -13)"><g transform="translate(0 0)"><g transform="translate(-59.09765625 0)" fill="#ffffff" stroke="#000000" stroke-width="0"><rect x="0" y="0" width="118.1953125" height="26" rx="5" ry="5" stroke="none"/><text xml:space="preserve" x="5" y="17.45703125" stroke="none" text-anchor="left" font-family="sans-serif" font-size="16" font-weight="normal" fill="#000000">BELONGS_TO</text></g></g></g></g><g class="relationship"><g transform="translate(311.07583028883244 3.13465049978228e-13) rotate(0)" stroke-width="5" stroke="#000000"><path d="M 59 0 L 135.34575015801659 0"/><polygon points="-24.8621506177483,0 -27.62461179749811,9.20820393249937 0,0 -27.62461179749811,-9.20820393249937" fill="#000000" transform="translate(160.20790077576487 0) rotate(0)" stroke="none"/></g><g transform="translate(408.2487053678407 3.13465049978228e-13) rotate(0) translate(0 -13)"><g transform="translate(0 0)"><g transform="translate(-41.1640625 0)" fill="#ffffff" stroke="#000000" stroke-width="0"><rect x="0" y="0" width="82.328125" height="26" rx="5" ry="5" stroke="none"/><text xml:space="preserve" x="5" y="17.45703125" stroke="none" text-anchor="left" font-family="sans-serif" font-size="16" font-weight="normal" fill="#000000">PART_OF</text></g></g></g></g><g class="relationship"><g transform="translate(-23 0) rotate(35.264389682754654)" stroke-width="5" stroke="#000000"><path d="M 59 0 L 254.95355540513603 0"/><polygon points="-24.8621506177483,0 -27.62461179749811,9.20820393249937 0,0 -27.62461179749811,-9.20820393249937" fill="#000000" transform="translate(279.81570602288434 0) rotate(0)" stroke="none"/></g><g transform="translate(105.17100227919849 90.6305848630977) rotate(35.264389682754654) translate(0 -13)"><g transform="translate(0 0)"><g transform="translate(-75.68359375 0)" fill="#ffffff" stroke="#000000" stroke-width="0"><rect x="0" y="0" width="151.3671875" height="26" rx="5" ry="5" stroke="none"/><text xml:space="preserve" x="5" y="17.45703125" stroke="none" text-anchor="left" font-family="sans-serif" font-size="16" font-weight="normal" fill="#000000">HAS_OPPOSITION</text></g></g></g></g><g class="relationship"><g transform="translate(530.2837310645973 195.6153390779854) rotate(180)" stroke-width="5" stroke="#000000"><path d="M 59 0 L 192.77971491455034 0"/><polygon points="-24.8621506177483,0 -27.62461179749811,9.20820393249937 0,0 -27.62461179749811,-9.20820393249937" fill="#000000" transform="translate(217.64186553229865 0) rotate(0)" stroke="none"/></g><g transform="translate(404.3938736073221 195.61533907798542) rotate(360) translate(0 -13)"><g transform="translate(0 0)"><g transform="translate(-34.78515625 0)" fill="#ffffff" stroke="#000000" stroke-width="0"><rect x="0" y="0" width="69.5703125" height="26" rx="5" ry="5" stroke="none"/><text xml:space="preserve" x="5" y="17.45703125" stroke="none" text-anchor="left" font-family="sans-serif" font-size="16" font-weight="normal" fill="#000000">RAISED</text></g></g></g></g><g class="relationship"><g transform="translate(-23 0) rotate(90)" stroke-width="5" stroke="#000000"><path d="M 59 0 L 219.71673268354098 0"/><polygon points="-24.8621506177483,0 -27.62461179749811,9.20820393249937 0,0 -27.62461179749811,-9.20820393249937" fill="#000000" transform="translate(244.5788833012893 0) rotate(0)" stroke="none"/></g><g transform="translate(-22.999999999999993 139.35836634177048) rotate(270) translate(0 -13)"><g transform="translate(0 0)"><g transform="translate(-63.6796875 0)" fill="#ffffff" stroke="#000000" stroke-width="0"><rect x="0" y="0" width="127.359375" height="26" rx="5" ry="5" stroke="none"/><text xml:space="preserve" x="5" y="17.45703125" stroke="none" text-anchor="left" font-family="sans-serif" font-size="16" font-weight="normal" fill="#000000">HAS_PRIORITY</text></g></g></g></g><g class="node"><g fill="#ffffff" stroke="#000000" stroke-width="4"><circle cx="-23" cy="0" r="52"/></g><g transform="translate(-23 0)"><g transform="scale(0.5055281014033984) translate(0 -27)"><g transform="translate(0 0)"><g transform="translate(-84.822265625 0)"><g fill="#ffffff" stroke="#000000" stroke-width="4"><rect x="0" y="0" width="169.64453125" height="54" rx="27" ry="27"/><text xml:space="preserve" x="27" y="38.142578125" stroke="none" font-family="sans-serif" font-size="40" font-weight="normal" fill="#000000">Patent</text></g></g></g></g></g></g><g class="node"><g fill="#ffffff" stroke="#000000" stroke-width="4"><circle cx="247.81598826616138" cy="-195.6153390779851" r="52"/></g><g transform="translate(247.81598826616138 -195.6153390779851)"><g transform="scale(0.5444780721192061) translate(0 -27)"><g transform="translate(0 0)"><g transform="translate(-78.11328125 0)"><g fill="#ffffff" stroke="#000000" stroke-width="4"><rect x="0" y="0" width="156.2265625" height="54" rx="27" ry="27"/><text xml:space="preserve" x="27" y="38.142578125" stroke="none" font-family="sans-serif" font-size="40" font-weight="normal" fill="#000000">Claim</text></g></g></g></g></g></g><g class="node"><g fill="#ffffff" stroke="#000000" stroke-width="4"><circle cx="-129.96612601278866" cy="-284.1098137556568" r="52"/></g><g transform="translate(-129.96612601278866 -284.1098137556568)"><g transform="scale(0.3523108128578131) translate(0 -27)"><g transform="translate(0 0)"><g transform="translate(-124.841796875 0)"><g fill="#ffffff" stroke="#000000" stroke-width="4"><rect x="0" y="0" width="249.68359375" height="54" rx="27" ry="27"/><text xml:space="preserve" x="27" y="38.142578125" stroke="none" font-family="sans-serif" font-size="40" font-weight="normal" fill="#000000">Publication</text></g></g></g></g></g></g><g class="node"><g fill="#ffffff" stroke="#000000" stroke-width="4"><circle cx="-302.5595910694878" cy="-118.34937020330338" r="52"/></g><g transform="translate(-302.5595910694878 -118.34937020330338)"><g transform="scale(0.4374364855992301) translate(0 -27)"><g transform="translate(0 0)"><g transform="translate(-99.265625 0)"><g fill="#ffffff" stroke="#000000" stroke-width="4"><rect x="0" y="0" width="198.53125" height="54" rx="27" ry="27"/><text xml:space="preserve" x="27" y="38.142578125" stroke="none" font-family="sans-serif" font-size="40" font-weight="normal" fill="#000000">Inventor</text></g></g></g></g></g></g><g class="node"><g fill="#ffffff" stroke="#000000" stroke-width="4"><circle cx="-302.5595910694878" cy="118.34937020330337" r="52"/></g><g transform="translate(-302.5595910694878 118.34937020330337)"><g transform="scale(0.39978114178669455) translate(0 -27)"><g transform="translate(0 0)"><g transform="translate(-109.275390625 0)"><g fill="#ffffff" stroke="#000000" stroke-width="4"><rect x="0" y="0" width="218.55078125" height="54" rx="27" ry="27"/><text xml:space="preserve" x="27" y="38.142578125" stroke="none" font-family="sans-serif" font-size="40" font-weight="normal" fill="#000000">Applicant</text></g></g></g></g></g></g><g class="node"><g fill="#ffffff" stroke="#000000" stroke-width="4"><circle cx="-326.57888330128924" cy="-2.1608492430140658e-13" r="52"/></g><g transform="translate(-326.57888330128924 -2.1608492430140658e-13)"><g transform="scale(0.4997260343157584) translate(0 -27)"><g transform="translate(0 0)"><g transform="translate(-85.90625 0)"><g fill="#ffffff" stroke="#000000" stroke-width="4"><rect x="0" y="0" width="171.8125" height="54" rx="27" ry="27"/><text xml:space="preserve" x="27" y="38.142578125" stroke="none" font-family="sans-serif" font-size="40" font-weight="normal" fill="#000000">Owner</text></g></g></g></g></g></g><g class="node"><g fill="#ffffff" stroke="#000000" stroke-width="4"><circle cx="109.09228144605515" cy="-273.3345341679934" r="52"/></g><g transform="translate(109.09228144605515 -273.3345341679934)"><g transform="scale(0.34648281861360414) translate(0 -27)"><g transform="translate(0 0)"><g transform="translate(-127.0390625 0)"><g fill="#ffffff" stroke="#000000" stroke-width="4"><rect x="0" y="0" width="254.078125" height="54" rx="27" ry="27"/><text xml:space="preserve" x="27" y="38.142578125" stroke="none" font-family="sans-serif" font-size="40" font-weight="normal" fill="#000000">Description</text></g></g></g></g></g></g><g class="node"><g fill="#ffffff" stroke="#000000" stroke-width="4"><circle cx="311.07583028883244" cy="3.13465049978228e-13" r="52"/></g><g transform="translate(311.07583028883244 3.13465049978228e-13)"><g transform="scale(0.49982945588689165) translate(0 -27)"><g transform="translate(0 0)"><g transform="translate(-85.88671875 0)"><g fill="#ffffff" stroke="#000000" stroke-width="4"><rect x="0" y="0" width="171.7734375" height="54" rx="27" ry="27"/><text xml:space="preserve" x="27" y="38.142578125" stroke="none" font-family="sans-serif" font-size="40" font-weight="normal" fill="#000000">Family</text></g></g></g></g></g></g><g class="node"><g fill="#ffffff" stroke="#000000" stroke-width="4"><circle cx="530.2837310645973" cy="3.13465049978228e-13" r="52"/></g><g transform="translate(530.2837310645973 3.13465049978228e-13)"><g transform="scale(0.3325530865875513) translate(0 -27)"><g transform="translate(0 0)"><g transform="translate(-132.595703125 0)"><g fill="#ffffff" stroke="#000000" stroke-width="4"><rect x="0" y="0" width="265.19140625" height="54" rx="27" ry="27"/><text xml:space="preserve" x="27" y="38.142578125" stroke="none" font-family="sans-serif" font-size="40" font-weight="normal" fill="#000000">Superfamily</text></g></g></g></g></g></g><g class="node"><g fill="#ffffff" stroke="#000000" stroke-width="4"><circle cx="253.64186553229865" cy="195.6153390779854" r="52"/></g><g transform="translate(253.64186553229865 195.6153390779854)"><g transform="scale(0.35841505814443514) translate(0 -27)"><g transform="translate(0 0)"><g transform="translate(-122.615234375 0)"><g fill="#ffffff" stroke="#000000" stroke-width="4"><rect x="0" y="0" width="245.23046875" height="54" rx="27" ry="27"/><text xml:space="preserve" x="27" y="38.142578125" stroke="none" font-family="sans-serif" font-size="40" font-weight="normal" fill="#000000">Opposition</text></g></g></g></g></g></g><g class="node"><g fill="#ffffff" stroke="#000000" stroke-width="4"><circle cx="530.2837310645973" cy="195.6153390779854" r="52"/></g><g transform="translate(530.2837310645973 195.6153390779854)"><g transform="scale(0.3814123455096048) translate(0 -27)"><g transform="translate(0 0)"><g transform="translate(-114.8515625 0)"><g fill="#ffffff" stroke="#000000" stroke-width="4"><rect x="0" y="0" width="229.703125" height="54" rx="27" ry="27"/><text xml:space="preserve" x="27" y="38.142578125" stroke="none" font-family="sans-serif" font-size="40" font-weight="normal" fill="#000000">Opponent</text></g></g></g></g></g></g><g class="node"><g fill="#ffffff" stroke="#000000" stroke-width="4"><circle cx="-23" cy="303.5788833012893" r="52"/></g><g transform="translate(-23 303.5788833012893)"><g transform="scale(0.48271761141186925) translate(0 -27)"><g transform="translate(0 0)"><g transform="translate(-89.2265625 0)"><g fill="#ffffff" stroke="#000000" stroke-width="4"><rect x="0" y="0" width="178.453125" height="54" rx="27" ry="27"/><text xml:space="preserve" x="27" y="38.142578125" stroke="none" font-family="sans-serif" font-size="40" font-weight="normal" fill="#000000">Priority</text></g></g></g></g></g></g></g></svg>