<svg xmlns="http://www.w3.org/2000/svg" width="1895" height="857" viewBox="0 0 1895 857"><defs><style type="text/css"/></defs><g transform="translate(872.8387055929524 530.3532788011581) scale(1)"><g class="relationship"><g transform="translate(-632.7762055929524 131.87938774621205) rotate(-24.872130820575702)" stroke-width="5" stroke="#000000"><path d="M 59 0 L 419.6689184217587 0"/><polygon points="-24.8621506177483,0 -27.62461179749811,9.20820393249937 0,0 -27.62461179749811,-9.20820393249937" fill="#000000" transform="translate(444.531069039507 0) rotate(0)" stroke="none"/></g><g transform="translate(-415.64032799431396 31.216613965468227) rotate(-24.872130820575702) translate(0 -13)"><g transform="translate(0 0)"><g transform="translate(-66.44140625 0)" fill="#ffffff" stroke="#000000" stroke-width="0"><rect x="0" y="0" width="132.8828125" height="26" rx="5" ry="5" stroke="none"/><text xml:space="preserve" x="5" y="17" stroke="none" text-anchor="left" font-family="sans-serif" font-size="16" font-weight="normal" fill="#000000">HAS_ENCOUNTER</text></g></g></g></g><g class="relationship"><g transform="translate(-175.94829650469882 -79.90304534521107) rotate(-45)" stroke-width="5" stroke="#000000"><path d="M 59 0 L 419.66891842175875 0"/><polygon points="-24.8621506177483,0 -27.62461179749811,9.20820393249937 0,0 -27.62461179749811,-9.20820393249937" fill="#000000" transform="translate(444.53106903950703 0) rotate(0)" stroke="none"/></g><g transform="translate(-6.713277425070828 -249.13806442483903) rotate(-45) translate(0 -13)"><g transform="translate(0 0)"><g transform="translate(-45.796875 0)" fill="#ffffff" stroke="#000000" stroke-width="0"><rect x="0" y="0" width="91.59375" height="26" rx="5" ry="5" stroke="none"/><text xml:space="preserve" x="5" y="17" stroke="none" text-anchor="left" font-family="sans-serif" font-size="16" font-weight="normal" fill="#000000">DIAGNOSED</text></g></g></g></g><g class="relationship"><g transform="translate(-175.94829650469882 -79.90304534521107) rotate(46.640915309822475)" stroke-width="5" stroke="#000000"><path d="M 59 0 L 345.3197121651496 0"/><polygon points="-24.8621506177483,0 -27.62461179749811,9.20820393249937 0,0 -27.62461179749811,-9.20820393249937" fill="#000000" transform="translate(370.1818627828979 0) rotate(0)" stroke="none"/></g><g transform="translate(-37.151710650264135 67.08033863569986) rotate(46.640915309822475) translate(0 -13)"><g transform="translate(0 0)"><g transform="translate(-55.00390625 0)" fill="#ffffff" stroke="#000000" stroke-width="0"><rect x="0" y="0" width="110.0078125" height="26" rx="5" ry="5" stroke="none"/><text xml:space="preserve" x="5" y="17" stroke="none" text-anchor="left" font-family="sans-serif" font-size="16" font-weight="normal" fill="#000000">ATTENDED_BY</text></g></g></g></g><g class="relationship"><g transform="translate(118.71444425517274 232.1401256258565) rotate(180)" stroke-width="5" stroke="#000000"><path d="M 59 0 L 188.85229363742445 0"/><polygon points="-24.8621506177483,0 -27.62461179749811,9.20820393249937 0,0 -27.62461179749811,-9.20820393249937" fill="#000000" transform="translate(213.71444425517274 0) rotate(0)" stroke="none"/></g><g transform="translate(-5.21170256353949 232.14012562585654) rotate(360) translate(0 -13)"><g transform="translate(0 0)"><g transform="translate(-51.40625 0)" fill="#ffffff" stroke="#000000" stroke-width="0"><rect x="0" y="0" width="102.8125" height="26" rx="5" ry="5" stroke="none"/><text xml:space="preserve" x="5" y="17" stroke="none" text-anchor="left" font-family="sans-serif" font-size="16" font-weight="normal" fill="#000000">BELONGS_TO</text></g></g></g></g><g class="relationship"><g transform="translate(118.71444425517274 232.1401256258565) rotate(0)" stroke-width="5" stroke="#000000"><path d="M 59 0 L 188.85229363742445 0"/><polygon points="-24.8621506177483,0 -27.62461179749811,9.20820393249937 0,0 -27.62461179749811,-9.20820393249937" fill="#000000" transform="translate(213.71444425517274 0) rotate(0)" stroke="none"/></g><g transform="translate(242.64059107388496 232.1401256258565) rotate(0) translate(0 -13)"><g transform="translate(0 0)"><g transform="translate(-62.8046875 0)" fill="#ffffff" stroke="#000000" stroke-width="0"><rect x="0" y="0" width="125.609375" height="26" rx="5" ry="5" stroke="none"/><text xml:space="preserve" x="5" y="17" stroke="none" text-anchor="left" font-family="sans-serif" font-size="16" font-weight="normal" fill="#000000">HAS_SPECIALITY</text></g></g></g></g><g class="relationship"><g transform="translate(-175.94829650469882 -79.90304534521107) rotate(-7.540887508622962)" stroke-width="5" stroke="#000000"><path d="M 59 0 L 213.37122409518278 0"/><polygon points="-24.8621506177483,0 -27.62461179749811,9.20820393249937 0,0 -27.62461179749811,-9.20820393249937" fill="#000000" transform="translate(238.2333747129311 0) rotate(0)" stroke="none"/></g><g transform="translate(-40.94049081410162 -97.77518375635333) rotate(-7.540887508622962) translate(0 -13)"><g transform="translate(0 0)"><g transform="translate(-47.63671875 0)" fill="#ffffff" stroke="#000000" stroke-width="0"><rect x="0" y="0" width="95.2734375" height="26" rx="5" ry="5" stroke="none"/><text xml:space="preserve" x="5" y="17" stroke="none" text-anchor="left" font-family="sans-serif" font-size="16" font-weight="normal" fill="#000000">PRESCRIBED</text></g></g></g></g><g class="relationship"><g transform="translate(-175.94829650469882 -79.90304534521107) rotate(14.484480671880142)" stroke-width="5" stroke="#000000"><path d="M 59 0 L 461.9530359685725 0"/><polygon points="-24.8621506177483,0 -27.62461179749811,9.20820393249937 0,0 -27.62461179749811,-9.20820393249937" fill="#000000" transform="translate(486.8151865863208 0) rotate(0)" stroke="none"/></g><g transform="translate(76.24908570236877 -14.753242359166137) rotate(14.484480671880142) translate(0 -13)"><g transform="translate(0 0)"><g transform="translate(-23.48828125 0)" fill="#ffffff" stroke="#000000" stroke-width="0"><rect x="0" y="0" width="46.9765625" height="26" rx="5" ry="5" stroke="none"/><text xml:space="preserve" x="5" y="17" stroke="none" text-anchor="left" font-family="sans-serif" font-size="16" font-weight="normal" fill="#000000">NEXT</text></g></g></g></g><g class="relationship"><g transform="translate(352.51838560227117 56.6150260267172) rotate(143.1031132703628)" stroke-width="5" stroke="#000000"><path d="M 59 0 L 208.49609465459767 0"/><polygon points="-24.8621506177483,0 -27.62461179749811,9.20820393249937 0,0 -27.62461179749811,-9.20820393249937" fill="#000000" transform="translate(233.35824527234598 0) rotate(0)" stroke="none"/></g><g transform="translate(245.5577606899468 136.91424695837023) rotate(323.10311327036277) translate(0 -13)"><g transform="translate(0 0)"><g transform="translate(-55.00390625 0)" fill="#ffffff" stroke="#000000" stroke-width="0"><rect x="0" y="0" width="110.0078125" height="26" rx="5" ry="5" stroke="none"/><text xml:space="preserve" x="5" y="17" stroke="none" text-anchor="left" font-family="sans-serif" font-size="16" font-weight="normal" fill="#000000">ATTENDED_BY</text></g></g></g></g><g class="relationship"><g transform="translate(352.51838560227117 56.6150260267172) rotate(-109.29186400682332)" stroke-width="5" stroke="#000000"><path d="M 59 0 L 438.01040727971144 0"/><polygon points="-24.8621506177483,0 -27.62461179749811,9.20820393249937 0,0 -27.62461179749811,-9.20820393249937" fill="#000000" transform="translate(462.8725578974597 0) rotate(0)" stroke="none"/></g><g transform="translate(270.4171445339453 -177.93608237212794) rotate(70.7081359931767) translate(0 -13)"><g transform="translate(0 0)"><g transform="translate(-45.796875 0)" fill="#ffffff" stroke="#000000" stroke-width="0"><rect x="0" y="0" width="91.59375" height="26" rx="5" ry="5" stroke="none"/><text xml:space="preserve" x="5" y="17" stroke="none" text-anchor="left" font-family="sans-serif" font-size="16" font-weight="normal" fill="#000000">DIAGNOSED</text></g></g></g></g><g class="relationship"><g transform="translate(-632.7762055929524 131.87938774621205) rotate(-4.368208212669849)" stroke-width="5" stroke="#000000"><path d="M 59 0 L 904.3028940906778 0"/><polygon points="-24.8621506177483,0 -27.62461179749811,9.20820393249937 0,0 -27.62461179749811,-9.20820393249937" fill="#000000" transform="translate(929.1650447084261 0) rotate(0)" stroke="none"/></g><g transform="translate(-152.5238751179818 95.19402943763617) rotate(-4.368208212669849) translate(0 -13)"><g transform="translate(0 0)"><g transform="translate(-66.44140625 0)" fill="#ffffff" stroke="#000000" stroke-width="0"><rect x="0" y="0" width="132.8828125" height="26" rx="5" ry="5" stroke="none"/><text xml:space="preserve" x="5" y="17" stroke="none" text-anchor="left" font-family="sans-serif" font-size="16" font-weight="normal" fill="#000000">HAS_ENCOUNTER</text></g></g></g></g><g class="relationship"><g transform="translate(352.51838560227117 56.6150260267172) rotate(-143.10311327036277)" stroke-width="5" stroke="#000000"><path d="M 59 0 L 208.49609465459767 0"/><polygon points="-24.8621506177483,0 -27.62461179749811,9.20820393249937 0,0 -27.62461179749811,-9.20820393249937" fill="#000000" transform="translate(233.35824527234598 0) rotate(0)" stroke="none"/></g><g transform="translate(245.55776068994686 -23.68419490493588) rotate(36.89688672963723) translate(0 -13)"><g transform="translate(0 0)"><g transform="translate(-47.63671875 0)" fill="#ffffff" stroke="#000000" stroke-width="0"><rect x="0" y="0" width="95.2734375" height="26" rx="5" ry="5" stroke="none"/><text xml:space="preserve" x="5" y="17" stroke="none" text-anchor="left" font-family="sans-serif" font-size="16" font-weight="normal" fill="#000000">PRESCRIBED</text></g></g></g></g><g class="relationship"><g transform="translate(352.51838560227117 56.6150260267172) rotate(-18.18894073572445)" stroke-width="5" stroke="#000000"><path d="M 59 0 L 208.49609465459767 0"/><polygon points="-24.8621506177483,0 -27.62461179749811,9.20820393249937 0,0 -27.62461179749811,-9.20820393249937" fill="#000000" transform="translate(233.35824527234598 0) rotate(0)" stroke="none"/></g><g transform="translate(479.58335341955114 14.865365938771866) rotate(-18.18894073572445) translate(0 -13)"><g transform="translate(0 0)"><g transform="translate(-70.52734375 0)" fill="#ffffff" stroke="#000000" stroke-width="0"><rect x="0" y="0" width="141.0546875" height="26" rx="5" ry="5" stroke="none"/><text xml:space="preserve" x="5" y="17" stroke="none" text-anchor="left" font-family="sans-serif" font-size="16" font-weight="normal" fill="#000000">HAS_OBSERVATION</text></g></g></g></g><g class="relationship"><g transform="translate(352.51838560227117 56.6150260267172) rotate(-72.38437936611957)" stroke-width="5" stroke="#000000"><path d="M 59 0 L 235.98073961263233 0"/><polygon points="-24.8621506177483,0 -27.62461179749811,9.20820393249937 0,0 -27.62461179749811,-9.20820393249937" fill="#000000" transform="translate(260.84289023038065 0) rotate(0)" stroke="none"/></g><g transform="translate(397.15335924155846 -83.9592543869631) rotate(-72.38437936611957) translate(0 -13)"><g transform="translate(0 0)"><g transform="translate(-70.52734375 0)" fill="#ffffff" stroke="#000000" stroke-width="0"><rect x="0" y="0" width="141.0546875" height="26" rx="5" ry="5" stroke="none"/><text xml:space="preserve" x="5" y="17" stroke="none" text-anchor="left" font-family="sans-serif" font-size="16" font-weight="normal" fill="#000000">HAS_OBSERVATION</text></g></g></g></g><g class="relationship"><g transform="translate(-175.94829650469882 -79.90304534521107) rotate(-114.18549760825341)" stroke-width="5" stroke="#000000"><path d="M 59 0 L 100.66142879868875 0"/><polygon points="-24.8621506177483,0 -27.62461179749811,9.20820393249937 0,0 -27.62461179749811,-9.20820393249937" fill="#000000" transform="translate(125.52357941643703 0) rotate(0)" stroke="none"/></g><g transform="translate(-208.65431351493604 -152.72652653662186) rotate(65.8145023917466) translate(0 -13)"><g transform="translate(0 0)"><g transform="translate(-70.52734375 0)" fill="#ffffff" stroke="#000000" stroke-width="0"><rect x="0" y="0" width="141.0546875" height="26" rx="5" ry="5" stroke="none"/><text xml:space="preserve" x="5" y="17" stroke="none" text-anchor="left" font-family="sans-serif" font-size="16" font-weight="normal" fill="#000000">HAS_OBSERVATION</text></g></g></g></g><g class="relationship"><g transform="translate(-175.94829650469882 -79.90304534521107) rotate(-171.98382129583584)" stroke-width="5" stroke="#000000"><path d="M 59 0 L 195.85292768951953 0"/><polygon points="-24.8621506177483,0 -27.62461179749811,9.20820393249937 0,0 -27.62461179749811,-9.20820393249937" fill="#000000" transform="translate(220.71507830726785 0) rotate(0)" stroke="none"/></g><g transform="translate(-302.12964205836306 -97.67301220636861) rotate(8.016178704164156) translate(0 -13)"><g transform="translate(0 0)"><g transform="translate(-70.52734375 0)" fill="#ffffff" stroke="#000000" stroke-width="0"><rect x="0" y="0" width="141.0546875" height="26" rx="5" ry="5" stroke="none"/><text xml:space="preserve" x="5" y="17" stroke="none" text-anchor="left" font-family="sans-serif" font-size="16" font-weight="normal" fill="#000000">HAS_OBSERVATION</text></g></g></g></g><g class="node"><g fill="#ffffff" stroke="#000000" stroke-width="4"><circle cx="-632.7762055929524" cy="131.87938774621205" r="52"/></g><g transform="translate(-632.7762055929524 131.87938774621205)"><g transform="scale(0.473499208785343) translate(0 -27)"><g transform="translate(0 0)"><g transform="translate(-91.12109375 0)"><g fill="#ffffff" stroke="#000000" stroke-width="4"><rect x="0" y="0" width="182.2421875" height="54" rx="27" ry="27"/><text xml:space="preserve" x="27" y="37.5" stroke="none" font-family="sans-serif" font-size="40" font-weight="normal" fill="#000000">Patient</text></g></g></g></g><g transform="translate(-56 -28.79999999999999)"><g transform="translate(0 0)"><g transform="translate(-184.0625 0)" fill="white"><rect x="0" y="0" width="184.0625" height="57.599999999999994" rx="0" ry="0" stroke="none"/><g font-family="sans-serif" font-size="16" font-weight="normal" fill="#000000" text-anchor="end"><text xml:space="preserve" x="78.765625" y="13.6" stroke="none">name:</text><text xml:space="preserve" x="83.5859375" y="13.6" stroke="none" text-anchor="start">"Alice Smith"</text><text xml:space="preserve" x="78.765625" y="32.8" stroke="none" text-anchor="end">birthDate:</text><text xml:space="preserve" x="83.5859375" y="32.8" stroke="none" text-anchor="start">1975-03-22</text><text xml:space="preserve" x="78.765625" y="52" stroke="none" text-anchor="end">id:</text><text xml:space="preserve" x="83.5859375" y="52" stroke="none" text-anchor="start">987-223-1345</text></g></g></g></g></g></g><g class="node"><g fill="#ffffff" stroke="#000000" stroke-width="4"><circle cx="-175.94829650469882" cy="-79.90304534521107" r="52"/></g><g transform="translate(-175.94829650469882 -79.90304534521107)"><g transform="scale(0.3725218825398889) translate(0 -27)"><g transform="translate(0 0)"><g transform="translate(-117.7421875 0)"><g fill="#ffffff" stroke="#000000" stroke-width="4"><rect x="0" y="0" width="235.484375" height="54" rx="27" ry="27"/><text xml:space="preserve" x="27" y="37.5" stroke="none" font-family="sans-serif" font-size="40" font-weight="normal" fill="#000000">Encounter</text></g></g></g></g><g transform="translate(3.429011037612589e-15 56)"><g transform="translate(0 0)"><g transform="translate(-73.3515625 0)" fill="white"><rect x="0" y="0" width="146.703125" height="57.599999999999994" rx="0" ry="0" stroke="none"/><g font-family="sans-serif" font-size="16" font-weight="normal" fill="#000000" text-anchor="end"><text xml:space="preserve" x="43.0859375" y="13.6" stroke="none">date:</text><text xml:space="preserve" x="47.90625" y="13.6" stroke="none" text-anchor="start">2025-11-10</text><text xml:space="preserve" x="43.0859375" y="32.8" stroke="none" text-anchor="end">id:</text><text xml:space="preserve" x="47.90625" y="32.8" stroke="none" text-anchor="start">enc-as75-001</text><text xml:space="preserve" x="43.0859375" y="52" stroke="none" text-anchor="end">type:</text><text xml:space="preserve" x="47.90625" y="52" stroke="none" text-anchor="start">"Inpatient"</text></g></g></g></g></g></g><g class="node"><g fill="#ffffff" stroke="#000000" stroke-width="4"><circle cx="180.10193695124826" cy="-435.9532788011581" r="52"/></g><g transform="translate(180.10193695124826 -435.9532788011581)"><g transform="scale(0.38810116576929093) translate(0 -27)"><g transform="translate(0 0)"><g transform="translate(-112.76171875 0)"><g fill="#ffffff" stroke="#000000" stroke-width="4"><rect x="0" y="0" width="225.5234375" height="54" rx="27" ry="27"/><text xml:space="preserve" x="27" y="37.5" stroke="none" font-family="sans-serif" font-size="40" font-weight="normal" fill="#000000">Condition</text></g></g></g></g><g transform="translate(3.429011037612589e-15 -94.4)"><g transform="translate(0 0)"><g transform="translate(-235.734375 0)" fill="white"><rect x="0" y="0" width="471.46875" height="38.4" rx="0" ry="0" stroke="none"/><g font-family="sans-serif" font-size="16" font-weight="normal" fill="#000000" text-anchor="end"><text xml:space="preserve" x="90.6640625" y="13.6" stroke="none">description:</text><text xml:space="preserve" x="95.484375" y="13.6" stroke="none" text-anchor="start">"Hypertensive disorder, systemic arterial (disorder)"</text><text xml:space="preserve" x="90.6640625" y="32.8" stroke="none" text-anchor="end">code:</text><text xml:space="preserve" x="95.484375" y="32.8" stroke="none" text-anchor="start">code: "38341003"</text></g></g></g></g></g></g><g class="node"><g fill="#ffffff" stroke="#000000" stroke-width="4"><circle cx="118.71444425517274" cy="232.1401256258565" r="52"/></g><g transform="translate(118.71444425517274 232.1401256258565)"><g transform="scale(0.43025906041638134) translate(0 -27)"><g transform="translate(0 0)"><g transform="translate(-101.04296875 0)"><g fill="#ffffff" stroke="#000000" stroke-width="4"><rect x="0" y="0" width="202.0859375" height="54" rx="27" ry="27"/><text xml:space="preserve" x="27" y="37.5" stroke="none" font-family="sans-serif" font-size="40" font-weight="normal" fill="#000000">Provider</text></g></g></g></g><g transform="translate(3.429011037612589e-15 56)"><g transform="translate(0 0)"><g transform="translate(-89.47265625 0)" fill="white"><rect x="0" y="0" width="178.9453125" height="38.4" rx="0" ry="0" stroke="none"/><g font-family="sans-serif" font-size="16" font-weight="normal" fill="#000000" text-anchor="end"><text xml:space="preserve" x="49.8515625" y="13.6" stroke="none">name:</text><text xml:space="preserve" x="54.671875" y="13.6" stroke="none" text-anchor="start">"Dr. Emily Smith"</text><text xml:space="preserve" x="49.8515625" y="32.8" stroke="none" text-anchor="end">id:</text><text xml:space="preserve" x="54.671875" y="32.8" stroke="none" text-anchor="start">"prov-001"</text></g></g></g></g></g></g><g class="node"><g fill="#ffffff" stroke="#000000" stroke-width="4"><circle cx="-154" cy="232.1401256258565" r="52"/></g><g transform="translate(-154 232.1401256258565)"><g transform="scale(0.3170882983373) translate(0 -27)"><g transform="translate(0 0)"><g transform="translate(-139.32421875 0)"><g fill="#ffffff" stroke="#000000" stroke-width="4"><rect x="0" y="0" width="278.6484375" height="54" rx="27" ry="27"/><text xml:space="preserve" x="27" y="37.5" stroke="none" font-family="sans-serif" font-size="40" font-weight="normal" fill="#000000">Organisation</text></g></g></g></g><g transform="translate(-56 -28.79999999999999)"><g transform="translate(0 0)"><g transform="translate(-251.953125 0)" fill="white"><rect x="0" y="0" width="251.953125" height="57.599999999999994" rx="0" ry="0" stroke="none"/><g font-family="sans-serif" font-size="16" font-weight="normal" fill="#000000" text-anchor="end"><text xml:space="preserve" x="64.828125" y="13.6" stroke="none">name:</text><text xml:space="preserve" x="69.6484375" y="13.6" stroke="none" text-anchor="start">"City Health Clinic"</text><text xml:space="preserve" x="64.828125" y="32.8" stroke="none" text-anchor="end">address:</text><text xml:space="preserve" x="69.6484375" y="32.8" stroke="none" text-anchor="start">"123 Main St, Metropolis"</text><text xml:space="preserve" x="64.828125" y="52" stroke="none" text-anchor="end">id:</text><text xml:space="preserve" x="69.6484375" y="52" stroke="none" text-anchor="start">"org-001"</text></g></g></g></g></g></g><g class="node"><g fill="#ffffff" stroke="#000000" stroke-width="4"><circle cx="391.4288885103455" cy="232.1401256258565" r="52"/></g><g transform="translate(391.4288885103455 232.1401256258565)"><g transform="scale(0.38354440372359266) translate(0 -27)"><g transform="translate(0 0)"><g transform="translate(-114.177734375 0)"><g fill="#ffffff" stroke="#000000" stroke-width="4"><rect x="0" y="0" width="228.35546875" height="54" rx="27" ry="27"/><text xml:space="preserve" x="27" y="37.5" stroke="none" font-family="sans-serif" font-size="40" font-weight="normal" fill="#000000">Speciality</text></g></g></g></g><g transform="translate(56 -9.6)"><g transform="translate(0 0)"><g transform="translate(0 0)" fill="white"><rect x="0" y="0" width="145.3671875" height="19.2" rx="0" ry="0" stroke="none"/><g font-family="sans-serif" font-size="16" font-weight="normal" fill="#000000" text-anchor="end"><text xml:space="preserve" x="49.8515625" y="13.6" stroke="none">name:</text><text xml:space="preserve" x="54.671875" y="13.6" stroke="none" text-anchor="start">"Cardiology"</text></g></g></g></g></g></g><g class="node"><g fill="#ffffff" stroke="#000000" stroke-width="4"><circle cx="118.71444425517272" cy="-118.91007357242214" r="52"/></g><g transform="translate(118.71444425517272 -118.91007357242214)"><g transform="scale(0.6150091362135075) translate(0 -27)"><g transform="translate(0 0)"><g transform="translate(-68.005859375 0)"><g fill="#ffffff" stroke="#000000" stroke-width="4"><rect x="0" y="0" width="136.01171875" height="54" rx="27" ry="27"/><text xml:space="preserve" x="27" y="37.5" stroke="none" font-family="sans-serif" font-size="40" font-weight="normal" fill="#000000">Drug</text></g></g></g></g><g transform="translate(3.429011037612589e-15 -132.8)"><g transform="translate(0 0)"><g transform="translate(-89.01953125 0)" fill="white"><rect x="0" y="0" width="178.0390625" height="76.8" rx="0" ry="0" stroke="none"/><g font-family="sans-serif" font-size="16" font-weight="normal" fill="#000000" text-anchor="end"><text xml:space="preserve" x="82.4921875" y="13.6" stroke="none">name:</text><text xml:space="preserve" x="87.3125" y="13.6" stroke="none" text-anchor="start">"Lisinopril"</text><text xml:space="preserve" x="82.4921875" y="32.8" stroke="none" text-anchor="end">code:</text><text xml:space="preserve" x="87.3125" y="32.8" stroke="none" text-anchor="start">"386873009"</text><text xml:space="preserve" x="82.4921875" y="52" stroke="none" text-anchor="end">dosage:</text><text xml:space="preserve" x="87.3125" y="52" stroke="none" text-anchor="start">"10 mg"</text><text xml:space="preserve" x="82.4921875" y="71.2" stroke="none" text-anchor="end">frequency:</text><text xml:space="preserve" x="87.3125" y="71.2" stroke="none" text-anchor="start">"Once daily"</text></g></g></g></g></g></g><g class="node"><g fill="#ffffff" stroke="#000000" stroke-width="4"><circle cx="352.51838560227117" cy="56.6150260267172" r="52"/></g><g transform="translate(352.51838560227117 56.6150260267172)"><g transform="scale(0.3725218825398889) translate(0 -27)"><g transform="translate(0 0)"><g transform="translate(-117.7421875 0)"><g fill="#ffffff" stroke="#000000" stroke-width="4"><rect x="0" y="0" width="235.484375" height="54" rx="27" ry="27"/><text xml:space="preserve" x="27" y="37.5" stroke="none" font-family="sans-serif" font-size="40" font-weight="normal" fill="#000000">Encounter</text></g></g></g></g><g transform="translate(39.59797974644666 39.597979746446654)"><g transform="translate(0 0)"><g transform="translate(0 0)" fill="white"><rect x="0" y="0" width="146.0078125" height="57.599999999999994" rx="0" ry="0" stroke="none"/><g font-family="sans-serif" font-size="16" font-weight="normal" fill="#000000" text-anchor="end"><text xml:space="preserve" x="43.0859375" y="13.6" stroke="none">date:</text><text xml:space="preserve" x="47.90625" y="13.6" stroke="none" text-anchor="start">2025-11-12</text><text xml:space="preserve" x="43.0859375" y="32.8" stroke="none" text-anchor="end">id:</text><text xml:space="preserve" x="47.90625" y="32.8" stroke="none" text-anchor="start">env-aj75-002</text><text xml:space="preserve" x="43.0859375" y="52" stroke="none" text-anchor="end">type:</text><text xml:space="preserve" x="47.90625" y="52" stroke="none" text-anchor="start">"Outpatient"</text></g></g></g></g></g></g><g class="node"><g fill="#ffffff" stroke="#000000" stroke-width="4"><circle cx="630.2681678906055" cy="-34.645052964636434" r="52"/></g><g transform="translate(630.2681678906055 -34.645052964636434)"><g transform="scale(0.32922309684284584) translate(0 -27)"><g transform="translate(0 0)"><g transform="translate(-133.9921875 0)"><g fill="#ffffff" stroke="#000000" stroke-width="4"><rect x="0" y="0" width="267.984375" height="54" rx="27" ry="27"/><text xml:space="preserve" x="27" y="37.5" stroke="none" font-family="sans-serif" font-size="40" font-weight="normal" fill="#000000">Observation</text></g></g></g></g><g transform="translate(56 -48)"><g transform="translate(0 0)"><g transform="translate(0 0)" fill="white"><rect x="0" y="0" width="335.234375" height="96" rx="0" ry="0" stroke="none"/><g font-family="sans-serif" font-size="16" font-weight="normal" fill="#000000" text-anchor="end"><text xml:space="preserve" x="86.1015625" y="13.6" stroke="none">code:</text><text xml:space="preserve" x="90.921875" y="13.6" stroke="none" text-anchor="start">"27113001"</text><text xml:space="preserve" x="86.1015625" y="32.8" stroke="none" text-anchor="end">descripton:</text><text xml:space="preserve" x="90.921875" y="32.8" stroke="none" text-anchor="start">"Body weight (observable entity)"</text><text xml:space="preserve" x="86.1015625" y="52" stroke="none" text-anchor="end">id:</text><text xml:space="preserve" x="90.921875" y="52" stroke="none" text-anchor="start">"obs-as75-022"</text><text xml:space="preserve" x="86.1015625" y="71.2" stroke="none" text-anchor="end">unit:</text><text xml:space="preserve" x="90.921875" y="71.2" stroke="none" text-anchor="start">"kg"</text><text xml:space="preserve" x="86.1015625" y="90.39999999999999" stroke="none" text-anchor="end">value:</text><text xml:space="preserve" x="90.921875" y="90.39999999999999" stroke="none" text-anchor="start">68.1</text></g></g></g></g></g></g><g class="node"><g fill="#ffffff" stroke="#000000" stroke-width="4"><circle cx="-251.54615846287027" cy="-248.22985434486924" r="52"/></g><g transform="translate(-251.54615846287027 -248.22985434486924)"><g transform="scale(0.32922309684284584) translate(0 -27)"><g transform="translate(0 0)"><g transform="translate(-133.9921875 0)"><g fill="#ffffff" stroke="#000000" stroke-width="4"><rect x="0" y="0" width="267.984375" height="54" rx="27" ry="27"/><text xml:space="preserve" x="27" y="37.5" stroke="none" font-family="sans-serif" font-size="40" font-weight="normal" fill="#000000">Observation</text></g></g></g></g><g transform="translate(-39.597979746446654 -135.59797974644667)"><g transform="translate(0 0)"><g transform="translate(-335.234375 0)" fill="white"><rect x="0" y="0" width="335.234375" height="96" rx="0" ry="0" stroke="none"/><g font-family="sans-serif" font-size="16" font-weight="normal" fill="#000000" text-anchor="end"><text xml:space="preserve" x="86.1015625" y="13.6" stroke="none">code:</text><text xml:space="preserve" x="90.921875" y="13.6" stroke="none" text-anchor="start">"27113001"</text><text xml:space="preserve" x="86.1015625" y="32.8" stroke="none" text-anchor="end">descripton:</text><text xml:space="preserve" x="90.921875" y="32.8" stroke="none" text-anchor="start">"Body weight (observable entity)"</text><text xml:space="preserve" x="86.1015625" y="52" stroke="none" text-anchor="end">id:</text><text xml:space="preserve" x="90.921875" y="52" stroke="none" text-anchor="start">"obs-as75-012"</text><text xml:space="preserve" x="86.1015625" y="71.2" stroke="none" text-anchor="end">unit:</text><text xml:space="preserve" x="90.921875" y="71.2" stroke="none" text-anchor="start">"kg"</text><text xml:space="preserve" x="86.1015625" y="90.39999999999999" stroke="none" text-anchor="end">value:</text><text xml:space="preserve" x="90.921875" y="90.39999999999999" stroke="none" text-anchor="start">68.0</text></g></g></g></g></g></g><g class="node"><g fill="#ffffff" stroke="#000000" stroke-width="4"><circle cx="-452.9302034613131" cy="-118.91007357242214" r="52"/></g><g transform="translate(-452.9302034613131 -118.91007357242214)"><g transform="scale(0.32922309684284584) translate(0 -27)"><g transform="translate(0 0)"><g transform="translate(-133.9921875 0)"><g fill="#ffffff" stroke="#000000" stroke-width="4"><rect x="0" y="0" width="267.984375" height="54" rx="27" ry="27"/><text xml:space="preserve" x="27" y="37.5" stroke="none" font-family="sans-serif" font-size="40" font-weight="normal" fill="#000000">Observation</text></g></g></g></g><g transform="translate(-56 -47.99999999999999)"><g transform="translate(0 0)"><g transform="translate(-352.8359375 0)" fill="white"><rect x="0" y="0" width="352.8359375" height="96" rx="0" ry="0" stroke="none"/><g font-family="sans-serif" font-size="16" font-weight="normal" fill="#000000" text-anchor="end"><text xml:space="preserve" x="86.1015625" y="13.6" stroke="none">code:</text><text xml:space="preserve" x="90.921875" y="13.6" stroke="none" text-anchor="start">"75367002"</text><text xml:space="preserve" x="86.1015625" y="32.8" stroke="none" text-anchor="end">descripton:</text><text xml:space="preserve" x="90.921875" y="32.8" stroke="none" text-anchor="start">"Blood pressure (observable entity)"</text><text xml:space="preserve" x="86.1015625" y="52" stroke="none" text-anchor="end">id:</text><text xml:space="preserve" x="90.921875" y="52" stroke="none" text-anchor="start">"obs-as75-011"</text><text xml:space="preserve" x="86.1015625" y="71.2" stroke="none" text-anchor="end">unit:</text><text xml:space="preserve" x="90.921875" y="71.2" stroke="none" text-anchor="start">"mmHg"</text><text xml:space="preserve" x="86.1015625" y="90.39999999999999" stroke="none" text-anchor="end">value:</text><text xml:space="preserve" x="90.921875" y="90.39999999999999" stroke="none" text-anchor="start">"175/80"</text></g></g></g></g></g></g><g class="node"><g fill="#ffffff" stroke="#000000" stroke-width="4"><circle cx="449.31235928946126" cy="-248.22985434486924" r="52"/></g><g transform="translate(449.31235928946126 -248.22985434486924)"><g transform="scale(0.32922309684284584) translate(0 -27)"><g transform="translate(0 0)"><g transform="translate(-133.9921875 0)"><g fill="#ffffff" stroke="#000000" stroke-width="4"><rect x="0" y="0" width="267.984375" height="54" rx="27" ry="27"/><text xml:space="preserve" x="27" y="37.5" stroke="none" font-family="sans-serif" font-size="40" font-weight="normal" fill="#000000">Observation</text></g></g></g></g><g transform="translate(3.429011037612589e-15 -152)"><g transform="translate(0 0)"><g transform="translate(-176.41796875 0)" fill="white"><rect x="0" y="0" width="352.8359375" height="96" rx="0" ry="0" stroke="none"/><g font-family="sans-serif" font-size="16" font-weight="normal" fill="#000000" text-anchor="end"><text xml:space="preserve" x="86.1015625" y="13.6" stroke="none">code:</text><text xml:space="preserve" x="90.921875" y="13.6" stroke="none" text-anchor="start">"75367002"</text><text xml:space="preserve" x="86.1015625" y="32.8" stroke="none" text-anchor="end">descripton:</text><text xml:space="preserve" x="90.921875" y="32.8" stroke="none" text-anchor="start">"Blood pressure (observable entity)"</text><text xml:space="preserve" x="86.1015625" y="52" stroke="none" text-anchor="end">id:</text><text xml:space="preserve" x="90.921875" y="52" stroke="none" text-anchor="start">"obs-as75-021"</text><text xml:space="preserve" x="86.1015625" y="71.2" stroke="none" text-anchor="end">unit:</text><text xml:space="preserve" x="90.921875" y="71.2" stroke="none" text-anchor="start">"mmHg"</text><text xml:space="preserve" x="86.1015625" y="90.39999999999999" stroke="none" text-anchor="end">value:</text><text xml:space="preserve" x="90.921875" y="90.39999999999999" stroke="none" text-anchor="start">"140/80"</text></g></g></g></g></g></g></g></svg>