<?xml version="1.0" encoding="UTF-8"?>
<svg id="Layer_1" data-name="Layer 1" xmlns="http://www.w3.org/2000/svg" viewBox="0 0 628.42 618.6">
  <defs>
    <style>
      .cls-1 {
        fill: #7db087;
      }

      .cls-2 {
        letter-spacing: -.03em;
      }

      .cls-3 {
        letter-spacing: 0em;
      }

      .cls-4 {
        letter-spacing: -.08em;
      }

      .cls-5 {
        fill: #ffcfff;
      }

      .cls-6 {
        font-size: 15px;
      }

      .cls-6, .cls-7 {
        font-family: MyriadPro-Regular, 'Myriad Pro';
      }

      .cls-8 {
        letter-spacing: .03em;
      }

      .cls-9 {
        letter-spacing: 0em;
      }

      .cls-10 {
        letter-spacing: -.04em;
      }

      .cls-11 {
        letter-spacing: -.01em;
      }

      .cls-12 {
        letter-spacing: 0em;
      }

      .cls-13 {
        fill: #ffc736;
      }

      .cls-14 {
        letter-spacing: 0em;
      }

      .cls-15 {
        letter-spacing: -.03em;
      }

      .cls-16 {
        letter-spacing: 0em;
      }

      .cls-17 {
        fill: #a5abb6;
      }

      .cls-18 {
        letter-spacing: -.02em;
      }

      .cls-19 {
        letter-spacing: -.06em;
      }

      .cls-20 {
        letter-spacing: .02em;
      }

      .cls-21 {
        fill: #71b6ff;
      }

      .cls-22 {
        letter-spacing: 0em;
      }

      .cls-23 {
        fill: #5dbd95;
      }

      .cls-24 {
        letter-spacing: 0em;
      }

      .cls-7 {
        fill: #6e767e;
        font-size: 10.96px;
      }

      .cls-25 {
        letter-spacing: .04em;
      }

      .cls-26 {
        letter-spacing: 0em;
      }

      .cls-27 {
        fill: none;
        stroke: #a5abb6;
        stroke-miterlimit: 10;
        stroke-width: 2px;
      }

      .cls-28 {
        letter-spacing: 0em;
      }

      .cls-29 {
        letter-spacing: 0em;
      }

      .cls-30 {
        fill: #c5aa7b;
      }

      .cls-31 {
        letter-spacing: -.01em;
      }

      .cls-32 {
        fill: #00b5dd;
      }

      .cls-33 {
        letter-spacing: .03em;
      }

      .cls-34 {
        letter-spacing: -.08em;
      }

      .cls-35 {
        letter-spacing: 0em;
      }

      .cls-36 {
        letter-spacing: -.02em;
      }

      .cls-37 {
        fill: #f6d653;
      }
    </style>
  </defs>
  <g>
    <circle class="cls-30" cx="45.96" cy="128.02" r="42.67"/>
    <text class="cls-6" transform="translate(23.97 132.42)"><tspan class="cls-15" x="0" y="0">P</tspan><tspan class="cls-12" x="7.59" y="0">a</tspan><tspan x="14.76" y="0">tie</tspan><tspan class="cls-12" x="30.75" y="0">n</tspan><tspan x="39.01" y="0">t</tspan></text>
  </g>
  <g>
    <circle class="cls-21" cx="42.67" cy="354.49" r="42.67"/>
    <text class="cls-6" transform="translate(26.9 358.89)"><tspan x="0" y="0">Drug</tspan></text>
  </g>
  <g>
    <circle class="cls-32" cx="225.05" cy="42.67" r="42.67"/>
    <text class="cls-6" transform="translate(186.57 46.2)"><tspan x="0" y="0">Obse</tspan><tspan class="cls-33" x="32.32" y="0">r</tspan><tspan class="cls-12" x="37.6" y="0">va</tspan><tspan x="51.93" y="0">tion</tspan></text>
  </g>
  <g>
    <circle class="cls-1" cx="356.47" cy="575.93" r="42.67"/>
    <text class="cls-6" transform="translate(326.41 580.33)"><tspan x="0" y="0">Speciali</tspan><tspan class="cls-3" x="47.95" y="0">t</tspan><tspan x="53.05" y="0">y</tspan></text>
  </g>
  <g>
    <circle class="cls-23" cx="585.75" cy="374.26" r="42.67"/>
    <text class="cls-6" transform="translate(545.39 378.67)"><tspan x="0" y="0">O</tspan><tspan class="cls-14" x="10.33" y="0">r</tspan><tspan x="15.12" y="0">ganis</tspan><tspan class="cls-12" x="48.51" y="0">a</tspan><tspan class="cls-16" x="55.68" y="0">tion</tspan></text>
  </g>
  <g>
    <circle class="cls-13" cx="376.06" cy="128.02" r="42.67"/>
    <text class="cls-6" transform="translate(345.01 132.42)"><tspan class="cls-31" x="0" y="0">C</tspan><tspan x="8.54" y="0">ondition</tspan></text>
  </g>
  <g>
    <circle class="cls-37" cx="385.74" cy="381.05" r="42.67"/>
    <text class="cls-6" transform="translate(359.63 385.45)"><tspan class="cls-18" x="0" y="0">P</tspan><tspan class="cls-22" x="7.74" y="0">r</tspan><tspan class="cls-26" x="12.5" y="0">o</tspan><tspan x="20.62" y="0">vider</tspan></text>
  </g>
  <g>
    <circle class="cls-5" cx="209.91" cy="244.18" r="42.67"/>
    <text class="cls-6" transform="translate(177.71 248.59)"><tspan x="0" y="0">En</tspan><tspan class="cls-29" x="15.7" y="0">c</tspan><tspan x="22.33" y="0">ou</tspan><tspan class="cls-9" x="38.83" y="0">n</tspan><tspan class="cls-29" x="47.1" y="0">t</tspan><tspan x="51.97" y="0">er</tspan></text>
  </g>
  <g>
    <line class="cls-27" x1="214.54" y1="197.46" x2="221.06" y2="100.26"/>
    <polygon class="cls-17" points="227.09 105.51 220.92 102.38 214.38 104.65 221.75 90.02 227.09 105.51"/>
  </g>
  <text class="cls-7" transform="translate(210.36 196.05) rotate(-86.45)"><tspan x="0" y="0">HAS_OBSE</tspan><tspan class="cls-20" x="49" y="0">R</tspan><tspan class="cls-19" x="55.07" y="0">V</tspan><tspan class="cls-4" x="60.56" y="0">A</tspan><tspan class="cls-24" x="66.42" y="0">TION</tspan></text>
  <g>
    <g>
      <line class="cls-27" x1="248.62" y1="218.81" x2="327.88" y2="162.17"/>
      <polygon class="cls-17" points="327.65 170.16 326.15 163.41 320.24 159.8 336.23 156.2 327.65 170.16"/>
    </g>
    <text class="cls-7" transform="translate(263.14 203.88) rotate(-35.84)"><tspan x="0" y="0">DI</tspan><tspan class="cls-11" x="9.91" y="0">A</tspan><tspan x="16.45" y="0">GNOSED</tspan></text>
  </g>
  <g>
    <g>
      <line class="cls-27" x1="252.58" y1="276.05" x2="340.69" y2="343.3"/>
      <polygon class="cls-17" points="332.99 345.43 339 342.01 340.72 335.3 348.86 349.53 332.99 345.43"/>
    </g>
    <text class="cls-7" transform="translate(277.32 290.86) rotate(37.06)"><tspan class="cls-34" x="0" y="0">A</tspan><tspan class="cls-25" x="5.86" y="0">T</tspan><tspan class="cls-24" x="11.72" y="0">TENDED_</tspan><tspan class="cls-11" x="55.22" y="0">B</tspan><tspan x="61" y="0">Y</tspan></text>
  </g>
  <g>
    <g>
      <line class="cls-27" x1="432.23" y1="375.82" x2="529.65" y2="376.32"/>
      <polygon class="cls-17" points="524.79 382.66 527.52 376.31 524.85 369.93 539.92 376.37 524.79 382.66"/>
    </g>
    <text class="cls-7" transform="translate(450.2 372.21)"><tspan x="0" y="0">BE</tspan><tspan class="cls-10" x="11.33" y="0">L</tspan><tspan class="cls-28" x="16.07" y="0">ONGS_</tspan><tspan class="cls-2" x="48.78" y="0">T</tspan><tspan x="53.93" y="0">O</tspan></text>
  </g>
  <g>
    <g>
      <line class="cls-27" x1="366.6" y1="521.74" x2="380.2" y2="428.01"/>
      <polygon class="cls-17" points="373.59 517.88 366.9 519.64 360.99 516.05 365.12 531.91 373.59 517.88"/>
    </g>
    <text class="cls-7" transform="translate(365.82 510.43) rotate(-83.08)"><tspan x="0" y="0">HAS_SPECIALI</tspan><tspan class="cls-8" x="64.81" y="0">T</tspan><tspan x="70.56" y="0">Y</tspan></text>
  </g>
  <text class="cls-7" transform="translate(179.42 364.85)"><tspan x="0" y="0">NE</tspan><tspan class="cls-35" x="12.6" y="0">X</tspan><tspan class="cls-24" x="18.94" y="0">T</tspan></text>
  <g>
    <g>
      <line class="cls-27" x1="90.92" y1="323.37" x2="173.85" y2="272.25"/>
      <polygon class="cls-17" points="98.38 326.26 92.73 322.26 91.69 315.41 82.18 328.76 98.38 326.26"/>
    </g>
    <text class="cls-7" transform="translate(106.52 309.25) rotate(-31.94)"><tspan x="0" y="0">PRESCRIBED</tspan></text>
  </g>
  <g>
    <g>
      <line class="cls-27" x1="88.12" y1="153.17" x2="166.54" y2="210.97"/>
      <polygon class="cls-17" points="158.87 213.23 164.83 209.71 166.43 202.98 174.8 217.07 158.87 213.23"/>
    </g>
    <text class="cls-7" transform="translate(97.2 153.78) rotate(36.11)"><tspan x="0" y="0">HAS_EN</tspan><tspan class="cls-36" x="37.32" y="0">C</tspan><tspan x="43.45" y="0">OUNTER</tspan></text>
  </g>
  <g>
    <path class="cls-27" d="M214.54,295.71c1.68,11.29,2.05,20.76,2.04,27.66-.02,13.55-1.54,18.97-4.85,23.41-1.42,1.91-4.74,6.35-9.96,6.64-4.83.26-8.36-3.21-9.19-4.09-3.53-3.71-4.19-8.77-4.09-14.55.17-9.87,2.52-19.46,5.23-27.39"/>
    <polygon class="cls-17" points="198.04 314.19 193.04 309.4 186.13 309.68 197.43 297.81 198.04 314.19"/>
  </g>
</svg>