<?xml version="1.0" encoding="UTF-8"?>
<svg id="Layer_1" data-name="Layer 1" xmlns="http://www.w3.org/2000/svg" viewBox="0 0 628.42 618.6">
  <defs>
    <style>
      .cls-1 {
        fill: #7db087;
      }

      .cls-2 {
        font-size: 13px;
      }

      .cls-2, .cls-3 {
        font-family: Verdana, Verdana;
      }

      .cls-4 {
        letter-spacing: -.02em;
      }

      .cls-5 {
        fill: #ffcfff;
      }

      .cls-3 {
        fill: #6e767e;
        font-size: 9px;
      }

      .cls-6 {
        letter-spacing: -.06em;
      }

      .cls-7 {
        letter-spacing: 0em;
      }

      .cls-8 {
        fill: #ffc736;
      }

      .cls-9 {
        fill: #a5abb6;
      }

      .cls-10 {
        fill: #71b6ff;
      }

      .cls-11 {
        fill: #5dbd95;
      }

      .cls-12 {
        letter-spacing: 0em;
      }

      .cls-13 {
        letter-spacing: 0em;
      }

      .cls-14 {
        letter-spacing: -.03em;
      }

      .cls-15 {
        fill: none;
        stroke: #a5abb6;
        stroke-miterlimit: 10;
        stroke-width: 2px;
      }

      .cls-16 {
        fill: #c5aa7b;
      }

      .cls-17 {
        letter-spacing: -.03em;
      }

      .cls-18 {
        letter-spacing: -.02em;
      }

      .cls-19 {
        fill: #00b5dd;
      }

      .cls-20 {
        fill: #f6d653;
      }
    </style>
  </defs>
  <g>
    <circle class="cls-16" cx="45.96" cy="128.02" r="42.67"/>
    <text class="cls-2" transform="translate(23.97 132.42)"><tspan class="cls-4" x="0" y="0">P</tspan><tspan x="7.52" y="0">atient</tspan></text>
  </g>
  <g>
    <circle class="cls-10" cx="42.67" cy="354.49" r="42.67"/>
    <text class="cls-2" transform="translate(26.9 358.89)"><tspan x="0" y="0">Drug</tspan></text>
  </g>
  <g>
    <circle class="cls-19" cx="225.05" cy="42.67" r="42.67"/>
    <text class="cls-2" transform="translate(185.83 46.2)"><tspan x="0" y="0">Obser</tspan><tspan class="cls-18" x="38.4" y="0">v</tspan><tspan x="45.84" y="0">ation</tspan></text>
  </g>
  <g>
    <circle class="cls-1" cx="356.47" cy="575.93" r="42.67"/>
    <text class="cls-2" transform="translate(325.09 580.33)"><tspan x="0" y="0">Speciali</tspan><tspan class="cls-12" x="50.01" y="0">t</tspan><tspan x="55.07" y="0">y</tspan></text>
  </g>
  <g>
    <circle class="cls-11" cx="585.75" cy="374.26" r="42.67"/>
    <text class="cls-2" transform="translate(544.31 378.67)"><tspan x="0" y="0">Organisation</tspan></text>
  </g>
  <g>
    <circle class="cls-8" cx="376.06" cy="128.02" r="42.67"/>
    <text class="cls-2" transform="translate(345.22 132.42)"><tspan x="0" y="0">Condition</tspan></text>
  </g>
  <g>
    <circle class="cls-20" cx="385.74" cy="381.05" r="42.67"/>
    <text class="cls-2" transform="translate(358.82 385.45)"><tspan x="0" y="0">Pr</tspan><tspan class="cls-13" x="13.39" y="0">o</tspan><tspan x="21.18" y="0">vider</tspan></text>
  </g>
  <g>
    <circle class="cls-5" cx="209.91" cy="244.18" r="42.67"/>
    <text class="cls-2" transform="translate(176.92 248.59)"><tspan x="0" y="0">Encounter</tspan></text>
  </g>
  <g>
    <line class="cls-15" x1="214.54" y1="197.46" x2="221.06" y2="100.26"/>
    <polygon class="cls-9" points="227.09 105.51 220.92 102.38 214.38 104.65 221.75 90.02 227.09 105.51"/>
  </g>
  <text class="cls-3" transform="translate(210.31 196.78) rotate(-86.45)"><tspan x="0" y="0">H</tspan><tspan class="cls-12" x="6.76" y="0">A</tspan><tspan x="12.87" y="0">S_OBSER</tspan><tspan class="cls-17" x="56.1" y="0">V</tspan><tspan class="cls-6" x="61.99" y="0">A</tspan><tspan x="67.61" y="0">TION</tspan></text>
  <g>
    <g>
      <line class="cls-15" x1="248.62" y1="218.81" x2="327.88" y2="162.17"/>
      <polygon class="cls-9" points="327.65 170.16 326.15 163.41 320.24 159.8 336.23 156.2 327.65 170.16"/>
    </g>
    <text class="cls-3" transform="translate(263.13 203.84) rotate(-35.84)"><tspan x="0" y="0">DIAGNOSED</tspan></text>
  </g>
  <g>
    <g>
      <line class="cls-15" x1="252.58" y1="276.05" x2="340.69" y2="343.3"/>
      <polygon class="cls-9" points="332.99 345.43 339 342.01 340.72 335.3 348.86 349.53 332.99 345.43"/>
    </g>
    <text class="cls-3" transform="translate(277.74 291.24) rotate(37.06)"><tspan class="cls-6" x="0" y="0">A</tspan><tspan class="cls-14" x="5.62" y="0">T</tspan><tspan x="10.86" y="0">TENDED_BY</tspan></text>
  </g>
  <g>
    <g>
      <line class="cls-15" x1="432.23" y1="375.82" x2="529.65" y2="376.32"/>
      <polygon class="cls-9" points="524.79 382.66 527.52 376.31 524.85 369.93 539.92 376.37 524.79 382.66"/>
    </g>
    <text class="cls-3" transform="translate(450.01 372.21)"><tspan x="0" y="0">BE</tspan><tspan class="cls-7" x="11.86" y="0">L</tspan><tspan x="16.78" y="0">ONGS_</tspan><tspan class="cls-4" x="49.45" y="0">T</tspan><tspan x="54.78" y="0">O</tspan></text>
  </g>
  <g>
    <g>
      <line class="cls-15" x1="364.66" y1="521.63" x2="382.08" y2="428.53"/>
      <polygon class="cls-9" points="371.81 518.05 365.05 519.54 359.29 515.71 362.77 531.72 371.81 518.05"/>
    </g>
    <text class="cls-3" transform="translate(364.27 511.08) rotate(-80.74)"><tspan x="0" y="0">H</tspan><tspan class="cls-12" x="6.76" y="0">A</tspan><tspan x="12.87" y="0">S_SPECIALITY</tspan></text>
  </g>
  <text class="cls-3" transform="translate(179.55 364.85)"><tspan x="0" y="0">NEXT</tspan></text>
  <g>
    <g>
      <line class="cls-15" x1="90.92" y1="323.37" x2="173.85" y2="272.25"/>
      <polygon class="cls-9" points="98.38 326.26 92.73 322.26 91.69 315.41 82.18 328.76 98.38 326.26"/>
    </g>
    <text class="cls-3" transform="translate(105.42 309.9) rotate(-31.94)"><tspan x="0" y="0">PRESCRIBED</tspan></text>
  </g>
  <g>
    <g>
      <line class="cls-15" x1="88.12" y1="153.17" x2="166.54" y2="210.97"/>
      <polygon class="cls-9" points="158.87 213.23 164.83 209.71 166.43 202.98 174.8 217.07 158.87 213.23"/>
    </g>
    <text class="cls-3" transform="translate(97.5 153.99) rotate(36.11)"><tspan x="0" y="0">H</tspan><tspan class="cls-12" x="6.76" y="0">A</tspan><tspan x="12.87" y="0">S_ENCOUNTER</tspan></text>
  </g>
  <g>
    <path class="cls-15" d="M214.54,295.71c1.68,11.29,2.05,20.76,2.04,27.66-.02,13.55-1.54,18.97-4.85,23.41-1.42,1.91-4.74,6.35-9.96,6.64-4.83.26-8.36-3.21-9.19-4.09-3.53-3.71-4.19-8.77-4.09-14.55.17-9.87,2.52-19.46,5.23-27.39"/>
    <polygon class="cls-9" points="198.04 314.19 193.04 309.4 186.13 309.68 197.43 297.81 198.04 314.19"/>
  </g>
</svg>